<svg preserveAspectRatio="none" width="100%" height="100%" overflow="visible" style="display: block;" viewBox="0 0 46 46" fill="none" xmlns="http://www.w3.org/2000/svg">
<g id="02.YouTube">
<path id="Vector" d="M19.8101 26.7115L26.1895 23.0104L19.8101 19.291V26.7115Z" fill="#F4A31D"/>
<path id="Vector_2" d="M23 0C18.451 0 14.0042 1.34893 10.2219 3.8762C6.43956 6.40347 3.4916 9.99558 1.75078 14.1983C0.00996549 18.401 -0.445511 23.0255 0.441949 27.4871C1.32941 31.9486 3.51995 36.0468 6.73655 39.2634C9.95316 42.4801 14.0514 44.6706 18.5129 45.5581C22.9745 46.4455 27.599 45.99 31.8017 44.2492C36.0044 42.5084 39.5965 39.5604 42.1238 35.7781C44.6511 31.9958 46 27.549 46 23C46 16.9 43.5768 11.0499 39.2635 6.73654C34.9501 2.42321 29.1 0 23 0ZM35.1053 27.0704C35.1057 27.6719 34.9875 28.2677 34.7576 28.8236C34.5277 29.3794 34.1905 29.8846 33.7652 30.3101C33.34 30.7356 32.8351 31.0731 32.2794 31.3034C31.7237 31.5337 31.128 31.6522 30.5264 31.6522H15.4736C14.872 31.6522 14.2763 31.5337 13.7206 31.3034C13.1649 31.0731 12.66 30.7356 12.2348 30.3101C11.8096 29.8846 11.4723 29.3794 11.2424 28.8236C11.0125 28.2677 10.8943 27.6719 10.8947 27.0704V18.9296C10.8943 18.328 11.0125 17.7323 11.2424 17.1764C11.4723 16.6206 11.8096 16.1154 12.2348 15.6899C12.66 15.2644 13.1649 14.9269 13.7206 14.6966C14.2763 14.4663 14.872 14.3478 15.4736 14.3478H30.5264C31.128 14.3478 31.7237 14.4663 32.2794 14.6966C32.8351 14.9269 33.34 15.2644 33.7652 15.6899C34.1905 16.1154 34.5277 16.6206 34.7576 17.1764C34.9875 17.7323 35.1057 18.328 35.1053 18.9296V27.0704Z" fill="#F4A31D"/>
</g>
</svg>
