<svg preserveAspectRatio="none" width="100%" height="100%" overflow="visible" style="display: block;" viewBox="0 0 46 46" fill="none" xmlns="http://www.w3.org/2000/svg">
<g id="Group 295">
<path id="Vector" d="M23 0C10.2994 0 4.88311e-05 10.2994 4.88311e-05 23C4.88311e-05 35.7006 10.2994 46 23 46C35.7007 46 46 35.7006 46 23C46 10.2994 35.7007 0 23 0ZM23.4875 36.3913C23.4879 36.3913 23.4872 36.3913 23.4875 36.3913H23.4819C21.1779 36.3902 18.9139 35.8126 16.9033 34.7162L9.60596 36.6299L11.559 29.4986C10.3542 27.4118 9.72037 25.0443 9.72142 22.6189C9.72458 15.0313 15.8999 8.85838 23.4875 8.85838C27.1697 8.85979 30.6262 10.2931 33.225 12.894C35.8242 15.4952 37.2547 18.9528 37.2533 22.6297C37.2501 30.2177 31.0741 36.3913 23.4875 36.3913Z" fill="#F4A31D"/>
<path id="Vector_2" d="M23.4921 11.1836C17.1809 11.1836 12.0482 16.3142 12.0454 22.6208C12.0447 24.7819 12.6498 26.8866 13.7949 28.7077L14.0669 29.1404L12.9109 33.3613L17.2413 32.2256L17.6592 32.4734C19.4158 33.5157 21.4295 34.0671 23.4826 34.0678H23.4872C29.7934 34.0678 34.9261 28.9369 34.9289 22.6299C34.9299 19.5735 33.7409 16.6999 31.5808 14.538C29.4207 12.3761 26.5478 11.1846 23.4921 11.1836ZM30.2219 27.5383C29.9352 28.3413 28.5612 29.0744 27.9004 29.1734C27.3076 29.2618 26.558 29.2987 25.7339 29.0372C25.2342 28.8786 24.5937 28.667 23.7728 28.3129C20.3226 26.8234 18.0692 23.3504 17.8972 23.1209C17.7252 22.8914 16.4927 21.2563 16.4927 19.5636C16.4927 17.8713 17.3813 17.0392 17.6964 16.6953C18.0119 16.351 18.3847 16.265 18.6138 16.265C18.843 16.265 19.0725 16.2671 19.2729 16.277C19.4842 16.2875 19.7678 16.1966 20.0468 16.8673C20.3335 17.5558 21.0214 19.2481 21.1073 19.4201C21.1933 19.5924 21.2505 19.7932 21.1361 20.0227C21.0214 20.2522 20.6402 20.7474 20.2763 21.1987C20.1236 21.3879 19.9246 21.5563 20.1254 21.9006C20.3258 22.2446 21.0164 23.3708 22.0388 24.2825C23.3527 25.454 24.461 25.8169 24.805 25.9892C25.1486 26.1612 25.3493 26.1324 25.55 25.9032C25.7504 25.6737 26.4099 24.8992 26.6391 24.5549C26.8682 24.2106 27.0977 24.2681 27.4129 24.3829C27.7284 24.4973 29.4193 25.3294 29.7632 25.5014C30.1072 25.6737 30.3363 25.7597 30.4223 25.9032C30.5087 26.0468 30.5087 26.735 30.2219 27.5383Z" fill="#F4A31D"/>
</g>
</svg>
