<svg preserveAspectRatio="none" width="100%" height="100%" overflow="visible" style="display: block;" viewBox="0 0 61 61" fill="none" xmlns="http://www.w3.org/2000/svg">
<g id="Outline">
<path id="Vector" d="M2.03333 19.3167H0V15.25C0.00151363 13.9023 0.537564 12.6102 1.49055 11.6572C2.44353 10.7043 3.73561 10.1682 5.08333 10.1667H39.65V8.13337H37.6167C37.4156 8.13338 37.219 8.07375 37.0518 7.96204C36.8846 7.85033 36.7543 7.69155 36.6774 7.50577C36.6004 7.31999 36.5803 7.11557 36.6195 6.91835C36.6587 6.72113 36.7556 6.53998 36.8978 6.39779L42.9978 0.297793C43.0922 0.203382 43.2042 0.12849 43.3276 0.0773941C43.4509 0.0262986 43.5832 0 43.7167 0C43.8502 0 43.9824 0.0262986 44.1057 0.0773941C44.2291 0.12849 44.3412 0.203382 44.4356 0.297793L50.5356 6.39779C50.6778 6.53998 50.7746 6.72113 50.8138 6.91835C50.8531 7.11557 50.8329 7.31999 50.756 7.50577C50.679 7.69155 50.5487 7.85033 50.3815 7.96204C50.2143 8.07375 50.0177 8.13338 49.8167 8.13337H47.7833V10.1667H51.85C53.1977 10.1682 54.4898 10.7043 55.4428 11.6572C56.3958 12.6102 56.9318 13.9023 56.9333 15.25V35.5834H54.9V15.25C54.8991 14.4414 54.5774 13.6662 54.0056 13.0944C53.4339 12.5226 52.6586 12.201 51.85 12.2H47.7833V30.5H45.75V7.1167C45.75 6.84707 45.8571 6.58847 46.0478 6.39781C46.2384 6.20715 46.497 6.10004 46.7667 6.10004H47.3623L43.7167 2.4544L40.071 6.10004H40.6667C40.9363 6.10004 41.1949 6.20715 41.3856 6.39781C41.5762 6.58847 41.6833 6.84707 41.6833 7.1167V31.5167H39.65V12.2H5.08333C4.27471 12.201 3.49948 12.5226 2.9277 13.0944C2.35592 13.6662 2.03428 14.4414 2.03333 15.25V19.3167ZM5.08333 50.8334H22.0168L19.5768 58.9667H17.2833V61H39.65V58.9667H37.3565L36.0488 54.6077L34.1012 55.1923L35.2336 58.9667H21.6992L24.1392 50.8334H31.5167V48.8H5.08333C4.27471 48.7991 3.49948 48.4775 2.9277 47.9057C2.35592 47.3339 2.03428 46.5587 2.03333 45.75V44.7334H30.5V42.7H2.03333V21.35H0V45.75C0.00151363 47.0978 0.537564 48.3898 1.49055 49.3428C2.44353 50.2958 3.73561 50.8319 5.08333 50.8334ZM35.5833 33.55V17.2834H31.5167V40.6667H5.08333V38.6334H9.15V30.5C9.15 30.2304 9.25711 29.9718 9.44777 29.7811C9.63844 29.5905 9.89703 29.4834 10.1667 29.4834H16.2667C16.5363 29.4834 16.7949 29.5905 16.9856 29.7811C17.1762 29.9718 17.2833 30.2304 17.2833 30.5V38.6334H19.3167V23.3834C19.3167 23.1137 19.4238 22.8551 19.6144 22.6645C19.8051 22.4738 20.0637 22.3667 20.3333 22.3667H26.4333C26.703 22.3667 26.9616 22.4738 27.1522 22.6645C27.3429 22.8551 27.45 23.1137 27.45 23.3834V38.6334H29.4833V16.2667C29.4833 15.9971 29.5904 15.7385 29.7811 15.5478C29.9718 15.3571 30.2304 15.25 30.5 15.25H36.6C36.8696 15.25 37.1282 15.3571 37.3189 15.5478C37.5096 15.7385 37.6167 15.9971 37.6167 16.2667V33.55H35.5833ZM15.25 31.5167H11.1833V38.6334H15.25V31.5167ZM25.4167 24.4H21.35V38.6334H25.4167V24.4ZM5.08333 14.2334V16.2667H7.11667V14.2334H5.08333ZM11.1833 14.2334H9.15V16.2667H11.1833V14.2334ZM13.2167 14.2334V16.2667H15.25V14.2334H13.2167ZM60.1062 55.7938C60.6763 56.3669 60.9974 57.1417 61 57.95C61.0004 58.3507 60.9217 58.7474 60.7686 59.1177C60.6154 59.4879 60.3908 59.8242 60.1075 60.1075C59.8242 60.3908 59.4878 60.6155 59.1176 60.7686C58.7474 60.9218 58.3506 61.0004 57.95 61C57.1426 60.993 56.3694 60.6725 55.7938 60.1063L50.9274 55.24C48.3676 56.75 45.345 57.2745 42.4262 56.7152C39.5073 56.1559 36.8927 54.5512 35.0725 52.2018C33.2522 49.8525 32.3514 46.92 32.5388 43.954C32.7263 40.9879 33.9891 38.1921 36.0906 36.0906C38.1921 33.9891 40.9879 32.7263 43.9539 32.5389C46.9199 32.3514 49.8525 33.2523 52.2018 35.0725C54.5511 36.8927 56.1558 39.5073 56.7152 42.4262C57.2745 45.345 56.75 48.3677 55.2399 50.9274L60.1062 55.7938ZM54.9 44.7334C54.9 42.7226 54.3037 40.757 53.1866 39.0851C52.0695 37.4132 50.4817 36.1101 48.6239 35.3406C46.7662 34.5711 44.7221 34.3698 42.7499 34.7621C40.7778 35.1543 38.9662 36.1226 37.5444 37.5445C36.1226 38.9663 35.1543 40.7778 34.762 42.75C34.3697 44.7221 34.5711 46.7663 35.3406 48.624C36.11 50.4817 37.4131 52.0695 39.085 53.1866C40.7569 54.3038 42.7226 54.9 44.7333 54.9C47.4288 54.897 50.0129 53.8249 51.9189 51.9189C53.8248 50.013 54.8969 47.4288 54.9 44.7334ZM58.6683 57.2318L54.0441 52.6073C53.6056 53.125 53.125 53.6056 52.6073 54.0441L57.2317 58.6683C57.3251 58.7667 57.4372 58.8453 57.5615 58.8996C57.6857 58.954 57.8196 58.9829 57.9552 58.9846C58.0908 58.9864 58.2254 58.961 58.351 58.9099C58.4766 58.8588 58.5908 58.7831 58.6867 58.6872C58.7825 58.5913 58.8583 58.4772 58.9093 58.3516C58.9604 58.2259 58.9858 58.0914 58.9841 57.9558C58.9823 57.8201 58.9534 57.6863 58.8991 57.562C58.8448 57.4378 58.7661 57.3256 58.6678 57.2323L58.6683 57.2318ZM52.8667 44.7334C52.8667 46.342 52.3897 47.9145 51.496 49.252C50.6022 50.5895 49.332 51.632 47.8458 52.2476C46.3597 52.8632 44.7243 53.0243 43.1466 52.7104C41.5689 52.3966 40.1197 51.622 38.9822 50.4845C37.8447 49.347 37.0701 47.8978 36.7563 46.3201C36.4425 44.7424 36.6035 43.1071 37.2191 41.6209C37.8347 40.1347 38.8772 38.8645 40.2147 37.9708C41.5522 37.0771 43.1247 36.6 44.7333 36.6C46.8897 36.6025 48.957 37.4601 50.4818 38.9849C52.0066 40.5097 52.8642 42.577 52.8667 44.7334ZM50.8333 44.7334C50.8333 43.5269 50.4756 42.3475 49.8053 41.3444C49.135 40.3413 48.1823 39.5594 47.0677 39.0977C45.9531 38.636 44.7266 38.5152 43.5433 38.7506C42.36 38.986 41.2731 39.5669 40.42 40.42C39.5669 41.2731 38.9859 42.36 38.7505 43.5433C38.5152 44.7266 38.636 45.9531 39.0977 47.0677C39.5594 48.1824 40.3412 49.1351 41.3444 49.8053C42.3475 50.4756 43.5269 50.8334 44.7333 50.8334C46.3506 50.8316 47.9011 50.1883 49.0447 49.0448C50.1883 47.9012 50.8315 46.3506 50.8333 44.7334ZM40.6667 44.7334H42.7C42.7006 44.1943 42.9151 43.6775 43.2963 43.2963C43.6774 42.9151 44.1943 42.7007 44.7333 42.7V40.6667C43.6552 40.6679 42.6215 41.0968 41.8591 41.8591C41.0967 42.6215 40.6679 43.6552 40.6667 44.7334ZM53.8833 6.10004H55.9167C55.9149 4.48276 55.2716 2.93224 54.128 1.78865C52.9845 0.645069 51.4339 0.00181987 49.8167 3.7086e-05V2.03337C50.8948 2.03458 51.9285 2.46342 52.6909 3.22581C53.4533 3.98819 53.8821 5.02186 53.8833 6.10004Z" fill="white"/>
</g>
</svg>
