<svg preserveAspectRatio="none" width="100%" height="100%" overflow="visible" style="display: block;" viewBox="0 0 53.3334 53.3333" fill="none" xmlns="http://www.w3.org/2000/svg">
<g id="02.YouTube">
<path id="Vector" d="M22.9683 30.9697L30.3648 26.6785L22.9683 22.3662V30.9697Z" fill="#F4A31D"/>
<path id="Vector_2" d="M26.6667 0C21.3926 0 16.2368 1.56397 11.8515 4.49414C7.46621 7.42431 4.04828 11.5891 2.02994 16.4618C0.0116075 21.3345 -0.516481 26.6962 0.512458 31.8691C1.5414 37.0419 4.08115 41.7934 7.81055 45.5228C11.5399 49.2522 16.2915 51.792 21.4643 52.8209C26.6371 53.8499 31.9989 53.3218 36.8716 51.3034C41.7443 49.2851 45.9091 45.8672 48.8392 41.4819C51.7694 37.0966 53.3334 31.9408 53.3334 26.6667C53.3334 19.5942 50.5239 12.8115 45.5229 7.81048C40.5219 2.80952 33.7392 0 26.6667 0ZM40.7018 31.386C40.7023 32.0834 40.5653 32.7741 40.2987 33.4186C40.0321 34.0631 39.6412 34.6488 39.1481 35.1421C38.6551 35.6354 38.0697 36.0268 37.4254 36.2938C36.7811 36.5608 36.0905 36.6982 35.393 36.6982H17.9404C17.243 36.6982 16.5523 36.5608 15.908 36.2938C15.2637 36.0268 14.6783 35.6354 14.1853 35.1421C13.6923 34.6488 13.3013 34.0631 13.0347 33.4186C12.7682 32.7741 12.6312 32.0834 12.6316 31.386V21.9474C12.6312 21.2499 12.7682 20.5592 13.0347 19.9147C13.3013 19.2702 13.6923 18.6846 14.1853 18.1912C14.6783 17.6979 15.2637 17.3065 15.908 17.0395C16.5523 16.7725 17.243 16.6351 17.9404 16.6351H35.393C36.0905 16.6351 36.7811 16.7725 37.4254 17.0395C38.0697 17.3065 38.6551 17.6979 39.1481 18.1912C39.6412 18.6846 40.0321 19.2702 40.2987 19.9147C40.5653 20.5592 40.7023 21.2499 40.7018 21.9474V31.386Z" fill="#F4A31D"/>
</g>
</svg>
