<svg preserveAspectRatio="none" width="100%" height="100%" overflow="visible" style="display: block;" viewBox="0 0 19.4181 18.9293" fill="none" xmlns="http://www.w3.org/2000/svg">
<g id="7-Check">
<path id="Vector" d="M2.0184 8.64493C1.63621 8.646 1.26214 8.75525 0.939451 8.96005C0.616766 9.16485 0.358658 9.45683 0.19499 9.8022C0.0313207 10.1476 -0.0312207 10.5322 0.014601 10.9117C0.0604227 11.2911 0.212735 11.6498 0.453916 11.9463L5.59534 18.2445C5.77865 18.4721 6.01363 18.6527 6.28076 18.7713C6.54789 18.8899 6.83946 18.943 7.13125 18.9263C7.7553 18.8928 8.31872 18.5589 8.67793 18.01L19.358 0.809851C19.3597 0.806997 19.3615 0.804144 19.3634 0.801334C19.4636 0.64747 19.4311 0.342553 19.2243 0.151001C19.1675 0.0983985 19.1005 0.0579852 19.0275 0.0322498C18.9544 0.00651436 18.8769 -0.00399819 18.7997 0.0013598C18.7224 0.00671778 18.6471 0.0278329 18.5783 0.0634044C18.5095 0.0989759 18.4488 0.148251 18.3997 0.208194C18.3959 0.212907 18.392 0.217549 18.3879 0.22212L7.61694 12.3917C7.57596 12.438 7.52618 12.4757 7.4705 12.5026C7.41482 12.5295 7.35435 12.5451 7.2926 12.5484C7.23084 12.5518 7.16905 12.5428 7.11079 12.5221C7.05253 12.5013 6.99898 12.4692 6.95324 12.4276L3.37856 9.17461C3.0073 8.83428 2.52205 8.64531 2.0184 8.64493Z" fill="#F4A31D"/>
</g>
</svg>
