<svg preserveAspectRatio="none" width="100%" height="100%" overflow="visible" style="display: block;" viewBox="0 0 18.7074 18.2365" fill="none" xmlns="http://www.w3.org/2000/svg">
<g id="7-Check">
<path id="Vector" d="M1.94453 8.32851C1.57632 8.32954 1.21594 8.4348 0.905066 8.6321C0.594192 8.82941 0.345531 9.1107 0.187853 9.44343C0.0301743 9.77616 -0.030078 10.1467 0.0140666 10.5123C0.0582112 10.8778 0.204948 11.2234 0.437302 11.509L5.39054 17.5767C5.56715 17.796 5.79353 17.97 6.05088 18.0843C6.30823 18.1985 6.58913 18.2497 6.87023 18.2335C7.47145 18.2013 8.01424 17.8796 8.36031 17.3508L18.6494 0.780209C18.6511 0.77746 18.6529 0.774711 18.6547 0.772004C18.7512 0.623772 18.7199 0.330015 18.5207 0.145474C18.4659 0.094797 18.4014 0.0558628 18.331 0.0310694C18.2607 0.00627592 18.186 -0.00385185 18.1116 0.00131003C18.0371 0.0064719 17.9646 0.0268141 17.8983 0.0610837C17.832 0.0953532 17.7735 0.142825 17.7263 0.200574C17.7226 0.205115 17.7188 0.209587 17.7149 0.21399L7.33815 11.9381C7.29867 11.9828 7.25071 12.0191 7.19707 12.045C7.14343 12.0709 7.08517 12.0859 7.02568 12.0892C6.96619 12.0924 6.90665 12.0837 6.85052 12.0637C6.7944 12.0438 6.7428 12.0128 6.69874 11.9727L3.2549 8.83881C2.89723 8.51093 2.42974 8.32888 1.94453 8.32851Z" fill="#F4A31D"/>
</g>
</svg>
