<svg preserveAspectRatio="none" width="100%" height="100%" overflow="visible" style="display: block;" viewBox="0 0 53.3334 53.3333" fill="none" xmlns="http://www.w3.org/2000/svg">
<g id="Group 17">
<path id="Vector" d="M26.6667 0C11.9413 0 0 11.9413 0 26.6667C0 41.392 11.9413 53.3333 26.6667 53.3333C41.392 53.3333 53.3333 41.392 53.3333 26.6667C53.3333 11.9413 41.392 0 26.6667 0ZM27.2319 42.1928C27.2323 42.1928 27.2314 42.1928 27.2319 42.1928H27.2253C24.554 42.1916 21.9291 41.5218 19.598 40.2507L11.1373 42.4695L13.4017 34.2013C12.0048 31.7818 11.2699 29.0369 11.2712 26.2248C11.2748 17.4276 18.4347 10.2706 27.2319 10.2706C31.5011 10.2722 35.5086 11.934 38.5217 14.9495C41.5352 17.9655 43.1938 21.9743 43.1921 26.2374C43.1885 35.035 36.0278 42.1928 27.2319 42.1928Z" fill="#F4A31D"/>
<path id="Vector_2" d="M27.2374 12.9658C19.9201 12.9658 13.9691 18.9143 13.9659 26.2263C13.9651 28.732 14.6666 31.1722 15.9943 33.2836L16.3096 33.7853L14.9693 38.6791L19.9901 37.3624L20.4747 37.6497C22.5112 38.8582 24.846 39.4974 27.2264 39.4982H27.2317C34.5433 39.4982 40.4942 33.5493 40.4975 26.2369C40.4987 22.6932 39.1201 19.3615 36.6156 16.855C34.1112 14.3485 30.7803 12.967 27.2374 12.9658ZM35.0401 31.9278C34.7077 32.8588 33.1146 33.7088 32.3485 33.8236C31.6612 33.9261 30.7921 33.9688 29.8367 33.6657C29.2572 33.4818 28.5146 33.2364 27.5629 32.8258C23.5626 31.099 20.9499 27.0723 20.7506 26.8062C20.5512 26.54 19.1221 24.6443 19.1221 22.6818C19.1221 20.7197 20.1524 19.755 20.5178 19.3562C20.8836 18.957 21.3157 18.8573 21.5814 18.8573C21.8472 18.8573 22.1133 18.8598 22.3456 18.8712C22.5906 18.8834 22.9193 18.778 23.2428 19.5556C23.5753 20.3539 24.3728 22.316 24.4725 22.5154C24.5722 22.7152 24.6385 22.9479 24.5058 23.214C24.3728 23.4801 23.9309 24.0543 23.5089 24.5776C23.3319 24.7969 23.1012 24.9922 23.334 25.3914C23.5663 25.7901 24.3671 27.0959 25.5524 28.153C27.0758 29.5112 28.3608 29.932 28.7596 30.1318C29.1579 30.3311 29.3907 30.2978 29.6234 30.0321C29.8558 29.766 30.6203 28.8679 30.8861 28.4687C31.1518 28.0696 31.4179 28.1363 31.7833 28.2694C32.1491 28.402 34.1095 29.3668 34.5083 29.5662C34.907 29.766 35.1728 29.8656 35.2724 30.0321C35.3725 30.1985 35.3725 30.9964 35.0401 31.9278Z" fill="#F4A31D"/>
</g>
</svg>
