<svg preserveAspectRatio="none" width="100%" height="100%" overflow="visible" style="display: block;" viewBox="0 0 29.3334 29.3335" fill="none" xmlns="http://www.w3.org/2000/svg">
<g id="Group 5">
<path id="Vector" d="M13.0778 19.5594C13.0643 19.4154 13.042 19.2722 13.0113 19.1305C13.0003 19.0781 12.9858 19.0305 12.9727 18.9806C12.9469 18.8822 12.9203 18.7847 12.8837 18.6885C12.8648 18.6361 12.8469 18.5837 12.8259 18.5312C12.7735 18.3998 12.7134 18.2716 12.6458 18.1473C12.6213 18.1028 12.5934 18.0604 12.5668 18.0169C12.5185 17.9374 12.4683 17.8599 12.4149 17.7834C12.3781 17.731 12.341 17.6821 12.3021 17.6335C12.2461 17.5627 12.1875 17.4957 12.1272 17.4302C12.0911 17.391 12.0571 17.3496 12.0197 17.3118C11.9261 17.2194 11.8276 17.132 11.7248 17.0499C11.6842 17.0169 11.6412 16.9867 11.5987 16.9557C11.5197 16.8974 11.4414 16.8424 11.3568 16.7913C11.3169 16.7665 11.2775 16.7419 11.2373 16.7184C10.9852 16.5754 10.7171 16.4626 10.4386 16.382C10.4028 16.3721 10.3667 16.3639 10.3306 16.3544C10.2202 16.326 10.1079 16.302 9.99483 16.2856C9.95544 16.28 9.91631 16.2726 9.87641 16.268C9.72781 16.2488 9.57844 16.2388 9.42856 16.238C9.11832 16.2386 8.8091 16.2774 8.50831 16.3534C6.88676 16.77 5.75346 18.2323 5.75448 19.9065C5.75525 21.5805 6.89008 23.0414 8.5119 23.4565C8.65282 23.4916 8.7958 23.5184 8.93979 23.5374L9.00271 23.5448C9.12573 23.5586 9.24953 23.5663 9.37357 23.5678H9.48304C9.56949 23.5678 9.6544 23.5619 9.73855 23.5545C9.80249 23.5489 9.86695 23.5409 9.93242 23.5315C9.95595 23.5284 9.97948 23.5243 10.0028 23.5205C10.3324 23.4668 10.6537 23.3696 10.958 23.2315L11.0015 23.2105C11.0655 23.1811 11.1294 23.1491 11.1944 23.1151C12.163 22.5803 12.8392 21.6375 13.0349 20.5485C13.0563 20.4211 13.0727 20.2945 13.0822 20.1676C13.0822 20.1247 13.0868 20.0812 13.0883 20.0377C13.0932 19.9162 13.0911 19.7952 13.0837 19.6748C13.0812 19.6364 13.0812 19.5978 13.0778 19.5594Z" fill="#F4A31D"/>
<path id="Vector_2" d="M18.3333 21.4763C18.6226 21.4763 18.8571 21.2418 18.8571 20.9525V18.8573C18.8571 18.568 18.6226 18.3335 18.3333 18.3335H17.7571C17.1056 18.3312 16.5228 17.9281 16.2905 17.3193C16.235 17.1738 16.1747 17.029 16.1102 16.8871C15.8409 16.2927 15.9659 15.5937 16.4245 15.1292L16.8348 14.7187C17.0391 14.5141 17.0391 14.1826 16.8348 13.978L15.3544 12.4976C15.149 12.2946 14.8186 12.2946 14.6132 12.4976L14.2032 12.9074C13.739 13.3665 13.0397 13.4913 12.4451 13.2217C12.3031 13.1573 12.1586 13.0974 12.0121 13.0414C11.4049 12.8084 11.0028 12.2268 11 11.5764V11.0001C11 10.7109 10.7655 10.4763 10.4762 10.4763H8.38095C8.09168 10.4763 7.85714 10.7109 7.85714 11.0001V11.5764C7.85484 12.2278 7.45175 12.8107 6.84302 13.0429C6.69749 13.0984 6.55273 13.1588 6.41078 13.2232C5.81638 13.4931 5.11711 13.368 4.6529 12.9089L4.24239 12.4987C4.03778 12.2943 3.70631 12.2943 3.5017 12.4987L2.02132 13.978C1.92311 14.0762 1.86786 14.2095 1.86786 14.3486C1.86786 14.4875 1.92311 14.621 2.02132 14.7192L2.43106 15.1292C2.88965 15.5937 3.01472 16.2927 2.74539 16.8871C2.68094 17.0293 2.62109 17.1738 2.56508 17.3204C2.33259 17.9281 1.75072 18.3304 1.10005 18.3335H0.523809C0.234538 18.3335 0 18.568 0 18.8573V20.9525C0 21.2418 0.234538 21.4763 0.523809 21.4763H1.10005C1.75149 21.4786 2.33438 21.8817 2.56661 22.4904C2.62212 22.636 2.68248 22.7807 2.74693 22.9227C3.01625 23.5171 2.89118 24.2161 2.43259 24.6805L2.02234 25.0911C1.81799 25.2957 1.81799 25.6271 2.02234 25.8318L3.50272 27.3121C3.60093 27.4103 3.73419 27.4656 3.87332 27.4656C4.0122 27.4656 4.14571 27.4103 4.24393 27.3121L4.65392 26.9024C5.11839 26.4441 5.8174 26.319 6.41206 26.5881C6.55401 26.6528 6.69852 26.7129 6.84507 26.7684C7.45226 27.0014 7.85432 27.583 7.85714 28.2334V28.8096C7.85714 29.0989 8.09168 29.3334 8.38095 29.3334H10.4762C10.7655 29.3334 11 29.0989 11 28.8096V28.2334C11.0023 27.582 11.4054 26.9991 12.0141 26.7668C12.1596 26.7113 12.3044 26.651 12.4464 26.5865C13.0408 26.3167 13.74 26.4418 14.2042 26.9009L14.6147 27.3111C14.8193 27.5155 15.1508 27.5155 15.3554 27.3111L16.8358 25.8307C16.934 25.7325 16.9893 25.5993 16.9893 25.4601C16.9893 25.3212 16.934 25.1877 16.8358 25.0895L16.4261 24.6795C15.9675 24.2151 15.8424 23.516 16.1117 22.9214C16.1764 22.7794 16.2366 22.6349 16.2921 22.4884C16.5251 21.8812 17.1067 21.4791 17.7571 21.4763H18.3333ZM14.1388 19.9929C14.1388 20.0872 14.1313 20.1814 14.1239 20.2763C14.1162 20.3811 14.1029 20.4806 14.0884 20.5816C13.9769 21.3456 13.7083 22.0784 13.2996 22.7334C13.2218 22.86 13.1275 22.9756 13.0188 23.0771C12.6167 23.4588 12.165 23.7849 11.6762 24.0468H11.6732C11.5847 24.0938 11.4972 24.1337 11.4113 24.1739C11.3435 24.2053 11.276 24.2378 11.2069 24.2662C11.1379 24.2943 11.0596 24.3184 10.9864 24.3468C10.913 24.3752 10.8435 24.3992 10.7701 24.4197C10.6757 24.4473 10.5841 24.4721 10.4918 24.4913C10.4396 24.5028 10.3918 24.5161 10.3406 24.5258C10.2092 24.5522 10.0787 24.5711 9.95289 24.5851C9.93626 24.5851 9.91938 24.5903 9.90045 24.5921C9.74341 24.6077 9.58612 24.6176 9.43803 24.6176C9.35311 24.6176 9.27715 24.6056 9.19556 24.6013C9.07279 24.5956 8.95079 24.5926 8.82879 24.5772C8.64413 24.5527 8.46075 24.5176 8.27992 24.4726C8.27097 24.4726 8.26202 24.4698 8.25358 24.4678C6.17113 23.9304 4.71556 22.0525 4.71479 19.9018C4.71403 17.7511 6.1678 15.872 8.24999 15.3331C8.41727 15.2924 8.58684 15.2607 8.75769 15.2382C8.81677 15.23 8.87637 15.2231 8.9357 15.2167C9.04824 15.2052 9.16027 15.199 9.27204 15.1957C9.32421 15.1957 9.37664 15.186 9.42908 15.186C10.4419 15.186 11.4271 15.5147 12.2371 16.1224L12.3231 16.1863C12.3891 16.2385 12.454 16.2919 12.5175 16.3467C12.5699 16.3927 12.6223 16.441 12.6745 16.4896C12.7175 16.5306 12.7604 16.5702 12.8014 16.6127C12.8794 16.6919 12.9538 16.7746 13.0262 16.86C13.0418 16.8784 13.0592 16.896 13.0743 16.915C13.2518 17.1293 13.4093 17.3592 13.5456 17.6017C13.5525 17.6137 13.5566 17.6268 13.5635 17.6388C13.65 17.7976 13.7272 17.9613 13.7945 18.1291C13.8239 18.201 13.8469 18.2731 13.874 18.346C13.9109 18.4509 13.9439 18.557 13.973 18.6649C13.9963 18.7498 14.0203 18.8342 14.0385 18.9197C14.0664 19.0501 14.0863 19.1816 14.1029 19.3171C14.1183 19.4419 14.1272 19.567 14.1324 19.6929C14.1354 19.7619 14.1428 19.8299 14.1428 19.9023C14.1428 19.9348 14.1393 19.9629 14.1388 19.9929Z" fill="#F4A31D"/>
<path id="Vector_3" d="M22.5358 10.5087C22.5568 10.5612 22.5732 10.6136 22.5923 10.6627C22.5732 10.6113 22.5568 10.5596 22.5358 10.5087Z" fill="#F4A31D"/>
<path id="Vector_4" d="M22.5923 15.5278C22.5732 15.5803 22.5568 15.6327 22.5358 15.6818C22.5568 15.6309 22.5732 15.5792 22.5923 15.5278Z" fill="#F4A31D"/>
<path id="Vector_5" d="M22.2488 9.89996C22.2849 9.96748 22.3148 10.0383 22.3488 10.1094C22.3143 10.0358 22.2849 9.96543 22.2488 9.89996Z" fill="#F4A31D"/>
<path id="Vector_6" d="M22.7816 14.9651C22.7737 14.992 22.7683 15.0175 22.7606 15.0454C22.7683 15.0186 22.7737 14.992 22.7816 14.9651Z" fill="#F4A31D"/>
<path id="Vector_7" d="M18.108 6.5517C18.1343 6.55963 18.1604 6.565 18.1883 6.57267C18.1614 6.565 18.1348 6.55963 18.108 6.5517Z" fill="#F4A31D"/>
<path id="Vector_8" d="M13.6515 6.79745C13.704 6.77648 13.7564 6.76011 13.8055 6.74093C13.7541 6.76011 13.7024 6.77648 13.6515 6.79745Z" fill="#F4A31D"/>
<path id="Vector_9" d="M22.7606 11.145C22.7683 11.1714 22.7737 11.1974 22.7816 11.2253C22.7737 11.1985 22.7683 11.1719 22.7606 11.145Z" fill="#F4A31D"/>
<path id="Vector_10" d="M19.2285 6.98449C19.2976 7.0185 19.3684 7.04843 19.438 7.08449C19.3679 7.04843 19.2976 7.01901 19.2285 6.98449Z" fill="#F4A31D"/>
<path id="Vector_11" d="M19.7802 7.28775C19.8582 7.33532 19.9372 7.37931 20.0142 7.4297C19.9377 7.3788 19.8582 7.33327 19.7802 7.28775Z" fill="#F4A31D"/>
<path id="Vector_12" d="M20.3436 7.67178C20.413 7.72421 20.4856 7.77332 20.5531 7.82882C20.4851 7.77281 20.4135 7.72472 20.3436 7.67178Z" fill="#F4A31D"/>
<path id="Vector_13" d="M21.5051 8.78029C21.5573 8.84781 21.6097 8.92045 21.6621 8.98976C21.6087 8.91994 21.5606 8.84832 21.5051 8.78029Z" fill="#F4A31D"/>
<path id="Vector_14" d="M18.6707 6.74093C18.7231 6.76011 18.7755 6.77648 18.8246 6.79745C18.7738 6.77648 18.7221 6.76011 18.6707 6.74093Z" fill="#F4A31D"/>
<path id="Vector_15" d="M21.9036 9.31905C21.956 9.39501 21.9979 9.47609 22.0455 9.55308C22 9.47507 21.9545 9.39553 21.9036 9.31905Z" fill="#F4A31D"/>
<path id="Vector_16" d="M14.2879 6.57267C14.3142 6.565 14.3403 6.55963 14.3682 6.5517C14.3413 6.55963 14.3147 6.565 14.2879 6.57267Z" fill="#F4A31D"/>
<path id="Vector_17" d="M11.923 7.8282C11.9906 7.77321 12.0627 7.72359 12.1325 7.67116C12.0627 7.72461 11.9911 7.7727 11.923 7.8282Z" fill="#F4A31D"/>
<path id="Vector_18" d="M21.6611 17.2013C21.6087 17.2706 21.5601 17.3428 21.5041 17.4108C21.5606 17.3423 21.6087 17.2706 21.6611 17.2013Z" fill="#F4A31D"/>
<path id="Vector_19" d="M12.462 7.4298C12.5374 7.37737 12.619 7.33543 12.695 7.28837C12.6175 7.33338 12.5384 7.37891 12.462 7.4298Z" fill="#F4A31D"/>
<path id="Vector_20" d="M13.0428 7.08449C13.1103 7.04843 13.1812 7.0185 13.2523 6.98449C13.1786 7.01901 13.1083 7.04843 13.0428 7.08449Z" fill="#F4A31D"/>
<path id="Vector_21" d="M22.3488 16.0856C22.3148 16.1547 22.2849 16.2255 22.2488 16.2951C22.2849 16.225 22.3143 16.1547 22.3488 16.0856Z" fill="#F4A31D"/>
<path id="Vector_22" d="M22.045 16.6384C21.9979 16.7159 21.9539 16.7954 21.9036 16.8714C21.9545 16.7949 22 16.7159 22.045 16.6384Z" fill="#F4A31D"/>
<path id="Vector_23" d="M28.8095 11H27.1621C26.4918 11.0025 25.895 10.5762 25.6802 9.94138C25.5326 9.50146 25.3544 9.07254 25.1464 8.65743C24.8472 8.05663 24.9661 7.33154 25.4418 6.8576L26.6099 5.68747C26.8143 5.48312 26.8143 5.1519 26.6099 4.94729L24.3865 2.72391C24.1819 2.5193 23.8505 2.5193 23.6458 2.72391L22.4757 3.89199C22.0018 4.36695 21.2774 4.48614 20.6764 4.18792C20.2613 3.97972 19.8321 3.8012 19.3919 3.65362C18.7569 3.43878 18.3305 2.84156 18.3333 2.1712V0.523809C18.3333 0.234538 18.0988 0 17.8095 0H14.6667C14.3774 0 14.1428 0.234538 14.1428 0.523809V2.1712C14.1454 2.84131 13.719 3.43801 13.0842 3.65311C12.6443 3.80069 12.2154 3.97895 11.8003 4.18689C11.1995 4.48665 10.4741 4.36772 10.0005 3.89148L8.83033 2.72391C8.62572 2.5193 8.29424 2.5193 8.08963 2.72391L5.86677 4.94677C5.66215 5.15139 5.66215 5.48286 5.86677 5.68747L9.60351 9.42856H10.4762H10.5046C10.7683 9.01243 11.0762 8.62597 11.4233 8.27608C11.5821 8.11725 11.7489 7.96635 11.9231 7.82414C11.9911 7.76864 12.0627 7.71928 12.1325 7.6671C12.2415 7.58423 12.3489 7.50034 12.4625 7.42438C12.5389 7.3722 12.6195 7.33026 12.6955 7.28294C12.8098 7.21337 12.9223 7.14201 13.0408 7.07935C13.1088 7.04303 13.1791 7.01336 13.2502 6.97935C13.3832 6.91387 13.5165 6.84891 13.6541 6.79213C13.7065 6.77115 13.7589 6.75504 13.8081 6.7356C13.9653 6.67499 14.1267 6.61616 14.2907 6.56756C14.3173 6.55964 14.3429 6.55452 14.3707 6.54659C15.592 6.19184 16.8893 6.19184 18.1108 6.54659C18.1374 6.55452 18.163 6.55964 18.1909 6.56756C18.3548 6.61616 18.5147 6.67499 18.6732 6.7356C18.7257 6.75504 18.7781 6.77115 18.8272 6.79213C18.9651 6.84891 19.0981 6.91387 19.2311 6.97935C19.3004 7.01336 19.3705 7.04303 19.4405 7.07935C19.559 7.14201 19.6712 7.21286 19.7848 7.28243C19.8628 7.33026 19.9418 7.37374 20.0188 7.42438C20.1326 7.50034 20.2401 7.58168 20.3485 7.66659C20.4181 7.71877 20.4899 7.76762 20.558 7.82363C20.9061 8.1083 21.225 8.42724 21.5097 8.77534C21.5652 8.84337 21.6145 8.91524 21.6667 8.98481C21.7491 9.09325 21.833 9.20068 21.9089 9.31449C21.9611 9.39097 22.0031 9.47153 22.0509 9.54852C22.1205 9.66208 22.1913 9.77436 22.254 9.89278C22.2903 9.96081 22.3199 10.0309 22.354 10.1023C22.4194 10.2353 22.4844 10.3682 22.5412 10.5061C22.5622 10.5585 22.5783 10.6107 22.5977 10.6601C22.6583 10.8171 22.7172 10.9785 22.7658 11.1425C22.7737 11.1693 22.7788 11.1949 22.7867 11.2225C23.1415 12.444 23.1415 13.7413 22.7867 14.9626C22.7788 14.9894 22.7737 15.015 22.7658 15.0426C22.7172 15.2066 22.6611 15.3664 22.5977 15.5253C22.5783 15.5774 22.5622 15.6299 22.5412 15.6792C22.4844 15.8168 22.4194 15.9501 22.354 16.0831C22.3199 16.1521 22.2903 16.2225 22.254 16.2926C22.1913 16.411 22.1199 16.5235 22.0504 16.6378C22.0031 16.7153 21.9596 16.7949 21.9089 16.8708C21.833 16.9844 21.7516 17.0918 21.6662 17.2008C21.614 17.2701 21.5657 17.3417 21.5092 17.4103C21.367 17.5844 21.2161 17.7512 21.0572 17.91C20.7073 18.2571 20.3209 18.565 19.9047 18.8287C19.9047 18.8387 19.9073 18.8477 19.9073 18.8571V19.7298L23.6458 23.4665C23.8502 23.6709 24.1814 23.6709 24.386 23.4665L26.6094 21.2437C26.814 21.0391 26.814 20.7076 26.6094 20.503L25.4413 19.3329C24.9659 18.8592 24.8467 18.1343 25.1454 17.5335C25.3536 17.1184 25.5321 16.6893 25.6797 16.2491C25.8945 15.614 26.4918 15.1877 27.1621 15.1905H28.8095C29.0988 15.1905 29.3333 14.9559 29.3333 14.6667V11.5238C29.3333 11.2345 29.0988 11 28.8095 11Z" fill="#F4A31D"/>
<path id="Vector_24" d="M18.8246 6.79753C18.9615 6.85354 19.095 6.91953 19.2285 6.9845C19.0955 6.91902 18.962 6.85405 18.8246 6.79753Z" fill="#F4A31D"/>
<path id="Vector_25" d="M19.4359 7.08447C19.5533 7.14688 19.6664 7.21798 19.7802 7.2878C19.6664 7.21798 19.5543 7.14739 19.4359 7.08447Z" fill="#F4A31D"/>
<path id="Vector_26" d="M13.8055 6.74106C13.9625 6.68019 14.1249 6.62111 14.2879 6.57277C14.1239 6.62162 13.9643 6.68019 13.8055 6.74106Z" fill="#F4A31D"/>
<path id="Vector_27" d="M18.1883 6.57277C18.3512 6.62111 18.5108 6.68019 18.6707 6.74106C18.5118 6.68019 18.3522 6.62162 18.1883 6.57277Z" fill="#F4A31D"/>
<path id="Vector_28" d="M12.695 7.28832C12.8093 7.21849 12.9228 7.14688 13.0402 7.08447C12.9218 7.14739 12.8093 7.21849 12.695 7.28832Z" fill="#F4A31D"/>
<path id="Vector_29" d="M12.132 7.67234C12.241 7.58947 12.3494 7.50532 12.462 7.42987C12.3484 7.50584 12.241 7.58947 12.132 7.67234Z" fill="#F4A31D"/>
<path id="Vector_30" d="M13.2477 6.9845C13.3812 6.91953 13.5147 6.85354 13.6515 6.79753C13.5142 6.85405 13.3807 6.91902 13.2477 6.9845Z" fill="#F4A31D"/>
<path id="Vector_31" d="M11.4233 8.28056C11.5834 8.11968 11.7512 7.96981 11.9231 7.82837C11.7489 7.97057 11.5821 8.12147 11.4233 8.28056Z" fill="#F4A31D"/>
<path id="Vector_32" d="M21.9036 16.8714C21.8281 16.984 21.7465 17.0924 21.6611 17.2014C21.744 17.0924 21.8276 16.985 21.9036 16.8714Z" fill="#F4A31D"/>
<path id="Vector_33" d="M22.5358 15.6819C22.4798 15.8188 22.4138 15.9523 22.3489 16.0858C22.4143 15.9528 22.4793 15.8193 22.5358 15.6819Z" fill="#F4A31D"/>
<path id="Vector_34" d="M22.2488 16.2905C22.1864 16.4079 22.1148 16.5215 22.045 16.6356C22.1148 16.524 22.1859 16.4115 22.2488 16.2905Z" fill="#F4A31D"/>
<path id="Vector_35" d="M20.0142 7.42987C20.1267 7.50532 20.2347 7.58691 20.3436 7.67183C20.2352 7.58947 20.1278 7.50584 20.0142 7.42987Z" fill="#F4A31D"/>
<path id="Vector_36" d="M22.7816 14.9652C23.1364 13.7439 23.1364 12.4467 22.7816 11.2254C23.1279 12.4479 23.1279 13.7426 22.7816 14.9652Z" fill="#F4A31D"/>
<path id="Vector_37" d="M18.108 6.55168C16.8867 6.19694 15.5895 6.19694 14.3682 6.55168C15.5907 6.20538 16.8854 6.20538 18.108 6.55168Z" fill="#F4A31D"/>
<path id="Vector_38" d="M21.5051 17.4104C21.3636 17.5823 21.2138 17.7501 21.0529 17.9102C21.212 17.7513 21.3629 17.5846 21.5051 17.4104Z" fill="#F4A31D"/>
<path id="Vector_39" d="M21.0529 8.28057C21.2138 8.44068 21.3636 8.60846 21.5051 8.78034C21.3629 8.60616 21.212 8.4394 21.0529 8.28057Z" fill="#F4A31D"/>
<path id="Vector_40" d="M21.6616 8.98976C21.744 9.09872 21.8281 9.20665 21.9036 9.31919C21.8276 9.20563 21.744 9.09821 21.6616 8.98976Z" fill="#F4A31D"/>
<path id="Vector_41" d="M20.5531 7.82837C20.725 7.96981 20.8928 8.11968 21.0529 8.28056C20.8941 8.12147 20.7273 7.97057 20.5531 7.82837Z" fill="#F4A31D"/>
<path id="Vector_42" d="M22.5923 10.6627C22.6532 10.8197 22.7123 10.9821 22.7606 11.145C22.7118 10.9811 22.6532 10.8215 22.5923 10.6627Z" fill="#F4A31D"/>
<path id="Vector_43" d="M22.0455 9.55311C22.1153 9.66692 22.1864 9.77997 22.2489 9.89737C22.1859 9.77895 22.1153 9.66692 22.0455 9.55311Z" fill="#F4A31D"/>
<path id="Vector_44" d="M22.7606 15.0455C22.7123 15.2084 22.6558 15.368 22.5923 15.5278C22.6532 15.369 22.7118 15.2094 22.7606 15.0455Z" fill="#F4A31D"/>
<path id="Vector_45" d="M22.3489 10.1049C22.4138 10.2384 22.4798 10.3719 22.5358 10.5087C22.4793 10.3714 22.4143 10.2379 22.3489 10.1049Z" fill="#F4A31D"/>
</g>
</svg>
