<svg preserveAspectRatio="none" width="100%" height="100%" overflow="visible" style="display: block;" viewBox="0 0 139.587 78.5235" fill="none" xmlns="http://www.w3.org/2000/svg">
<g id="Group 196">
<path id="Vector" fill-rule="evenodd" clip-rule="evenodd" d="M22.1219 62.0286H28.2422L27.0754 65.7606H26.1993L25.4411 69.025L28.9962 65.6426H28.1242L29.232 61.9149H35.9336L34.9438 65.8195H33.6043L24.923 74.5598H20.5507L22.7074 65.8195H21.3089C21.3089 65.8195 22.0671 61.9738 22.1261 62.0286H22.1219ZM40.4196 65.5837H42.7531L41.4726 70.8868H39.0843C39.0843 70.8868 40.4828 65.5837 40.4238 65.5837H40.4196ZM39.3413 62.0286H44.9266C46.0049 62.0286 46.6831 62.9089 46.4304 63.9872L44.4548 72.5085C44.2063 73.5868 43.1196 74.4671 42.0455 74.4671H36.4601C35.386 74.4671 34.7079 73.5868 34.9564 72.5085L36.9319 63.9872C37.1804 62.9131 38.2672 62.0286 39.3413 62.0286ZM48.3469 61.9149H52.4243L55.0485 67.6813L55.4571 65.8153H54.6989L55.4571 61.9696H60.9919L60.1157 65.8153L59.0079 65.9333L56.8513 74.5556H54.1134L51.4344 68.9029L49.918 74.4966H45.3141L46.0723 70.8278H47.2939L48.2837 65.8153H47.3528C47.3528 65.8153 48.2837 61.9696 48.3427 61.9106L48.3469 61.9149ZM16.1195 66.6915L13.4364 69.6063H15.2434C15.2434 69.6063 16.1743 66.7504 16.1195 66.6915ZM16.1195 62.0286L3.18393 75.259H1.37691L0.677687 78.4055H8.13745L8.92092 75.1916L7.97318 75.2295L9.65384 73.2203H14.3757L13.7944 75.259H11.7557L10.9975 78.5235H56.3248L56.8724 74.9684H17.3453L20.9593 61.9738C20.9593 61.9738 16.1237 61.9738 16.1237 62.0328L16.1195 62.0286Z" fill="white"/>
<path id="Vector_2" fill-rule="evenodd" clip-rule="evenodd" d="M131.441 63.6424C131.601 62.4882 132.822 61.9744 133.85 61.9744L133.871 61.8269H125.83L125.809 61.9744C126.841 61.9744 127.923 62.4882 127.763 63.6424L126.028 76.3168C125.868 77.4667 124.655 77.9343 123.627 77.9343L123.602 78.107H137.818L139.587 72.0035H139.393C138.075 75.188 134.684 77.909 132.506 77.909H131.377C130.35 77.909 129.554 77.4415 129.714 76.2915L131.445 63.6424H131.441ZM115.182 69.7922H114.444L115.506 62.046H117.001C119.992 62.046 121.988 64.131 123.138 66.2876H123.286L122.132 61.8269H109.681L109.659 61.9744C110.691 61.9744 111.77 62.4882 111.614 63.6424L109.878 76.3168C109.718 77.4667 108.505 77.9343 107.473 77.9343L107.452 78.107H121.597L123.53 72.3953H123.336C122.018 75.5839 118.539 77.909 116.357 77.909H115.228C114.196 77.909 113.404 77.4415 113.56 76.2915L114.419 70.0407H115.152C117.161 70.0407 118.796 72.2479 118.522 74.2571H118.695L119.823 66.0223H119.651C119.377 68.0315 117.199 69.7964 115.19 69.7964L115.182 69.7922ZM99.0321 69.7922H98.2992L99.3607 62.046H100.856C103.847 62.046 105.839 64.131 106.993 66.2876H107.141L105.986 61.8269H93.5352L93.5142 61.9744C94.5419 61.9744 95.6245 62.4882 95.4686 63.6424L93.7332 76.3168C93.5731 77.4667 92.36 77.9343 91.3323 77.9343L91.3112 78.107H105.451L107.385 72.3953H107.191C105.873 75.5839 102.393 77.909 100.212 77.909H99.0827C98.0549 77.909 97.2588 77.4415 97.4189 76.2915L98.2739 70.0407H99.0111C101.02 70.0407 102.655 72.2479 102.381 74.2571H102.553L103.682 66.0223H103.51C103.236 68.0315 101.058 69.7964 99.0448 69.7964L99.0321 69.7922ZM90.9363 61.8269H79.3191C78.9021 61.8269 78.4135 61.6332 78.4261 61.3594H78.304L76.3116 67.1427H76.4591C77.7522 64.1268 80.9577 62.0417 83.2617 62.0417L81.3115 76.2831C81.1556 77.433 79.9383 77.9006 78.9105 77.9006L78.8853 78.0944H86.9263L86.9516 77.9006C85.9238 77.9006 84.8329 77.433 84.9929 76.2831L86.9432 62.0417C89.2472 62.0417 91.8798 64.1268 92.3474 67.1427H92.4948L92.0862 61.3594H91.9641C91.9009 61.629 91.3617 61.8269 90.9447 61.8269H90.9363ZM74.4583 67.2438H74.5804L74.8289 61.8269H74.7068C74.6225 62.0965 74.3782 62.4419 74.0328 62.4419C73.1019 62.4419 72.0405 61.4099 70.3009 61.4099C67.4576 61.4099 64.9767 63.7856 64.5934 66.5825C64.3322 68.4948 65.2252 69.6489 66.4593 70.4787C67.8746 71.4349 69.7743 72.0457 70.92 73.0018C71.6235 73.5915 72.0615 74.3245 71.9141 75.4028C71.7161 76.8476 70.6589 78.2965 69.2141 78.2965C65.8823 78.2965 64.6102 73.6168 64.349 71.9235H64.2269L63.3929 78.027H63.4645C63.5909 77.6605 63.8899 77.4373 64.2564 77.4373C65.1157 77.4373 66.1013 78.4692 69.092 78.4692C72.0826 78.4692 74.5762 75.8451 74.9258 73.2714C75.1828 71.3844 74.5552 70.2555 73.5864 69.4468C72.3522 68.4443 70.5789 67.9767 69.231 67.2438C68.0431 66.6035 67.2007 65.7737 67.4197 64.1773C67.6303 62.6357 68.7002 61.629 70.0229 61.629C72.4238 61.629 74.1508 65.5042 74.4498 67.2438H74.4583Z" fill="white"/>
<path id="Vector_3" fill-rule="evenodd" clip-rule="evenodd" d="M6.61312 64.2778L7.18176 65.672H5.58113L4.85664 64.2273C4.85664 64.2273 6.56257 64.2273 6.61312 64.2778ZM4.80609 58.2839L5.46741 59.9898H8.06211V60.5585H5.68644L6.18769 61.8516H8.46648V62.4202H6.40672L6.88691 63.6628H8.993V64.2315H7.11015L7.64931 65.6257H10.9053L15.2986 60.9755H17.569V58.2881C17.569 58.2881 4.80609 58.2375 4.80609 58.2881V58.2839ZM1.75648 62.416L2.27458 63.6039H6.35618L5.85914 62.416H1.75648ZM0.94774 60.5585L1.51217 61.8516H5.62747L5.08831 60.5585H0.94774ZM0 58.385L0.699221 59.9856H4.84822L4.13636 58.2797C3.46241 58.3555 0 58.2881 0 58.385Z" fill="white"/>
<path id="Vector_4" fill-rule="evenodd" clip-rule="evenodd" d="M89.0626 28.5389L81.3997 36.64H86.5665C86.5665 36.64 89.2373 28.6987 89.0626 28.5389ZM83.4849 48.6669C79.6637 50.7147 75.2775 51.8834 70.6037 51.8834C69.1554 51.8834 67.7481 51.7735 66.3716 51.5638L70.5729 46.6791H84.0704L83.4849 48.6669ZM67.3988 21.2169L68.7856 24.5332H64.8822L63.1154 21.097C63.1154 21.097 67.2756 21.097 67.3988 21.2169ZM55.5449 16.8017L56.8083 19.6186H66.7723L65.5601 16.8017H55.5449ZM53.5624 12.3865L54.9388 15.4532H64.9849L63.6701 12.3865H53.5726H53.5624ZM70.6037 2.05474e-06C77.6401 2.05474e-06 84.0293 2.64712 88.7956 6.9724C79.8897 6.94243 62.9819 6.90247 62.9819 6.99238L64.5946 11.038H70.9222V12.3865H65.1287L66.3511 15.4532H71.9186V16.8017H66.8955L68.0665 19.7485H73.2026V21.097H68.6007L69.9258 24.4134H77.8661L88.5901 13.3754H93.9419C94.3219 14.0447 94.6712 14.7339 94.9999 15.4432C91.8977 15.4631 89.0626 15.5031 89.0626 15.583L56.4899 47.9777C48.9502 43.3927 43.9272 35.2416 43.9272 25.9617C43.9272 18.9094 46.8239 12.5064 51.5182 7.83146L52.9666 11.0579H63.0948L61.3486 7.01235C60.0543 7.1522 54.4869 7.08228 52.2167 7.16219C57.0035 2.73702 63.4749 0.0199803 70.6037 0.0199803V2.05474e-06Z" fill="white"/>
</g>
</svg>
