<svg preserveAspectRatio="none" width="100%" height="100%" overflow="visible" style="display: block;" viewBox="0 0 53.3334 53.3333" fill="none" xmlns="http://www.w3.org/2000/svg">
<g id="Group 16">
<path id="Vector" d="M31.7709 26.6667C31.7709 29.4857 29.4858 31.7708 26.6667 31.7708C23.8477 31.7708 21.5626 29.4857 21.5626 26.6667C21.5626 23.8477 23.8477 21.5625 26.6667 21.5625C29.4858 21.5625 31.7709 23.8477 31.7709 26.6667Z" fill="#F4A31D"/>
<path id="Vector_2" d="M38.6038 17.6358C38.3585 16.9709 37.967 16.3691 37.4584 15.8752C36.9644 15.3665 36.363 14.9751 35.6978 14.7297C35.1582 14.5202 34.3477 14.2708 32.8547 14.2028C31.2397 14.1292 30.7555 14.1133 26.667 14.1133C22.578 14.1133 22.0938 14.1287 20.4792 14.2024C18.9863 14.2708 18.1754 14.5202 17.6362 14.7297C16.9709 14.9751 16.3691 15.3665 15.8756 15.8752C15.3669 16.3691 14.9755 16.9705 14.7297 17.6358C14.5202 18.1754 14.2708 18.9863 14.2028 20.4792C14.1292 22.0938 14.1133 22.578 14.1133 26.667C14.1133 30.7555 14.1292 31.2397 14.2028 32.8547C14.2708 34.3477 14.5202 35.1582 14.7297 35.6978C14.9755 36.363 15.3665 36.9644 15.8752 37.4584C16.3691 37.967 16.9705 38.3585 17.6358 38.6038C18.1754 38.8138 18.9863 39.0632 20.4792 39.1312C22.0938 39.2048 22.5776 39.2203 26.6666 39.2203C30.7559 39.2203 31.2402 39.2048 32.8543 39.1312C34.3473 39.0632 35.1582 38.8138 35.6978 38.6038C37.0332 38.0887 38.0887 37.0332 38.6038 35.6978C38.8134 35.1582 39.0628 34.3477 39.1312 32.8547C39.2048 31.2397 39.2203 30.7555 39.2203 26.667C39.2203 22.578 39.2048 22.0938 39.1312 20.4792C39.0632 18.9863 38.8138 18.1754 38.6038 17.6358ZM26.667 34.5295C22.3241 34.5295 18.8036 31.0094 18.8036 26.6666C18.8036 22.3237 22.3241 18.8036 26.667 18.8036C31.0094 18.8036 34.5299 22.3237 34.5299 26.6666C34.5299 31.0094 31.0094 34.5295 26.667 34.5295ZM34.8408 20.3303C33.826 20.3303 33.0033 19.5076 33.0033 18.4928C33.0033 17.4779 33.826 16.6552 34.8408 16.6552C35.8556 16.6552 36.6784 17.4779 36.6784 18.4928C36.678 19.5076 35.8556 20.3303 34.8408 20.3303Z" fill="#F4A31D"/>
<path id="Vector_3" d="M26.6667 0C11.9414 0 8.13901e-05 11.9413 8.13901e-05 26.6667C8.13901e-05 41.392 11.9414 53.3333 26.6667 53.3333C41.3921 53.3333 53.3334 41.392 53.3334 26.6667C53.3334 11.9413 41.3921 0 26.6667 0ZM41.8869 32.9797C41.8128 34.6098 41.5536 35.7227 41.1752 36.6968C40.3797 38.7537 38.7537 40.3796 36.6969 41.1751C35.7231 41.5535 34.6099 41.8123 32.9802 41.8868C31.3473 41.9613 30.8257 41.9792 26.6672 41.9792C22.5082 41.9792 21.987 41.9613 20.3537 41.8868C18.724 41.8123 17.6108 41.5535 16.637 41.1751C15.6149 40.7906 14.6896 40.188 13.9246 39.4088C13.1458 38.6442 12.5432 37.7185 12.1587 36.6968C11.7803 35.7231 11.5211 34.6098 11.447 32.9801C11.3717 31.3468 11.3542 30.8252 11.3542 26.6667C11.3542 22.5081 11.3717 21.9865 11.4466 20.3536C11.5207 18.7236 11.7795 17.6107 12.1579 16.6366C12.5424 15.6148 13.1454 14.6891 13.9246 13.9246C14.6892 13.1453 15.6149 12.5427 16.6366 12.1582C17.6108 11.7798 18.7236 11.521 20.3537 11.4465C21.9866 11.3721 22.5082 11.3542 26.6667 11.3542C30.8253 11.3542 31.3469 11.3721 32.9798 11.4469C34.6099 11.521 35.7227 11.7798 36.6969 12.1578C37.7186 12.5423 38.6443 13.1453 39.4093 13.9246C40.1881 14.6895 40.7911 15.6148 41.1752 16.6366C41.554 17.6107 41.8128 18.7236 41.8873 20.3536C41.9618 21.9865 41.9792 22.5081 41.9792 26.6667C41.9792 30.8252 41.9618 31.3468 41.8869 32.9797Z" fill="#F4A31D"/>
</g>
</svg>
