<svg preserveAspectRatio="none" width="100%" height="100%" overflow="visible" style="display: block;" viewBox="0 0 30 30" fill="none" xmlns="http://www.w3.org/2000/svg">
<g id="Group">
<path id="Vector" d="M5.27344 26.4844H7.03125V30H5.27344V26.4844Z" fill="#F4A31D"/>
<path id="Vector_2" d="M11.4258 12.7148H0.878906C0.393516 12.7148 0 13.1084 0 13.5938V29.1211C0 29.6065 0.393516 30 0.878906 30H3.51562V25.6055C3.51562 25.1201 3.90914 24.7266 4.39453 24.7266H7.91016C8.39555 24.7266 8.78906 25.1201 8.78906 25.6055V30H11.4258C11.9112 30 12.3047 29.6065 12.3047 29.1211V13.5938C12.3047 13.1084 11.9112 12.7148 11.4258 12.7148ZM5.27344 22.0898C5.27344 22.5752 4.87992 22.9688 4.39453 22.9688C3.90914 22.9688 3.51562 22.5752 3.51562 22.0898V20.918C3.51562 20.4326 3.90914 20.0391 4.39453 20.0391C4.87992 20.0391 5.27344 20.4326 5.27344 20.918V22.0898ZM5.27344 17.4023C5.27344 17.8877 4.87992 18.2812 4.39453 18.2812C3.90914 18.2812 3.51562 17.8877 3.51562 17.4023V16.2305C3.51562 15.7451 3.90914 15.3516 4.39453 15.3516C4.87992 15.3516 5.27344 15.7451 5.27344 16.2305V17.4023ZM8.78906 22.0898C8.78906 22.5752 8.39555 22.9688 7.91016 22.9688C7.42477 22.9688 7.03125 22.5752 7.03125 22.0898V20.918C7.03125 20.4326 7.42477 20.0391 7.91016 20.0391C8.39555 20.0391 8.78906 20.4326 8.78906 20.918V22.0898ZM8.78906 17.4023C8.78906 17.8877 8.39555 18.2812 7.91016 18.2812C7.42477 18.2812 7.03125 17.8877 7.03125 17.4023V16.2305C7.03125 15.7451 7.42477 15.3516 7.91016 15.3516C8.39555 15.3516 8.78906 15.7451 8.78906 16.2305V17.4023Z" fill="#F4A31D"/>
<path id="Vector_3" d="M10.5469 9.19922C10.5469 8.71383 10.1534 8.32031 9.66797 8.32031H2.63672C2.15133 8.32031 1.75781 8.71383 1.75781 9.19922V10.957H10.5469V9.19922Z" fill="#F4A31D"/>
<path id="Vector_4" d="M22.9688 26.4844H24.7266V30H22.9688V26.4844Z" fill="#F4A31D"/>
<path id="Vector_5" d="M29.1211 12.7148H18.5742C18.0888 12.7148 17.6953 13.1084 17.6953 13.5938V29.1211C17.6953 29.6065 18.0888 30 18.5742 30H21.2109V25.6055C21.2109 25.1201 21.6045 24.7266 22.0898 24.7266H25.6055C26.0909 24.7266 26.4844 25.1201 26.4844 25.6055V30H29.1211C29.6065 30 30 29.6065 30 29.1211V13.5938C30 13.1084 29.6065 12.7148 29.1211 12.7148ZM22.9688 22.0898C22.9688 22.5752 22.5752 22.9688 22.0898 22.9688C21.6045 22.9688 21.2109 22.5752 21.2109 22.0898V20.918C21.2109 20.4326 21.6045 20.0391 22.0898 20.0391C22.5752 20.0391 22.9688 20.4326 22.9688 20.918V22.0898ZM22.9688 17.4023C22.9688 17.8877 22.5752 18.2812 22.0898 18.2812C21.6045 18.2812 21.2109 17.8877 21.2109 17.4023V16.2305C21.2109 15.7451 21.6045 15.3516 22.0898 15.3516C22.5752 15.3516 22.9688 15.7451 22.9688 16.2305V17.4023ZM26.4844 22.0898C26.4844 22.5752 26.0909 22.9688 25.6055 22.9688C25.1201 22.9688 24.7266 22.5752 24.7266 22.0898V20.918C24.7266 20.4326 25.1201 20.0391 25.6055 20.0391C26.0909 20.0391 26.4844 20.4326 26.4844 20.918V22.0898ZM26.4844 17.4023C26.4844 17.8877 26.0909 18.2812 25.6055 18.2812C25.1201 18.2812 24.7266 17.8877 24.7266 17.4023V16.2305C24.7266 15.7451 25.1201 15.3516 25.6055 15.3516C26.0909 15.3516 26.4844 15.7451 26.4844 16.2305V17.4023Z" fill="#F4A31D"/>
<path id="Vector_6" d="M19.4531 9.19922V10.957H28.2422V9.19922C28.2422 8.71383 27.8487 8.32031 27.3633 8.32031H20.332C19.8466 8.32031 19.4531 8.71383 19.4531 9.19922Z" fill="#F4A31D"/>
<path id="Vector_7" d="M5.53081 6.89104C5.87405 7.23428 6.43052 7.23428 6.77376 6.89104L9.11751 4.54729C9.46075 4.20404 9.46075 3.64758 9.11751 3.30434C8.77427 2.96109 8.2178 2.96109 7.87456 3.30434L7.03122 4.14768V1.75781H22.9687V4.14768L22.1254 3.30434C21.7821 2.96109 21.2257 2.96109 20.8824 3.30434C20.5392 3.64758 20.5392 4.20404 20.8824 4.54729L23.2262 6.89104C23.5694 7.23428 24.1259 7.23428 24.4691 6.89104L26.8129 4.54729C27.1561 4.20404 27.1561 3.64758 26.8129 3.30434C26.4696 2.96109 25.9132 2.96109 25.5699 3.30434L24.7265 4.14768V0.878906C24.7265 0.393516 24.333 0 23.8476 0H6.15231C5.66692 0 5.27341 0.393516 5.27341 0.878906V4.14768L4.43007 3.30428C4.08683 2.96104 3.53036 2.96104 3.18712 3.30428C2.84388 3.64752 2.84388 4.20398 3.18712 4.54723L5.53081 6.89104Z" fill="#F4A31D"/>
</g>
</svg>
