<svg preserveAspectRatio="none" width="100%" height="100%" overflow="visible" style="display: block;" viewBox="0 0 140 81" fill="none" xmlns="http://www.w3.org/2000/svg">
<g id="Group 263">
<path id="Ellipse 16" d="M70 0.5C89.258 0.5 106.668 5.01728 119.247 12.2949C131.839 19.5801 139.5 29.57 139.5 40.5C139.5 51.43 131.839 61.4199 119.247 68.7051C106.668 75.9827 89.258 80.5 70 80.5C50.742 80.5 33.3316 75.9827 20.7529 68.7051C8.16127 61.4199 0.5 51.43 0.5 40.5C0.5 29.57 8.16127 19.5801 20.7529 12.2949C33.3316 5.01728 50.742 0.5 70 0.5Z" stroke="white"/>
<path id="Ellipse 17" d="M70 4.62838C87.3614 4.62838 103.067 8.66391 114.424 15.1753C125.787 21.6905 132.75 30.6539 132.75 40.5004C132.75 50.3468 125.787 59.3095 114.424 65.8247C103.067 72.336 87.3614 76.3715 70 76.3715C52.6386 76.3715 36.9327 72.336 25.5762 65.8247C14.2132 59.3095 7.25021 50.3468 7.25 40.5004C7.25 30.6539 14.213 21.6905 25.5762 15.1753C36.9327 8.66391 52.6386 4.62838 70 4.62838Z" stroke="white" stroke-width="0.5"/>
</g>
</svg>
