<svg preserveAspectRatio="none" width="100%" height="100%" overflow="visible" style="display: block;" viewBox="0 0 32.002 31.6165" fill="none" xmlns="http://www.w3.org/2000/svg">
<g id="Group 8">
<path id="Vector" fill-rule="evenodd" clip-rule="evenodd" d="M18.0226 0.683262L20.0551 2.2047C20.6111 2.62079 21.1962 2.83374 21.8895 2.87234L24.4244 3.01335C25.9423 3.09775 27.1751 4.13216 27.5218 5.61239L28.1009 8.08435C28.2592 8.76039 28.5706 9.29963 29.0769 9.77479L30.9281 11.5123C32.0366 12.5526 32.316 14.1375 31.6302 15.4942L30.4849 17.7601C30.1717 18.3798 30.0635 18.9929 30.1459 19.6824L30.4473 22.2033C30.6277 23.7128 29.8231 25.1065 28.4256 25.705L26.0917 26.7045C25.4534 26.9779 24.9765 27.3781 24.5965 27.9592L23.2068 30.084C22.3748 31.3563 20.8625 31.9067 19.4074 31.4669L16.9771 30.7324C16.3124 30.5316 15.6898 30.5316 15.0251 30.7324L12.5948 31.4669C11.1396 31.9067 9.6274 31.3563 8.79534 30.084L7.40572 27.9592C7.02563 27.3781 6.54866 26.9779 5.91042 26.7045L3.5764 25.7048C2.17897 25.1063 1.37432 23.7127 1.55473 22.2032L1.85608 19.6822C1.93849 18.9928 1.83035 18.3796 1.51713 17.7599L0.371787 15.4941C-0.313992 14.1374 -0.0345732 12.5526 1.0739 11.5122L2.92516 9.77466C3.43146 9.2995 3.74274 8.76026 3.90109 8.08422L4.48019 5.61225C4.82688 4.13209 6.05969 3.09769 7.57759 3.01322L10.1125 2.87221C10.8058 2.83367 11.3909 2.62066 11.9468 2.20456L13.9793 0.683128C15.1963 -0.227732 16.8056 -0.227732 18.0226 0.683262ZM14.7044 16.6789L12.4987 14.4732C11.9269 13.9015 10.9996 13.9015 10.428 14.4732C9.85628 15.0449 9.85628 15.9721 10.428 16.5438L13.6723 19.7881C14.244 20.3597 15.1713 20.3598 15.7429 19.7881C17.6984 17.8325 19.6317 15.8551 21.5782 13.8906C22.1458 13.3178 22.144 12.3934 21.5719 11.8245C20.9997 11.2555 20.0727 11.2571 19.5045 11.8309L14.7044 16.6789ZM16.001 4.90441C12.99 4.90441 10.264 6.12489 8.29084 8.09808C6.31765 10.0713 5.09716 12.7973 5.09716 15.8082C5.09716 18.8191 6.31765 21.5451 8.29084 23.5183C10.264 25.4915 12.99 26.712 16.001 26.712C19.0119 26.712 21.7379 25.4915 23.7111 23.5183C25.6843 21.5451 26.9047 18.8191 26.9047 15.8082C26.9047 12.7973 25.6843 10.0713 23.7111 8.09808C21.7379 6.12489 19.0119 4.90441 16.001 4.90441ZM22.9568 8.85233C21.1767 7.07222 18.7174 5.97114 16.001 5.97114C13.2845 5.97114 10.8252 7.07222 9.04509 8.85233C7.26497 10.6325 6.1639 13.0917 6.1639 15.8082C6.1639 18.5246 7.26497 20.9839 9.04509 22.764C10.8252 24.5442 13.2845 25.6452 16.001 25.6452C18.7174 25.6452 21.1767 24.5442 22.9568 22.7641C24.7369 20.984 25.8379 18.5247 25.8379 15.8083C25.838 13.0917 24.7369 10.6325 22.9568 8.85233Z" fill="#F4A31D"/>
</g>
</svg>
