<svg preserveAspectRatio="none" width="100%" height="100%" overflow="visible" style="display: block;" viewBox="0 0 46 46" fill="none" xmlns="http://www.w3.org/2000/svg">
<g id="Group 294">
<path id="Vector" d="M27.4023 23C27.4023 25.4314 25.4314 27.4023 23 27.4023C20.5686 27.4023 18.5977 25.4314 18.5977 23C18.5977 20.5686 20.5686 18.5977 23 18.5977C25.4314 18.5977 27.4023 20.5686 27.4023 23Z" fill="#F4A31D"/>
<path id="Vector_2" d="M33.2958 15.2109C33.0842 14.6374 32.7466 14.1184 32.3079 13.6923C31.8818 13.2536 31.3631 12.916 30.7893 12.7044C30.324 12.5237 29.6249 12.3085 28.3372 12.2499C26.9443 12.1864 26.5266 12.1727 23.0003 12.1727C19.4736 12.1727 19.0559 12.186 17.6634 12.2496C16.3757 12.3085 15.6763 12.5237 15.2112 12.7044C14.6374 12.916 14.1184 13.2536 13.6927 13.6923C13.254 14.1184 12.9164 14.6371 12.7044 15.2109C12.5237 15.6763 12.3085 16.3757 12.2499 17.6634C12.1864 19.0559 12.1727 19.4736 12.1727 23.0003C12.1727 26.5266 12.1864 26.9443 12.2499 28.3372C12.3085 29.6249 12.5237 30.3239 12.7044 30.7893C12.9164 31.3631 13.2536 31.8818 13.6923 32.3079C14.1184 32.7466 14.6371 33.0842 15.2109 33.2958C15.6763 33.4769 16.3757 33.692 17.6634 33.7506C19.0559 33.8142 19.4732 33.8275 22.9999 33.8275C26.527 33.8275 26.9446 33.8142 28.3369 33.7506C29.6245 33.692 30.324 33.4769 30.7893 33.2958C31.9411 32.8515 32.8515 31.9411 33.2958 30.7893C33.4766 30.3239 33.6917 29.6249 33.7506 28.3372C33.8142 26.9443 33.8275 26.5266 33.8275 23.0003C33.8275 19.4736 33.8142 19.0559 33.7506 17.6634C33.692 16.3757 33.4769 15.6763 33.2958 15.2109ZM23.0003 29.7817C19.2546 29.7817 16.2181 26.7456 16.2181 22.9999C16.2181 19.2542 19.2546 16.2181 23.0003 16.2181C26.7456 16.2181 29.7821 19.2542 29.7821 22.9999C29.7821 26.7456 26.7456 29.7817 23.0003 29.7817ZM30.0502 17.5349C29.1749 17.5349 28.4653 16.8253 28.4653 15.95C28.4653 15.0747 29.1749 14.3651 30.0502 14.3651C30.9255 14.3651 31.6351 15.0747 31.6351 15.95C31.6348 16.8253 30.9255 17.5349 30.0502 17.5349Z" fill="#F4A31D"/>
<path id="Vector_3" d="M23 0C10.2994 0 0 10.2994 0 23C0 35.7006 10.2994 46 23 46C35.7006 46 46 35.7006 46 23C46 10.2994 35.7006 0 23 0ZM36.1274 28.445C36.0635 29.8509 35.8399 30.8108 35.5135 31.651C34.8274 33.425 33.425 34.8274 31.651 35.5135C30.8111 35.8399 29.8509 36.0631 28.4454 36.1274C27.037 36.1916 26.5871 36.207 23.0004 36.207C19.4133 36.207 18.9637 36.1916 17.555 36.1274C16.1494 36.0631 15.1892 35.8399 14.3494 35.5135C13.4678 35.1819 12.6697 34.6621 12.0099 33.9901C11.3382 33.3306 10.8185 32.5322 10.4868 31.651C10.1604 30.8111 9.93686 29.8509 9.87299 28.4454C9.80806 27.0367 9.79297 26.5867 9.79297 23C9.79297 19.4133 9.80806 18.9633 9.87263 17.555C9.93651 16.1491 10.1597 15.1892 10.4861 14.349C10.8177 13.4678 11.3379 12.6694 12.0099 12.0099C12.6694 11.3379 13.4678 10.8181 14.349 10.4865C15.1892 10.1601 16.1491 9.93686 17.555 9.87263C18.9633 9.80841 19.4133 9.79297 23 9.79297C26.5867 9.79297 27.0367 9.80841 28.445 9.87299C29.8509 9.93686 30.8108 10.1601 31.651 10.4861C32.5322 10.8177 33.3306 11.3379 33.9904 12.0099C34.6621 12.6697 35.1823 13.4678 35.5135 14.349C35.8403 15.1892 36.0635 16.1491 36.1277 17.555C36.1919 18.9633 36.207 19.4133 36.207 23C36.207 26.5867 36.1919 27.0367 36.1274 28.445Z" fill="#F4A31D"/>
</g>
</svg>
