<svg preserveAspectRatio="none" width="100%" height="100%" overflow="visible" style="display: block;" viewBox="0 0 145.504 61.79" fill="none" xmlns="http://www.w3.org/2000/svg">
<g id="Group 219">
<path id="Vector" d="M32.8869 29.8736C32.8886 25.0649 32.1263 20.9604 30.759 16.9713C29.2396 12.5345 26.9343 8.5953 23.5169 5.38436C23.3716 5.24835 23.2549 5.07446 23.0386 5.02453C22.0533 4.79555 20.8668 5.55309 20.5524 6.53961C20.3344 7.2214 20.6691 7.67076 21.0071 8.16488C23.5575 11.9078 25.0566 15.9917 24.9755 20.6127C24.9467 22.2603 24.2859 23.5533 23.069 24.5587C21.5716 25.7966 19.7581 26.0997 17.904 26.2116C14.9869 26.3889 12.0951 25.9602 9.19321 25.7915C8.78927 25.7674 8.55604 25.8707 8.34984 26.2047C7.78027 27.1206 7.84957 28.1553 8.60505 29.1178C9.28954 29.9907 10.0535 30.6862 11.2737 30.1353C11.3971 30.0802 11.5509 30.0836 11.6912 30.0733C15.6613 29.7806 18.5801 31.6022 20.4155 35.0214C22.9828 39.8025 22.5383 44.6043 19.8325 49.2115C18.1407 52.0919 15.6968 54.1872 12.832 55.7849C12.3419 56.0587 12.2996 56.31 12.5903 56.7215C12.7188 56.904 12.832 57.1072 12.9875 57.2604C13.6399 57.9043 14.6455 57.9835 15.3824 57.455C16.2748 56.8162 17.1722 56.1861 18.0477 55.5249C21.1778 53.1645 24.0493 50.5217 26.5067 47.4313C30.7083 42.1457 32.9494 36.1422 32.8869 29.8701V29.8736Z" fill="white"/>
<path id="Vector_2" d="M60.7889 30.0782C60.7889 27.3321 60.7958 24.5876 60.7837 21.8414C60.7785 20.6008 60.0007 19.5865 58.8592 19.2579C57.1149 18.7566 55.3949 19.9822 55.3654 21.8012C55.3291 23.9857 55.3412 26.1702 55.3654 28.3548C55.3706 28.8376 55.2182 28.9583 54.7349 28.9533C52.8296 28.9281 50.9242 28.9248 49.0205 28.9533C48.4818 28.9617 48.2844 28.8577 48.2965 28.281C48.3363 26.1367 48.3086 23.9924 48.3138 21.8481C48.3138 21.2479 48.1579 20.6997 47.782 20.2202C47.0736 19.3183 45.8039 18.9243 44.7334 19.2696C43.5469 19.6519 42.8609 20.5622 42.8592 21.8213C42.8523 28.2944 42.8557 34.7675 42.854 41.2406C42.854 41.5843 42.9042 41.9213 43.0116 42.2465C43.4135 43.4771 44.6572 44.2114 46.0187 44.0337C47.3247 43.8627 48.2913 42.8316 48.3051 41.5156C48.3277 39.2908 48.3242 37.066 48.3017 34.843C48.2965 34.4087 48.39 34.2646 48.8716 34.2713C50.8185 34.3014 52.7655 34.2998 54.7107 34.2713C55.2165 34.2646 55.3741 34.3853 55.3672 34.8949C55.336 37.0392 55.3447 39.1835 55.3585 41.3278C55.3672 42.6103 56.0652 43.5928 57.1582 43.9281C58.9666 44.4813 60.7698 43.2089 60.7819 41.3244C60.8027 38.0787 60.7871 34.8312 60.7889 31.5855C60.7889 31.0842 60.7889 30.5829 60.7889 30.0833V30.0782Z" fill="white"/>
<path id="Vector_3" d="M114.943 25.1249C110.616 25.1652 105.784 28.9059 105.686 34.429C105.607 38.8169 105.647 43.2082 105.674 47.5979C105.684 49.1069 106.93 50.1565 108.424 50.0291C109.847 49.9084 110.768 48.9107 110.785 47.4302C110.802 46.0134 110.788 44.5982 110.788 43.1797C111.058 43.158 111.218 43.2938 111.402 43.3592C114.274 44.3937 117.105 44.3384 119.793 42.8394C123.622 40.7016 125.377 36.3472 124.227 32.0866C123.124 27.9955 119.22 25.0847 114.943 25.1249ZM115.149 38.9829C112.683 38.9829 110.782 37.0715 110.79 34.6C110.8 32.1638 112.703 30.2624 115.134 30.2624C117.546 30.2624 119.464 32.1939 119.455 34.6185C119.447 37.0832 117.575 38.9813 115.149 38.9829Z" fill="white"/>
<path id="Vector_4" d="M89.8483 26.247C86.4753 28.1383 84.7082 31.0182 84.7115 34.9251C84.7115 36.8702 84.7115 38.8153 84.7115 40.7603C84.7115 42.9471 84.7099 45.1321 84.7132 47.3189C84.7132 47.678 84.7065 48.0355 84.8324 48.3862C85.2519 49.5476 86.3947 50.1954 87.7204 50.0074C88.8934 49.8412 89.7778 48.8662 89.8047 47.6528C89.8315 46.3891 89.8147 45.1254 89.8164 43.8634C89.8164 43.0964 89.8131 43.1065 90.5028 43.3733C92.4276 44.1151 94.4212 44.2678 96.4081 43.7795C101.37 42.556 104.253 38.1876 103.539 33.0891C102.657 26.7991 95.3777 23.1473 89.8483 26.2487V26.247ZM94.1812 38.9747C91.7328 38.9478 89.8198 37.0363 89.8215 34.618C89.8231 32.1711 91.7731 30.2378 94.2299 30.2479C96.6061 30.2563 98.5511 32.203 98.5561 34.5777C98.5628 37.0397 96.6095 38.9999 94.1812 38.9747Z" fill="white"/>
<path id="Vector_5" d="M82.7112 34.7005C82.733 32.165 81.8523 29.955 80.1396 28.1256C76.9068 24.6721 71.7603 24.1229 67.8578 26.8754C62.0584 30.9649 62.4569 39.491 69.0013 42.9713C71.8273 44.4752 74.7672 44.3851 77.6351 42.9229C77.8962 42.7893 78.0385 42.7776 78.216 43.043C78.4755 43.432 78.8505 43.699 79.3042 43.8476C81.0069 44.4068 82.6509 43.24 82.7011 41.4022C82.7346 40.1453 82.7078 38.8885 82.7078 37.6316C82.7078 36.6534 82.7011 35.6753 82.7095 34.6988L82.7112 34.7005ZM73.2336 38.9452C70.9718 38.9385 68.9025 36.8621 68.8991 34.6004C68.8975 32.2702 70.9266 30.2221 73.2386 30.2238C75.5574 30.2238 77.6099 32.2685 77.6083 34.577C77.6083 37.0023 75.6528 38.9536 73.2319 38.9452H73.2336Z" fill="white"/>
<path id="Vector_6" d="M145.045 33.1013C143.554 33.12 142.062 33.1251 140.572 33.0979C140.145 33.091 140.1 33.2633 140.103 33.6027C140.112 34.232 140.165 34.8681 140.008 35.4906C139.59 37.1517 138.098 38.4154 136.21 38.7104C134.398 38.9935 132.59 38.1732 131.617 36.6741C131.002 35.7259 130.907 34.689 130.962 33.6197C130.981 33.2343 130.881 33.091 130.447 33.0996C128.978 33.1285 127.506 33.12 126.037 33.103C125.693 33.0996 125.556 33.178 125.573 33.5361C125.605 34.2064 125.603 34.8766 125.691 35.5468C126.188 39.3534 129.121 42.6517 132.931 43.6425C135.375 44.2786 137.745 44.0706 140.112 42.9535C140.112 43.1616 140.112 43.2827 140.112 43.4038C140.128 44.8704 140.075 46.3422 140.179 47.8021C140.277 49.1886 141.51 50.1061 142.974 50.0362C144.378 49.9697 145.483 48.9174 145.488 47.5496C145.506 42.8819 145.492 38.2141 145.504 33.5464C145.504 33.1985 145.404 33.0996 145.047 33.103L145.045 33.1013Z" fill="white"/>
<path id="Vector_7" d="M33.5166 38.8854C33.3648 38.8271 33.2817 38.9283 33.1895 39.014C31.5537 40.5432 30.2486 42.2712 29.5925 44.3902C29.0358 46.1885 28.8713 48.0469 28.7032 49.8984C28.3959 53.2722 27.3566 56.3786 25.2147 59.1233C24.6182 59.8879 24.9562 61.1753 25.8419 61.6622C26.1889 61.8525 26.4402 61.8457 26.7384 61.5371C28.1338 60.1004 29.3521 58.5455 30.3589 56.8415C32.9238 52.4973 33.8601 47.7846 33.8818 42.381C33.9053 41.6747 33.7733 40.4935 33.701 39.3089C33.692 39.1546 33.7245 38.9677 33.5148 38.8871L33.5166 38.8854Z" fill="white"/>
<path id="Vector_8" d="M12.9576 15.9867C12.9641 19.0798 15.8759 22.5369 18.7763 22.8956C20.5881 23.1191 21.8971 21.9079 21.9248 19.9792C21.9705 16.8947 19.0832 13.3701 16.1991 12.9888C14.2862 12.7358 12.9527 13.9679 12.9559 15.9867H12.9576Z" fill="white"/>
<path id="Vector_9" d="M128.052 30.1075C129.437 30.1139 130.564 28.9835 130.555 27.5984C130.545 26.207 129.424 25.1134 128.018 25.1246C126.667 25.1358 125.57 26.2598 125.572 27.6321C125.572 28.9867 126.689 30.1011 128.052 30.1075Z" fill="white"/>
<path id="Vector_10" d="M142.474 25.1246C140.848 25.1326 139.524 26.2521 139.524 27.6199C139.524 29.0021 140.892 30.1265 142.555 30.1073C144.19 30.0881 145.51 28.9717 145.504 27.6103C145.498 26.2185 144.155 25.1165 142.474 25.1246Z" fill="white"/>
<path id="Vector_11" d="M7.98898 10.9198C8.1576 10.8103 8.04087 10.6735 7.99871 10.5467C7.74795 9.80644 7.96304 9.22361 8.64399 8.79825C8.77207 8.71759 9.025 8.68447 8.95852 8.48427C8.88394 8.26391 8.63588 8.34312 8.45592 8.34024C7.61392 8.32392 7.03512 7.96289 6.7195 7.25716C6.666 7.13618 6.67249 6.96046 6.45037 6.97775C6.28175 6.99071 6.23311 7.12609 6.22014 7.23988C6.10341 8.21926 5.45813 8.51163 4.4432 8.3388C4.40591 8.33304 4.36537 8.33592 4.32646 8.3388C4.19838 8.34888 4.04111 8.30568 3.99409 8.47131C3.95194 8.62542 4.09299 8.68159 4.2 8.74784C4.46914 8.91635 4.73179 9.0935 5.01552 9.24041C5.27979 9.37724 5.35437 9.5299 5.22953 9.78915C5.09334 10.0729 5.00741 10.3753 4.88581 10.6648C4.81934 10.8247 4.83879 10.9255 5.05929 10.963C5.15333 10.9126 5.27006 10.8751 5.34626 10.8045C6.09854 10.1017 6.83948 10.1305 7.59663 10.8017C7.68742 10.8823 7.8155 11.035 7.9906 10.9212L7.98898 10.9198Z" fill="white"/>
<path id="Vector_12" d="M21.1451 1.48484C21.6691 1.71327 21.685 2.09527 21.4602 2.57325C21.3699 2.76521 21.3894 2.92838 21.6195 2.98981C21.6531 2.97445 21.6992 2.96677 21.7257 2.93798C22.1895 2.42736 22.6515 2.42736 23.1153 2.93798C23.1896 3.02052 23.2639 2.98597 23.3383 2.93414C23.4852 2.8324 23.4339 2.69035 23.379 2.57133C23.1577 2.09143 23.1754 1.71135 23.6976 1.481C23.8233 1.42533 23.9631 1.31783 23.9047 1.11243C23.841 0.891676 23.6622 0.945425 23.5348 0.966541C23.0356 1.05676 22.7382 0.866721 22.6533 0.308115C22.632 0.166064 22.6108 -0.025897 22.3913 0.00289709C22.2178 0.0259324 22.216 0.18334 22.1948 0.306195C22.101 0.851364 21.816 1.06444 21.3097 0.96846C21.1858 0.945425 21.0035 0.883998 20.9416 1.11051C20.8867 1.31207 21.0159 1.42725 21.1451 1.48484Z" fill="white"/>
<path id="Vector_13" d="M13.1649 4.45063C13.6344 4.69128 13.7703 5.03647 13.4861 5.55524C13.4244 5.66965 13.4085 5.84126 13.5355 5.93791C13.6591 6.03062 13.772 5.94383 13.8797 5.86098C14.0527 5.72882 14.2292 5.60258 14.4321 5.45267C14.6386 5.60061 14.8487 5.74855 15.0587 5.89846C15.1699 5.97736 15.2864 6.02864 15.3993 5.90832C15.4964 5.80575 15.4523 5.69134 15.3993 5.59075C15.1169 5.04239 15.2811 4.67747 15.7612 4.42105C15.8671 4.36384 15.9941 4.27705 15.9271 4.09953C15.8776 3.96934 15.7594 3.9575 15.6588 3.97131C15.1381 4.05021 14.7534 3.92792 14.6863 3.24345C14.6739 3.1113 14.5875 2.97717 14.4286 2.99097C14.2733 3.00478 14.2203 3.14088 14.1992 3.28093C14.1162 3.85099 13.825 4.06402 13.3185 3.97526C13.1931 3.95356 13.0008 3.90227 12.9602 4.13503C12.9319 4.29678 13.0502 4.39343 13.1667 4.45261L13.1649 4.45063Z" fill="white"/>
<path id="Vector_14" d="M0.938359 19.9326C0.67753 20.1273 -0.125243 20.1242 0.0167642 20.3817C0.0950128 20.5212 -0.0991597 21.142 0.964442 20.8538C2.0918 21.142 1.56145 20.4722 1.99327 20.3541C1.75272 20.1365 1.29482 20.069 0.935461 19.9326H0.938359Z" fill="white"/>
</g>
</svg>
