<svg preserveAspectRatio="none" width="100%" height="100%" overflow="visible" style="display: block;" viewBox="0 0 147.176 64.1332" fill="none" xmlns="http://www.w3.org/2000/svg">
<g id="Group 1">
<g id="Group">
<path id="Vector" d="M0 57.7564V57.7232C0 54.2087 2.65243 51.3242 6.45424 51.3242C8.78617 51.3242 10.1897 52.0978 11.3281 53.2362L9.59295 55.2366C8.6425 54.3745 7.66994 53.844 6.43214 53.844C4.34335 53.844 2.84031 55.5792 2.84031 57.7011V57.7343C2.84031 59.8562 4.3102 61.6245 6.43214 61.6245C7.84677 61.6245 8.70881 61.0608 9.68136 60.1767L11.4165 61.9229C10.1455 63.2823 8.73091 64.1332 6.34372 64.1332C2.69664 64.1332 0 61.3261 0 57.7674V57.7564Z" fill="white"/>
<path id="Vector_2" d="M17.8264 51.5455H23.4849C25.0542 51.5455 26.281 51.9875 27.0878 52.7943C27.784 53.4906 28.1487 54.4631 28.1487 55.6236V55.6567C28.1487 57.6571 27.0657 58.906 25.4963 59.4917L28.5245 63.9124H25.3416L22.6892 59.9559H20.5562V63.9124H17.8374V51.5344L17.8264 51.5455ZM23.3081 57.5466C24.6343 57.5466 25.3968 56.8393 25.3968 55.8004V55.7673C25.3968 54.5958 24.579 53.999 23.2638 53.999H20.5562V57.5576H23.3191L23.3081 57.5466Z" fill="white"/>
<path id="Vector_3" d="M36.5481 63.9127H33.7741L39.0789 51.4463H41.5877L46.8926 63.9127H44.0412L40.2946 54.7176L36.5481 63.9127Z" fill="white"/>
<path id="Vector_4" d="M53.0263 51.5455H62.4535V54.0211H55.7561V56.6514H61.6578V59.127H55.7561V63.9124H53.0374V51.5344L53.0263 51.5455Z" fill="white"/>
<path id="Vector_5" d="M72.4441 54.0542H68.6754V51.5454H78.9315V54.0542H75.1628V63.9234H72.4441V54.0542Z" fill="white"/>
<path id="Vector_6" d="M84.1373 62.1112L85.7508 60.1882C86.8671 61.1055 88.0275 61.6913 89.4421 61.6913C90.5584 61.6913 91.2325 61.2492 91.2325 60.5198V60.4866C91.2325 59.7904 90.8015 59.4477 88.7348 58.9173C86.2371 58.2763 84.6346 57.5911 84.6346 55.1376V55.1044C84.6346 52.8609 86.4361 51.3689 88.9669 51.3689C90.7684 51.3689 92.3046 51.9325 93.5645 52.9382L92.1498 54.9939C91.0557 54.2313 89.9726 53.7782 88.9338 53.7782C87.8949 53.7782 87.3423 54.2534 87.3423 54.8613V54.8944C87.3423 55.7122 87.8728 55.9775 90.0058 56.519C92.5145 57.1711 93.9292 58.0773 93.9292 60.2324V60.2656C93.9292 62.7191 92.0504 64.1006 89.3869 64.1006C87.5081 64.1006 85.6182 63.4485 84.1373 62.1223V62.1112Z" fill="white"/>
<path id="Vector_7" d="M100.527 51.5454H103.467L106.716 56.7729L109.965 51.5454H112.905V63.9234H110.197V55.8446L106.716 61.1273H106.65L103.202 55.8998V63.9234H100.527V51.5454Z" fill="white"/>
<path id="Vector_8" d="M120.1 51.5455H129.439V53.9658H122.808V56.4746H128.643V58.8949H122.808V61.4921H129.527V63.9124H120.1V51.5344V51.5455Z" fill="white"/>
<path id="Vector_9" d="M136.18 51.5454H138.688L144.49 59.1601V51.5454H147.176V63.9234H144.855L138.865 56.0545V63.9234H136.18V51.5454Z" fill="white"/>
</g>
<path id="Vector_10" d="M102.052 3.30469L40.4606 11.7483V27.8507H106.727L102.063 3.30469H102.052ZM44.4282 15.2185L79.816 10.3668L82.38 23.8721H44.4282V15.2185ZM86.436 23.8721L83.7615 9.82524L98.8582 7.75856L101.92 23.8721H86.436Z" fill="white"/>
<g id="Group_2">
<path id="Vector_11" d="M43.9198 6.91842C42.0078 6.91842 40.4606 5.36012 40.4606 3.45921C40.4606 1.5583 42.0189 3.03819e-07 43.9198 3.03819e-07C45.8207 3.03819e-07 47.379 1.5583 47.379 3.45921C47.379 5.36012 45.8207 6.91842 43.9198 6.91842ZM43.9198 0.795729C42.4499 0.795729 41.2563 1.98932 41.2563 3.45921C41.2563 4.9291 42.4499 6.12269 43.9198 6.12269C45.3897 6.12269 46.5833 4.9291 46.5833 3.45921C46.5833 1.98932 45.3897 0.795729 43.9198 0.795729Z" fill="white"/>
<path id="Vector_12" d="M42.5821 1.8457H44.0519C44.4609 1.8457 44.7814 1.95622 44.9913 2.16621C45.1682 2.34303 45.2676 2.59723 45.2676 2.89562C45.2676 3.42611 44.9913 3.74661 44.5824 3.90134L45.3671 5.05072H44.5382L43.853 4.02291H43.3004V5.05072H42.5931V1.8457H42.5821ZM44.0077 3.40401C44.3503 3.40401 44.5493 3.21613 44.5493 2.95088C44.5493 2.64143 44.3393 2.48671 43.9967 2.48671H43.2894V3.41506H44.0077V3.40401Z" fill="white"/>
</g>
</g>
</svg>
