<svg preserveAspectRatio="none" width="100%" height="100%" overflow="visible" style="display: block;" viewBox="0 0 30.001 25.001" fill="none" xmlns="http://www.w3.org/2000/svg">
<g id="Group">
<path id="Vector" d="M27.5008 3.75017H21.2507V2.5001C21.2507 1.12128 20.1294 0 18.7506 0H11.2503C9.87153 0 8.75025 1.12123 8.75025 2.5001V3.75011H2.5001C1.12123 3.75017 0 4.8714 0 6.25021V10.0003C0 11.3792 1.12123 12.5004 2.5001 12.5004H12.5004V11.8754C12.5004 11.5299 12.78 11.2503 13.1255 11.2503H16.8756C17.2211 11.2503 17.5006 11.5299 17.5006 11.8754V12.5004H27.5009C28.8797 12.5004 30.0009 11.3792 30.0009 10.0003V6.25021C30.0009 4.8714 28.8797 3.75017 27.5008 3.75017ZM18.7506 3.75017H11.2503V2.5001H18.7506V3.75017Z" fill="#F4A31D"/>
<path id="Vector_2" d="M29.6542 13.175C29.4412 13.0694 29.1867 13.0938 28.9986 13.2366C28.5543 13.573 28.0367 13.7506 27.5008 13.7506H17.5006V15.6256C17.5006 15.9711 17.221 16.2507 16.8755 16.2507H13.1254C12.7799 16.2507 12.5004 15.9711 12.5004 15.6256V13.7506H2.5001C1.96418 13.7506 1.44661 13.573 1.00222 13.2366C0.813599 13.0926 0.559705 13.0682 0.346651 13.175C0.134301 13.2806 0 13.4973 0 13.7348V22.5009C0 23.8797 1.12123 25.001 2.5001 25.001H27.5009C28.8797 25.001 30.001 23.8798 30.001 22.5009V13.7348C30.0009 13.4973 29.8666 13.2806 29.6542 13.175Z" fill="#F4A31D"/>
</g>
</svg>
