<svg preserveAspectRatio="none" width="100%" height="100%" overflow="visible" style="display: block;" viewBox="0 0 57 68.7445" fill="none" xmlns="http://www.w3.org/2000/svg">
<g id="Group 268">
<path id="Vector" d="M14.563 39.0664L14.4148 39.2955C14.2729 39.5086 14.0527 39.6572 13.8021 39.7092C13.5514 39.7613 13.2903 39.7125 13.0753 39.5735C12.8602 39.4345 12.7086 39.2165 12.6532 38.9665C12.5977 38.7165 12.6429 38.4548 12.7789 38.2379L12.9271 38.0089C13.0691 37.7958 13.2892 37.6471 13.5399 37.5951C13.7906 37.5431 14.0517 37.5918 14.2667 37.7308C14.4817 37.8698 14.6333 38.0879 14.6888 38.3378C14.7442 38.5878 14.699 38.8495 14.563 39.0664ZM43.8333 38.0089C43.6914 37.7958 43.4712 37.6471 43.2206 37.5951C42.9699 37.5431 42.7088 37.5918 42.4938 37.7308C42.2788 37.8698 42.1271 38.0879 42.0717 38.3378C42.0162 38.5878 42.0614 38.8495 42.1974 39.0664L42.3456 39.2955C42.4142 39.4048 42.5038 39.4994 42.6092 39.5737C42.7147 39.6481 42.8338 39.7008 42.9598 39.7288C43.0858 39.7567 43.216 39.7594 43.343 39.7365C43.47 39.7137 43.5912 39.6659 43.6996 39.5958C43.808 39.5258 43.9013 39.4349 43.9743 39.3285C44.0472 39.222 44.0983 39.1022 44.1245 38.9758C44.1507 38.8495 44.1516 38.7192 44.127 38.5925C44.1025 38.4659 44.053 38.3453 43.9815 38.2379L43.8333 38.0089ZM56.9997 46.3766C56.9981 47.516 56.6628 48.63 56.0353 49.5811C56.2725 50.1063 56.3128 50.6993 56.1488 51.2518C55.9849 51.8042 55.6276 52.2793 55.1424 52.59L50.6595 55.4498C50.2767 55.6952 49.8316 55.8256 49.377 55.8255C48.9743 55.8256 48.578 55.7251 48.224 55.5333C48.2816 55.6904 48.3281 55.8513 48.3631 56.0149C48.5915 57.0971 48.3129 58.2344 47.5352 59.3953C47.4912 59.4609 47.4395 59.5209 47.381 59.5741C46.3559 60.5054 45.0748 60.9099 43.5633 60.7829C43.3456 61.7328 42.9139 62.4564 42.2741 62.9412C41.5931 63.4572 40.7115 63.6745 39.6474 63.5908C39.213 64.8547 38.538 65.7197 37.6339 66.1693C36.8064 66.5807 35.8298 66.6245 34.7217 66.3024C34.2061 67.4446 33.4437 68.1948 32.4466 68.5389C32.0398 68.6775 31.6127 68.7469 31.183 68.7444C29.8491 68.7444 28.2877 68.128 26.4594 66.8867C25.7894 67.5235 24.9278 68.1223 24.0369 68.1504C23.9778 68.1522 23.919 68.1532 23.8608 68.1532C22.2158 68.1532 21.01 67.4065 20.3821 66.0184C19.0672 66.2022 18.0321 66.0198 17.2337 65.4675C16.6174 65.0306 16.1702 64.395 15.9674 63.6673C14.8179 63.5997 13.9008 63.2486 13.2333 62.6194C12.6483 62.048 12.2632 61.3033 12.135 60.4958C11.1178 60.5683 10.2843 60.3697 9.64781 59.9028C8.89516 59.3508 8.46198 58.4705 8.36013 57.2867C8.30047 56.5471 8.44486 55.8053 8.77757 55.142C8.42396 55.3338 8.02809 55.4342 7.62584 55.4343C7.17011 55.4345 6.72385 55.3041 6.33996 55.0586L1.85685 52.1986C1.40998 51.9122 1.07064 51.4857 0.891884 50.9859C0.71313 50.4862 0.705044 49.9412 0.868891 49.4364C0.296974 48.5184 -0.00419085 47.4577 4.40548e-05 46.3762V15.854C0.00181154 14.3051 0.61786 12.8201 1.71306 11.7248C2.80825 10.6295 4.29317 10.0133 5.84208 10.0114H13.4814V8.79854C13.4839 6.46585 14.4117 4.22943 16.0611 2.57994C17.7106 0.930452 19.9469 0.00261688 22.2796 1.81794e-06H34.7196C37.0523 0.00254323 39.2888 0.930346 40.9383 2.57984C42.5878 4.22934 43.5156 6.46581 43.5181 8.79854V10.0114H51.1574C52.7064 10.0131 54.1915 10.6293 55.2868 11.7246C56.3821 12.8199 56.9982 14.305 57 15.854L56.9997 46.3766ZM54.8337 47.6469C54.9771 47.2387 55.0507 46.8093 55.0516 46.3766V27.876C53.9834 28.8399 52.5959 29.3737 51.1571 29.3744H35.3253V30.4598C35.3253 32.27 34.6062 34.0062 33.3261 35.2862C32.046 36.5663 30.3099 37.2854 28.4996 37.2854C26.6893 37.2854 24.9532 36.5663 23.6731 35.2862C22.3931 34.0062 21.6739 32.27 21.6739 30.4598V29.3744H5.84208C4.40354 29.3742 3.0161 28.841 1.94758 27.8778V46.3762C1.94771 46.7177 1.99267 47.0577 2.0813 47.3875L10.256 34.573C10.5986 34.0373 11.1396 33.6593 11.7605 33.5221C12.3814 33.3848 13.0314 33.4995 13.5678 33.8409L18.0506 36.7006C18.4894 36.9815 18.8249 37.3974 19.0066 37.8857C19.1883 38.374 19.2064 38.9081 19.0581 39.4075C20.3754 39.6687 21.8117 39.3134 23.2101 38.9659C25.0683 38.5045 27.325 37.9445 28.7242 39.5946C32.2348 37.7247 33.6501 38.1311 35.3388 38.9582C35.9746 39.2696 36.575 39.5637 37.5291 39.6159C37.6544 39.6227 37.7772 39.6258 37.8982 39.6276C37.7927 39.1482 37.8368 38.648 38.0247 38.1945C38.2125 37.741 38.535 37.3561 38.9486 37.0917L43.4314 34.232C43.9679 33.8907 44.6178 33.7761 45.2386 33.9133C45.8595 34.0505 46.4005 34.4284 46.7432 34.964L54.8337 47.6469ZM46.1046 52.7687L38.9373 41.5333C38.434 41.5814 37.9276 41.5907 37.4228 41.5611C36.0731 41.4875 35.191 41.0551 34.4819 40.7078C33.2852 40.122 32.4205 39.698 28.9349 41.705C24.6836 44.8433 23.0163 48.0973 23.1915 49.4103C23.2318 49.7138 23.3547 49.7613 23.436 49.7926C24.1579 50.0709 26.5988 49.5164 31.1667 45.6628C33.0716 44.0556 37.331 46.8617 43.1421 51.0012C44.2335 51.7788 45.1762 52.4503 45.7999 52.838C45.8394 52.8631 45.8767 52.8885 45.9152 52.9137C45.9839 52.873 46.0475 52.8241 46.1046 52.7683V52.7687ZM21.6739 23.9946H5.84208C4.40354 23.9944 3.0161 23.4612 1.94758 22.4981V23.5653C1.95913 24.5915 2.37421 25.572 3.10302 26.2945C3.83184 27.017 4.81581 27.4236 5.84208 27.4263H21.6739V23.9946ZM28.4996 35.3372C29.7928 35.3358 31.0325 34.8214 31.947 33.9071C32.8614 32.9927 33.3757 31.7529 33.3772 30.4598V21.7993C33.376 21.7103 33.3401 21.6254 33.2773 21.5625C33.2144 21.4996 33.1294 21.4637 33.0405 21.4625H23.9586C23.8697 21.4637 23.7847 21.4996 23.7219 21.5625C23.659 21.6254 23.6232 21.7103 23.622 21.7993V30.4598C23.6235 31.7529 24.1378 32.9927 25.0523 33.9071C25.9667 34.8214 27.2064 35.3358 28.4996 35.3372ZM35.3253 27.4263H51.1571C52.1818 27.423 53.1642 27.0173 53.8927 26.2966C54.6211 25.5759 55.0373 24.5979 55.0515 23.5733V22.4971C53.9832 23.4607 52.5957 23.9944 51.157 23.995H35.3253V27.4263ZM15.4296 10.0114H41.5695V8.79854C41.5674 6.98242 40.8451 5.24126 39.5609 3.95702C38.2768 2.67277 36.5357 1.9503 34.7196 1.94809H22.2796C20.4634 1.95012 18.7221 2.6725 17.4378 3.95677C16.1535 5.24104 15.4311 6.9823 15.429 8.79854L15.4296 10.0114ZM1.94758 15.854V18.1858C1.9592 19.212 2.37429 20.1923 3.10307 20.9148C3.83185 21.6372 4.81574 22.0438 5.84194 22.0465H21.6739V21.7993C21.6746 21.1935 21.9155 20.6128 22.3438 20.1844C22.7721 19.7561 23.3529 19.5151 23.9586 19.5144H33.0405C33.6462 19.5151 34.227 19.7561 34.6553 20.1844C35.0836 20.6127 35.3246 21.1935 35.3253 21.7993V22.0465H51.1571C52.1818 22.0432 53.1642 21.6375 53.8927 20.9168C54.6211 20.1961 55.0373 19.2181 55.0515 18.1935V15.854C55.0504 14.8214 54.6397 13.8315 53.9096 13.1014C53.1794 12.3713 52.1895 11.9606 51.157 11.9595H5.84208C4.80955 11.9606 3.81963 12.3713 3.08951 13.1014C2.3594 13.8315 1.94872 14.8214 1.94758 15.854ZM8.00919 53.2786L17.1403 38.9647C17.2035 38.8637 17.2244 38.742 17.1988 38.6258C17.1731 38.5095 17.1028 38.4079 17.003 38.343L12.5201 35.483C12.4488 35.4379 12.3661 35.4141 12.2818 35.4144C12.2057 35.414 12.1308 35.4326 12.0638 35.4686C11.9968 35.5046 11.9399 35.5569 11.8983 35.6205L2.76703 49.9345C2.7044 50.0356 2.68374 50.1572 2.70945 50.2734C2.73515 50.3895 2.80519 50.491 2.90464 50.5562L7.38733 53.416C7.48844 53.4788 7.61005 53.4995 7.72623 53.4738C7.8424 53.4481 7.94394 53.378 8.00919 53.2786ZM12.4826 58.4916C14.2709 56.3487 14.9761 54.8525 15.2534 54.0307C15.1517 53.7634 14.9867 53.5247 14.7726 53.3351C14.5585 53.1455 14.3016 53.0107 14.0239 52.9421C13.7796 52.8813 13.5233 52.8893 13.2833 52.9652C13.0433 53.0411 12.829 53.182 12.6641 53.3722C12.4718 53.5883 12.2684 53.8047 12.0714 54.0141C11.1112 55.0345 10.2041 55.9984 10.3006 57.1188C10.3522 57.7182 10.5201 58.1264 10.7998 58.3315C11.1284 58.5725 11.7069 58.6262 12.4826 58.4916ZM14.5698 61.2012C14.9224 61.5336 15.4882 61.7081 16.2461 61.7269L20.8278 55.2691C20.8091 54.5097 20.5126 54.0109 19.9423 53.786C19.0958 53.4521 17.8674 53.7692 17.1563 54.4783C16.8601 55.4262 16.0723 57.2237 13.9964 59.7184C14.0481 60.3917 14.2397 60.8904 14.5694 61.2012H14.5698ZM20.4952 64.0225C20.7239 63.7455 21.141 63.2389 21.6837 62.5796C22.359 61.7593 23.2797 60.6415 24.4458 59.2261C24.8158 58.1964 24.8076 57.351 24.4171 56.8942C24.0592 56.4754 23.3205 56.3279 22.3617 56.4733L17.7851 62.9245C17.8903 63.3678 18.0732 63.6787 18.3417 63.8647C18.7713 64.1617 19.5125 64.2151 20.4952 64.0225ZM25.9703 64.5054C26.892 63.2736 27.1809 62.2385 27.0927 61.8969C26.957 61.3751 26.3168 61.0374 25.6537 60.8231C24.627 62.0691 23.805 63.0673 23.1877 63.8176C22.6574 64.4618 22.325 64.8651 22.1149 65.1203C22.4289 65.9134 22.9931 66.2335 23.9749 66.2025C24.2746 66.1933 25.1161 65.6473 25.9703 64.5055V64.5054ZM46.4565 56.4162C46.3182 55.7607 45.7484 55.1117 44.7632 54.4876C44.0953 54.0718 43.1298 53.384 42.0117 52.5877C40.2402 51.3255 38.0352 49.7546 36.0963 48.6204C33.2403 46.9498 32.4923 47.1328 32.4107 47.1617C29.3698 49.7252 25.2271 52.5736 22.7338 51.6095C21.9081 51.2904 21.3848 50.6008 21.2605 49.6675C20.9425 47.2843 23.2963 43.6774 27.0569 40.6897C26.494 40.2613 25.5722 40.3864 23.6796 40.8567C22.0207 41.2687 20.0045 41.7688 18.051 41.1595L11.1894 51.9166C11.2195 51.9505 11.2479 51.9814 11.2746 52.0091C11.6724 51.5808 12.1767 51.2657 12.7361 51.0961C13.2954 50.9265 13.8898 50.9084 14.4585 51.0437C15.3142 51.245 16.0691 51.7471 16.5857 52.4584C17.8074 51.6895 19.3771 51.4705 20.6567 51.9744C21.7594 52.4092 22.4692 53.2964 22.6974 54.4808C24.0731 54.4023 25.1865 54.7958 25.8978 55.6289C26.6272 56.4826 26.8389 57.6789 26.5222 59.0635C27.8779 59.563 28.7022 60.3489 28.9776 61.4074C29.3441 62.817 28.2935 64.5818 27.7307 65.3937C29.4791 66.5448 30.9112 67.007 31.8107 66.6973C32.2966 66.5303 32.688 66.1002 32.9795 65.4193L29.5891 63.0094L30.7178 61.4216L34.6222 64.1958C35.544 64.5956 36.2657 64.6729 36.7665 64.4241C37.2053 64.2061 37.5565 63.7039 37.8149 62.9293L31.6392 58.8998C31.5321 58.8299 31.4398 58.7395 31.3676 58.634C31.2953 58.5284 31.2446 58.4096 31.2183 58.2844C31.192 58.1593 31.1906 58.0301 31.2142 57.9044C31.2378 57.7787 31.2859 57.6588 31.3558 57.5517C31.4257 57.4446 31.516 57.3523 31.6216 57.28C31.7272 57.2078 31.8459 57.1571 31.9711 57.1308C32.0963 57.1044 32.2254 57.103 32.3512 57.1266C32.4769 57.1502 32.5967 57.1983 32.7039 57.2682L39.3134 61.581C40.1268 61.7305 40.7282 61.6674 41.0969 61.3879C41.3993 61.1589 41.6015 60.7403 41.7035 60.1451L33.4512 54.5682C33.2387 54.4229 33.0924 54.1994 33.0441 53.9466C32.9959 53.6937 33.0497 53.432 33.1938 53.2187C33.338 53.0055 33.5607 52.8579 33.8133 52.8083C34.0659 52.7587 34.3278 52.8111 34.5419 52.9541L43.1246 58.7542C44.3243 58.9908 45.2626 58.8118 45.9833 58.2075C46.4134 57.533 46.5683 56.946 46.4565 56.4162ZM54.2322 50.3254L45.1009 36.0118C45.0593 35.9481 45.0024 35.8959 44.9354 35.8599C44.8684 35.8239 44.7935 35.8053 44.7174 35.8057C44.633 35.8054 44.5503 35.8292 44.4791 35.8745L39.9962 38.7341C39.8965 38.7991 39.8262 38.9007 39.8005 39.0169C39.7748 39.1332 39.7958 39.2549 39.8589 39.3558L48.9902 53.6698C49.0554 53.7693 49.1569 53.8394 49.273 53.8651C49.3892 53.8908 49.5108 53.87 49.6119 53.8073L54.0946 50.9475C54.1941 50.8823 54.2642 50.7807 54.2899 50.6645C54.3156 50.5483 54.2949 50.4265 54.2322 50.3254Z" fill="white"/>
</g>
</svg>
