<svg preserveAspectRatio="none" width="100%" height="100%" overflow="visible" style="display: block;" viewBox="0 0 153.866 41.3053" fill="none" xmlns="http://www.w3.org/2000/svg">
<g id="Group">
<path id="Vector" fill-rule="evenodd" clip-rule="evenodd" d="M27.6063 33.7526V32.7108L29.5335 31.9816L24.4811 34.638L27.6063 33.7526ZM25.7312 15.3657H31.3566V16.0429L25.7312 17.6576V15.3657ZM32.6588 16.6679L24.4811 19.0639L25.7832 19.6369V20.7828L31.4087 19.1681V18.0222L32.6588 16.6679ZM32.6588 19.7931L31.3566 21.1474V22.2933L25.7312 23.9081V22.7621L24.429 22.1892L32.6588 19.7931ZM32.6588 22.9184L24.4811 25.3144L25.7832 25.8874V27.0333L31.4087 25.4186V24.2727L32.6588 22.9184ZM32.6588 26.0436L31.3566 27.3979V28.5438L25.7312 30.1585V29.0126L24.429 28.4396L32.6588 26.0436ZM32.6588 29.1689L31.3566 30.5231V31.6691L25.7312 33.2838V32.1379L24.429 31.5649L32.6588 29.1689Z" fill="white"/>
<path id="Vector_2" d="M47.5557 15.001C47.9203 15.4698 48.0766 15.9386 48.0766 16.5115C48.0766 17.3449 47.7641 17.97 47.1911 18.4909C46.6182 18.9596 45.8368 19.2201 44.7951 19.2201H40.2114V9.32348H44.6388C45.6285 9.32348 46.4098 9.53184 46.9828 10.0006C47.5557 10.4694 47.8162 11.0945 47.8162 11.8758C47.8162 12.4487 47.6599 12.9175 47.3474 13.3342C47.0349 13.6988 46.6182 14.0113 46.1494 14.1155C46.7744 14.2718 47.2432 14.5322 47.5557 15.001ZM42.6074 13.3342H44.1701C44.5868 13.3342 44.8472 13.23 45.0555 13.0738C45.2639 12.9175 45.3681 12.6571 45.3681 12.2925C45.3681 11.9279 45.2639 11.7195 45.0555 11.5112C44.8472 11.3549 44.5347 11.2507 44.1701 11.2507H42.6074V13.3342ZM45.316 16.9803C45.5243 16.772 45.6285 16.5115 45.6285 16.199C45.6285 15.8344 45.5243 15.574 45.2639 15.3656C45.0555 15.1573 44.743 15.0531 44.3263 15.0531H42.6074V17.2408H44.3784C44.7951 17.2928 45.1076 17.1887 45.316 16.9803Z" fill="white"/>
<path id="Vector_3" d="M58.0252 9.32348V19.2201H55.6292V15.1573H51.8789V19.2201H49.4829V9.32348H51.8789V13.1779H55.6292V9.32348H58.0252Z" fill="white"/>
<path id="Vector_4" d="M65.8906 17.4491H62.1924L61.6195 19.2201H59.1193L62.6612 9.32348H65.4218L68.9638 19.2201H66.4115L65.8906 17.4491ZM65.2656 15.626L64.0676 11.9799L62.8696 15.626H65.2656Z" fill="white"/>
<path id="Vector_5" d="M75.1097 19.2201L73.0783 15.4698H72.5054V19.2201H70.1094V9.32348H74.1201C74.9014 9.32348 75.5785 9.47975 76.0994 9.74018C76.6724 10.0006 77.037 10.3652 77.3495 10.834C77.6099 11.3028 77.7662 11.8237 77.7662 12.3966C77.7662 13.0738 77.5579 13.6467 77.1932 14.1676C76.8286 14.6885 76.2557 15.0531 75.5785 15.2614L77.8704 19.168L75.1097 19.2201ZM72.4533 13.803H73.9638C74.3805 13.803 74.7451 13.6988 74.9535 13.4905C75.1618 13.2821 75.266 12.9696 75.266 12.5529C75.266 12.1362 75.1618 11.8758 74.9535 11.6674C74.7451 11.4591 74.3805 11.3549 73.9638 11.3549H72.4533V13.803Z" fill="white"/>
<path id="Vector_6" d="M85.3711 17.4489H81.6729L81.1 19.2198H78.5998L82.1417 9.32324H84.9023L88.4443 19.2198H85.892L85.3711 17.4489ZM84.7461 15.6258L83.5481 11.9797L82.3501 15.6258H84.7461Z" fill="white"/>
<path id="Vector_7" d="M96.6741 9.32348V11.2507H94.0697V19.2201H91.6737V11.2507H89.0693V9.32348H96.6741Z" fill="white"/>
<path id="Vector_8" d="M41.7738 23.752V35.0028H40.6279V23.752H41.7738Z" fill="white"/>
<path id="Vector_9" d="M52.7643 35.0028H51.6184L45.42 25.5229V35.0028H44.2741V23.752H45.42L51.6184 33.2318V23.752H52.7643V35.0028Z" fill="white"/>
<path id="Vector_10" d="M61.8797 23.752V24.6895H58.7545V35.0028H57.6606V24.6895H54.5354V23.752H61.8797Z" fill="white"/>
<path id="Vector_11" d="M64.7965 24.6378V28.8568H69.0677V29.7944H64.7965V34.0656H69.5364V35.0032H63.7027V23.7002H69.5364V24.6378H64.7965Z" fill="white"/>
<path id="Vector_12" d="M77.7142 35.0028L74.9536 30.315H72.8701V35.0028H71.7242V23.752H75.1099C76.36 23.752 77.2975 24.0645 77.9747 24.6374C78.5997 25.2625 78.9643 26.0438 78.9643 26.9814C78.9643 27.8148 78.756 28.4919 78.2872 29.0649C77.8184 29.6378 77.1413 30.0024 76.2037 30.1587L79.0685 34.9507L77.7142 35.0028ZM72.8701 29.3774H75.1099C75.9954 29.3774 76.6725 29.169 77.0892 28.7523C77.5059 28.3356 77.7663 27.7627 77.7663 27.0335C77.7663 26.3042 77.558 25.7313 77.1413 25.3146C76.7246 24.8979 76.0474 24.6895 75.1099 24.6895H72.8701V29.3774Z" fill="white"/>
<path id="Vector_13" d="M89.5902 35.0028H88.4442L82.2459 25.5229V35.0028H81.0999V23.752H82.2459L88.4442 33.2318V23.752H89.5902V35.0028Z" fill="white"/>
<path id="Vector_14" d="M98.6535 32.2939H93.5489L92.5593 34.9503H91.3613L95.4762 23.8557H96.7263L100.789 34.9503H99.5911L98.6535 32.2939ZM98.2889 31.4084L96.0491 25.3142L93.8094 31.4084H98.2889Z" fill="white"/>
<path id="Vector_15" d="M109.175 23.752V24.6895H106.05V35.0028H104.904V24.6895H101.779V23.752H109.175Z" fill="white"/>
<path id="Vector_16" d="M112.092 23.752V35.0028H110.946V23.752H112.092Z" fill="white"/>
<path id="Vector_17" d="M116.832 34.3774C115.998 33.9087 115.321 33.2315 114.853 32.346C114.384 31.4606 114.123 30.4709 114.123 29.3771C114.123 28.2832 114.384 27.2936 114.853 26.4081C115.321 25.5226 115.998 24.8455 116.832 24.3767C117.665 23.9079 118.603 23.6475 119.645 23.6475C120.686 23.6475 121.624 23.9079 122.509 24.3767C123.343 24.8455 124.02 25.5226 124.489 26.4081C124.957 27.2936 125.218 28.2832 125.218 29.3771C125.218 30.4709 124.957 31.4606 124.489 32.346C124.02 33.2315 123.343 33.9087 122.509 34.3774C121.676 34.8462 120.738 35.1067 119.645 35.1067C118.603 35.1067 117.665 34.8462 116.832 34.3774ZM121.884 33.5441C122.561 33.1794 123.082 32.6065 123.447 31.8773C123.812 31.148 124.02 30.3146 124.02 29.3771C124.02 28.4395 123.812 27.6061 123.447 26.8769C123.082 26.1477 122.561 25.6268 121.884 25.2101C121.207 24.8455 120.478 24.6371 119.645 24.6371C118.811 24.6371 118.082 24.8455 117.405 25.2101C116.728 25.5747 116.207 26.1477 115.842 26.8769C115.478 27.6061 115.269 28.4395 115.269 29.3771C115.269 30.3146 115.478 31.148 115.842 31.8773C116.207 32.6065 116.728 33.1794 117.405 33.5441C118.082 33.9087 118.811 34.117 119.645 34.117C120.478 34.117 121.259 33.9087 121.884 33.5441Z" fill="white"/>
<path id="Vector_18" d="M135.74 35.0028H134.594L128.395 25.5229V35.0028H127.249V23.752H128.395L134.594 33.2318V23.752H135.74V35.0028Z" fill="white"/>
<path id="Vector_19" d="M144.751 32.2939H139.646L138.657 34.9503H137.459L141.574 23.8557H142.824L146.886 34.9503H145.688L144.751 32.2939ZM144.438 31.4084L142.199 25.3142L140.011 31.4084H144.438Z" fill="white"/>
<path id="Vector_20" d="M149.855 34.0652H153.866V35.0028H148.709V23.752H149.855V34.0652Z" fill="white"/>
<path id="Vector_21" d="M0.312525 21.4079L0 19.1681L2.8648 18.6994C2.8648 17.6055 2.8648 17.6576 2.8648 16.6159L0 15.0012C0.156262 13.8031 0.104176 14.1157 0.312525 12.9177L3.33359 13.5427C3.64612 12.5531 3.59403 12.6051 3.90655 11.6676L1.45845 9.16738C1.97932 8.12563 1.82306 8.43816 2.34393 7.39641L5.20873 9.01111C5.7817 8.2298 5.72961 8.28189 6.30257 7.50058L4.5316 4.37534C5.31291 3.64612 5.10456 3.85446 5.88587 3.12524L8.33398 5.62544C9.11529 5.15665 9.0632 5.15665 9.84451 4.68786L8.90694 1.2501C9.8966 0.88549 9.63616 0.989666 10.6258 0.625055L12.3968 3.7503C13.2823 3.59403 13.2823 3.59403 14.1678 3.43777V0C15.2616 0 14.9491 3.17838e-06 16.0429 0.0520905L16.9805 3.48986C17.918 3.69821 17.866 3.64612 18.8556 3.85447L19.7932 0.78131C20.887 1.19801 20.5745 1.09384 21.6683 1.51054V4.9483C22.5538 5.46917 22.5538 5.41709 23.4393 5.93796L25.2103 3.48986C26.1999 4.27117 25.9395 4.06281 26.9292 4.84413L25.9916 7.91728C26.7729 8.69859 26.7208 8.6465 27.5021 9.42781L29.9502 7.91728C30.7315 8.95903 30.5232 8.69859 31.3045 9.74034L29.5335 12.1364C29.8981 12.7614 30.0023 12.9698 30.2107 13.3344C27.6063 9.84451 23.6477 7.55267 19.5328 7.50058C12.8135 7.39641 8.28189 13.0739 9.21946 20.1057C10.157 27.1375 16.2513 32.8671 22.8143 32.9192C27.9188 32.9713 31.7733 29.5335 32.7629 24.6894L35.6277 26.3041C35.4715 27.5021 35.5236 27.1896 35.3152 28.3876L32.2942 27.7626C31.9816 28.7522 32.0337 28.7001 31.7212 29.6377L34.1693 32.1379C33.6484 33.1796 33.8047 32.8671 33.2838 33.9089L30.419 32.2942C29.846 33.0755 29.8981 33.0234 29.3252 33.8047L31.0961 36.9299C30.3148 37.6592 30.5232 37.4508 29.7419 38.18L27.2938 35.6798C26.5125 36.1486 26.5645 36.1486 25.7832 36.6174L26.7208 40.0552C25.7311 40.4198 25.9916 40.3156 25.0019 40.6802L23.231 37.555C22.3455 37.7112 22.3455 37.7112 21.46 37.8675V41.3053C20.3662 41.3053 20.6787 41.3053 19.5848 41.2532L18.6473 37.8154C17.7097 37.6071 17.7618 37.6592 16.7721 37.4508L15.8346 40.524C14.7407 40.1073 15.0532 40.2114 13.9594 39.7947V36.357C13.0739 35.8361 13.0739 35.8882 12.1884 35.3673L10.4175 37.8154C9.42781 37.0341 9.68825 37.2425 8.69859 36.4611L9.63616 33.388C8.85485 32.6067 8.90694 32.6588 8.12563 31.8775L5.67752 33.388C4.89621 32.3462 5.10456 32.6067 4.32325 31.5649L6.09422 29.1689C5.52126 28.1793 5.57335 28.2313 5.00039 27.2417L2.13558 27.7626C1.61471 26.5125 1.77097 26.8771 1.2501 25.627L3.6982 24.1164C3.38568 23.0226 3.43777 23.0747 3.12524 21.9809L0.312525 21.4079Z" fill="white"/>
<path id="Vector_22" d="M20.0013 23.6999C20.8868 24.8459 21.3556 26.148 21.3556 27.6586C21.3556 29.7942 20.6264 31.461 19.1158 32.711C17.6574 33.9611 15.5739 34.5862 12.9175 34.5862H1.09363V9.11548H12.5008C15.053 9.11548 17.0844 9.68844 18.5429 10.8865C20.0013 12.0845 20.7306 13.6992 20.7306 15.7306C20.7306 17.2411 20.3139 18.4912 19.5325 19.4809C18.7512 20.4705 17.7095 21.1477 16.4073 21.5644C17.9178 21.8248 19.0638 22.554 20.0013 23.6999ZM7.23993 19.4288H11.3027C12.2924 19.4288 13.0737 19.2204 13.6467 18.7516C14.1676 18.2829 14.4801 17.6578 14.4801 16.7723C14.4801 15.8868 14.2196 15.2618 13.6467 14.793C13.1258 14.3242 12.3445 14.1159 11.3027 14.1159H7.23993V19.4288ZM14.2196 28.8566C14.7926 28.3878 15.053 27.7107 15.053 26.8252C15.053 25.9397 14.7405 25.2105 14.1676 24.7417C13.5946 24.2208 12.7612 23.9604 11.7194 23.9604H7.23993V29.5858H11.8236C12.8654 29.5858 13.6467 29.3254 14.2196 28.8566Z" fill="white"/>
<path id="Vector_23" fill-rule="evenodd" clip-rule="evenodd" d="M31.5649 14.845H34.7422V11.4072C34.7422 10.9905 34.3776 10.678 33.9609 10.678H32.3462C31.9295 10.678 31.5649 10.9905 31.5649 11.4072V14.845Z" fill="white"/>
<path id="Vector_24" fill-rule="evenodd" clip-rule="evenodd" d="M25.9917 14.845H31.0962V11.4072C31.0962 10.9905 30.7316 10.678 30.3149 10.678H26.773C26.3563 10.678 25.9917 10.9905 25.9917 11.4072V14.845Z" fill="white"/>
<path id="Vector_25" fill-rule="evenodd" clip-rule="evenodd" d="M22.3455 14.845H25.5229V11.4072C25.5229 10.9905 25.1582 10.678 24.7415 10.678H23.1268C22.7101 10.678 22.3455 10.9905 22.3455 11.4072V14.845Z" fill="white"/>
<path id="Vector_26" fill-rule="evenodd" clip-rule="evenodd" d="M23.6476 10.2091C23.856 10.1049 24.0643 10.0008 24.2727 9.94867C25.054 9.68823 25.9915 9.68823 26.8249 9.68823C27.3979 9.68823 28.023 9.68823 28.5959 9.68823C29.1689 9.68823 29.7939 9.68823 30.3669 9.68823C31.1482 9.68823 32.1379 9.68823 32.9192 9.94867C33.1275 10.0008 33.3359 10.1049 33.5442 10.2091H32.3983C31.9816 10.2091 31.617 10.4175 31.4086 10.73C31.2003 10.4175 30.8357 10.2091 30.419 10.2091H26.877C26.4603 10.2091 26.0957 10.4175 25.8874 10.73C25.679 10.4175 25.3144 10.2091 24.8977 10.2091H23.6476Z" fill="white"/>
</g>
</svg>
