<svg preserveAspectRatio="none" width="100%" height="100%" overflow="visible" style="display: block;" viewBox="0 0 133.488 40.5449" fill="none" xmlns="http://www.w3.org/2000/svg">
<g id="Group">
<path id="Vector" d="M23.9966 16.1478C23.8455 16.2637 23.7673 16.4251 23.7673 16.6222V37.8784L13.3201 23.7561C13.2655 23.6686 12.9569 23.2975 12.5432 23.2975C12.3278 23.2975 12.1274 23.3955 11.941 23.6022L11.3205 24.4257C10.295 25.7879 9.25872 27.1575 8.21069 28.5367C7.16158 29.9189 6.15212 31.2675 5.17588 32.576L2.56758 36.086C2.10357 36.7081 1.69636 37.2606 1.33951 37.7551V16.6222C1.33951 16.4251 1.26236 16.2637 1.11126 16.1478C0.831571 15.9348 0.445791 15.9379 0.196106 16.1752C0.068584 16.2985 2.2702e-07 16.4535 2.2702e-07 16.6212V39.8469C2.2702e-07 40.0304 0.0546531 40.1928 0.166101 40.3246C0.28505 40.4701 0.461866 40.5418 0.685833 40.5418C0.915158 40.5418 1.10054 40.4385 1.20985 40.255C1.35666 40.0557 1.661 39.6466 2.11965 39.0319L3.11303 37.7139L3.09589 37.6422L12.5679 24.9708L23.9248 40.2824C24.0405 40.4532 24.2238 40.5428 24.452 40.5428C24.6278 40.5428 24.7832 40.4796 24.9085 40.3583C25.0382 40.2339 25.1057 40.0821 25.1057 39.9113V16.6222C25.1057 16.4504 25.0393 16.2996 24.9085 16.1762C24.6567 15.9348 24.2741 15.9337 23.9966 16.1478Z" fill="white"/>
<path id="Vector_2" d="M52.0685 36.3232C51.6485 35.2847 51.1609 34.0964 50.6068 32.7668C50.0518 31.4351 49.4827 30.0697 48.9083 28.6685C48.3297 27.2672 47.7542 25.8817 47.1766 24.5089C46.6012 23.1383 46.0825 21.8836 45.6239 20.7469C45.1598 19.6061 44.7687 18.6456 44.444 17.8717C44.1204 17.0967 43.9168 16.6001 43.8343 16.385C43.7485 16.1288 43.5299 15.9907 43.2224 15.9907C42.8398 15.9907 42.6641 16.1963 42.5794 16.3797C42.4969 16.6001 42.2986 17.0988 41.9814 17.8738C41.6685 18.6487 41.286 19.6061 40.838 20.748C40.3869 21.8867 39.88 23.1383 39.3281 24.5121C38.772 25.8839 38.2179 27.2704 37.6618 28.6727C37.1045 30.0739 36.5612 31.4394 36.0265 32.7679C35.4907 34.1006 35.0192 35.2804 34.612 36.3063C34.2026 37.3375 33.8736 38.1726 33.6207 38.821C33.2317 39.8206 33.2317 39.8375 33.2317 39.8828C33.2317 40.2033 33.3903 40.4226 33.6765 40.508L33.73 40.5144C33.789 40.5449 33.849 40.5449 33.8865 40.5449C34.193 40.5449 34.4127 40.4026 34.5273 40.1295L41.6857 22.2199L49.0594 40.1295C49.1709 40.3994 49.3863 40.5449 49.6703 40.5449C49.7206 40.5449 49.7903 40.5397 49.8567 40.5144L49.9114 40.508C50.1964 40.4226 50.3539 40.2128 50.3539 39.9144C50.3539 39.868 50.3539 39.8501 50.0271 39.015C49.8192 38.4815 49.5406 37.7825 49.1945 36.9137C48.8494 36.0449 48.4508 35.058 47.9975 33.9509C47.5474 32.8417 47.0823 31.6998 46.599 30.5273C46.1179 29.3601 45.6464 28.2066 45.1866 27.0679C44.7248 25.9271 44.2929 24.8885 43.8964 23.9491C43.4967 23.0128 43.1602 22.2231 42.8891 21.5767C42.6533 21.0116 42.4819 20.6278 42.3876 20.4264L43.2277 18.344L52.2003 40.1169C52.2871 40.3942 52.5154 40.5449 52.8465 40.5449C53.0212 40.5449 53.1744 40.4817 53.303 40.3573C53.4316 40.2307 53.5002 40.0842 53.5002 39.9134C53.5002 39.8628 53.5002 39.849 53.0919 38.8463L52.0685 36.3232Z" fill="white"/>
<path id="Vector_3" d="M70.1959 15.9896H54.5997C54.3982 15.9896 54.2289 16.0718 54.1089 16.2279C54.0028 16.3692 53.9481 16.5221 53.9481 16.6834C53.9481 16.85 54.0146 17.0039 54.1367 17.1357C54.2643 17.2728 54.425 17.3455 54.6007 17.3455H61.7462V39.9123C61.7462 40.1063 61.8202 40.2687 61.9638 40.3847C62.0999 40.4912 62.252 40.5428 62.4149 40.5428C62.5821 40.5428 62.7353 40.4838 62.8747 40.3615C63.0097 40.236 63.0836 40.0821 63.0836 39.9113V17.3455H70.197C70.3727 17.3455 70.5324 17.2728 70.6621 17.1357C70.7874 17.0007 70.8507 16.85 70.8507 16.6834C70.8507 16.5242 70.7982 16.3702 70.6878 16.2279C70.5688 16.0718 70.3995 15.9896 70.1959 15.9896Z" fill="white"/>
<path id="Vector_4" d="M94.4068 16.1435C94.2429 16.2574 94.1593 16.424 94.1593 16.6233V26.3341H79.7783V16.6233C79.7783 16.4514 79.7086 16.3006 79.5736 16.1773C79.3121 15.9306 78.906 15.9306 78.6413 16.1773C78.5041 16.3006 78.4377 16.4525 78.4377 16.6233V39.8828C78.4377 40.0452 78.4966 40.1959 78.6123 40.3309C78.7324 40.4732 78.9049 40.5449 79.1085 40.5449C79.5339 40.5449 79.7793 40.3035 79.7793 39.8828L79.7868 27.5709H94.1593V39.8828C94.1593 40.0747 94.2343 40.2434 94.3757 40.3636C94.5129 40.4859 94.6811 40.5449 94.8751 40.5449C95.0476 40.5449 95.2095 40.4796 95.3498 40.3436C95.4881 40.2107 95.5588 40.0557 95.5588 39.8828V16.6233C95.5588 16.4514 95.4838 16.2943 95.3413 16.1699C95.068 15.9348 94.7058 15.9348 94.4068 16.1435Z" fill="white"/>
<path id="Vector_5" d="M104.568 16.3122C104.465 16.4377 104.412 16.5864 104.412 16.7561V39.9144C104.412 40.0842 104.465 40.2328 104.568 40.3562C104.671 40.4806 104.794 40.5439 104.934 40.5439C105.068 40.5439 105.192 40.4922 105.302 40.3857C105.421 40.2697 105.482 40.1084 105.482 39.9155V16.7561C105.482 16.5621 105.421 16.3976 105.299 16.2827C105.077 16.0676 104.771 16.0718 104.568 16.3122Z" fill="white"/>
<path id="Vector_6" d="M132.802 15.9896H117.415C116.99 15.9896 116.743 16.2184 116.743 16.6222V39.8817C116.743 40.0504 116.814 40.2044 116.949 40.3393C117.082 40.4743 117.244 40.5439 117.415 40.5439C117.84 40.5439 118.082 40.3024 118.082 39.8817V27.5698H129.503C129.937 27.5698 130.187 27.3326 130.187 26.9214C130.187 26.721 130.109 26.5544 129.962 26.4385C129.825 26.3277 129.667 26.2729 129.503 26.2729H118.082V17.2865H132.802C133.239 17.2865 133.488 17.0492 133.488 16.6391C133.488 16.2268 133.239 15.9896 132.802 15.9896Z" fill="white"/>
<path id="Vector_7" d="M104.629 10.9845C102.383 10.9845 100.723 12.9815 100.422 14.1487C100.375 14.3247 100.189 14.9806 100.189 15.2505C100.189 19.3014 100.176 25.1553 100.18 25.2122C100.17 25.2945 100.136 26.2687 100.938 26.2687L100.798 26.2529C101.401 26.2529 101.257 25.5876 101.259 25.2133C101.277 23.6486 101.275 18.5813 101.281 17.6081C101.283 17.1346 101.307 16.6602 101.339 16.1899L101.419 15.086C101.47 14.1023 102.326 12.0747 104.628 12.0631H105.004C107.463 12.0631 108.363 15.0533 108.36 15.8821C108.35 18.1553 108.374 32.1721 108.374 32.1721H109.3C109.3 32.1721 109.348 15.9675 109.285 15.3422C109.066 13.2408 107.518 10.9845 104.629 10.9845Z" fill="white"/>
<path id="Vector_8" d="M109.095 4.26389C109.095 6.61937 107.157 8.52673 104.764 8.52673C102.37 8.52673 100.43 6.61937 100.43 4.26389C100.43 1.90842 102.37 0 104.764 0C107.157 0.00105438 109.095 1.90947 109.095 4.26389ZM104.764 1.68489C103.316 1.68489 102.143 2.83943 102.143 4.26389C102.143 5.68941 103.317 6.84184 104.764 6.84184C106.211 6.84184 107.384 5.68835 107.384 4.26389C107.384 2.83943 106.211 1.68489 104.764 1.68489Z" fill="white"/>
</g>
</svg>
