<svg preserveAspectRatio="none" width="100%" height="100%" overflow="visible" style="display: block;" viewBox="0 0 29.4667 29.4667" fill="none" xmlns="http://www.w3.org/2000/svg">
<g id="Group 303">
<path id="Vector" d="M14.737 0H14.7297C6.60606 0 0 6.6079 0 14.7333C0 17.9563 1.0387 20.9434 2.80486 23.3689L0.968717 28.8423L6.63184 27.032C8.96155 28.5753 11.7406 29.4667 14.737 29.4667C22.8606 29.4667 29.4667 22.8569 29.4667 14.7333C29.4667 6.60974 22.8606 0 14.737 0Z" fill="#4CAF50"/>
<path id="Vector_2" d="M23.3102 20.8053C22.9548 21.809 21.5441 22.6415 20.4188 22.8846C19.649 23.0485 18.6435 23.1792 15.2585 21.7759C10.9287 19.9821 8.14044 15.5823 7.92312 15.2969C7.71501 15.0114 6.17354 12.9672 6.17354 10.8529C6.17354 8.73871 7.24723 7.70922 7.68002 7.26722C8.03546 6.90441 8.62295 6.73866 9.1865 6.73866C9.36883 6.73866 9.53274 6.74787 9.68007 6.75524C10.1129 6.77365 10.3302 6.79944 10.6156 7.4827C10.9711 8.33907 11.8367 10.4533 11.9398 10.6706C12.0448 10.8879 12.1497 11.1826 12.0024 11.4681C11.8643 11.7627 11.7427 11.8935 11.5254 12.144C11.3081 12.3944 11.1018 12.586 10.8845 12.8548C10.6856 13.0887 10.4609 13.3392 10.7114 13.772C10.9619 14.1956 11.8275 15.6081 13.1019 16.7426C14.7465 18.2067 16.0799 18.6745 16.5568 18.8734C16.9123 19.0207 17.3359 18.9857 17.5956 18.7095C17.9252 18.3541 18.3322 17.7647 18.7466 17.1846C19.0413 16.7684 19.4133 16.7168 19.8037 16.8641C20.2015 17.0023 22.3065 18.0428 22.7393 18.2583C23.1721 18.4756 23.4576 18.5787 23.5625 18.7611C23.6657 18.9434 23.6657 19.7998 23.3102 20.8053Z" fill="#FAFAFA"/>
</g>
</svg>
