<svg preserveAspectRatio="none" width="100%" height="100%" overflow="visible" style="display: block;" viewBox="0 0 23.2031 25.4557" fill="none" xmlns="http://www.w3.org/2000/svg">
<g id="Group">
<path id="Vector" d="M22.9866 15.144L12.8906 0V12.2292C14.3878 12.7632 15.4688 14.1806 15.4688 15.859C15.4688 17.9914 13.734 19.7262 11.6016 19.7262C9.46912 19.7262 7.73439 17.9914 7.73439 15.859C7.73439 14.1806 8.81531 12.7632 10.3125 12.2292V0L0.216575 15.144C-0.124597 15.6551 -0.0566207 16.3361 0.377707 16.7704C2.74417 19.1369 4.25684 22.1855 4.84061 25.4557C5.73608 25.0925 6.71001 24.8824 7.73439 24.8824H15.4688C16.4931 24.8824 17.4671 25.0924 18.3625 25.4555C18.9463 22.1852 20.459 19.1369 22.8254 16.7704C23.2598 16.3361 23.3277 15.6551 22.9866 15.144Z" fill="#F4A31D"/>
</g>
</svg>
