<svg preserveAspectRatio="none" width="100%" height="100%" overflow="visible" style="display: block;" viewBox="0 0 149.663 52.3114" fill="none" xmlns="http://www.w3.org/2000/svg">
<g id="Group 199">
<g id="Group">
<path id="Vector" d="M36.1631 22.2825C36.1631 26.4407 34.3311 30.173 31.434 32.7122L40.5003 35.1407C43.0737 31.5022 44.5904 27.0713 44.5904 22.2825C44.5904 10.2678 35.0298 0.434572 23.1175 0V8.43582C30.3944 8.86187 36.1717 14.8948 36.1717 22.2825H36.1631Z" fill="white"/>
<path id="Vector_2" d="M19.6154 35.8987C13.2332 34.6546 8.41877 29.0308 8.41877 22.2906C8.41877 14.9029 14.1875 8.87001 21.473 8.44396V0.00814103C9.56059 0.442713 0 10.2675 0 22.2906C0 34.3138 10.0037 44.5816 22.291 44.5816C27.2673 44.5816 31.8686 42.9456 35.5838 40.1763L19.6239 35.8987H19.6154Z" fill="white"/>
</g>
<g id="Group_2">
<path id="Vector_3" d="M84.5026 39.5887C83.8976 38.7451 82.9177 38.1912 81.5714 38.1912C80.2251 38.1912 78.5464 39.0178 78.5464 40.8072C78.5464 42.5966 80.0547 43.0312 81.6311 43.5424C83.6335 44.19 85.8404 44.8206 85.8404 47.607C85.8404 50.3933 83.4546 51.6204 81.205 51.6204C79.4838 51.6204 77.754 50.9302 76.7315 49.5583L77.9755 48.6551C78.5976 49.635 79.7394 50.4019 81.222 50.4019C82.7047 50.4019 84.3663 49.4986 84.3663 47.7092C84.3663 45.7664 82.7047 45.2722 80.8982 44.7183C79.0151 44.1474 77.0893 43.3465 77.0893 40.8242C77.0893 38.1316 79.5349 36.9898 81.6225 36.9898C83.5312 36.9898 84.9543 37.7737 85.6359 38.6769L84.4941 39.5802L84.5026 39.5887Z" fill="white"/>
<path id="Vector_4" d="M91.967 51.4927C89.0613 51.4927 86.9737 49.4306 86.9737 46.6613C86.9737 43.8919 89.0613 41.8299 91.967 41.8299C94.8726 41.8299 96.9773 43.8919 96.9773 46.6613C96.9773 49.4306 94.8897 51.4927 91.967 51.4927ZM91.967 42.9461C89.8026 42.9461 88.4137 44.5992 88.4137 46.6613C88.4137 48.7234 89.7941 50.3594 91.967 50.3594C94.1398 50.3594 95.5373 48.7319 95.5373 46.6613C95.5373 44.5907 94.1569 42.9461 91.967 42.9461Z" fill="white"/>
<path id="Vector_5" d="M99.7041 51.2626H98.3408V36.4019H99.7041V51.2626Z" fill="white"/>
<path id="Vector_6" d="M108.975 51.2625C108.933 50.7683 108.899 50.0866 108.899 49.6861H108.856C108.336 50.7513 106.973 51.4926 105.644 51.4926C103.258 51.4926 102.073 49.9759 102.073 47.7007V42.0598H103.437V47.1469C103.437 49.0726 104.016 50.3678 105.984 50.3678C107.424 50.3678 108.83 49.226 108.83 46.7719V42.0513H110.194V49.226C110.194 49.7202 110.211 50.6234 110.27 51.254H108.967L108.975 51.2625Z" fill="white"/>
<path id="Vector_7" d="M117.232 43.1845H114.582V48.5527C114.582 49.9246 115.161 50.2399 115.988 50.2399C116.371 50.2399 116.806 50.1206 117.172 49.9416L117.232 51.1005C116.755 51.2794 116.252 51.3732 115.63 51.3732C114.624 51.3732 113.227 50.9386 113.227 48.9191V43.1845H111.284V42.0682H113.227V39.4778H114.59V42.0682H117.24V43.1845H117.232Z" fill="white"/>
<path id="Vector_8" d="M119.26 39.4696C118.783 39.4696 118.297 39.0776 118.297 38.5237C118.297 37.9699 118.774 37.5779 119.26 37.5779C119.746 37.5779 120.223 37.9699 120.223 38.5237C120.223 39.0776 119.746 39.4696 119.26 39.4696ZM119.942 51.2627H118.578V42.0685H119.942V51.2627Z" fill="white"/>
<path id="Vector_9" d="M126.281 51.4927C123.375 51.4927 121.288 49.4306 121.288 46.6613C121.288 43.8919 123.375 41.8299 126.281 41.8299C129.187 41.8299 131.291 43.8919 131.291 46.6613C131.291 49.4306 129.204 51.4927 126.281 51.4927ZM126.281 42.9461C124.117 42.9461 122.728 44.5992 122.728 46.6613C122.728 48.7234 124.108 50.3594 126.281 50.3594C128.454 50.3594 129.851 48.7319 129.851 46.6613C129.851 44.5907 128.471 42.9461 126.281 42.9461Z" fill="white"/>
<path id="Vector_10" d="M133.839 42.0599C133.882 42.5541 133.916 43.2358 133.916 43.6363H133.958C134.478 42.5712 135.842 41.8299 137.171 41.8299C139.557 41.8299 140.741 43.3466 140.741 45.6217V51.2626H139.378V46.1756C139.378 44.2498 138.798 42.9546 136.83 42.9546C135.39 42.9546 133.984 44.0965 133.984 46.5505V51.2712H132.621V44.0965C132.621 43.6022 132.604 42.699 132.544 42.0684H133.848L133.839 42.0599Z" fill="white"/>
<path id="Vector_11" d="M148.461 44.241C148.061 43.4741 147.2 42.9458 146.152 42.9458C145.172 42.9458 144.167 43.3548 144.167 44.3774C144.167 45.238 144.866 45.6385 146.416 45.9537C148.623 46.4054 149.663 47.2149 149.663 48.6464C149.663 50.7511 147.856 51.4924 146.135 51.4924C144.712 51.4924 143.289 50.9385 142.429 49.703L143.511 48.9191C143.988 49.7286 145.019 50.3506 146.118 50.3506C147.286 50.3506 148.325 49.9416 148.325 48.7401C148.325 47.7772 147.345 47.3853 145.556 46.9677C144.457 46.7121 142.872 46.2435 142.872 44.4881C142.872 42.622 144.516 41.8125 146.22 41.8125C147.524 41.8125 148.905 42.4175 149.51 43.4656L148.47 44.2325L148.461 44.241Z" fill="white"/>
</g>
<path id="Vector_12" d="M54.9862 43.6447C54.9862 39.8784 51.9271 36.8194 48.1608 36.8194C44.3945 36.8194 41.3355 39.8784 41.3355 43.6447C41.3355 46.7378 43.4061 49.3623 46.2351 50.1889L46.2777 50.1974C46.3714 50.2229 46.4651 50.2485 46.5674 50.2741L54.0659 52.2509L54.3982 50.9983L50.6234 50.0014C53.1712 49.013 54.9776 46.5333 54.9776 43.6447H54.9862ZM42.6392 43.6447C42.6392 40.6027 45.1188 38.1231 48.1608 38.1231C51.2028 38.1231 53.6824 40.6027 53.6824 43.6447C53.6824 46.6867 51.2028 49.1663 48.1608 49.1663C45.1188 49.1663 42.6392 46.6867 42.6392 43.6447Z" fill="white"/>
<path id="Vector_13" d="M71.6278 43.6447C71.6278 39.8784 68.5688 36.8194 64.8025 36.8194C61.0362 36.8194 57.9771 39.8784 57.9771 43.6447C57.9771 46.7378 60.0477 49.3623 62.8767 50.1889L62.9193 50.1974C63.0131 50.2229 63.1153 50.2485 63.209 50.2741L70.7075 52.2509L71.0399 50.9983L67.2651 50.0014C69.8128 49.013 71.6193 46.5333 71.6193 43.6447H71.6278ZM59.2808 43.6447C59.2808 40.6027 61.7605 38.1231 64.8025 38.1231C67.8445 38.1231 70.3241 40.6027 70.3241 43.6447C70.3241 46.6867 67.8445 49.1663 64.8025 49.1663C61.7605 49.1663 59.2808 46.6867 59.2808 43.6447Z" fill="white"/>
<g id="Group_3">
<path id="Vector_14" d="M56.3923 51.1523C56.3923 50.854 56.2304 50.7092 55.9407 50.7092C55.7362 50.7092 55.5573 50.7859 55.438 50.9137L55.3016 50.7518C55.438 50.6154 55.6766 50.5047 55.9748 50.5047C56.3412 50.5047 56.6394 50.7092 56.6394 51.1267V51.8765C56.6394 52.0044 56.648 52.1663 56.665 52.26H56.4435C56.4264 52.1748 56.4179 52.0725 56.4179 51.9873C56.2645 52.2174 56.0685 52.3111 55.7959 52.3111C55.5402 52.3111 55.2079 52.1748 55.2079 51.7913C55.2079 51.263 55.7873 51.2204 56.4094 51.2204V51.1693L56.3923 51.1523ZM56.3156 51.3994C55.9152 51.3994 55.438 51.442 55.438 51.7658C55.438 52.0129 55.6425 52.0896 55.8385 52.0896C56.1878 52.0896 56.3838 51.8254 56.3838 51.5272V51.3994H56.3071H56.3156Z" fill="white"/>
<path id="Vector_15" d="M57.2617 50.5473C57.2617 50.641 57.2788 50.7688 57.2788 50.837C57.3725 50.641 57.6196 50.5047 57.8582 50.5047C58.2928 50.5047 58.5058 50.7859 58.5058 51.2119V52.26H58.2587V51.3142C58.2587 50.9563 58.1564 50.7177 57.7985 50.7177C57.5344 50.7177 57.2788 50.9307 57.2788 51.3823V52.26H57.0316V50.9307C57.0316 50.837 57.0316 50.6751 57.0146 50.5558H57.2532L57.2617 50.5473Z" fill="white"/>
<path id="Vector_16" d="M59.6304 52.2935C59.1021 52.2935 58.7442 51.9015 58.7442 51.3987C58.7442 50.896 59.0936 50.504 59.6304 50.504C59.8775 50.504 60.1331 50.6233 60.278 50.8449V49.4986H60.5251V52.2508H60.278V51.9611C60.1331 52.1742 59.8775 52.2935 59.6304 52.2935ZM59.656 52.0804C60.0394 52.0804 60.3121 51.7822 60.3121 51.3987C60.3121 51.0153 60.0394 50.7085 59.656 50.7085C59.247 50.7085 59.0084 51.0153 59.0084 51.3987C59.0084 51.7822 59.2384 52.0804 59.656 52.0804Z" fill="white"/>
</g>
<path id="Vector_17" d="M22.291 29.9599C26.5264 29.9599 29.9599 26.5265 29.9599 22.291C29.9599 18.0556 26.5264 14.6221 22.291 14.6221C18.0556 14.6221 14.6221 18.0556 14.6221 22.291C14.6221 26.5265 18.0556 29.9599 22.291 29.9599Z" fill="white"/>
</g>
</svg>
