<svg preserveAspectRatio="none" width="100%" height="100%" overflow="visible" style="display: block;" viewBox="0 0 217 240.283" fill="none" xmlns="http://www.w3.org/2000/svg">
<g id="Group 292">
<g id="Group">
<path id="Vector" d="M63.5642 162.612L60.9415 165.081C60.3192 165.259 59.9934 164.625 59.7072 164.772C55.1915 167.091 57.7299 168.211 54.7702 169.709C54.3938 169.9 53.7941 168.595 53.5359 170.326C51.426 167.835 51.7078 170.551 51.0674 170.018C50.6159 169.642 51.4087 167.863 50.1417 167.858C48.9114 176.74 47.2449 168.237 44.5876 171.252C43.485 169.348 40.5515 174.592 41.3477 175.726C40.9436 176.931 39.3586 176.365 40.7306 176.96L38.5706 177.269C37.9565 184.087 43.5277 181.141 39.9592 183.903C45.7365 184.358 40.2257 181.314 40.422 180.663C43.8601 179.048 41.2987 177.449 41.3477 176.96C45.454 174.543 41.4205 170.448 45.2047 172.795C44.9911 168.372 48.651 176.351 50.7589 170.326C52.3882 170.502 52.7313 172.325 54.4616 170.326C57.3427 173.173 56.3451 163.97 59.7072 167.241C59.0241 166.98 60.893 165.438 62.4843 164.155C62.6361 164.032 63.5575 164.278 63.7185 164.155C64.9257 163.234 64.7312 160.493 67.1127 161.686C67.2654 161.763 68.2294 164.759 68.1927 164.926C68.1494 165.123 66.0393 168.007 66.0328 168.32C66.0285 168.522 69.8837 170.547 66.0328 169.246C66.6577 169.954 66.3439 170.751 66.3413 171.869C64.2282 170.9 66.0556 174.01 66.0328 174.183C66.0164 174.306 64.7056 175.859 64.7985 176.343C65.007 177.43 72.6701 179.224 62.7929 181.743C61.7645 182.921 63.0428 184.537 62.6386 185.291C62.3147 185.896 61.2786 184.133 60.4786 185.6C59.1919 187.959 61.3307 192.332 61.4043 192.697C61.4717 193.031 59.3843 195.702 63.4099 194.702C64.4037 197.072 66.0435 194.105 67.1127 197.171C70.1866 192.441 69.5622 197.054 71.2783 194.085L73.1297 194.394C74.553 200.016 78.5014 197.249 77.7582 200.411C77.4517 201.714 74.1139 202.49 73.9011 202.417C73.4774 202.27 74.9552 201.812 74.2096 201.491C73.7109 201.276 70.3842 202.264 70.044 202.879C68.8266 205.082 70.7816 209.287 70.1983 211.673C64.471 208.97 68.2067 216.71 59.7072 210.131C57.8289 209.672 56.3417 212.304 48.4446 204.268C48.2158 204.035 49.1091 203.104 47.3647 203.651L45.9761 201.491C44.9882 198.049 44.7095 192.863 42.5819 190.228C43.0912 186.508 41.4645 188.049 40.1134 186.217C39.8715 185.889 36.1923 179.518 36.102 179.12C35.3942 176.002 38.5878 175.876 36.5649 175.263C34.4198 177.548 35.241 175.689 35.1763 175.572C35.19 175.141 35.5347 175.442 35.7934 174.954C36.4097 173.794 34.5693 174.447 33.942 173.257C33.8752 170.928 32.5424 169.005 32.0906 166.469C31.9396 165.621 32.4509 159.699 31.165 158.446C31.4754 155.836 32.7606 159.013 35.1763 155.978C33.2961 155.98 30.9437 155.252 32.3992 154.281C33.1245 155.979 34.1025 154.445 32.7078 153.972C30.1005 153.087 31.3934 156.986 29.9307 153.509C32.7298 151.977 29.4876 152.391 29.6222 151.967C29.7471 151.572 30.8235 151.377 30.8564 151.041C30.9392 150.195 27.721 150.717 30.8564 147.955C27.0788 147.092 31.7579 144.619 32.5535 148.418C33.8338 145.529 34.8408 148.888 35.7934 146.567C35.9563 146.17 35.332 144.895 37.3362 144.252C34.7106 141.857 40.5376 145.709 38.1077 142.864L41.6562 142.401C40.1736 140.428 43.2164 139.599 40.1134 138.544C41.4274 138.608 42.2433 138.887 42.4276 138.853C43.8826 138.585 42.8705 136.752 42.7361 136.693C42.2408 136.473 42.1369 137.653 41.8105 137.618C39.5565 137.381 42.5473 136.06 42.5819 135.921C43.0369 134.105 40.951 136.145 41.0391 134.378C41.1208 132.739 41.966 132.042 41.9648 131.91C41.952 130.544 40.8179 131.64 41.0391 130.367C41.3973 128.306 42.8392 131.347 43.0447 131.447C44.1879 132.003 47.1881 130.322 48.9075 134.841C52.7279 134.665 54.5816 137.914 57.2387 136.076C60.4526 138.874 63.1391 133.73 64.3356 132.064C65.7845 136.49 70.7793 135.816 73.9011 134.224C76.4032 135.503 83.1633 135.262 85.935 134.224C92.5998 137.961 87.5132 138.153 87.9407 144.252C91.5786 145.936 90.8468 148.956 90.4092 151.967C89.2202 152.367 91.167 149.028 87.1693 151.812C83.113 146.939 84.075 150.081 83.158 150.269C82.7652 150.35 80.2256 147.71 79.7638 149.344C80.5529 144.661 78.914 149.446 77.9124 149.344C77.2253 148.882 74.2069 146.769 73.5925 146.875C72.935 146.989 71.1343 150.015 72.204 151.658C66.7087 153.993 70.7186 154.166 69.4269 156.286C68.6423 157.574 64.8602 154.191 66.9584 160.298C65.7366 162.243 63.6414 158.495 63.5642 162.612Z" fill="#F4A31D"/>
<path id="Vector_2" d="M55.85 107.689C55.8904 107.641 55.9386 106.633 55.6957 106.455C55.2481 106.125 55.0047 109.23 50.7587 103.986C51.3759 108.345 49.6481 105.598 49.2159 105.837C48.7025 106.122 49.5236 106.599 49.3702 106.917C49.2366 107.194 47.1423 106.388 46.9016 110.62C52.0203 113.34 45.5499 111.166 47.8273 117.1C46.2247 119.588 45.141 119.177 46.9016 120.648C43.757 120.543 46.6308 120.971 46.2845 121.42C45.4798 122.463 42.5424 120.167 41.8103 119.723C41.6056 119.598 40.7492 119.847 40.5761 119.723C39.7082 119.101 38.5555 116.968 38.5704 116.791C38.6011 116.429 40.2615 117.329 38.879 114.94C42.3516 113.621 37.2074 114.06 35.9476 112.626C34.6139 111.108 37.5928 111.156 30.3935 107.689L20.6737 107.997C20.7161 107.854 20.347 107.627 21.2908 105.066C19.98 103.967 18.8541 99.2413 18.5138 98.8947C17.4918 97.8539 15.5507 99.0521 14.5024 97.6604L15.4281 91.4892L14.6567 90.7177C2.46158 92.8635 16.5086 79.8104 17.4337 79.918C19.5102 83.0329 29.4074 81.0364 28.0792 76.061L31.4734 73.901C30.2635 71.2288 33.9654 71.2203 35.1761 69.8897C36.2836 68.6726 37.2022 63.9562 38.2618 62.6385C40.7545 60.378 41.4715 65.6779 47.9815 63.2556C45.8515 74.855 51.2623 66.6212 53.5357 69.4269C55.5702 67.5484 54.475 71.235 55.5413 72.3582C52.7466 72.0881 54.1368 76.3482 55.6956 78.0667L60.0155 78.3752C64.8148 73.9634 63.6364 80.1845 66.1867 77.7581C68.8659 80.5411 66.2065 80.2792 66.0324 80.998C65.9355 81.3984 66.7731 82.0502 66.6496 82.8494C66.229 85.5692 64.12 86.3395 68.501 86.8607C67.5243 92.0136 69.3158 85.8841 69.5809 85.7807C70.4121 85.4567 71.0787 87.7872 72.358 86.7064C75.6487 91.526 62.1205 93.541 59.8612 96.7347C61.2826 101.249 56.532 101.551 64.9525 101.826C73.3585 107.498 62.3457 104.984 62.0211 107.843C61.9594 108.387 64.5116 110.341 59.3983 110.774C59.8586 113.302 57.4532 108.098 56.6213 112.626C53.8998 110.846 58.2689 108.794 56.9298 106.763C56.5132 107.075 56.2795 107.355 55.85 107.689Z" fill="#F4A31D"/>
<path id="Vector_3" d="M84.2377 38.2618C82.2476 35.4046 83.667 40.08 83.6206 40.2674C83.5302 40.6317 79.2975 44.2122 78.8378 38.5703C74.8891 39.0577 72.1725 35.9589 68.6552 34.2505C67.2212 35.275 62.3863 35.9777 61.8668 33.6333C60.8506 35.1004 60.409 34.0777 58.7811 34.2505C54.2187 37.2744 55.8072 39.113 55.5412 39.6503C55.1648 40.4106 53.5625 37.4404 54.6156 44.2788C53.0589 44.9823 54.3722 43.3439 52.9185 42.2731C51.2847 41.0697 49.0515 43.0282 48.9071 38.2618C43.8504 38.9834 44.6424 35.7266 44.2787 35.4847C44.0824 35.3542 41.9789 36.3002 39.8045 34.7133C40.2535 33.3706 39.6945 27.8249 39.496 27.3078C39.3958 27.0469 37.9449 27.4005 37.336 22.9879C42.3258 18.0601 37.7757 26.0445 41.5017 20.9823C46.7793 21.1575 42.3546 20.0211 42.2731 19.2852C42.2632 19.1958 43.2673 18.087 43.1988 17.7424C42.9055 16.2658 36.3821 17.7599 40.4217 14.3482C36.8027 13.2779 38.5024 10.5301 35.3304 11.7254C33.7194 8.59649 31.3938 13.4469 32.7076 8.4855C36.8334 7.6616 31.286 5.62943 35.3304 6.7884C35.4978 6.73136 35.4392 5.58835 36.8732 5.86273C35.1267 -0.906056 44.4082 6.75406 41.3474 2.93137C42.1041 -2.808 44.268 2.93322 50.45 0C50.1894 2.45009 56.3687 2.57971 54.9242 4.78276C57.3008 5.02733 57.0281 7.21355 59.7069 6.7884C60.9341 8.13205 58.0476 7.73108 61.2497 9.87406C61.4819 10.0294 64.3377 10.4325 64.1811 11.8797C64.152 12.1485 62.8256 12.8342 63.1011 13.2683C63.6374 14.1132 67.0733 13.4829 68.6553 15.7368C71.806 14.368 74.1227 17.096 74.518 14.194C78.0488 15.3627 76.7107 13.0061 77.6037 12.6512C78.154 12.4324 78.5119 13.0769 78.8379 12.9597C85.981 10.3927 83.5082 10.8676 89.6376 14.8111C91.2974 15.879 91.852 12.5953 90.4091 20.8281C84.6325 25.1263 89.0472 24.5531 85.6264 27.1537C85.3065 27.3968 84.8429 25.8266 83.775 28.3879C79.6209 26.5894 82.5205 30.3155 82.3865 31.0107C82.0908 32.5445 78.0608 32.2252 83.6207 34.7134C83.0021 36.385 85.0652 36.4106 84.2377 38.2618Z" fill="#F4A31D"/>
<path id="Vector_4" d="M88.2489 72.5127C88.4069 72.5561 90.4294 74.0174 90.5631 74.0555C91.7586 74.3971 93.2777 73.8066 94.5745 74.3641C94.7965 74.4595 98.2728 77.4505 97.043 77.7583C98.6481 77.4112 102.244 81.8212 102.597 81.7696C103.252 81.6738 102.623 80.3904 103.831 80.5353C104.345 80.597 104.588 82.6578 107.226 81.7696C109.342 84.6047 110.215 82.9613 112.78 84.8553C117.806 82.2454 114.497 85.2549 116.328 87.9409C115.817 87.9431 116.515 89.0406 116.637 89.4837C118.397 95.8985 119.567 93.5627 119.722 94.575C119.764 94.8468 118.187 95.8921 119.105 97.0436C119.513 97.5546 128.779 100.378 114.323 101.518C107.697 106.072 112.207 107.464 112.317 108.46C112.913 113.878 102.443 104.499 101.98 103.369C100.84 103.942 102.739 105.443 101.98 105.838C101.507 106.083 99.414 104.047 98.5859 104.295C97.664 107.274 93.1213 105.427 91.7975 104.295C91.3096 103.878 92.1752 103.483 91.9518 103.215C91.2744 102.401 87.7379 104.377 85.6262 102.443C82.6753 105.43 84.4633 102.039 84.0834 101.826C83.0148 101.228 81.3977 102.895 80.9977 102.752C80.3966 102.537 80.6299 101.619 80.3806 101.518C80.1323 101.417 77.3937 104.226 80.8434 98.895C76.5885 94.6378 83.9235 100.302 82.8491 94.4208C81.3515 95.6263 81.8774 94.4016 83.6205 93.0323C78.6126 90.3912 79.7584 88.1709 78.8377 87.941C78.5249 87.8629 77.3777 88.5653 77.2949 88.5581C76.9985 88.5325 77.7368 86.0975 74.2093 89.4838C72.462 81.7065 65.6121 87.9508 66.4952 84.8553C70.4426 84.0926 67.2871 82.1482 67.2666 81.924C67.2453 81.6899 69.0743 78.3875 69.118 77.6041C69.155 76.9408 68.209 76.2064 68.1924 75.907C68.1697 75.4978 68.2272 74.8395 68.1924 74.3642C68.1888 74.315 69.0718 74.0194 68.8095 73.5928C68.6015 73.2546 66.4617 72.8655 66.6496 72.05C67.0228 70.4301 69.7666 74.4581 69.1181 71.7414C68.814 70.4678 64.9541 71.6996 68.1924 69.2729C65.502 67.7532 67.9339 67.2316 68.8096 65.8787C68.9302 65.6923 68.8229 62.0968 70.5067 64.4902C71.3529 62.9649 73.005 65.9856 75.4437 63.2559C74.4136 67.6703 77.4375 67.2019 77.4493 67.7301C77.4577 68.1084 75.2174 68.5708 76.3693 69.4272C78.2254 70.807 79.9061 66.0517 83.312 68.9644C80.4414 70.0862 83.6451 69.4945 84.0835 69.7358C85.0467 70.2661 86.0401 73.4038 82.8492 71.2786C84.0963 74.8233 85.7088 71.8957 85.9349 71.8957C86.0874 71.8957 86.9749 73.0949 87.1691 73.13C87.698 73.2254 87.9394 72.4279 88.2489 72.5127Z" fill="#F4A31D"/>
<path id="Vector_5" d="M145.95 131.758C144.01 134.822 139.848 134.08 138.545 137.157C137.121 140.517 142.106 139.468 137.928 142.094C139.169 143.92 135.956 145.773 134.688 148.42C133.006 148.33 131.049 148.843 129.751 147.494L125.585 151.968C127.089 153.118 125.345 154.16 125.276 154.283L124.659 153.048C124.955 152.58 125.294 150.871 124.659 150.117L126.819 146.414C129.056 145.107 130.573 146.193 131.448 143.02C129.573 142.24 129.718 144.476 129.133 144.717C127.155 143.324 123.547 150.076 124.351 151.968C119.954 157.298 118.464 153.935 118.025 153.974C117.552 154.016 112.679 159.897 112.317 153.203C107.41 152.079 112.341 156.804 108.305 155.98C110.796 158.996 105.365 154.875 105.528 159.682C102.035 161.221 101.263 163.286 96.5801 164.002C98.0193 159.274 100.672 161.75 99.9743 156.905C102.732 156.928 101.18 150.298 104.757 153.048C105.352 152.595 106.125 151.401 105.837 150.734C105.699 150.413 104.693 151.298 101.517 146.106C101.283 145.162 102.318 144.412 101.209 142.403C106.947 142.165 103.389 138.572 105.066 137.929C105.27 137.85 106.965 139.296 109.077 138.237C109.635 137.958 108.601 137.237 109.386 136.694C109.565 136.571 110.462 136.818 110.62 136.694C113.084 134.772 111.349 133.129 114.168 131.295C110.742 121.05 114.801 128.961 118.025 128.055C118.318 127.972 120.029 124.114 122.808 127.592C122.866 127.665 122.935 129.43 123.58 129.289C123.884 129.223 123.58 128.459 123.888 128.363C124.115 128.293 124.424 129.28 124.505 129.289C127.033 129.585 125.766 127.723 126.974 127.746C127.252 127.752 130.944 130.831 131.602 130.832C134.394 130.836 137.344 124.416 137.774 132.992L145.95 131.758Z" fill="#F4A31D"/>
<path id="Vector_6" d="M90.1005 199.024C94.4892 203.071 87.3809 208.576 87.0148 210.595C87.6419 214.937 86.9367 218.694 88.2491 222.938C87.8527 223.914 85.5695 221.352 83.6207 223.555C83.2159 224.013 82.8772 226.491 82.695 226.949C81.9933 228.714 79.9716 228.437 82.3864 231.269C73.56 229.331 76.7545 236.235 72.6667 239.137C70.8488 240.428 68.5504 241.108 67.5754 238.52C67.0411 237.102 66.9548 233.381 68.8097 232.503C67.2815 230.125 69.6344 225.709 69.4268 225.406C68.28 225.651 64.2387 224.484 65.8783 223.092C66.9903 225.453 66.729 224.053 67.8839 221.087C59.6569 216.698 63.8193 215.996 63.2555 215.224C63.1224 215.042 59.2322 214.708 62.484 212.601C66.4897 215.215 67.1358 211.811 67.421 211.675C68.822 211.008 71.7414 215.511 70.9695 207.201C77.0359 204.353 69.2291 207.848 70.3524 203.807C70.9017 201.831 76.2824 204.535 75.7522 202.727C80.1595 204.876 81.0282 201.68 81.3064 201.493C81.71 201.222 83.5477 201.662 84.0834 199.333C86.4282 200.27 85.0254 198.043 86.552 198.407C87.2687 198.578 87.9792 200.36 89.1747 198.099C89.2445 198.587 89.8231 198.768 90.1005 199.024Z" fill="#F4A31D"/>
<path id="Vector_7" d="M78.0667 50.6048C77.4828 50.7078 74.3838 51.1337 74.2096 51.2219C70.6914 53.0036 73.3026 58.2756 71.7411 55.5418C69.7666 56.9918 69.5698 54.0877 66.187 57.0846C64.4016 52.7579 64.6669 55.2439 63.4099 54.6161C63.1337 54.4781 62.6228 51.0329 59.7072 49.9876C63.3236 54.3942 62.171 54.8106 62.3299 55.0789C63.3987 56.8834 69.6626 52.2142 56.313 63.2559C55.8603 63.3573 49.3341 62.5193 47.056 62.6387C46.1094 62.6884 44.6336 64.7903 43.6618 62.3301C42.4128 63.0228 41.3383 62.4794 41.0391 61.0959C42.4897 60.2709 43.1225 60.2256 41.9647 58.4731C46.343 57.7966 43.3337 57.5703 43.199 57.2388C42.9594 56.6492 49.4426 52.6787 46.2847 50.759C48.5763 48.9902 45.3819 49.1472 46.7475 46.2848C50.6649 45.7672 54.7048 44.067 58.0101 46.7477C56.4506 47.7959 59.0928 51.3242 59.8615 49.2162C60.1843 48.3306 58.6008 48.8851 58.3187 48.2905C58.1812 48.0008 58.9742 46.5288 58.9358 46.4391C58.7634 46.0369 51.925 43.6221 56.1587 40.5764C55.3951 35.467 58.1922 37.0624 58.6273 36.5651C58.7937 36.3748 56.6417 33.9793 61.5586 34.868C62.1514 34.9751 63.5058 35.8929 64.0271 36.4108C66.3976 34.6052 67.694 36.2547 68.347 35.1765C68.8604 40.5394 68.6908 32.5768 70.5069 37.645L76.6782 38.8793C75.6609 43.1007 79.1152 47.0178 78.6838 50.4504C78.6513 50.7088 78.0709 50.5733 78.0667 50.6048Z" fill="#F4A31D"/>
<path id="Vector_8" d="M144.407 93.8029C148.425 93.7849 145.021 94.4746 143.79 97.66C145.208 108.165 137.604 102.972 138.545 107.534C138.151 108.006 137.796 107.348 137.773 107.38C135.215 110.92 138.559 106.271 132.219 107.688C130.621 103.975 131.225 106.939 130.676 107.071C130.481 107.118 127.499 106.684 126.665 107.071C126.305 107.238 125.228 108.865 125.122 108.923C121.954 110.628 120.24 107.07 117.099 110.157C116.374 108.889 115.45 110.582 112.78 110.157C113.45 106.489 109.631 105.804 112.625 105.065C110.891 99.6507 131.487 103.375 119.414 96.1172C121.965 91.8242 117.048 94.269 118.797 91.7973C116.907 91.7075 117.847 89.491 116.637 89.4831C116.515 89.0398 115.817 87.9424 116.328 87.9403C117.641 89.8657 117.422 88.2225 119.414 89.0202C114.963 86.6639 119.117 86.1372 116.328 85.9346L118.025 83.3118H118.951C124.878 85.5433 120.786 85.9759 122.191 87.1688C123.88 86.7074 126.37 91.6958 127.282 91.643C128.326 91.5825 127.497 86.7658 133.145 92.8773C137.715 91.3964 139.579 94.659 141.785 93.1858C144.035 95.7518 144.228 93.873 144.407 93.8029Z" fill="#F4A31D"/>
<path id="Vector_9" d="M151.813 111.392C155.741 114.629 151.932 116.562 149.807 115.403C147.869 118.774 155.668 116.063 153.356 118.952C153.369 119.532 156.116 118.447 153.973 122.037C158.407 123.321 154.567 123.655 154.59 124.506C154.599 124.853 157.191 125.084 156.75 130.677C153.39 129.44 150.41 127.786 152.43 123.889C147.029 124.2 149.785 125.223 149.653 125.431C149.416 125.805 148.678 125.368 148.419 125.74C147.423 127.169 150.759 125.56 151.196 126.666C151.641 127.792 149.222 127.565 149.036 127.9C148.704 128.495 150.216 131.55 149.653 133.146C148.826 135.489 149.188 130.213 147.339 128.054C147.329 131.903 146.339 130.975 146.259 131.14C137.121 132.874 140.126 129.833 137.156 128.054C135.405 127.006 134.904 128.609 133.916 127.9C132.019 126.538 137.061 127.839 134.533 126.203C134.839 126.242 134.848 125.166 136.539 127.437L137.002 126.974C136.479 126.475 136.21 126.358 136.076 125.586C138.78 126.054 138.461 131.496 138.853 127.283C136.264 124.183 136.099 120.589 134.688 122.192C131.139 116.007 135.186 118.109 135.459 117.717C135.852 117.153 132.266 115.401 137.773 117.255C136.738 113.271 139.705 119.599 143.173 114.632C143.311 114.434 141.297 113.981 145.642 111.546C145.868 107.062 146.517 111.911 146.722 112.009C149.448 113.312 149.646 110.013 151.813 111.392Z" fill="#F4A31D"/>
<path id="Vector_10" d="M88.2493 71.8948C84.9382 72.7265 85.2507 66.4009 80.3809 67.575C81.3726 64.2942 75.0343 68.2044 75.9067 64.9522C76.0421 64.4477 77.2063 64.2535 77.141 63.7179C77.0918 63.3144 69.7732 58.8495 72.0497 58.318C72.664 58.1746 72.8758 59.7557 74.0553 58.1637C72.4366 55.1104 72.917 51.9789 76.6781 51.2211C77.4437 51.0668 77.8784 51.5762 78.6837 51.5296C79.3472 51.4912 81.0973 50.4821 82.2322 51.2211C82.6594 51.4991 85.6175 56.4195 85.935 56.4666C86.7291 56.5844 87.165 54.9499 87.4778 54.9239C87.9154 54.8873 88.6766 58.1037 90.872 57.3924C92.5696 59.8467 95.9442 59.4523 93.649 60.7866C93.5228 60.86 92.0504 60.9293 91.7976 61.0951C89.0563 62.8944 90.2321 65.4182 90.1005 65.8779C89.8389 66.7923 86.7344 66.1638 90.1005 68.9635C88.6488 69.0821 88.5887 70.7461 88.2493 71.8948Z" fill="#F4A31D"/>
<path id="Vector_11" d="M48.4445 204.268C46.9831 203.785 50.3443 206.721 52.3016 208.897C59.9024 211.146 55.9926 215.534 61.2499 211.982C59.1375 216.745 61.9569 214.714 62.3299 215.84C62.5056 216.37 61.2751 216.801 61.4042 217.382C61.4874 217.757 64.4961 219.354 64.4899 219.542C64.3972 222.313 60.5595 216.835 60.7871 218.925C61.1362 222.129 67.3219 219.336 66.8041 221.856C66.0147 221.028 64.4004 223.091 64.4899 223.862C64.5726 224.576 67.4348 226.155 68.1926 226.639C68.0447 230.882 66.0859 234.29 67.2669 238.519C66.5848 239.304 61.2959 232.909 61.0957 232.502C60.6834 231.664 59.6577 223.986 56.7758 221.394L53.0731 212.137C49.8918 210.694 48.6979 207.881 46.5932 205.348C47.2335 203.11 46.2457 202.43 45.9761 201.491L47.3646 203.651C49.109 203.105 48.2158 204.036 48.4445 204.268Z" fill="#F4A31D"/>
<path id="Vector_12" d="M40.1131 138.544C43.2161 139.599 40.1733 140.429 41.6559 142.401L38.1074 142.864C40.5373 145.709 34.7103 141.857 37.3359 144.253C35.3317 144.895 35.956 146.17 35.7931 146.567C35.0436 147.102 35.2068 146.569 35.176 146.567C35.0638 143.831 34.7379 142.64 38.1074 141.63C38.5554 141.496 39.3318 142.469 39.6502 142.247C42.3065 140.398 38.6325 138.86 38.8787 138.39C39.1952 137.984 39.403 138.51 40.1131 138.544Z" fill="#FAF5EF"/>
<path id="Vector_13" d="M151.042 130.523C151.494 130.901 151.071 134.31 150.425 133.917C149.968 133.64 150.478 130.9 151.042 130.523Z" fill="#F4A31D"/>
<path id="Vector_14" d="M51.9926 44.1229C52.3095 44.1358 52.6055 44.019 52.764 44.2772C48.2829 47.1154 49.0717 44.0043 51.9926 44.1229Z" fill="#F4A31D"/>
<path id="Vector_15" d="M28.2336 127.128C28.321 127.078 29.959 127.679 29.9307 128.208C29.8775 129.203 27.0611 127.797 28.2336 127.128Z" fill="#F4A31D"/>
<path id="Vector_16" d="M70.8153 36.1022C72.9186 35.8143 72.6932 38.1429 70.8153 37.0279C70.1916 36.6576 70.4843 36.1476 70.8153 36.1022Z" fill="#F4A31D"/>
<path id="Vector_17" d="M90.1002 199.023C89.9133 196.117 90.977 195.557 90.7173 198.868L90.1002 199.023Z" fill="#F4A31D"/>
<path id="Vector_18" d="M27.6166 130.213C27.9239 130.199 28.6757 131.717 27.9252 131.756C26.8554 131.812 27.0658 130.238 27.6166 130.213Z" fill="#F4A31D"/>
<path id="Vector_19" d="M150.116 128.053C151.988 128.385 149.073 132.121 149.653 128.516C149.658 128.482 150.084 128.047 150.116 128.053Z" fill="#F4A31D"/>
<path id="Vector_20" d="M32.3989 154.282C32.4403 154.255 32.7409 154.35 32.7075 153.974C34.1022 154.447 33.1241 155.981 32.3989 154.282Z" fill="#FAF5EF"/>
<path id="Vector_21" d="M151.659 128.362C152.192 128.363 152.189 129.597 151.659 129.597C151.126 129.596 151.128 128.361 151.659 128.362Z" fill="#F4A31D"/>
<path id="Vector_22" d="M14.1938 122.807C14.3186 123.257 13.9773 123.391 13.8853 123.733C12.8779 123.432 13.2324 122.181 14.1938 122.807Z" fill="#F4A31D"/>
<path id="Vector_23" d="M152.276 130.523C152.566 130.502 152.774 131.886 152.276 131.757C151.621 131.588 151.828 130.555 152.276 130.523Z" fill="#F4A31D"/>
<g id="Group_2">
<path id="Vector_24" d="M207.2 62.0209C211.51 66.6699 208.545 62.8024 209.669 62.9466C211.153 63.1372 209.787 65.4216 209.823 65.5694C209.898 65.8775 211.304 66.3775 211.366 66.8036C211.569 68.1909 204.297 73.4489 213.063 70.0435C214.306 71.7827 214.798 70.3191 214.914 70.3521C218.227 71.2895 217.233 72.7426 214.452 76.6776C214.211 77.9742 217.929 77.7705 216.457 79.609C211.94 75.1401 213.803 78.5055 212.754 79.3004C212.198 79.7222 210.389 78.1845 206.892 82.0775C204.032 75.614 207.905 77.1508 207.355 74.8262C206.607 71.6712 200.606 76.357 199.486 76.8319C198.501 77.2498 195.969 77.6779 195.166 78.0661C192.56 79.3265 191.271 81.2019 189.304 80.8432C187.751 85.601 181.7 83.9534 177.578 85.1631C176.709 84.6253 177.543 81.9385 177.424 81.6146C176.743 79.7601 166.06 77.6289 177.578 77.449C180.102 80.398 177.661 76.1272 184.675 76.8318L185.138 76.369C185.341 75.5151 179.337 73.276 187.761 71.5862C188.484 64.3948 191.718 72.7839 190.692 68.0377C195.716 66.4154 194.978 63.7985 196.092 63.5636C200.386 62.6584 197.795 69.8168 207.2 62.0209Z" fill="#F4A31D"/>
<path id="Vector_25" d="M205.349 74.3643C208.593 74.2398 205.593 75.9125 205.503 76.0614C202.058 81.7552 195.827 85.044 191.155 89.7925C190.037 87.6376 187.088 90.9392 186.681 92.4153C186.625 92.6163 187.352 94.7132 186.218 95.9638C183.897 95.4875 184.896 97.5095 184.521 98.278C184.139 99.0591 182.89 101.27 182.052 100.438C182.965 95.6606 181.179 97.2298 180.355 93.8038C175.683 93.814 165.31 97.3725 163.693 95.0381C159.433 99.5389 161.814 89.8153 162.767 89.484C162.916 89.4323 164.563 90.4144 165.853 90.1011C165.949 90.0778 166.655 88.5773 167.395 88.8668C167.574 88.9366 167.938 90.3708 168.321 90.4096C168.419 90.4196 169.306 89.2769 169.864 89.1754C175.681 88.1173 174.527 91.0636 175.418 91.0268C175.615 91.0187 178.287 88.7104 178.349 88.404C178.853 85.928 173.835 85.8907 182.206 85.1641C182.338 85.1526 182.698 84.5528 182.824 84.547C184.003 84.4925 185.862 86.7671 185.909 84.547C189.334 86.0225 187.248 84.2322 187.298 84.0841C187.441 83.6598 189.122 84.2716 189.921 81.4614C192.594 81.1709 194.981 77.732 200.103 77.45C200.729 76.3752 204.645 74.3913 205.349 74.3643Z" fill="#F4A31D"/>
<path id="Vector_26" d="M204.732 80.844C208.342 82.1158 203.579 86.097 201.955 87.9409C201.239 86.0371 193.518 93.1025 192.235 94.575C187.769 99.7013 186.952 105.771 182.978 107.226C182.501 109.978 179.87 116.453 178.658 112.472C177.377 108.263 180.276 106.429 179.893 103.832C180.957 102.394 181.607 104.804 182.824 104.295C185.743 103.073 174.875 100.139 172.641 103.061L167.396 101.826C165.698 104.28 165.19 101.564 164.002 103.061L160.453 101.055L160.916 96.5807C166.23 97.059 171.323 95.4046 176.653 95.0379L181.744 97.3522C180.99 102.523 184.286 103.359 182.978 101.672C185.151 100.574 185.114 99.4291 185.138 97.3522C189.901 94.4839 187.268 92.445 187.298 92.1066C187.313 91.9411 189.259 90.2559 189.612 89.7923C192.453 91.7632 195.927 85.9106 198.252 84.2382C200.238 82.8098 202.713 82.1943 204.732 80.844Z" fill="#F4A31D"/>
<path id="Vector_27" d="M149.036 110.466C148.643 110.542 146.029 114.757 147.802 105.683C147.571 105.117 145.717 106.003 144.099 103.832C143.882 94.3404 146.648 97.4826 147.802 92.4148C148.215 91.756 149.052 92.2481 149.653 91.0263C150.177 89.9622 149.992 85.5976 152.739 88.7121C147.428 88.6851 156.108 91.0975 157.521 90.4092C157.604 93.7167 158.585 93.6268 155.979 95.3462C151.036 91.2616 150.542 96.3217 149.345 92.7234C147.001 100.154 148.612 96.806 149.036 97.3519C149.349 97.7551 149.243 99.5856 149.345 99.8204C150.318 102.076 150.642 97.002 150.733 100.283C151.172 100.437 151.517 99.665 151.659 99.6661C153.681 99.6822 149.435 101.334 153.356 104.757C150.726 106.592 149.971 106.033 149.807 106.146C149.417 106.415 149.98 107.696 149.19 107.997C148.569 108.234 146.701 106.275 149.036 110.466Z" fill="#F4A31D"/>
<path id="Vector_28" d="M193.006 98.1236C196.076 97.2756 194.993 102.257 196.555 103.215L193.932 112.935C190.671 110.67 190.449 112.091 190.229 112.009C188.917 111.52 188.707 109.929 188.378 109.849C187.442 109.621 188.221 112.119 185.909 110.158C183.466 108.084 185.914 104.307 188.224 103.832C188.895 96.4745 191.706 99.4391 192.081 99.3579C192.453 99.277 192.617 98.2311 193.006 98.1236Z" fill="#F4A31D"/>
<path id="Vector_29" d="M183.749 107.996C185.288 111.677 187.648 111.214 187.915 111.853C188.871 117.634 187.344 118.868 187.298 119.259C186.979 121.962 188.415 123.923 187.606 125.43C187.377 125.858 184.606 127.793 184.366 126.51C184.461 130.55 182.292 127.234 182.669 124.813C182.7 124.615 185.033 121.414 182.824 124.042C181.041 121.809 180.819 119.776 180.818 117.099C180.818 116.982 181.427 116.608 181.435 116.482C181.507 115.349 180.204 114.407 183.749 107.996Z" fill="#F4A31D"/>
<path id="Vector_30" d="M201.029 88.2498C201.126 88.2355 202.757 88.7785 202.88 88.8669C205.13 90.4764 202.053 89.5411 201.183 91.7983C202.263 95.5667 199.158 96.6377 199.023 97.0439C198.447 98.7885 200.181 102.109 197.635 98.4324C196.187 99.762 195.021 97.5715 193.315 97.5067C192.048 97.4586 189.218 99.8251 192.235 95.5011C193.297 93.9794 200.465 88.3332 201.029 88.2498Z" fill="#F4A31D"/>
<path id="Vector_31" d="M177.578 108.924L178.349 113.09C176.243 112.959 177.898 122.048 176.189 120.495C175.375 115.836 175.57 120.012 174.955 120.495C173.384 121.73 174.515 116.778 173.104 116.793C171.435 122.834 170.252 112.209 172.024 114.17C172.771 110.418 175.023 112.934 177.578 108.924Z" fill="#F4A31D"/>
<path id="Vector_32" d="M150.733 81.4607C152.212 81.7146 152.66 88.722 150.27 82.5406C152.216 87.1034 148.97 86.6042 148.573 90.409C145.751 88.3644 147.043 80.8269 150.733 81.4607Z" fill="#F4A31D"/>
<path id="Vector_33" d="M160.299 91.3343C161.95 91.1828 160.802 95.4466 159.373 94.4199C158.831 94.0306 159.909 91.37 160.299 91.3343Z" fill="#F4A31D"/>
<path id="Vector_34" d="M177.887 94.4212C180.752 93.4909 180.868 96.6207 178.195 95.3469C177.698 95.11 177.087 94.6809 177.887 94.4212Z" fill="#F4A31D"/>
<path id="Vector_35" d="M176.653 106.456C176.872 106.352 178.572 108.158 177.578 108.307C176.536 108.463 176.362 106.593 176.653 106.456Z" fill="#F4A31D"/>
<path id="Vector_36" d="M205.041 78.6829C205.996 78.7453 205.365 80.4246 204.423 80.2257C203.428 80.0154 204.932 78.6758 205.041 78.6829Z" fill="#F4A31D"/>
<path id="Vector_37" d="M158.756 91.0257C159.557 91.0207 158.987 93.5163 158.447 93.1856C158.09 92.9667 158.24 91.0289 158.756 91.0257Z" fill="#F4A31D"/>
<path id="Vector_38" d="M203.497 79.9178C203.706 80.032 203.719 80.5106 203.652 80.6892C202.359 84.138 202.017 79.1057 203.497 79.9178Z" fill="#F4A31D"/>
<path id="Vector_39" d="M160.298 89.4827C161.756 88.57 160.993 92.9321 160.144 90.2541C160.081 90.055 160.087 89.6153 160.298 89.4827Z" fill="#F4A31D"/>
<path id="Vector_40" d="M159.065 95.0385C159.357 94.8773 160.653 95.3839 160.453 95.8099C160.201 96.3472 158.32 95.4494 159.065 95.0385Z" fill="#F4A31D"/>
<path id="Vector_41" d="M175.418 108.614C175.951 108.615 175.949 109.849 175.418 109.849C174.885 109.848 174.888 108.613 175.418 108.614Z" fill="#F4A31D"/>
<path id="Vector_42" d="M178.504 105.838C179.092 105.786 178.854 107.055 178.195 106.763C177.767 106.574 178.312 105.854 178.504 105.838Z" fill="#F4A31D"/>
</g>
<path id="Vector_43" d="M28.542 129.597C29.0104 129.427 29.2207 130.051 28.8506 130.214C28.3988 130.412 28.1703 129.731 28.542 129.597Z" fill="#F4A31D"/>
<path id="Vector_44" d="M152.276 132.682C152.31 132.678 152.899 133.132 152.584 133.299C151.79 133.72 151.694 132.748 152.276 132.682Z" fill="#F4A31D"/>
<path id="Vector_45" d="M154.745 130.831L155.207 130.985L154.745 131.448L154.59 131.294L154.745 130.831Z" fill="#F4A31D"/>
<path id="Vector_46" d="M68.1927 74.3637C68.2276 74.839 68.17 75.4973 68.1927 75.9065C67.739 75.5839 65.6983 74.9272 65.57 74.9808C65.3529 75.0715 64.6965 80.2462 64.9528 75.2894C54.4559 80.0274 57.2304 75.9028 56.7759 74.2095C56.7196 73.9997 55.8819 73.4662 55.8502 73.2838C55.3478 70.3966 56.9823 69.1684 53.8446 67.5754C53.615 67.4588 53.1508 68.0782 52.3018 67.8839C52.5605 61.3017 59.1903 65.8786 60.633 60.1698C61.6408 60.0747 64.9933 57.1584 65.2614 57.0842C65.3555 57.0581 65.7472 58.0407 67.1128 57.7013C67.8718 57.5127 68.2655 56.0205 68.9642 56.1585C71.7863 56.7157 67.0599 60.2486 68.8099 60.6327C66.0608 63.026 68.5324 66.6226 67.1128 66.6496C66.9246 66.6532 64.8486 63.69 65.1072 66.8039C65.1606 67.4478 66.6239 68.8337 66.65 68.9639C67.0284 70.8495 64.3655 72.4915 68.1927 74.3637Z" fill="#F4A31D"/>
<path id="Vector_47" d="M46.9017 120.648C47.6092 120.672 47.812 121.215 48.1359 120.802C46.7162 119.01 49.9895 116.545 48.1359 114.94C51.8322 112.214 48.5238 110.599 48.4445 110.311C47.89 108.298 50.6223 109.014 50.7587 108.923C51.376 108.508 51.3549 106.469 51.993 106.454C52.1678 106.45 54.2194 108.926 54.3072 109.077C54.4282 109.285 52.9827 111.582 55.5415 109.694L53.9987 111.545C56.1808 112.437 53.8257 112.096 53.6901 112.78C53.6561 112.951 56.14 115.068 56.3129 115.094C56.9613 115.191 57.8775 112.054 57.8557 111.391C59.3155 114.534 64.7444 112.298 62.947 110.003C65.1583 108.488 61.9537 108.056 63.4098 107.071C65.4271 105.706 70.275 114.717 68.5011 101.054C64.9903 98.7652 63.6957 100.849 63.4098 100.9C58.5147 101.775 60.6059 99.122 62.4842 95.3458C62.9883 95.0118 71.226 92.4587 72.9753 89.7917C74.0198 91.2369 74.3647 89.0494 76.061 90.4088C77.0472 89.9561 75.239 88.9266 76.061 88.5575C76.4098 88.4008 77.8447 91.0564 82.3865 92.7231C82.7159 93.558 80.6573 93.3251 81.7694 96.4258C76.6946 95.2772 78.3185 100.441 77.7581 101.363C77.1799 102.314 72.2717 103.706 80.2266 110.62C76.025 110.339 81.0575 113.143 81.9237 112.934C82.6929 112.748 83.6324 110.997 82.2322 110.465C81.7596 110.286 80.8771 111.228 80.5351 110.311C80.182 109.364 82.6572 106.393 79.7637 109.231C78.3925 107.28 75.8025 106.209 76.5238 103.523C80.4207 101.891 81.9918 105.528 85.6264 103.677C86.6465 104.798 88.8395 104.618 90.5634 103.677C94.6605 107.844 96.6845 106.337 97.0433 106.454C97.8629 106.722 96.8071 110.102 98.5861 106.763C102.436 107.56 96.1635 105.036 99.5118 105.22C100.238 105.26 105.826 109.007 107.689 109.385C104.623 112.106 108.401 112.914 107.226 113.86C106.671 113.167 99.8395 114.266 99.666 114.631C98.3092 117.486 105.216 116.384 101.209 118.642C104.71 124.832 97.1966 122.22 95.9632 123.888C96.608 125.33 93.1236 127.172 92.569 127.899C92.1097 128.502 92.6149 129.917 91.0262 130.368C91.5567 134.752 90.3461 132.703 89.0206 135.768C85.9273 132.081 84.0903 134.523 83.4664 134.533C82.4029 134.551 76.1351 134.581 75.7524 134.533C75.6263 134.518 75.4917 133.669 75.1352 133.608C73.217 133.279 72.4992 134.651 72.3582 132.991L69.8896 135.151C62.6976 134.158 66.2932 127.421 61.867 134.225C57.1254 133.898 56.5693 136.183 56.0042 136.076C55.0451 135.895 56.001 134.716 55.0786 134.225C54.6956 134.021 45.2518 135.588 50.2958 132.528C49.9151 132.162 48.4736 131.723 47.3644 131.448C44.6961 130.786 42.1344 131.621 41.9646 127.282C42.1421 126.78 43.9519 126.817 43.5074 124.505C44.1636 123.317 47.2778 125.915 46.9017 120.648Z" fill="#F4A31D"/>
<path id="Vector_48" d="M136.076 125.586C136.21 126.358 136.479 126.476 137.002 126.974L136.539 127.437C134.848 125.166 134.839 126.242 134.534 126.203C133.169 126.03 131.768 125.766 132.682 127.591C129.984 128.685 133.629 131.681 126.665 127.129C126.031 126.714 125.031 123.25 123.579 127.746C119.024 122.221 118.474 129.283 114.94 126.512C112.593 124.671 117.476 121.122 116.174 123.734C120.705 122.399 114.205 113.97 108.614 113.706L108.46 110.158C112.364 111.646 113.677 109.244 112.163 113.86C114.651 108.098 116.772 111.211 117.408 111.083C117.505 111.064 118.153 109.647 118.642 109.541C119.537 109.345 123.397 112.07 128.516 107.381C131.444 108.535 134.675 107.915 134.996 107.998C135.994 108.256 135.935 110.492 137.156 110.158C140.705 108.784 139.181 106.143 140.242 107.689C142.378 106.455 137.855 106.2 143.945 104.603C148.842 109.165 146.135 108.565 142.556 112.78C142.152 113.256 142.117 115.324 139.933 116.329C137.117 113.022 134.584 116.923 131.756 117.409C133.069 118.296 132.098 119.355 133.608 122.346C137.325 122.793 136.024 125.281 136.076 125.586Z" fill="#F4A31D"/>
<g id="Group_3">
<path id="Vector_49" d="M124.66 153.048L125.277 154.282C122.777 158.771 120.177 157.806 119.877 157.985C119.315 158.321 111.84 165.746 110.312 166.933C102.22 167.303 106.298 170.581 103.678 172.024C103.506 172.793 107.572 174.508 100.746 176.19C97.0939 170.58 98.2786 175.392 96.8891 178.196C96.8068 178.362 94.5799 180.419 94.2663 180.819L93.6492 176.807C84.7858 184.654 89.577 186.822 89.7922 187.453C90.8408 190.525 89.77 191.842 89.7922 192.081C89.9467 193.741 92.6629 192.464 88.8665 196.555C88.069 197.415 87.6336 198.387 87.478 198.407C86.4388 197.059 83.5616 198.397 82.8495 199.95C79.3549 197.53 76.8738 207.166 78.6839 196.71C78.3027 196.119 74.6446 199.007 77.1411 196.71C72.7455 194.274 72.2806 191.041 73.1298 194.395L71.2784 194.087C73.2704 190.641 73.2543 192.413 73.4383 192.081C73.7818 191.463 71.9652 189.907 70.1984 194.395C66.5888 188.931 66.1588 198.541 63.7186 193.47C59.4575 195.639 62.6861 192.62 62.6387 192.39C62.5091 191.762 61.3154 192.194 61.4044 191.464C61.4281 191.269 64.1831 189.973 61.0958 188.687C61.1861 188.547 61.7272 188.128 61.7129 188.07C60.3382 182.479 64.2937 191.296 62.9472 182.824L69.1185 179.739C68.4812 179.086 68.4812 178.54 69.1185 177.887C67.3615 177.842 63.9029 175.446 67.2671 174.802C66.2602 171.868 69.3401 169.647 67.2671 167.087C69.9287 165.19 67.8473 160.098 66.9585 157.213C71.6116 158.187 69.4793 154.936 70.3527 153.511C70.8205 152.747 72.6671 152.839 72.8212 152.585C73.3053 151.787 71.7358 150.241 73.5927 149.037C76.029 147.456 75.4919 149.991 76.0612 149.962C76.1534 149.958 76.4036 149.014 76.6783 149.037C76.8488 149.051 77.0724 150.735 79.4554 150.579C79.7778 150.558 79.4489 148.684 80.9982 150.888C81.5543 148.948 82.4557 151.223 83.1581 151.196C84.0167 151.164 83.9982 149.998 84.3924 149.962C85.8827 149.827 86.3847 154.471 84.8552 155.362C86.4204 162.563 87.5773 158.908 88.0951 158.911C88.1723 158.911 89.0993 159.855 89.3294 159.836C91.4098 159.67 91.3588 155.917 95.5007 165.39L102.289 163.23C103.514 159.761 105.687 162.345 106.918 157.676C110.807 159.298 110.234 153.88 114.014 157.676C115.949 156.005 117.539 158.133 118.643 155.208C119.532 157.374 124.199 153.777 124.66 153.048Z" fill="#F4A31D"/>
<path id="Vector_50" d="M64.0268 185.755C64.0752 188.365 66.8315 188.435 68.1924 190.229C65.0392 193.364 66.73 190.693 66.341 189.612C66.0555 188.819 62.4714 188.383 64.0268 185.755Z" fill="#FAF5EF"/>
<path id="Vector_51" d="M100.437 173.105C101.402 172.815 104.206 173.558 103.986 174.185C100.677 173.068 99.7749 174.913 99.666 173.568C99.9177 173.53 100.299 173.146 100.437 173.105Z" fill="#FAF5EF"/>
<path id="Vector_52" d="M117.408 155.515C117.838 155.572 117.299 156.467 117.099 156.441C116.669 156.384 117.208 155.489 117.408 155.515Z" fill="#F4A31D"/>
</g>
<g id="Group_4">
<path id="Vector_53" d="M78.0663 50.6051C77.9507 51.4677 78.5814 51.0185 78.6834 51.5307C77.878 51.5773 77.4433 51.0679 76.6778 51.2222C72.9166 51.9801 72.4362 55.1115 74.055 58.1649C72.8755 59.7568 72.6636 58.1758 72.0494 58.3192C69.7729 58.8506 77.0915 63.3156 77.1407 63.7191C77.2059 64.2547 76.0418 64.4488 75.9064 64.9533C75.0339 68.2055 81.3722 64.2953 80.3806 67.5761C85.2503 66.4021 84.9378 72.7277 88.2489 71.896C88.203 72.0513 88.272 72.3154 88.2489 72.5131C87.9394 72.4283 87.698 73.2258 87.169 73.1302C86.9748 73.0952 86.0873 71.896 85.9347 71.896C85.7087 71.896 84.0962 74.8235 82.849 71.2789C86.0399 73.404 85.0465 70.2663 84.0833 69.7361C83.645 69.4948 80.4413 70.0865 83.3119 68.9646C79.906 66.0519 78.2252 70.8073 76.3692 69.4275C75.2172 68.5711 77.4576 68.1087 77.4491 67.7304C77.4374 67.2022 74.4133 67.6706 75.4435 63.2562C73.0048 65.9858 71.3527 62.9651 70.5065 64.4905C68.8228 62.097 68.93 65.6926 68.8094 65.879C67.9337 67.2319 65.5019 67.7535 68.1923 69.2732C64.954 71.6997 68.8139 70.468 69.1179 71.7417C69.7665 74.4584 67.0227 70.4303 66.6494 72.0502C66.4615 72.8658 68.6013 73.2549 68.8093 73.593C69.0717 74.0195 68.1886 74.3151 68.1922 74.3645C64.3649 72.4923 67.0279 70.8502 66.6494 68.9646C66.6233 68.8345 65.1601 67.4486 65.1066 66.8047C64.848 63.6908 66.924 66.654 67.1122 66.6504C68.5319 66.6234 66.0602 63.0267 68.8093 60.6334C67.0593 60.2494 71.7857 56.7164 68.9636 56.1593C68.2649 56.0213 67.8712 57.5135 67.1122 57.7021C65.7466 58.0415 65.3549 57.0589 65.2608 57.0849C64.9928 57.1592 61.6402 60.0754 60.6324 60.1706C59.1897 65.8795 52.5599 61.3025 52.3012 67.8847C53.1503 68.0789 53.6144 67.4595 53.844 67.5761C56.9817 69.1692 55.3472 70.3974 55.8496 73.2845C55.8814 73.4671 56.719 74.0005 56.7753 74.2102C57.2298 75.9036 54.4553 80.0282 64.9522 75.2902C64.6959 80.2469 65.3523 75.0723 65.5694 74.9816C65.6977 74.928 67.7384 75.5846 68.1921 75.9073C68.2088 76.2067 69.1549 76.9411 69.1178 77.6044C69.0741 78.3877 67.2451 81.6902 67.2664 81.9242C67.2868 82.1484 70.4423 84.0928 66.495 84.8556C65.6119 87.9511 72.4618 81.7068 74.2091 89.4841C77.7366 86.0978 76.9982 88.5327 77.2947 88.5584C77.3775 88.5656 78.5247 87.8631 78.8375 87.9413C79.7582 88.1712 78.6123 90.3915 83.6203 93.0325C81.8771 94.4019 81.3513 95.6265 82.8488 94.421C83.9232 100.302 76.5882 94.638 80.8432 98.8952C77.3935 104.227 80.132 101.417 80.3804 101.518C80.6297 101.619 80.3964 102.537 80.9975 102.752C81.3975 102.895 83.0145 101.228 84.0832 101.827C84.4631 102.039 82.6751 105.43 85.626 102.444C87.7377 104.377 91.2741 102.402 91.9515 103.215C92.1749 103.483 91.3094 103.878 91.7972 104.295C93.1211 105.427 97.6638 107.274 98.5856 104.295C99.4138 104.047 101.507 106.083 101.98 105.838C102.739 105.444 100.84 103.942 101.98 103.369C102.443 104.5 112.913 113.878 112.317 108.461C112.207 107.465 107.697 106.072 114.322 101.518C128.779 100.378 119.513 97.5548 119.105 97.0438C118.186 95.8925 119.764 94.8471 119.722 94.5753C119.567 93.5629 118.396 95.8988 116.637 89.484C117.847 89.4919 116.906 91.7083 118.797 91.7982C117.048 94.27 121.965 91.8251 119.414 96.1181C131.487 103.376 110.891 99.6517 112.625 105.066C109.631 105.805 113.45 106.49 112.78 110.158C115.45 110.583 116.374 108.89 117.099 110.158C120.24 107.071 121.954 110.629 125.122 108.923C125.228 108.866 126.305 107.239 126.665 107.072C127.499 106.685 130.481 107.119 130.676 107.072C131.225 106.94 130.621 103.976 132.219 107.689C138.558 106.271 135.215 110.921 137.773 107.381C137.796 107.349 138.151 108.007 138.545 107.535C137.604 102.973 145.208 108.166 143.79 97.6609C145.021 94.4755 148.425 93.7859 144.407 93.8039C146.9 92.83 148.089 94.7274 147.184 91.4896L149.653 91.0268C149.052 92.2486 148.215 91.7565 147.802 92.4153C146.648 97.4831 143.882 94.3409 144.099 103.832C145.717 106.004 147.571 105.117 147.802 105.684C146.029 114.757 148.643 110.543 149.036 110.466C150.859 110.112 151.095 110.8 151.813 111.392C149.646 110.013 149.448 113.313 146.722 112.009C146.517 111.911 145.868 107.062 145.642 111.546C141.297 113.981 143.311 114.434 143.173 114.632C139.705 119.6 136.738 113.271 137.773 117.255C132.266 115.401 135.852 117.154 135.459 117.718C135.186 118.109 131.139 116.007 134.688 122.192C136.099 120.59 136.264 124.183 138.853 127.283C138.461 131.496 138.78 126.054 136.076 125.586C136.023 125.281 137.325 122.793 133.608 122.346C132.098 119.355 133.069 118.296 131.756 117.409C134.584 116.923 137.117 113.022 139.933 116.329C142.117 115.324 142.152 113.256 142.556 112.781C146.135 108.565 148.842 109.166 143.944 104.604C137.855 106.201 142.378 106.455 140.242 107.689C139.181 106.143 140.705 108.784 137.156 110.158C135.935 110.492 135.994 108.257 134.996 107.998C134.675 107.915 131.443 108.535 128.516 107.381C123.396 112.071 119.537 109.345 118.642 109.541C118.153 109.648 117.505 111.064 117.408 111.084C116.772 111.211 114.651 108.099 112.162 113.861C113.677 109.244 112.364 111.647 108.46 110.158L108.614 113.706C114.205 113.97 120.705 122.399 116.174 123.735C117.475 121.123 112.593 124.672 114.939 126.512C118.473 129.283 119.024 122.221 123.579 127.746C125.03 123.25 126.031 126.714 126.665 127.129C133.628 131.682 129.984 128.685 132.682 127.592C131.768 125.766 133.169 126.03 134.533 126.203C137.061 127.839 132.019 126.538 133.916 127.9C134.904 128.61 135.405 127.006 137.156 128.055C140.126 129.833 137.121 132.874 146.259 131.14C146.165 131.334 146.062 131.58 145.95 131.757L137.773 132.992C137.344 124.416 134.394 130.836 131.602 130.832C130.944 130.831 127.252 127.751 126.973 127.746C125.766 127.723 127.033 129.584 124.505 129.289C124.424 129.279 124.114 128.293 123.888 128.363C123.58 128.459 123.883 129.222 123.579 129.289C122.934 129.43 122.866 127.665 122.808 127.592C120.028 124.114 118.318 127.972 118.025 128.055C114.801 128.96 110.741 121.05 114.168 131.294C111.349 133.129 113.083 134.772 110.619 136.694C110.461 136.818 109.564 136.57 109.385 136.694C108.601 137.237 109.635 137.957 109.077 138.237C106.965 139.295 105.27 137.85 105.065 137.929C103.389 138.572 106.946 142.165 101.208 142.403C102.318 144.412 101.282 145.162 101.517 146.105C104.692 151.297 105.698 150.413 105.837 150.734C106.124 151.401 105.352 152.595 104.757 153.048C101.179 150.297 102.732 156.928 99.9739 156.905C100.672 161.75 98.0189 159.274 96.5797 164.002C101.263 163.285 102.034 161.22 105.528 159.682C105.365 154.875 110.796 158.996 108.305 155.98C112.341 156.804 107.41 152.079 112.316 153.202C112.679 159.897 117.552 154.016 118.025 153.974C118.463 153.935 119.954 157.297 124.35 151.968C123.547 150.076 127.154 143.324 129.133 144.717C129.717 144.476 129.572 142.239 131.447 143.02C130.573 146.193 129.056 145.107 126.819 146.414L124.659 150.117C125.294 150.871 124.955 152.58 124.659 153.048C124.199 153.777 119.531 157.375 118.642 155.208C117.538 158.133 115.948 156.006 114.014 157.677C110.233 153.88 110.806 159.298 106.917 157.677C105.686 162.345 103.513 159.762 102.288 163.231L95.4997 165.391C91.3579 155.917 91.4088 159.671 89.3285 159.837C89.0983 159.855 88.1713 158.911 88.0942 158.911C87.5764 158.908 86.4195 162.564 84.8543 155.362C86.3837 154.471 85.8818 149.828 84.3915 149.963C83.9972 149.998 84.0157 151.165 83.1572 151.197C82.4547 151.223 81.5534 148.948 80.9973 150.888C79.4479 148.685 79.7769 150.559 79.4545 150.58C77.0715 150.736 76.8478 149.051 76.6774 149.037C76.4027 149.014 76.1524 149.958 76.0603 149.963C75.491 149.992 76.028 147.456 73.5917 149.037C71.7349 150.242 73.3044 151.788 72.8203 152.585C72.6663 152.839 70.8196 152.747 70.3518 153.511C69.4784 154.937 71.6107 158.187 66.9576 157.214C67.8464 160.099 69.9279 165.191 67.2661 167.088C69.3391 169.647 66.2592 171.869 67.2661 174.802C63.9019 175.447 67.3605 177.842 69.1175 177.888C68.4803 178.541 68.4803 179.086 69.1175 179.739L62.9462 182.825C64.2928 191.296 60.3372 182.48 61.712 188.07C61.7262 188.128 61.1852 188.547 61.0948 188.687C64.1821 189.973 61.4271 191.27 61.4034 191.465C61.3145 192.195 62.5082 191.762 62.6377 192.39C62.6852 192.62 59.4566 195.64 63.7177 193.47C66.1579 198.541 66.5878 188.932 70.1975 194.396C71.9643 189.908 73.7809 191.463 73.4374 192.082C73.2533 192.413 73.2695 190.642 71.2774 194.087C69.5614 197.055 70.1857 192.443 67.1118 197.173C66.0426 194.107 64.4027 197.074 63.4091 194.704C59.3834 195.704 61.4709 193.033 61.4034 192.699C61.3299 192.334 59.191 187.961 60.4778 185.602C61.2778 184.135 62.3139 185.898 62.6377 185.293C63.0419 184.539 61.7637 182.923 62.792 181.745C72.6693 179.226 65.0062 177.432 64.7976 176.345C64.7048 175.861 66.0156 174.308 66.0319 174.185C66.0547 174.012 64.2274 170.902 66.3404 171.871C66.339 172.508 65.7469 172.947 66.1861 173.105C66.5706 173.243 67.3264 172.323 66.3404 171.871C66.343 170.753 66.6568 169.955 66.0319 169.248C69.8829 170.549 66.0277 168.524 66.0319 168.322C66.0385 168.009 68.1486 165.125 68.1918 164.928C68.2285 164.761 67.2646 161.765 67.1119 161.688C64.7303 160.495 64.9248 163.236 63.7177 164.157C63.5567 164.28 62.6353 164.034 62.4834 164.157C60.8921 165.44 59.0233 166.982 59.7063 167.242C56.3443 163.972 57.3419 173.175 54.4607 170.328C52.7304 172.326 52.3874 170.504 50.758 170.328C48.6502 176.353 44.9902 168.374 45.2039 172.797C41.4196 170.45 45.4531 174.544 41.3468 176.962C41.2978 177.451 43.8592 179.05 40.4212 180.665C40.2248 181.316 45.7357 184.36 39.9583 183.905C43.5269 181.143 37.9557 184.089 38.5698 177.271L40.7297 176.962C39.3577 176.367 40.9427 176.933 41.3468 175.728C40.5507 174.594 43.4842 169.35 44.5867 171.254C47.244 168.239 48.9106 176.741 50.1409 167.86C51.4079 167.865 50.6151 169.644 51.0665 170.019C51.7069 170.553 51.4251 167.837 53.5351 170.328C53.7932 168.597 54.3929 169.901 54.7693 169.711C57.7291 168.212 55.1907 167.093 59.7063 164.774C59.9925 164.627 60.3183 165.261 60.9406 165.083L63.5634 162.614C63.3804 163.622 64.1996 162.958 64.1805 162.768C64.1545 162.511 63.5628 162.646 63.5634 162.614C63.6405 158.497 65.7357 162.245 66.9576 160.3C64.8594 154.193 68.6415 157.576 69.4261 156.288C70.7178 154.168 66.7079 153.995 72.2032 151.66C71.1335 150.017 72.9343 146.991 73.5917 146.877C74.2061 146.771 77.2245 148.884 77.9116 149.346C78.9131 149.448 80.5521 144.663 79.763 149.346C80.2248 147.712 82.7644 150.352 83.1572 150.271C84.0743 150.083 83.1122 146.941 87.1685 151.814C91.1662 149.03 89.2195 152.369 90.4084 151.969C90.846 148.958 91.5779 145.938 87.9399 144.254C87.5123 138.155 92.599 137.963 85.9343 134.226C83.1625 135.264 76.4024 135.505 73.9003 134.226C70.7785 135.818 65.7838 136.492 64.3348 132.066C63.1383 133.732 60.4517 138.875 57.2379 136.077C54.5808 137.916 52.7271 134.667 48.9067 134.843C47.1873 130.324 44.1871 132.005 43.0439 131.449C42.8384 131.349 41.3965 128.308 41.0383 130.369C40.8171 131.642 41.9512 130.546 41.964 131.912C41.9652 132.044 41.12 132.741 41.0383 134.38C40.9502 136.147 43.0361 134.106 42.5811 135.923C42.5465 136.062 39.5557 137.383 41.8097 137.62C42.1361 137.655 42.24 136.474 42.7353 136.695C42.8697 136.754 43.8818 138.587 42.4268 138.855C42.2425 138.889 41.4267 138.61 40.1126 138.546C41.2928 136.247 39.8062 134.32 39.804 134.072C39.8024 133.889 41.6253 132.633 39.804 130.986C42.35 128.464 40.387 126.427 42.8897 126.049C42.9623 125.417 42.78 124.409 42.8897 124.198C44.7048 120.702 43.6885 124.337 45.8211 123.426C49.1256 122.015 36.2005 121.871 37.9527 114.632C37.4709 113.802 35.0144 118.105 34.867 110.93C28.8464 106.8 26.2624 108.914 25.7644 108.924C25.0968 108.937 20.9813 108.207 20.5188 108.615C19.7036 109.335 21.6587 111.801 18.5132 110.775C21.1522 110.833 19.5187 109.441 19.7474 108.77C19.8907 108.349 20.5483 108.421 20.6731 107.998L30.3929 107.69C37.5923 111.157 34.6133 111.109 35.947 112.627C37.2068 114.061 42.351 113.622 38.8784 114.941C40.2609 117.33 38.6004 116.43 38.5698 116.792C38.5549 116.969 39.7077 119.102 40.5755 119.724C40.7486 119.848 41.605 119.599 41.8097 119.724C42.5418 120.168 45.4792 122.464 46.2839 121.421C46.6302 120.972 43.7564 120.544 46.901 120.649C47.2771 125.916 44.163 123.318 43.5068 124.506C43.9514 126.818 42.1415 126.781 41.964 127.283C42.1338 131.623 44.6956 130.787 47.3639 131.449C48.473 131.724 49.9145 132.163 50.2952 132.529C45.2512 135.589 54.695 134.022 55.078 134.226C56.0005 134.717 55.0445 135.896 56.0037 136.078C56.5688 136.184 57.1248 133.899 61.8664 134.226C66.2926 127.422 62.697 134.16 69.8891 135.152L72.3576 132.992C72.4987 134.652 73.2165 133.28 75.1347 133.609C75.4911 133.67 75.6258 134.519 75.7518 134.535C76.1345 134.583 82.4024 134.552 83.4659 134.535C84.0897 134.525 85.9268 132.082 89.02 135.769C90.3456 132.704 91.5561 134.753 91.0256 130.369C92.6143 129.918 92.1091 128.503 92.5684 127.901C93.1231 127.173 96.6075 125.332 95.9626 123.889C97.196 122.221 104.71 124.833 101.208 118.644C105.215 116.385 98.3086 117.488 99.6654 114.632C99.8388 114.267 106.67 113.168 107.225 113.861C108.4 112.915 104.623 112.107 107.688 109.387C105.825 109.009 100.238 105.261 99.5112 105.221C96.1629 105.037 102.436 107.561 98.5855 106.764C96.8065 110.103 97.8623 106.723 97.0427 106.455C96.684 106.338 94.6599 107.845 90.5629 103.678C88.839 104.62 86.6459 104.799 85.6258 103.678C81.9912 105.53 80.4201 101.893 76.5232 103.524C75.8019 106.21 78.3919 107.281 79.7631 109.232C82.6566 106.394 80.1814 109.365 80.5346 110.312C80.8765 111.23 81.759 110.287 82.2317 110.467C83.6318 110.998 82.6923 112.749 81.9231 112.935C81.057 113.144 76.0244 110.34 80.226 110.621C72.2711 103.708 77.1793 102.316 77.7575 101.364C78.318 100.442 76.694 95.2784 81.7688 96.4271C80.6567 93.3263 82.7153 93.5593 82.386 92.7243C77.8441 91.0576 76.4093 88.402 76.0604 88.5587C75.2385 88.9278 77.0466 89.9573 76.0604 90.4101C74.3642 89.0507 74.0192 91.2382 72.9747 89.793C71.2253 92.46 62.9876 95.0131 62.4836 95.3471C60.6053 99.1233 58.5141 101.776 63.4093 100.901C63.6952 100.85 64.9897 98.7665 68.5006 101.056C70.2744 114.718 65.4265 105.708 63.4093 107.072C61.9531 108.058 65.1578 108.489 62.9464 110.004C64.7439 112.299 59.3149 114.535 57.8551 111.392C57.8769 112.055 56.9607 115.192 56.3123 115.095C56.1393 115.069 53.6555 112.952 53.6896 112.781C53.8252 112.098 56.1802 112.438 53.9981 111.547L55.5409 109.695C52.9822 111.583 54.4276 109.286 54.3066 109.078C54.2188 108.927 52.1672 106.451 51.9924 106.455C51.3543 106.47 51.3754 108.509 50.7581 108.924C50.6218 109.016 47.8894 108.299 48.4439 110.312C48.5232 110.6 51.8315 112.215 48.1354 114.941C49.9889 116.546 46.7156 119.011 48.1354 120.804C47.8114 121.216 47.6087 120.673 46.9011 120.649C45.1405 119.178 46.2241 119.589 47.8268 117.101C45.5493 111.167 52.0197 113.341 46.9011 110.621C47.1418 106.389 49.236 107.195 49.3696 106.918C49.5231 106.6 48.702 106.123 49.2153 105.838C49.6475 105.599 51.3753 108.346 50.7581 103.987C55.0042 109.231 55.2476 106.126 55.6951 106.455C55.9381 106.634 55.8898 107.642 55.8494 107.69C55.6826 107.885 54.6394 107.266 54.6152 108.152C54.5709 109.773 55.7731 107.749 55.8494 107.69C56.279 107.355 56.5127 107.076 56.9294 106.764C58.2685 108.795 53.8994 110.847 56.6209 112.627C57.4528 108.099 59.8582 113.303 59.3979 110.775C64.5112 110.342 61.959 108.388 62.0207 107.844C62.3453 104.985 73.3581 107.499 64.9521 101.827C56.5316 101.552 61.2822 101.25 59.8608 96.7357C62.1201 93.5419 75.6483 91.5269 72.3576 86.7074C71.0783 87.7881 70.4117 85.4576 69.5805 85.7817C69.3154 85.8851 67.5239 92.0146 68.5006 86.8617C64.1196 86.3405 66.2286 85.5702 66.6492 82.8503C66.7727 82.0511 65.9351 81.3993 66.032 80.9989C66.2061 80.2801 68.8655 80.5421 66.1863 77.759C63.636 80.1855 64.8144 73.9644 60.0151 78.3762L55.6952 78.0676C54.1364 76.3492 52.7463 72.0891 55.5409 72.3592C54.4746 71.2359 55.5698 67.5493 53.5353 69.4278C51.2618 66.6222 45.8511 74.8559 47.9811 63.2566C41.4712 65.6789 40.7541 60.379 38.2614 62.6394C39.3774 61.2514 39.9051 61.7412 41.0384 61.0966C41.3377 62.4801 42.4122 63.0236 43.6612 62.3309C44.633 64.791 46.1088 62.6891 47.0554 62.6395C49.3335 62.52 55.8596 63.358 56.3123 63.2566C69.6619 52.2149 63.3981 56.8842 62.3293 55.0797C62.1704 54.8113 63.323 54.395 59.7065 49.9884C62.6222 51.0336 63.1331 54.4789 63.4093 54.6168C64.6663 55.2446 64.4009 52.7587 66.1863 57.0854C69.5692 54.0884 69.766 56.9925 71.7405 55.5426C73.3019 58.2763 70.6907 53.0044 74.209 51.2227C74.3835 51.1339 77.4824 50.7081 78.0663 50.6051Z" fill="#FAF5EF"/>
<g id="Group_5">
<path id="Vector_54" d="M107.534 114.477C110.892 113.36 116.885 118.331 116.945 122.037C116.058 121.506 111.739 126.005 111.7 126.357C111.625 127.023 113.642 129.709 113.551 130.368C111.076 132.361 112.12 137.066 107.843 136.077C108.692 136.079 107.065 137.887 106.917 137.928C106.659 138.001 104.141 135.336 103.677 140.242L103.214 140.705C101.214 137.565 99.3761 144.846 98.4317 147.339C100.147 148.322 101.148 151.424 103.214 149.345C103.017 153.746 101.548 151.689 101.363 151.813C100.911 152.118 102.002 153.174 99.666 153.202C99.8148 160.492 98.2303 158.964 95.5003 164.156C92.2486 155.633 90.9545 158.41 90.2547 158.293C88.6644 155.632 87.3241 159.416 86.3977 158.448C84.6889 156.661 88.8972 155.246 87.9405 153.202C97.2075 151.813 89.0489 150.286 92.2604 147.031C87.0322 142.663 89.5554 143.527 89.4833 142.094C89.4595 141.622 87.5309 143.281 90.409 137.157C95.1379 136.718 89.2025 130.722 92.8775 130.368C92.0938 127.322 97.0699 127.046 96.7345 124.043C100.409 123.603 100.555 125.472 100.437 123.426C100.913 123.516 101.876 123.226 101.98 123.117C105.068 119.87 98.4997 120.167 105.529 116.483C103.93 114.385 105.868 116.342 105.991 116.329C106.111 116.316 107.419 114.515 107.534 114.477Z" fill="#F4A31D"/>
<path id="Vector_55" d="M52.4556 64.1813C52.2485 68.0994 48.6214 70.9224 48.1357 67.1126C47.3432 60.8958 51.4147 64.0103 52.4556 64.1813Z" fill="#F4A31D"/>
<path id="Vector_56" d="M69.581 59.2438C71.5123 59.189 72.0341 60.6545 73.438 61.8666C71.8288 62.2334 70.2543 63.711 68.9639 62.638C67.1651 66.7121 68.0496 63.3291 69.581 59.2438Z" fill="#F4A31D"/>
<path id="Vector_57" d="M100.437 115.094C106.763 114.476 104.647 117.823 101.054 116.019C100.823 115.903 100.128 115.191 100.437 115.094Z" fill="#F4A31D"/>
<path id="Vector_58" d="M66.4952 75.9065C66.8585 75.6106 67.8557 76.1179 68.1923 76.6779C70.3372 80.2462 64.6567 77.404 66.4952 75.9065Z" fill="#F4A31D"/>
<path id="Vector_59" d="M100.129 146.568C100.285 146.557 101.989 147.446 102.135 147.647C104.361 150.735 97.8542 146.716 100.129 146.568Z" fill="#F4A31D"/>
<path id="Vector_60" d="M39.9591 177.733C40.7439 177.484 42.451 179.671 40.5762 179.893C39.0512 180.073 39.2913 177.945 39.9591 177.733Z" fill="#F4A31D"/>
<path id="Vector_61" d="M58.4727 134.842C58.8665 134.614 60.7881 134.865 60.7869 135.613C60.7843 137.31 57.0448 135.669 58.4727 134.842Z" fill="#F4A31D"/>
<path id="Vector_62" d="M66.8038 106.455C67.3718 106.488 67.4627 106.402 67.8837 106.918C69.6956 109.141 62.1351 106.184 66.8038 106.455Z" fill="#F4A31D"/>
<path id="Vector_63" d="M71.4327 56.4674C73.5355 57.1524 69.4144 60.0439 70.3527 57.2388C70.4018 57.0919 71.3696 56.4468 71.4327 56.4674Z" fill="#F4A31D"/>
<path id="Vector_64" d="M103.215 106.146L106.454 107.843C106.078 108.779 103.593 106.876 103.215 106.146Z" fill="#F4A31D"/>
<path id="Vector_65" d="M64.6438 100.592C67.3653 100.294 67.4254 102.212 65.5695 101.826C65.4939 101.811 64.3676 100.794 64.6438 100.592Z" fill="#F4A31D"/>
<path id="Vector_66" d="M124.814 126.512C125.603 126.192 125.731 128.358 125.122 128.363C124.118 128.372 124.093 126.804 124.814 126.512Z" fill="#F4A31D"/>
<path id="Vector_67" d="M71.7409 62.9472C73.1941 62.6291 74.1374 63.6103 74.0551 63.7186C73.7381 64.1359 71.1047 63.7113 71.7409 62.9472Z" fill="#F4A31D"/>
<path id="Vector_68" d="M53.5358 134.842C53.8284 134.641 54.9853 134.846 54.9243 135.613C54.8437 136.626 52.5553 135.515 53.5358 134.842Z" fill="#F4A31D"/>
<path id="Vector_69" d="M100.437 153.974C101.254 153.774 101.513 155.329 100.746 155.517C99.9296 155.717 99.6706 154.162 100.437 153.974Z" fill="#F4A31D"/>
<path id="Vector_70" d="M91.4891 134.534C93.1426 135.611 90.3514 137.208 90.4091 135.922C90.413 135.834 91.4154 134.486 91.4891 134.534Z" fill="#F4A31D"/>
<path id="Vector_71" d="M138.391 130.523C139.153 130.599 139.134 132.448 138.391 132.374C137.628 132.298 137.647 130.449 138.391 130.523Z" fill="#F4A31D"/>
<path id="Vector_72" d="M100.129 144.407C100.97 143.873 101.382 145.988 100.746 145.95C99.8069 145.893 99.7707 144.635 100.129 144.407Z" fill="#F4A31D"/>
<path id="Vector_73" d="M60.324 111.083C60.7878 110.786 61.7242 111.776 61.7125 111.854C61.5369 113.041 59.2963 111.74 60.324 111.083Z" fill="#F4A31D"/>
<path id="Vector_74" d="M55.0786 74.0558C55.4804 74.6603 56.1168 74.6999 56.1586 74.8272C56.6564 76.3462 55.1471 76.3426 55.0786 74.0558Z" fill="#F4A31D"/>
<path id="Vector_75" d="M78.2211 67.2667C79.2998 68.0001 77.8276 69.6601 77.1411 68.6552L78.2211 67.2667Z" fill="#F4A31D"/>
<path id="Vector_76" d="M78.5293 88.8663C78.5979 88.8596 79.6698 89.8048 79.1464 90.1006C78.2815 90.5894 77.6606 88.9517 78.5293 88.8663Z" fill="#F4A31D"/>
<path id="Vector_77" d="M67.4212 83.0043C68.633 83.1645 66.9054 84.5934 66.8041 84.5471C66.1767 84.261 67.2346 82.9797 67.4212 83.0043Z" fill="#F4A31D"/>
<path id="Vector_78" d="M55.85 107.688C55.7736 107.747 54.5714 109.771 54.6157 108.151C54.6399 107.264 55.6831 107.883 55.85 107.688Z" fill="#F4A31D"/>
<path id="Vector_79" d="M86.8606 152.43C87.9761 152.211 87.3261 153.684 86.8606 153.664C86.3979 153.643 86.2298 152.553 86.8606 152.43Z" fill="#F4A31D"/>
<path id="Vector_80" d="M103.831 150.887C104.225 150.663 105.277 151.11 105.22 151.35C105.064 152.004 102.796 151.477 103.831 150.887Z" fill="#F4A31D"/>
<path id="Vector_81" d="M58.7812 61.4046C59.1713 61.3896 59.3175 61.4439 59.244 61.8674C58.9191 63.7415 57.1047 61.4687 58.7812 61.4046Z" fill="#F4A31D"/>
<path id="Vector_82" d="M35.9475 113.242C36.6146 112.872 36.974 114.509 36.256 114.476C35.9587 114.463 35.5136 113.483 35.9475 113.242Z" fill="#F4A31D"/>
<path id="Vector_83" d="M91.1805 150.579C91.7037 150.223 92.1053 151.904 91.4891 151.813C90.7596 151.706 90.9175 150.758 91.1805 150.579Z" fill="#F4A31D"/>
<path id="Vector_84" d="M42.1194 174.031C43.2676 173.81 42.9348 174.818 42.428 174.956C41.7948 175.129 41.4557 174.158 42.1194 174.031Z" fill="#F4A31D"/>
<path id="Vector_85" d="M110.62 153.665C111.127 153.466 111.782 154.775 111.546 154.9C111.181 155.092 110.065 153.884 110.62 153.665Z" fill="#F4A31D"/>
<path id="Vector_86" d="M68.3469 193.468C69.0648 193.435 68.7053 195.073 68.0383 194.703C67.6044 194.462 68.0495 193.482 68.3469 193.468Z" fill="#F4A31D"/>
<path id="Vector_87" d="M82.5405 102.445C83.4536 102.401 82.8667 103.679 82.5405 103.679C82.0293 103.678 81.9808 102.471 82.5405 102.445Z" fill="#F4A31D"/>
<path id="Vector_88" d="M65.8782 66.3409C66.3137 66.1668 66.8589 67.4298 66.4953 67.5752C66.0597 67.7493 65.5146 66.4862 65.8782 66.3409Z" fill="#F4A31D"/>
<path id="Vector_89" d="M107.534 110.775C107.598 110.781 108.206 111.839 107.843 112.009C107.111 112.354 106.869 110.717 107.534 110.775Z" fill="#F4A31D"/>
<path id="Vector_90" d="M67.421 101.517C68.5714 101.467 67.5124 103.159 66.9582 102.288C66.8099 102.055 67.3293 101.521 67.421 101.517Z" fill="#F4A31D"/>
<path id="Vector_91" d="M72.6666 56.7766C73.3204 56.5267 73.5061 58.1297 72.9751 58.0108C72.9131 57.9969 72.2924 56.9196 72.6666 56.7766Z" fill="#F4A31D"/>
<path id="Vector_92" d="M52.4556 64.1812C52.5206 64.1919 52.72 63.136 53.6898 63.7184L52.4556 64.1812Z" fill="#F4A31D"/>
<path id="Vector_93" d="M66.3408 171.869C67.3268 172.321 66.571 173.242 66.1865 173.103C65.7471 172.946 66.3393 172.507 66.3408 171.869Z" fill="#F4A31D"/>
<path id="Vector_94" d="M49.8329 107.38C50.9816 107.239 49.9019 109.077 49.3701 108.151C49.3477 108.112 49.7883 107.385 49.8329 107.38Z" fill="#F4A31D"/>
<path id="Vector_95" d="M78.838 98.4321C79.6226 98.0323 79.7266 99.8357 79.1466 99.6664C79.0692 99.6438 78.7165 98.494 78.838 98.4321Z" fill="#F4A31D"/>
<path id="Vector_96" d="M88.7121 157.676C89.4524 157.254 89.3989 159.738 88.5578 158.447C88.4834 158.333 88.508 157.792 88.7121 157.676Z" fill="#F4A31D"/>
<path id="Vector_97" d="M61.5585 189.458C61.874 189.556 61.8207 190.606 61.2499 190.384C60.7815 190.201 61.4515 189.425 61.5585 189.458Z" fill="#F4A31D"/>
<path id="Vector_98" d="M73.5925 147.802C74.3217 147.891 73.7864 149.185 73.284 148.419C73.081 148.109 73.5583 147.798 73.5925 147.802Z" fill="#F4A31D"/>
<path id="Vector_99" d="M77.6033 102.135C77.8608 101.979 78.3934 102.557 78.3748 102.598C78.1414 103.111 76.9138 102.555 77.6033 102.135Z" fill="#F4A31D"/>
<path id="Vector_100" d="M105.066 113.86C105.187 113.802 105.843 114.693 105.375 114.786C104.75 114.91 104.767 114.004 105.066 113.86Z" fill="#F4A31D"/>
<path id="Vector_101" d="M133.453 128.98C133.922 128.811 134.132 129.435 133.762 129.597C133.31 129.796 133.082 129.115 133.453 128.98Z" fill="#F4A31D"/>
<path id="Vector_102" d="M81.3065 111.392C82.1009 110.971 82.1973 111.943 81.6151 112.009C81.5809 112.013 80.9919 111.559 81.3065 111.392Z" fill="#F4A31D"/>
<path id="Vector_103" d="M78.221 100.899C78.6894 100.73 78.8997 101.354 78.5296 101.516C78.0777 101.715 77.8494 101.034 78.221 100.899Z" fill="#F4A31D"/>
<path id="Vector_104" d="M67.1127 195.013C67.5811 194.843 67.7913 195.467 67.4213 195.63C66.9694 195.828 66.741 195.147 67.1127 195.013Z" fill="#F4A31D"/>
<path id="Vector_105" d="M101.672 141.013C102.14 140.844 102.35 141.468 101.98 141.63C101.528 141.829 101.3 141.148 101.672 141.013Z" fill="#F4A31D"/>
<path id="Vector_106" d="M85.935 154.899C86.4034 154.729 86.6136 155.354 86.2435 155.516C85.7917 155.715 85.5633 155.034 85.935 154.899Z" fill="#F4A31D"/>
<path id="Vector_107" d="M132.528 128.362L132.991 128.517L132.528 128.979L132.374 128.825L132.528 128.362Z" fill="#F4A31D"/>
<path id="Vector_108" d="M55.0786 112.625L55.3871 112.933V113.242H55.0786V112.625Z" fill="#F4A31D"/>
<path id="Vector_109" d="M100.746 143.174L101.054 143.482V143.791H100.746V143.174Z" fill="#F4A31D"/>
<path id="Vector_110" d="M48.29 113.551L48.7528 113.705L48.29 114.168L48.1357 114.014L48.29 113.551Z" fill="#F4A31D"/>
<path id="Vector_111" d="M88.7119 151.813L89.1748 151.967L89.0205 152.43L88.8662 152.275L88.7119 151.813Z" fill="#F4A31D"/>
<path id="Vector_112" d="M86.5522 153.974L87.0151 154.128L86.8608 154.591L86.7065 154.437L86.5522 153.974Z" fill="#F4A31D"/>
<path id="Vector_113" d="M63.5641 162.614C63.5635 162.646 64.1553 162.511 64.1813 162.768C64.2004 162.958 63.3812 163.621 63.5641 162.614Z" fill="#F4A31D"/>
</g>
</g>
<g id="Group_6">
<path id="Vector_114" d="M40.1134 138.545C39.4033 138.51 39.1955 137.984 38.8791 138.39C38.6329 138.86 42.3068 140.398 39.6505 142.247C39.3322 142.469 38.5557 141.496 38.1077 141.63C34.7383 142.641 35.0642 143.831 35.1764 146.567C34.1507 146.504 33.5502 146.877 33.1707 145.641C27.4275 147.177 32.2952 143.373 32.3993 143.019C32.9851 141.027 30.9342 140.252 33.325 137.773C33.1101 136.477 29.8661 140.319 32.0907 137.156C27.083 133.818 36.4614 132.697 29.6222 132.219C32.7834 128.48 27.0927 132.53 31.165 127.899C28.4809 124.621 26.4479 126.283 28.0793 129.133C25.2058 131.284 26.3905 137.759 26.8451 132.528C28.398 131.682 27.2496 133.577 27.6165 133.608C27.7728 133.62 28.4983 131.996 28.6965 133.145C28.9171 134.424 21.0669 139.141 18.9767 139.162C18.8008 139.163 16.4884 138.678 15.5825 138.236C15.106 136.302 1.55851 126.331 4.78276 124.968C6.51995 124.233 5.77581 129.095 12.6511 124.968C14.6148 126.959 19.1747 118.636 16.8168 119.414L12.6511 122.191C12.2935 122.225 8.77974 123.784 5.70843 122.191C4.99868 121.823 1.42259 117.641 0 116.791C5.82029 115.007 4.7212 106.793 5.70843 111.082C6.70667 107.962 10.8782 111.702 13.114 111.082C13.7396 110.909 15.1595 106.973 16.5082 110.465C17.5684 109.159 17.268 110.368 18.5138 110.774C21.6593 111.799 19.7042 109.334 20.5194 108.614C20.9819 108.205 25.0973 108.936 25.765 108.922C26.263 108.913 28.847 106.799 34.8677 110.928C35.0149 118.104 37.4714 113.8 37.9533 114.631C36.2012 121.87 49.1262 122.013 45.8217 123.425C43.6891 124.336 44.7054 120.701 42.8903 124.196C42.7806 124.408 42.963 125.416 42.8903 126.048C40.3876 126.426 42.3506 128.462 39.8047 130.985C41.6259 132.631 39.803 133.887 39.8047 134.07C39.807 134.318 41.2936 136.246 40.1134 138.545Z" fill="#F4A31D"/>
<path id="Vector_115" d="M12.6507 124.969C12.6998 124.939 12.5126 124.556 12.805 124.352C12.8623 124.312 13.6037 125.109 14.1936 124.506C14.4313 124.263 13.82 123.976 13.885 123.735C13.9771 123.393 14.3185 123.259 14.1936 122.809C13.9892 122.072 13.5718 122.103 12.6508 122.192L16.8164 119.415C19.1743 118.637 14.6144 126.96 12.6507 124.969Z" fill="#FAF5EF"/>
<path id="Vector_116" d="M31.3191 134.843L31.6276 135.151V135.46H31.3191V134.843Z" fill="#FAF5EF"/>
</g>
<g id="Group_7">
<path id="Vector_117" d="M88.8664 196.555C89.8224 196.324 89.4355 197.605 89.175 198.098C87.9794 200.359 87.269 198.577 86.5522 198.406C85.0257 198.042 86.4285 200.269 84.0837 199.332C83.548 201.661 81.7102 201.221 81.3066 201.492C81.0284 201.679 80.1598 204.875 75.7525 202.726C76.2827 204.534 70.902 201.83 70.3527 203.806C69.2293 207.847 77.0361 204.352 70.9698 207.2C71.7417 215.509 68.8223 211.007 67.4213 211.674C67.1359 211.81 66.4899 215.214 62.4843 212.6C59.2324 214.707 63.1226 215.041 63.2557 215.223C63.8195 215.995 59.657 216.696 67.8842 221.085C66.7293 224.051 66.9905 225.452 65.8786 223.091C64.2389 224.483 68.2802 225.65 69.427 225.405C69.6347 225.708 67.2818 230.124 68.8099 232.502C66.9551 233.38 67.0414 237.101 67.5756 238.519H67.2671C66.0862 234.29 68.0449 230.882 68.1928 226.64C67.435 226.155 64.5728 224.576 64.49 223.862C64.4006 223.092 66.0148 221.029 66.8043 221.857C67.3221 219.336 61.1363 222.13 60.7873 218.925C60.5596 216.836 64.3975 222.313 64.49 219.543C64.4964 219.354 61.4877 217.757 61.4044 217.383C61.2753 216.801 62.5058 216.37 62.33 215.84C61.9571 214.715 59.1377 216.745 61.2501 211.983C55.9928 215.534 59.9026 211.147 52.3018 208.897C50.3444 206.721 46.9833 203.785 48.4447 204.269C56.3419 212.304 57.8291 209.673 59.7073 210.131C68.2068 216.711 64.4712 208.971 70.1984 211.674C70.7816 209.288 68.8267 205.082 70.0441 202.88C70.3843 202.265 73.711 201.277 74.2098 201.492C74.9553 201.812 73.4775 202.271 73.9012 202.417C74.114 202.491 77.4519 201.715 77.7582 200.412C78.5015 197.25 74.5531 200.017 73.1298 194.395C72.2806 191.04 72.7455 194.273 77.1411 196.709C74.6446 199.006 78.3027 196.118 78.6839 196.709C76.8738 207.166 79.3549 197.529 82.8495 199.949C83.5616 198.396 86.4387 197.058 87.478 198.406C87.6335 198.387 88.0688 197.414 88.8664 196.555Z" fill="#FAF5EF"/>
<g id="Group_8">
<path id="Vector_118" d="M58.1641 210.749C58.789 210.381 60.8537 211.318 60.4784 211.829C59.6331 212.979 56.8912 211.497 58.1641 210.749Z" fill="#F4A31D"/>
<path id="Vector_119" d="M80.0722 201.184C80.2521 201.396 80.6588 201.588 80.535 201.955C80.3462 202.514 77.0033 203.557 80.0722 201.184Z" fill="#F4A31D"/>
<path id="Vector_120" d="M77.2952 201.801C77.8749 201.865 77.925 203.113 76.9866 203.036C76.1384 202.966 77.0635 201.776 77.2952 201.801Z" fill="#F4A31D"/>
<path id="Vector_121" d="M81.3065 199.949C82.0332 199.829 82.22 200.775 81.6151 200.875C80.8883 200.995 80.7016 200.049 81.3065 199.949Z" fill="#F4A31D"/>
<path id="Vector_122" d="M75.1352 195.938C76.4898 196.016 74.7524 197.116 74.3637 196.4C74.3423 196.361 75.0903 195.935 75.1352 195.938Z" fill="#F4A31D"/>
</g>
</g>
</g>
<circle id="Ellipse 18" cx="76.8504" cy="122.491" r="44.6336" fill="#F4A31D"/>
</g>
</svg>
