<svg preserveAspectRatio="none" width="100%" height="100%" overflow="visible" style="display: block;" viewBox="0 0 55.907 57.4694" fill="none" xmlns="http://www.w3.org/2000/svg">
<g id="Group">
<path id="Vector" opacity="0.8" d="M3.09032 16.1052C3.03146 16.1446 3.02164 16.2495 2.90392 16.2069C2.76984 16.1577 2.81235 16.0528 2.81235 15.9741C2.81562 15.6299 3.06089 15.384 3.21786 15.1184C3.79015 14.148 4.33628 13.1578 5.01648 12.2562C5.56588 11.5251 6.11201 10.7973 6.70719 10.099C7.37105 9.31868 8.0578 8.57445 8.79687 7.86957C9.7158 6.9942 10.6936 6.20079 11.7139 5.45657C13.0416 4.48612 14.4511 3.6501 15.9194 2.9157C23.7385 -1.00214 33.6114 -0.985751 41.3618 3.05012C42.6928 3.74189 43.9649 4.53202 45.152 5.45001C45.9467 6.0631 46.7283 6.69257 47.5164 7.31877C47.8401 7.5745 47.8467 7.86957 47.536 8.16464C45.2763 10.3022 43.1016 12.5284 40.904 14.7283C40.5017 15.1282 40.1289 15.5577 39.7463 15.9774C39.4814 16.2724 39.1642 16.3085 38.9255 15.9971C38.3009 15.184 37.4245 14.6988 36.5905 14.1676C35.0143 13.1644 33.2745 12.5579 31.4432 12.253C30.8578 12.1546 30.2659 12.053 29.6479 12.0595C29.0756 12.0661 28.4869 11.9579 27.9081 11.9972C26.4888 12.0956 25.0892 12.2792 23.7124 12.6923C22.1786 13.1513 20.7757 13.8529 19.4513 14.725C18.4767 15.3676 17.6069 16.1413 16.786 16.9806C15.9652 17.8199 15.2359 18.7248 14.6146 19.7149C13.9311 20.8001 13.3294 21.9214 12.973 23.1639C12.8748 23.5115 12.7375 23.5803 12.5511 23.3967C10.36 21.6984 8.17553 19.9969 5.97793 18.3051C5.01975 17.5675 4.09755 16.7806 3.09359 16.1052H3.09032Z" fill="#E44135"/>
<path id="Vector_2" opacity="0.6" d="M12.5447 34.3348C12.7573 34.1512 12.875 34.2627 12.9404 34.4758C13.3361 35.7741 13.9705 36.9544 14.6835 38.0953C15.1282 38.8067 15.6743 39.4493 16.2139 40.0952C16.7339 40.7116 17.2996 41.2722 17.9046 41.7836C18.5881 42.3607 19.3206 42.882 20.0891 43.3541C22.0938 44.5868 24.275 45.3015 26.5904 45.5933C27.4929 45.7081 28.4184 45.6917 29.3275 45.6556C31.6134 45.5671 33.8274 45.1441 35.9138 44.1344C36.5449 43.8295 37.1532 43.4918 37.7451 43.1278C37.9282 43.0164 38.059 42.9475 38.0819 43.2459C38.1702 43.3278 38.2553 43.4131 38.3501 43.4852C41.1919 45.6982 44.037 47.9112 46.8789 50.1242C47.0031 50.2193 47.1601 50.2882 47.2157 50.4554C47.2974 50.3898 47.3988 50.3603 47.4479 50.4652C47.5002 50.58 47.4577 50.7111 47.3628 50.7931C47.0195 51.0881 46.6761 51.3799 46.3229 51.6619C45.5708 52.2684 44.7957 52.8487 43.9847 53.37C43.0952 53.9404 42.1665 54.4552 41.2115 54.9109C40.0146 55.4846 38.7752 55.96 37.5064 56.3502C36.11 56.7797 34.694 57.1764 33.242 57.3141C30.4034 57.5796 27.5518 57.4321 24.7067 57.396C23.4869 57.3796 22.29 56.9895 21.0996 56.678C19.9681 56.3797 18.8661 55.9994 17.7771 55.5797C16.7045 55.1666 15.6612 54.6683 14.6671 54.0847C13.7187 53.5306 12.7671 52.9864 11.8809 52.3274C10.9554 51.6389 10.0659 50.9111 9.19928 50.1472C8.64007 49.6554 8.11029 49.1374 7.6034 48.5964C6.73352 47.6719 5.93559 46.6916 5.19652 45.6523C4.41493 44.554 3.68894 43.4295 3.06433 42.2361C2.96295 42.0427 2.72422 41.9246 2.76674 41.6558C2.77982 41.5673 2.75693 41.4755 2.87465 41.4296C3.00219 41.3771 3.03162 41.4787 3.09049 41.5443C3.22457 41.4558 3.36192 41.3738 3.48946 41.2755C6.36072 39.0428 9.22871 36.8068 12.1032 34.5774C12.234 34.4758 12.342 34.3119 12.548 34.3315L12.5447 34.3348Z" fill="#34A050"/>
<path id="Vector_3" d="M47.2159 50.4582C47.1603 50.2877 47.0034 50.2222 46.8791 50.1271C44.0373 47.9141 41.1922 45.7011 38.3503 43.4881C38.2555 43.4159 38.1737 43.3274 38.0822 43.2487C37.7617 43.1864 37.899 43.0651 38.0397 42.9405C38.3863 42.6324 38.7951 42.4127 39.145 42.1045C39.9168 41.4259 40.6297 40.698 41.2347 39.8686C42.1046 38.6784 42.7553 37.3769 43.1641 35.9573C43.2688 35.5966 43.2949 35.2098 43.4552 34.9442C43.0464 35.0491 42.5493 34.9901 42.0653 35.036C40.3256 35.2032 38.576 35.1016 36.8329 35.118C34.9885 35.1344 33.1441 35.118 31.2997 35.1245C30.4135 35.1245 29.5338 34.9442 28.641 35.0458C28.2813 35.0885 28.0949 34.7344 28.1112 34.4459C28.1439 33.8131 28.0949 33.1803 28.072 32.5443C27.9739 30.0166 27.9379 27.4888 28.1145 24.9611C28.1374 24.6299 28.1538 24.3021 28.1145 23.9677C28.0622 23.5611 28.2976 23.3087 28.7032 23.2923C34.9002 23.053 41.0973 23.2267 47.2944 23.1775C48.7366 23.1644 50.1755 23.1874 51.6177 23.171C52.3927 23.1644 53.1677 23.2038 53.9362 23.2726C54.2436 23.2988 54.5412 23.2956 54.8454 23.2628C55.4209 23.2005 55.5779 23.3546 55.6564 23.9185C56.0815 27.0036 55.8362 30.1051 55.8395 33.2C55.8395 35.0262 55.349 36.8097 54.8388 38.5637C54.2633 40.5538 53.4751 42.4586 52.4646 44.2651C51.6373 45.7437 50.6987 47.1469 49.5836 48.4288C48.9622 49.1402 48.3736 49.8812 47.6509 50.4943C47.5691 50.5631 47.4874 50.6484 47.3892 50.6746C47.1963 50.7303 47.0884 50.6779 47.2159 50.4582Z" fill="#3F7FEE"/>
<path id="Vector_4" opacity="0.4" d="M12.5452 34.3333C12.3424 34.3104 12.2345 34.4743 12.1005 34.5792C9.22919 36.8086 6.35793 39.0446 3.48667 41.2773C3.35913 41.3756 3.22178 41.4576 3.0877 41.5461C3.12694 41.651 3.09424 41.7559 2.99286 41.7559C2.85878 41.7559 2.74433 41.6805 2.68219 41.5428C1.7698 39.5724 0.965322 37.5594 0.471517 35.4415C0.187007 34.2186 -0.0320985 32.9826 0.00387405 31.7007C0.0594679 29.7204 0.0529275 27.7369 0.00387405 25.7534C-0.0288282 24.4289 0.242601 23.1634 0.559813 21.8979C0.906457 20.5274 1.36429 19.1898 1.90061 17.8784C2.14587 17.2784 2.42711 16.6948 2.68873 16.1014C2.75087 15.9637 2.83916 15.8752 2.99613 15.8981C3.12367 15.9145 3.12367 16.0031 3.08443 16.1014C4.08839 16.7801 5.0106 17.5636 5.96877 18.3013C8.1631 19.993 10.3509 21.6946 12.5419 23.3929C12.7283 23.2257 12.7643 23.3666 12.7774 23.5142C12.7905 23.7207 12.6989 23.9076 12.64 24.0978C12.1691 25.6977 11.9566 27.3238 11.9827 28.9992C12.0089 30.7106 12.1986 32.3793 12.8068 33.9858C12.8624 34.1301 12.8363 34.2809 12.7316 34.3924C12.6531 34.4776 12.5943 34.3825 12.5419 34.3301L12.5452 34.3333Z" fill="#F6D37D"/>
</g>
</svg>
