<svg preserveAspectRatio="none" width="100%" height="100%" overflow="visible" style="display: block;" viewBox="0 0 38.136 37.0814" fill="none" xmlns="http://www.w3.org/2000/svg">
<g id="Icon">
<path id="Vector" fill-rule="evenodd" clip-rule="evenodd" d="M3.43941 35.7509C3.43941 36.4853 4.03547 37.0814 4.76989 37.0814H33.1481C33.8825 37.0814 34.4786 36.4853 34.4786 35.7509C34.4786 33.9893 33.3042 32.2633 31.0903 30.9417C28.3531 29.3078 23.9412 28.2115 18.9599 28.2115C13.9786 28.2115 9.56671 29.3078 6.8277 30.9417C4.61556 32.2633 3.43941 33.9893 3.43941 35.7509Z" fill="#F4A31D"/>
<path id="Vector_2" fill-rule="evenodd" clip-rule="evenodd" d="M20.2744 32.4002C20.2744 32.4002 21.0798 27.0215 23.6131 21.7741C25.2362 18.4089 27.5619 15.0685 30.9271 13.385C31.5853 13.0568 31.8514 12.2568 31.5232 11.6004C31.195 10.944 30.3949 10.6779 29.7386 11.0061C25.8536 12.9486 23.0897 16.7343 21.2164 20.6175C18.5022 26.2427 17.6436 32.0064 17.6436 32.0064C17.5354 32.7337 18.0375 33.4114 18.763 33.5196C19.4886 33.6278 20.1662 33.1258 20.2744 32.4002Z" fill="#F4A31D"/>
<path id="Vector_3" fill-rule="evenodd" clip-rule="evenodd" d="M21.1437 17.0466L22.6179 20.3142C25.7135 16.3405 29.2543 13.2591 33.1092 10.8075C33.8755 12.3402 33.2547 14.2064 31.7219 14.9728C29.1337 16.266 27.271 18.6839 25.8749 21.2491C28.0747 21.8434 29.8806 21.854 31.353 21.4779C34.9186 20.5732 36.7671 17.4244 37.569 13.8658C38.6546 9.05127 37.8475 3.58389 37.8475 3.58389C37.741 2.8743 37.09 2.37582 36.3751 2.45919C27.5407 3.50051 23.5563 6.47724 21.864 9.48412C20.3313 12.2054 20.6133 15.0739 21.1437 17.0466Z" fill="#F4A31D"/>
<path id="Vector_4" fill-rule="evenodd" clip-rule="evenodd" d="M20.278 32.379C20.278 32.379 20.8882 27.8589 19.8345 22.5086C18.7577 17.0483 15.9495 10.7667 9.17648 7.38018C8.51833 7.052 7.72005 7.31809 7.39009 7.97623C7.0619 8.6326 7.32977 9.43266 7.98614 9.76085C13.9023 12.7181 16.283 18.2546 17.2232 23.0231C18.1847 27.9033 17.6401 32.0277 17.6401 32.0277C17.5425 32.7551 18.0552 33.4256 18.7825 33.5214C19.5116 33.619 20.1804 33.1081 20.278 32.379Z" fill="#F4A31D"/>
<path id="Vector_5" fill-rule="evenodd" clip-rule="evenodd" d="M13.4854 17.5556C12.1798 15.104 10.2 12.851 7.19315 11.3467C5.66043 10.5803 5.03777 8.71413 5.80413 7.18142C6.06845 6.65455 15.5219 14.9922 17.2959 16.7662L18.1581 13.2449C18.543 11.2296 18.6938 7.94777 16.6023 5.13603C14.5445 2.36686 10.216 -0.0829949 1.31953 0.00215577C0.599294 0.00925165 0.0174319 0.585792 0.00146614 1.30425C0.00146614 1.30425 -0.10852 6.8284 1.57675 11.4673C2.82208 14.8964 5.05374 17.7862 8.70457 18.2333C10.0617 18.4 11.6476 18.2244 13.4854 17.5556Z" fill="#F4A31D"/>
</g>
</svg>
