<svg preserveAspectRatio="none" width="100%" height="100%" overflow="visible" style="display: block;" viewBox="0 0 153.429 39.2077" fill="none" xmlns="http://www.w3.org/2000/svg">
<g id="Layer_1" clip-path="url(#clip0_0_57)">
<path id="Vector" fill-rule="evenodd" clip-rule="evenodd" d="M20.4873 23.386V24.1148C24.7736 24.0806 29.054 24.0449 33.3374 24.0107L33.3329 23.2819L20.4873 23.386ZM32.0583 19.8507L27.8359 19.8849C27.6738 20.7728 27.5786 21.7098 27.5563 22.6899L31.691 22.6557C31.7044 21.6652 31.8204 20.7104 32.0583 19.8507ZM26.3769 19.8968L22.5516 19.9281L22.1471 22.7346L26.0081 22.7033L26.3769 19.8983V19.8968ZM31.7936 24.6636L27.6054 24.6978C27.6649 25.5277 27.7705 26.3814 27.9252 27.2544L32.268 27.2187C32.1505 26.7725 32.0494 26.3144 31.9661 25.846C31.8962 25.4533 31.8382 25.0592 31.7936 24.6636ZM25.7463 24.7126L21.8586 24.7439L21.4897 27.3065L25.5455 27.2737C25.5961 26.3844 25.66 25.4726 25.7478 24.7126H25.7463ZM25.3879 30.107L21.0807 30.1412C20.868 31.6939 21.0034 33.1678 22.861 33.1515C24.1029 33.1411 25.0815 31.9408 25.3046 30.8982C25.3358 30.7525 25.3626 30.4729 25.3879 30.1055V30.107ZM22.9621 17.0829L26.7502 17.0517L27.8077 9.00548C27.9073 8.24697 27.8404 7.67437 27.6708 7.24752L44.6541 7.1092C50.282 7.06309 53.435 11.4253 51.6622 16.8018L49.0416 24.7454C48.234 27.1964 46.534 29.4511 44.3923 31.1838C45.4394 28.4561 45.6952 25.019 45.0125 21.2116C43.6234 13.4643 39.3356 9.66286 34.1866 11.4922C31.6523 12.392 29.762 14.3523 28.6599 17.0368L33.7568 16.9952C34.1286 16.6843 34.5555 16.4359 35.0433 16.2634C38.2409 15.1271 40.2488 18.5836 40.9775 22.6468C41.7063 26.7086 41.104 31.0916 37.9048 32.2279C35.9386 32.9269 34.4216 31.8888 33.3761 30.0431L28.6123 30.0817C29.1938 31.9304 29.9746 33.4638 30.9146 34.6432L7.50333 34.8336C7.04525 34.8366 6.60501 34.8113 6.18114 34.7577L11.5279 19.6975H11.58L12.2359 29.8215C12.3281 31.3251 12.8189 31.9349 14.086 31.9245C15.3547 31.9141 16.1816 31.3296 16.842 29.7843L23.2417 14.8029H23.2938L22.9651 17.0844L22.9621 17.0829ZM16.5728 7.33824L23.0484 7.28619C22.3672 8.08486 21.7336 9.3312 20.9662 11.1739L15.9912 23.1049H15.9392L15.4112 16.0195C15.142 12.3177 14.9665 10.9583 12.8709 10.9761C11.8105 10.9851 10.3857 11.4878 9.47249 13.9552L5.5535 24.5788C5.01362 26.0423 3.41777 30.403 2.40939 33.2526C0.221605 31.5214 -0.62317 28.5335 0.496752 25.141L3.11734 17.1974C4.89166 11.8209 10.9464 7.38435 16.5743 7.33973L16.5728 7.33824Z" fill="white"/>
<path id="Vector_2" fill-rule="evenodd" clip-rule="evenodd" d="M140.887 23.0856V8.96533H143.594V11.2825C144.168 10.3069 144.843 9.59444 145.621 9.14826C146.399 8.70059 147.345 8.4775 148.463 8.4775C149.4 8.4775 150.196 8.64556 150.858 8.97574C151.514 9.31186 152.03 9.80415 152.402 10.46C152.623 10.8467 152.782 11.2989 152.882 11.8164C152.977 12.3296 153.026 13.2338 153.026 14.5248V23.0841H150.122V15.8366C150.122 13.9819 149.922 12.746 149.519 12.1362C149.116 11.5264 148.402 11.2215 147.375 11.2215C146.705 11.2215 146.103 11.3584 145.578 11.638C145.053 11.9176 144.637 12.3087 144.338 12.8114C144.125 13.152 143.976 13.5833 143.894 14.1173C143.808 14.6452 143.768 15.49 143.768 16.6531V23.0826H140.89L140.887 23.0856ZM133.769 11.223C134.081 10.2875 134.489 9.59593 134.996 9.14975C135.508 8.70208 136.137 8.47898 136.892 8.47898C137.3 8.47898 137.698 8.5355 138.091 8.6411C138.485 8.74818 138.873 8.9103 139.254 9.11405L138.217 11.864C137.969 11.6662 137.701 11.519 137.416 11.4268C137.126 11.3301 136.804 11.284 136.452 11.284C135.493 11.284 134.809 11.7108 134.394 12.5705C133.977 13.4301 133.769 14.8728 133.769 16.8955V23.0856H130.891V8.93558H133.769V11.223ZM124.912 14.3329C124.799 13.3216 124.456 12.5497 123.88 12.0202C123.306 11.4863 122.518 11.2215 121.523 11.2215C120.528 11.2215 119.817 11.4803 119.241 11.9934C118.672 12.5125 118.269 13.2888 118.038 14.3314H124.912V14.3329ZM127.899 16.4984H117.852C117.925 17.8206 118.273 18.8513 118.902 19.5934C119.527 20.3356 120.364 20.7059 121.41 20.7059C122.338 20.7059 123.111 20.4873 123.727 20.05C124.347 19.6128 124.885 18.9063 125.346 17.9307L127.763 19.4507C127.057 20.874 126.184 21.9255 125.138 22.623C124.097 23.3191 122.872 23.6656 121.468 23.6656C119.449 23.6656 117.848 22.974 116.652 21.5968C115.462 20.2136 114.864 18.3739 114.864 16.0716C114.864 13.7692 115.48 12.041 116.714 10.6132C117.946 9.1899 119.53 8.47898 121.466 8.47898C123.403 8.47898 125.068 9.12893 126.2 10.4303C127.332 11.7257 127.897 13.5506 127.897 15.8886V16.4984H127.899ZM108.946 0H111.824V23.0856H108.946V21.2607C108.435 22.0683 107.834 22.6736 107.15 23.0707C106.461 23.4678 105.679 23.6656 104.792 23.6656C103.018 23.6656 101.615 22.9844 100.597 21.6176C99.5734 20.2553 99.0633 18.3843 99.0633 16.0121C99.0633 13.7603 99.5838 11.9414 100.629 10.5582C101.675 9.17057 103.037 8.47898 104.716 8.47898C105.744 8.47898 106.622 8.71844 107.35 9.20032C108.079 9.67773 108.613 10.3693 108.948 11.2691V0H108.946ZM109.028 15.9808C109.028 14.5218 108.725 13.384 108.118 12.5705C107.511 11.7525 106.665 11.345 105.579 11.345C104.493 11.345 103.634 11.7674 103.013 12.6062C102.389 13.445 102.077 14.614 102.077 16.1028C102.077 17.5916 102.375 18.7606 102.978 19.5741C103.58 20.3921 104.431 20.7996 105.526 20.7996C106.62 20.7996 107.413 20.3579 108.06 19.4774C108.702 18.5984 109.028 17.4339 109.028 15.9808ZM83.1018 16.0418C83.1018 15.0096 83.2788 14.034 83.6268 13.1193C83.9748 12.1987 84.4775 11.3807 85.1289 10.6697C85.7759 9.96329 86.5181 9.4249 87.3599 9.04266C88.2017 8.66638 89.0792 8.47898 89.9983 8.47898C90.9174 8.47898 91.8351 8.66638 92.6724 9.04266C93.5053 9.42341 94.2564 9.97816 94.9212 10.7099C95.5815 11.4372 96.0843 12.2552 96.4323 13.1699C96.7758 14.0801 96.9484 15.0409 96.9484 16.0418C96.9484 17.0427 96.7758 18.0645 96.4367 18.9747C96.0976 19.8894 95.5994 20.697 94.9435 21.4035C94.2564 22.1456 93.4904 22.7093 92.6486 23.0915C91.8113 23.4723 90.9249 23.6656 89.9968 23.6656C89.0687 23.6656 88.2091 23.4723 87.3718 23.0915C86.53 22.7108 85.7833 22.156 85.1275 21.4347C84.4671 20.697 83.9644 19.8745 83.6164 18.9598C83.2728 18.0496 83.1003 17.074 83.1003 16.0418H83.1018ZM93.9084 16.0716C93.9084 14.7598 93.5321 13.6473 92.781 12.7371C92.0299 11.8269 91.1108 11.3747 90.0251 11.3747C88.9394 11.3747 88.0291 11.8269 87.2736 12.7371C86.5181 13.6473 86.1418 14.7598 86.1418 16.0716C86.1418 17.3833 86.5181 18.4958 87.2736 19.406C88.0291 20.3162 88.9483 20.7684 90.0251 20.7684C91.1019 20.7684 92.021 20.3162 92.7765 19.406C93.5321 18.4958 93.9084 17.3833 93.9084 16.0716ZM76.6708 12.3206C76.6351 12.1526 76.5756 11.6856 76.4983 10.9226C76.4254 10.2875 76.3629 9.75805 76.3123 9.34161C76.2305 9.83985 76.1175 10.3381 75.9733 10.8304C75.829 11.3286 75.6431 11.8313 75.4215 12.3504L70.3439 23.969L65.2663 12.1109C65.0536 11.6231 64.8677 11.1546 64.7145 10.698C64.5613 10.2399 64.4245 9.78779 64.3115 9.34161C64.3026 9.79969 64.2713 10.2771 64.2118 10.7798C64.1523 11.2825 64.0676 11.806 63.9545 12.3504L61.8723 23.0856H58.9662L63.5559 0.365871L69.285 14.1247C69.3712 14.3389 69.5066 14.7047 69.688 15.2074C69.8695 15.7161 70.0866 16.3407 70.3439 17.0829C70.5298 16.4582 70.8243 15.6655 71.2214 14.7047C71.3255 14.446 71.4073 14.2467 71.4564 14.1098L77.056 0.365871L81.7484 23.0856H78.8154L76.6708 12.3206Z" fill="white"/>
<path id="Vector_3" fill-rule="evenodd" clip-rule="evenodd" d="M147.849 36.9901C148.197 37.4453 148.573 37.7784 148.976 37.9926C149.379 38.2082 149.827 38.3168 150.318 38.3168C150.833 38.3168 151.259 38.18 151.597 37.9048C151.933 37.6297 152.103 37.2891 152.103 36.8801C152.103 36.544 152.009 36.2718 151.825 36.0651C151.637 35.8598 151.197 35.6174 150.507 35.3378C149.583 34.9645 148.967 34.6194 148.669 34.2952C148.365 33.9739 148.213 33.5649 148.213 33.0682C148.213 32.3528 148.456 31.7743 148.944 31.3385C149.429 30.8997 150.071 30.6811 150.87 30.6811C151.314 30.6811 151.752 30.7778 152.181 30.9726C152.611 31.166 153.026 31.4575 153.429 31.8397L152.793 32.5551C152.48 32.2219 152.153 31.9676 151.814 31.7951C151.475 31.6226 151.121 31.5378 150.754 31.5378C150.299 31.5378 149.927 31.6716 149.641 31.9379C149.354 32.2041 149.211 32.5491 149.211 32.9685C149.211 33.4802 149.702 33.9293 150.684 34.322C150.896 34.4038 151.06 34.4707 151.172 34.5242C151.887 34.8336 152.396 35.1578 152.699 35.5058C153.005 35.8509 153.157 36.2658 153.157 36.7507C153.157 37.4958 152.897 38.0922 152.372 38.5384C151.848 38.9831 151.145 39.2077 150.263 39.2077C149.594 39.2077 149.009 39.0798 148.506 38.8284C148.004 38.5771 147.555 38.1889 147.159 37.6624L147.849 36.9901ZM145.74 38.6232C145.367 38.8195 145.004 38.9653 144.65 39.0619C144.293 39.1586 143.937 39.2077 143.584 39.2077C142.371 39.2077 141.396 38.8448 140.662 38.1175C139.929 37.3902 139.563 36.4324 139.563 35.2426C139.563 33.9368 139.993 32.8525 140.851 31.9914C141.708 31.1317 142.794 30.7004 144.109 30.7004C144.611 30.7004 145.078 30.7674 145.511 30.8997C145.941 31.0306 146.353 31.2329 146.744 31.5021L146.469 32.4986C146.072 32.2071 145.675 31.9929 145.282 31.8531C144.885 31.7133 144.476 31.6434 144.055 31.6434C143.079 31.6434 142.273 31.9765 141.641 32.6428C141.008 33.3091 140.692 34.1569 140.692 35.1876C140.692 36.0993 140.961 36.8355 141.501 37.3991C142.038 37.9599 142.746 38.2409 143.622 38.2409C144.013 38.2409 144.394 38.1681 144.77 38.0223C145.147 37.8766 145.545 37.646 145.965 37.3322L145.743 38.6202L145.74 38.6232ZM135.743 38.8626L136.782 30.9919H137.849L136.815 38.8626H135.743ZM136.852 28.0873C136.852 27.8597 136.928 27.6664 137.08 27.5147C137.231 27.36 137.422 27.2842 137.652 27.2842C137.883 27.2842 138.067 27.36 138.222 27.5147C138.377 27.6664 138.452 27.8597 138.452 28.0873C138.452 28.3148 138.377 28.5022 138.222 28.6539C138.067 28.8086 137.877 28.8845 137.652 28.8845C137.428 28.8845 137.231 28.8086 137.08 28.6539C136.928 28.5022 136.852 28.3119 136.852 28.0873ZM132.283 31.9185H130.977L131.083 30.9919H132.413L132.83 27.7571H133.888L133.461 30.9919H135.067L134.933 31.9185H133.338L132.432 38.8626H131.377L132.283 31.9185ZM121.868 38.8626L122.898 30.9919H123.938L123.76 32.2665C124.169 31.7371 124.613 31.3429 125.092 31.0856C125.571 30.8283 126.101 30.7004 126.679 30.7004C127.43 30.7004 128.027 30.9027 128.464 31.3117C128.903 31.7177 129.121 32.2784 129.121 32.9864C129.121 33.1113 129.115 33.2467 129.103 33.3924C129.091 33.5411 129.071 33.6988 129.042 33.8624L128.394 38.8611H127.322L127.976 33.9263C127.994 33.7955 128.009 33.669 128.019 33.5471C128.028 33.4266 128.031 33.3017 128.031 33.1708C128.031 32.6681 127.876 32.2829 127.57 32.0197C127.261 31.7564 126.816 31.6255 126.228 31.6255C125.448 31.6255 124.823 31.9007 124.359 32.4554C123.895 33.0102 123.593 33.8371 123.45 34.9362L122.936 38.8597H121.869L121.868 38.8626ZM111.765 35.2604C111.765 33.9546 112.189 32.8674 113.041 32.0003C113.888 31.1332 114.955 30.7004 116.24 30.7004C117.418 30.7004 118.379 31.0663 119.121 31.7966C119.863 32.5268 120.236 33.4653 120.236 34.6105C120.236 35.9401 119.818 37.0407 118.979 37.9063C118.144 38.7719 117.08 39.2062 115.789 39.2062C114.58 39.2062 113.607 38.8433 112.871 38.119C112.135 37.3947 111.765 36.4413 111.765 35.259V35.2604ZM116.188 31.6642C115.233 31.6642 114.446 31.9973 113.825 32.6666C113.203 33.3359 112.892 34.1807 112.892 35.2084C112.892 36.1082 113.161 36.8384 113.701 37.4021C114.241 37.9628 114.94 38.2439 115.804 38.2439C116.746 38.2439 117.531 37.9078 118.155 37.2326C118.78 36.5573 119.091 35.7141 119.091 34.6997C119.091 33.8118 118.819 33.0845 118.273 32.5149C117.73 31.9483 117.034 31.6642 116.189 31.6642H116.188ZM109.804 25.1023H110.853L109.059 38.8626H107.984L108.145 37.6788C107.808 38.1934 107.414 38.5786 106.967 38.8299C106.516 39.0813 106 39.2092 105.421 39.2092C104.455 39.2092 103.665 38.8329 103.043 38.0818C102.422 37.3307 102.111 36.367 102.111 35.192C102.111 33.8951 102.487 32.8198 103.235 31.9661C103.983 31.1124 104.926 30.6841 106.061 30.6841C106.733 30.6841 107.294 30.8388 107.736 31.1451C108.18 31.4515 108.536 31.9274 108.802 32.5685L109.804 25.1038V25.1023ZM105.697 38.299C106.506 38.299 107.184 37.948 107.727 37.2474C108.273 36.5484 108.545 35.6605 108.545 34.5912C108.545 33.6854 108.32 32.9552 107.875 32.4034C107.428 31.8486 106.839 31.5735 106.113 31.5735C105.286 31.5735 104.596 31.9185 104.044 32.6071C103.495 33.2972 103.22 34.1732 103.22 35.2396C103.22 36.1662 103.448 36.9083 103.898 37.4661C104.354 38.0208 104.95 38.299 105.698 38.299H105.697ZM92.1162 35.2604C92.1162 33.9546 92.5401 32.8674 93.3908 32.0003C94.2385 31.1332 95.3049 30.7004 96.5899 30.7004C97.7678 30.7004 98.7286 31.0663 99.4708 31.7966C100.213 32.5268 100.586 33.4653 100.586 34.6105C100.586 35.9401 100.168 37.0407 99.3295 37.9063C98.4936 38.7719 97.4302 39.2062 96.1393 39.2062C94.9301 39.2062 93.9574 38.8433 93.2212 38.119C92.485 37.3947 92.1162 36.4413 92.1162 35.259V35.2604ZM96.5393 31.6642C95.5845 31.6642 94.7978 31.9973 94.1761 32.6666C93.5544 33.3359 93.2435 34.1807 93.2435 35.2084C93.2435 36.1082 93.5127 36.8384 94.0526 37.4021C94.5925 37.9628 95.2915 38.2439 96.1556 38.2439C97.0971 38.2439 97.8824 37.9078 98.507 37.2326C99.1317 36.5573 99.4425 35.7141 99.4425 34.6997C99.4425 33.8118 99.1704 33.0845 98.6245 32.5149C98.0817 31.9483 97.3856 31.6642 96.5408 31.6642H96.5393ZM82.9337 38.8626L84.7452 25.1023H85.8027L84.824 32.2665C85.2331 31.7371 85.6777 31.3429 86.1566 31.0856C86.6356 30.8283 87.165 30.7004 87.7436 30.7004C88.4947 30.7004 89.0911 30.9027 89.5283 31.3117C89.9671 31.7177 90.1857 32.2784 90.1857 32.9864C90.1857 33.1113 90.1797 33.2467 90.1678 33.3924C90.1559 33.5411 90.1351 33.6988 90.1069 33.8624L89.4584 38.8611H88.3861L89.0405 33.9263C89.0583 33.7955 89.0732 33.669 89.0836 33.5471C89.0925 33.4266 89.0955 33.3017 89.0955 33.1708C89.0955 32.6681 88.9408 32.2829 88.6345 32.0197C88.3251 31.7564 87.8804 31.6255 87.2929 31.6255C86.5121 31.6255 85.8875 31.9007 85.4234 32.4554C84.9594 33.0102 84.6575 33.8371 84.5147 34.9362L84.0001 38.8597H82.9337V38.8626ZM79.565 31.9185H78.2592L78.3648 30.9919H79.6944L80.1123 27.7571H81.1698L80.743 30.9919H82.3492L82.2154 31.9185H80.6195L79.7137 38.8626H78.6593L79.565 31.9185ZM72.9481 38.8626L73.9788 30.9919H75.0184L74.8161 32.3216C75.1894 31.7847 75.5761 31.3757 75.9792 31.0975C76.3822 30.8224 76.7912 30.6826 77.2062 30.6826C77.3728 30.6826 77.5334 30.6975 77.6911 30.7287C77.8487 30.7555 77.9945 30.7986 78.1298 30.8492L77.8814 31.9215C77.6449 31.8397 77.4635 31.7817 77.3356 31.749C77.2062 31.7162 77.1021 31.6999 77.0173 31.6999C76.3213 31.6999 75.7635 31.9602 75.3516 32.4807C74.9426 33.0013 74.6674 33.7925 74.5306 34.8589L74.016 38.8611H72.9496L72.9481 38.8626ZM64.9748 25.5753C66.9321 25.5753 68.4982 26.1479 69.6672 27.2961C70.8392 28.4442 71.4237 29.9806 71.4237 31.9036C71.4237 32.9403 71.2363 33.9115 70.857 34.8276C70.4777 35.7423 69.9334 36.5365 69.224 37.2117C68.5547 37.8513 67.7694 38.3421 66.8637 38.6901C65.9579 39.0352 65.0001 39.2077 63.9887 39.2077C62.1073 39.2077 60.5873 38.6232 59.4228 37.4542C58.2627 36.2881 57.6812 34.7607 57.6812 32.8793C57.6812 31.8218 57.8686 30.8254 58.2449 29.8988C58.6211 28.9692 59.1536 28.175 59.8452 27.5206C60.4966 26.893 61.2655 26.4126 62.1534 26.078C63.0413 25.7418 63.9798 25.5753 64.9733 25.5753H64.9748ZM70.2428 31.868C70.2428 30.281 69.7549 28.999 68.7793 28.0233C67.8006 27.0447 66.5186 26.5569 64.9347 26.5569C64.1285 26.5569 63.3656 26.7026 62.6413 26.9956C61.914 27.2901 61.2804 27.711 60.7361 28.2613C60.1278 28.8755 59.6637 29.582 59.3425 30.3792C59.0242 31.1764 58.8636 32.0152 58.8636 32.8971C58.8636 34.4841 59.3484 35.7631 60.3152 36.7328C61.2819 37.7055 62.5565 38.1904 64.136 38.1904C64.954 38.1904 65.7259 38.0446 66.4532 37.7516C67.1804 37.4572 67.8259 37.0303 68.3896 36.4666C68.9801 35.8702 69.4381 35.1727 69.7594 34.377C70.0836 33.5798 70.2442 32.744 70.2442 31.868H70.2428Z" fill="white"/>
</g>
<defs>
<clipPath id="clip0_0_57">
<rect width="153.429" height="39.2077" fill="white"/>
</clipPath>
</defs>
</svg>
