<svg preserveAspectRatio="none" width="100%" height="100%" overflow="visible" style="display: block;" viewBox="0 0 26.8667 27.8028" fill="none" xmlns="http://www.w3.org/2000/svg">
<g id="Layer_10">
<path id="Vector" d="M16.299 5.17814H7.75977C6.94855 5.17814 6.29023 4.51983 6.29023 3.7086V1.46954C6.29023 0.65832 6.94855 6.10352e-06 7.75977 6.10352e-06H16.299C17.1102 6.10352e-06 17.7685 0.65832 17.7685 1.46954V3.7086C17.7685 4.52082 17.1102 5.17814 16.299 5.17814Z" fill="white"/>
<path id="Vector_2" d="M26.1741 15.877C25.2606 14.9635 23.7712 14.9635 22.8577 15.877L21.7734 16.9672L25.0918 20.2846L26.1741 19.2023C27.0975 18.2799 27.0975 16.8004 26.1741 15.877Z" fill="white"/>
<path id="Vector_3" d="M20.7229 18.0217L14.9341 23.8006C14.815 23.9297 14.7355 24.0885 14.7057 24.2573L14.2689 26.829C14.1696 27.395 14.666 27.8815 15.232 27.7922L17.8037 27.3553C17.9725 27.3255 18.1314 27.246 18.2505 27.1269L24.0393 21.3381L20.7229 18.0217Z" fill="white"/>
<path id="Vector_4" d="M20.4942 2.59154H19.258V3.70859C19.258 5.33998 17.9305 6.66753 16.2991 6.66753H7.75989C6.12751 6.66753 4.80095 5.33998 4.80095 3.70859V2.59154H3.54489C1.58882 2.59154 0.000130208 4.18023 0.000130208 6.13631V24.2573C0.000130208 26.2134 1.58882 27.8021 3.54489 27.8021H12.935C12.7841 27.4138 12.7275 26.9928 12.801 26.5728L13.2369 24.0081C13.3143 23.5533 13.5229 23.1333 13.8366 22.7907L20.1566 16.4797L21.7999 14.8274C22.4106 14.2158 23.194 13.8534 24.037 13.7491V6.14624C24.039 4.1703 22.4602 2.59154 20.4942 2.59154ZM10.4835 17.3197H6.17517C5.68168 17.3197 5.28153 16.9195 5.28153 16.4261C5.28153 15.9326 5.68168 15.5324 6.17517 15.5324H10.4835C10.977 15.5324 11.3771 15.9326 11.3771 16.4261C11.3771 16.9195 10.977 17.3197 10.4835 17.3197ZM15.7579 12.2478H6.17616C5.68268 12.2478 5.28252 11.8476 5.28252 11.3542C5.28252 10.8607 5.68268 10.4605 6.17616 10.4605H15.7579C16.2514 10.4605 16.6516 10.8607 16.6516 11.3542C16.6516 11.8476 16.2514 12.2478 15.7579 12.2478Z" fill="white"/>
</g>
</svg>
