<svg preserveAspectRatio="none" width="100%" height="100%" overflow="visible" style="display: block;" viewBox="0 0 150.521 46.8288" fill="none" xmlns="http://www.w3.org/2000/svg">
<g id="main-logo 1" clip-path="url(#clip0_0_425)">
<path id="Vector" d="M12.5076 30.2271L13.2131 30.1621C13.2596 30.3945 13.3431 30.5712 13.4731 30.6828C13.6031 30.7943 13.7795 30.8502 13.993 30.8502C14.2251 30.8502 14.4015 30.8037 14.5222 30.7014C14.6429 30.5991 14.6986 30.4875 14.6986 30.3573C14.6986 30.2736 14.6707 30.1992 14.6243 30.1435C14.5779 30.0877 14.4851 30.0319 14.3643 29.9854C14.2808 29.9575 14.0859 29.9017 13.7887 29.8273C13.3988 29.7344 13.1296 29.6135 12.9718 29.474C12.7489 29.2787 12.6375 29.037 12.6375 28.7487C12.6375 28.5628 12.6933 28.3954 12.7954 28.2373C12.8975 28.0792 13.0461 27.9584 13.241 27.8747C13.4359 27.791 13.6681 27.7538 13.9466 27.7538C14.3922 27.7538 14.7357 27.8561 14.9585 28.0514C15.1813 28.2466 15.3021 28.5163 15.3206 28.8417L14.5965 28.8696C14.5686 28.6837 14.5036 28.5535 14.4015 28.4698C14.2994 28.3861 14.1508 28.3489 13.9466 28.3489C13.7331 28.3489 13.5752 28.3954 13.4545 28.4791C13.3803 28.5349 13.3431 28.6093 13.3431 28.7023C13.3431 28.7859 13.3803 28.8603 13.4545 28.9161C13.5474 28.9905 13.7702 29.0742 14.123 29.1579C14.4758 29.2415 14.7357 29.3252 14.9028 29.4182C15.0699 29.5112 15.1999 29.632 15.3021 29.7808C15.3949 29.9389 15.4413 30.1249 15.4413 30.348C15.4413 30.5526 15.3856 30.7478 15.2742 30.9245C15.1628 31.1012 14.9957 31.2407 14.7914 31.3243C14.5872 31.408 14.3272 31.4545 14.0116 31.4545C13.5567 31.4545 13.2131 31.3523 12.9718 31.1384C12.7025 30.9338 12.554 30.627 12.5076 30.2271Z" fill="white"/>
<path id="Vector_2" d="M16.0078 31.3901V27.8009H16.7319V31.3901H16.0078Z" fill="white"/>
<path id="Vector_3" d="M17.4278 31.3901V27.8009H18.1334L19.6003 30.1999V27.8009H20.2687V31.3901H19.5445L18.0962 29.0469V31.3901H17.4278Z" fill="white"/>
<path id="Vector_4" d="M23.3329 30.079L24.0385 30.3021C23.9271 30.6927 23.7507 30.9809 23.5 31.1762C23.2494 31.3622 22.9337 31.4644 22.5438 31.4644C22.0703 31.4644 21.6803 31.2971 21.374 30.9716C21.0676 30.6462 20.9098 30.1999 20.9098 29.6327C20.9098 29.0376 21.0676 28.5727 21.374 28.2379C21.6803 27.9032 22.0888 27.7451 22.5902 27.7451C23.0265 27.7451 23.3886 27.8753 23.6578 28.1357C23.825 28.2937 23.9456 28.5076 24.0292 28.7958L23.3143 28.9632C23.2679 28.7773 23.1844 28.6285 23.0451 28.5262C22.9151 28.4146 22.748 28.3681 22.553 28.3681C22.2838 28.3681 22.0703 28.4611 21.9031 28.6563C21.7361 28.8516 21.6525 29.1585 21.6525 29.5862C21.6525 30.0418 21.7361 30.3672 21.8939 30.5532C22.061 30.7485 22.2652 30.8415 22.5252 30.8415C22.7202 30.8415 22.8873 30.7764 23.0172 30.6555C23.1472 30.5346 23.2679 30.3393 23.3329 30.079Z" fill="white"/>
<path id="Vector_5" d="M24.6509 31.3901V27.8009H27.3061V28.4054H25.3751V29.205H27.1761V29.8094H25.3751V30.7857H27.3804V31.3901H24.6509Z" fill="white"/>
<path id="Vector_6" d="M16.0725 36.0948H15.3855V33.5005C15.1349 33.733 14.8378 33.9097 14.4943 34.0212V33.3983C14.6707 33.3425 14.8656 33.2309 15.0791 33.0635C15.2927 32.8962 15.4319 32.7102 15.5155 32.487H16.0725V36.0948Z" fill="white"/>
<path id="Vector_7" d="M17.1217 35.2672L17.7901 35.1928C17.8087 35.3323 17.8458 35.4253 17.9201 35.4903C17.9943 35.5554 18.0779 35.5927 18.1893 35.5927C18.3286 35.5927 18.4493 35.5276 18.5514 35.3974C18.6535 35.2672 18.7185 34.9976 18.7463 34.5884C18.57 34.793 18.3565 34.886 18.0965 34.886C17.818 34.886 17.5673 34.7744 17.3631 34.5606C17.1588 34.3467 17.0567 34.0585 17.0567 33.7051C17.0567 33.3425 17.1681 33.0449 17.3816 32.8218C17.5951 32.5986 17.8737 32.487 18.2079 32.487C18.57 32.487 18.8671 32.6265 19.0991 32.9054C19.3313 33.1844 19.4519 33.6493 19.4519 34.2909C19.4519 34.9511 19.3313 35.4253 19.0899 35.7135C18.8485 36.0018 18.5328 36.1505 18.1429 36.1505C17.8644 36.1505 17.6323 36.0762 17.4652 35.9274C17.2795 35.7786 17.1681 35.5554 17.1217 35.2672ZM18.6721 33.7609C18.6721 33.5377 18.6257 33.3704 18.5235 33.2402C18.4214 33.1193 18.3007 33.0542 18.1707 33.0542C18.0408 33.0542 17.9387 33.1007 17.8551 33.203C17.7715 33.3053 17.7251 33.4634 17.7251 33.6958C17.7251 33.9283 17.7715 34.0956 17.8644 34.2072C17.9572 34.3188 18.0687 34.3746 18.2079 34.3746C18.3379 34.3746 18.4493 34.3188 18.5421 34.2165C18.6257 34.1142 18.6721 33.9655 18.6721 33.7609Z" fill="white"/>
<path id="Vector_8" d="M22.2096 35.4532V36.0948H19.8051C19.8329 35.853 19.9072 35.6205 20.0372 35.4067C20.1672 35.1928 20.4271 34.9046 20.8078 34.542C21.1141 34.2537 21.3091 34.0584 21.3741 33.9561C21.4669 33.8167 21.5133 33.6772 21.5133 33.5377C21.5133 33.3889 21.4762 33.2681 21.3926 33.1844C21.3091 33.1007 21.1977 33.0635 21.0491 33.0635C20.9099 33.0635 20.7892 33.11 20.7056 33.1937C20.6221 33.2774 20.5756 33.4262 20.5571 33.6214L19.87 33.5563C19.9072 33.1751 20.0372 32.9054 20.2507 32.7381C20.4642 32.5707 20.7335 32.487 21.0584 32.487C21.4112 32.487 21.6897 32.58 21.894 32.7753C22.0982 32.9705 22.2004 33.203 22.2004 33.4912C22.2004 33.6493 22.1725 33.8074 22.1168 33.9561C22.0611 34.1049 21.9682 34.2537 21.8382 34.4118C21.7547 34.5141 21.6062 34.6721 21.3926 34.8674C21.1791 35.0627 21.0398 35.2021 20.9842 35.2672C20.9284 35.3323 20.882 35.3974 20.8449 35.4625H22.2096V35.4532Z" fill="white"/>
<path id="Vector_9" d="M23.2581 34.1609C23.0817 34.0865 22.9517 33.9842 22.8682 33.854C22.7846 33.7238 22.7475 33.5751 22.7475 33.4263C22.7475 33.1566 22.8403 32.9335 23.026 32.7661C23.2117 32.5895 23.4809 32.5058 23.8244 32.5058C24.1679 32.5058 24.4279 32.5895 24.6136 32.7661C24.7993 32.9428 24.8921 33.166 24.8921 33.4263C24.8921 33.5937 24.8457 33.7424 24.7621 33.8726C24.6786 34.0028 24.5579 34.1051 24.4 34.1702C24.595 34.2538 24.7528 34.3654 24.8549 34.5235C24.9571 34.6816 25.0128 34.8582 25.0128 35.0535C25.0128 35.3882 24.9107 35.6579 24.6971 35.8625C24.4836 36.067 24.2051 36.1693 23.8523 36.1693C23.5273 36.1693 23.2581 36.0856 23.0353 35.9089C22.7753 35.7044 22.6547 35.4254 22.6547 35.0721C22.6547 34.8769 22.7011 34.7002 22.8032 34.5328C22.9053 34.3654 23.0539 34.2446 23.2581 34.1609ZM23.3417 34.9977C23.3417 35.1837 23.3881 35.3325 23.4902 35.444C23.5831 35.5463 23.7037 35.6021 23.8523 35.6021C23.9915 35.6021 24.1122 35.5556 24.2051 35.4533C24.2979 35.351 24.3443 35.2023 24.3443 35.007C24.3443 34.8396 24.2979 34.7002 24.2051 34.5979C24.1122 34.4956 23.9915 34.4491 23.843 34.4491C23.6759 34.4491 23.5459 34.5049 23.4716 34.6258C23.3788 34.7374 23.3417 34.8675 23.3417 34.9977ZM23.4067 33.4635C23.4067 33.603 23.4438 33.7052 23.5273 33.7797C23.6016 33.854 23.7037 33.8912 23.8337 33.8912C23.9637 33.8912 24.0658 33.854 24.1494 33.7703C24.2236 33.696 24.2701 33.5844 24.2701 33.4449C24.2701 33.3147 24.2329 33.2125 24.1494 33.1381C24.0751 33.0637 23.973 33.0172 23.843 33.0172C23.713 33.0172 23.6016 33.0544 23.5273 33.1381C23.4438 33.2311 23.4067 33.3333 23.4067 33.4635Z" fill="white"/>
<path id="Vector_10" d="M19.9441 46.5647C10.0289 46.5647 1.95174 38.4845 1.95174 28.5447C1.95174 24.1001 3.57644 19.8509 6.52877 16.5407C6.77017 16.5314 7.02079 16.4849 7.27145 16.4198C7.47572 17.331 7.93065 18.1493 8.60838 18.6607C8.99832 18.9582 9.43466 19.107 9.88027 19.107C10.066 19.107 10.2517 19.0791 10.4281 19.0326C10.5116 19.0047 10.5859 18.9768 10.6694 18.9489C10.493 19.6928 10.3723 20.6505 10.5395 21.5989C8.89619 23.7747 7.94919 26.4433 7.94919 28.9539C7.94919 35.5742 13.3339 40.9671 19.9441 40.9671C26.5544 40.9671 31.9391 35.5742 31.9391 28.9539C31.9391 26.4526 31.0014 23.784 29.3488 21.6082C29.516 20.6505 29.3952 19.6928 29.2188 18.9489C29.2931 18.9861 29.3767 19.014 29.4602 19.0326C29.6459 19.0884 29.8316 19.107 30.008 19.107C30.4536 19.107 30.89 18.9582 31.2799 18.6607C31.9576 18.1493 32.4125 17.331 32.6168 16.4198C32.8675 16.4942 33.1089 16.5314 33.3595 16.5407C36.3118 19.8509 37.9365 24.0909 37.9365 28.5447C37.9273 38.4752 29.8594 46.5647 19.9441 46.5647Z" fill="white"/>
<path id="Vector_11" d="M7.1507 6.9356C6.56583 6.25682 6.95576 5.38276 7.64277 5.39208C9.16532 5.41999 9.16532 7.2982 9.16532 7.2982C9.11891 7.53065 9.09105 7.83752 9.10964 8.19085C8.58971 7.7817 7.94911 7.41911 7.20643 7.31683C6.73291 7.25174 6.25944 7.30752 5.79524 7.46556C5.79524 7.46556 4.86684 6.69382 4.91326 5.67104C4.96896 4.44366 6.06447 3.43945 7.46637 3.43945C8.06052 3.43945 8.71044 3.6812 9.16532 4.00664C9.16532 4.00664 9.19318 4.48085 9.26745 4.8063C8.17197 4.06243 6.89076 4.07173 6.30586 4.93648C5.94378 5.50367 6.07376 6.66591 7.1507 6.9356Z" fill="white"/>
<path id="Vector_12" d="M7.08548 8.33045C7.98607 8.45132 8.90515 9.31606 9.49007 9.98552C9.64788 10.3761 9.86142 10.7759 10.1492 11.1571C10.1399 11.1571 10.1399 11.1571 10.1306 11.1571C9.63861 11.2408 9.16509 11.4825 8.73807 11.8266C8.5988 11.0734 8.18101 10.2831 7.22474 9.85534C6.29636 9.43693 5.37724 9.82748 4.91304 10.8224C3.70612 13.3794 5.94356 14.5975 6.612 14.2348C6.12924 13.491 6.40777 12.8029 6.76054 12.4682C7.0298 12.2171 7.46614 12.2171 7.86534 12.2822C7.88393 12.5426 7.85607 12.7657 7.83748 12.8866C7.71681 13.0818 7.61468 13.2864 7.52186 13.5003C7.26188 14.0954 7.1412 14.7555 7.15047 15.3971C5.73932 15.8713 4.67166 15.0345 4.13319 14.0675C3.41832 12.7657 3.32547 10.7015 4.82948 9.25097C5.5722 8.54432 6.33349 8.22818 7.08548 8.33045Z" fill="white"/>
<path id="Vector_13" d="M30.7132 7.2982C30.7132 7.2982 30.7132 5.41999 32.2358 5.39208C32.9228 5.38276 33.3128 6.25682 32.7278 6.9356C33.8048 6.65664 33.9348 5.49435 33.5634 4.93648C32.9785 4.07173 31.6974 4.06243 30.6018 4.8063C30.6854 4.48085 30.704 4.00664 30.704 4.00664C31.1682 3.6812 31.8088 3.43945 32.4029 3.43945C33.8141 3.43945 34.956 4.44366 34.956 5.67104C34.956 6.7961 34.074 7.46556 34.074 7.46556C33.6098 7.30752 33.1456 7.25174 32.6629 7.31683C31.9202 7.41911 31.2703 7.7817 30.7596 8.19085C30.7875 7.83752 30.769 7.53065 30.7132 7.2982Z" fill="white"/>
<path id="Vector_14" d="M32.8022 8.33045C33.5542 8.22818 34.3155 8.54432 35.0489 9.25097C36.5529 10.7015 36.4694 12.7657 35.7452 14.0675C35.2068 15.0438 34.1391 15.8713 32.7279 15.3971C32.7372 14.7462 32.6165 14.0954 32.3565 13.5003C32.2637 13.2864 32.1523 13.0818 32.0409 12.8866C32.0223 12.7657 31.9945 12.5426 32.013 12.2822C32.403 12.2078 32.8486 12.2171 33.1178 12.4682C33.4706 12.8029 33.7492 13.491 33.2664 14.2348C33.9256 14.5975 36.163 13.3794 34.9654 10.8224C34.5012 9.82748 33.582 9.43693 32.6536 9.85534C31.6974 10.2924 31.2889 11.0827 31.1403 11.8266C30.7133 11.4732 30.2398 11.2408 29.7477 11.1571H29.7385C30.0263 10.7759 30.2398 10.3761 30.3976 9.98552C30.9825 9.31606 31.9016 8.44205 32.8022 8.33045Z" fill="white"/>
<path id="Vector_15" d="M32.4029 11.2312C32.5515 11.0639 32.7465 10.9058 32.9971 10.7849C33.1364 10.7198 33.2571 10.692 33.3685 10.692C33.8141 10.692 34.0462 11.1104 34.1205 11.2684C34.2783 11.6125 34.3155 12.0402 34.1762 12.4121C34.0834 12.1611 33.9348 11.91 33.712 11.6962C33.3778 11.3893 32.9414 11.2312 32.4029 11.2312Z" fill="white"/>
<path id="Vector_16" d="M12.1267 11.566C10.502 10.1155 10.0192 8.42317 10.3999 7.2516L12.5352 9.16704C12.2473 9.68773 12.0803 10.3107 12.0803 10.9616C12.0803 11.1662 12.0988 11.3614 12.1267 11.566Z" fill="white"/>
<path id="Vector_17" d="M10.2886 12.161C10.6414 12.0959 11.0035 12.1517 11.347 12.3098C11.5141 12.4306 11.6998 12.5422 11.8947 12.6538C12.0619 12.784 12.2289 12.9421 12.3868 13.1187L15.3948 16.6613C15.3577 16.7264 15.3205 16.8008 15.2927 16.8752C14.9399 17.6841 15.0234 18.586 15.5526 19.488C15.859 20.018 16.2954 20.5108 16.7874 20.9478C14.9956 20.2318 13.3523 18.9394 12.1454 17.2285C12.5446 16.0383 12.2011 14.6436 11.3005 13.9648C10.9106 13.6673 10.4464 13.5743 10.0008 13.7045C9.51805 13.844 9.06312 14.2159 8.84958 14.7831C8.15326 16.7078 10.0565 17.5447 10.0565 17.5447L10.1122 16.931C10.1401 16.7264 10.2701 16.2801 10.4929 16.1871C10.6693 16.1127 10.9756 16.2429 11.347 16.5497C11.3191 16.7264 11.2727 16.9031 11.1985 17.0612C10.9756 17.5725 10.6043 17.9352 10.1865 18.056C9.82439 18.1584 9.46232 18.0839 9.13739 17.8329C8.11612 17.0518 7.77264 15.3038 8.36679 13.9369C8.79386 12.9606 9.51805 12.2912 10.2886 12.161Z" fill="white"/>
<path id="Vector_18" d="M14.7822 11.166L15.7477 12.0307C15.4785 12.6351 15.005 13.007 14.4851 13.007C13.6681 13.007 13.0089 12.0865 13.0089 10.9521C13.0089 10.543 13.1018 10.1432 13.2596 9.80844L14.2901 10.729L14.1044 12.1516L14.7822 11.166Z" fill="white"/>
<path id="Vector_19" d="M19.9438 22.5936C22.1163 22.5843 24.2887 21.766 26.127 20.3248C26.257 20.8083 26.3869 21.236 26.5076 21.6173C26.1641 22.1752 24.6322 24.1464 19.9438 24.1464C15.2647 24.1464 13.7235 22.1752 13.38 21.6173C13.5007 21.2454 13.6307 20.8176 13.7607 20.3248C15.5896 21.7567 17.7714 22.5843 19.9345 22.5936H19.9438Z" fill="white"/>
<path id="Vector_20" d="M25.5886 10.729L26.6191 9.80844C26.7862 10.1432 26.8698 10.543 26.8698 10.9521C26.8698 12.0865 26.2106 13.007 25.3936 13.007C24.8737 13.007 24.4002 12.6258 24.1309 12.0307L25.0965 11.166L25.765 12.1516L25.5886 10.729Z" fill="white"/>
<path id="Vector_21" d="M25.3935 14.0207C25.4121 14.0207 25.4307 14.0207 25.4585 14.0207L23.8431 15.9175C23.6574 15.7873 23.4717 15.7316 23.3139 15.7036C22.8497 15.6293 22.3948 15.8152 22.0327 16.0477L21.8099 14.1043L23.4067 12.6817C23.8524 13.5092 24.5858 14.0207 25.3935 14.0207Z" fill="white"/>
<path id="Vector_22" d="M23.546 18.949C23.2953 19.3767 22.9239 19.7858 22.5155 20.1577L22.1719 17.1916C22.4412 16.9405 22.8497 16.6523 23.1839 16.7081C23.3975 16.7453 23.5831 16.9498 23.7502 17.3125C23.9638 17.8052 23.8988 18.3353 23.546 18.949Z" fill="white"/>
<path id="Vector_23" d="M16.3419 18.9487C15.9892 18.335 15.9242 17.7958 16.1377 17.3123C16.2955 16.9496 16.4905 16.7451 16.7041 16.7079C17.0383 16.6521 17.4467 16.9496 17.716 17.1913L17.3725 20.1575C16.9547 19.7949 16.5926 19.3765 16.3419 18.9487Z" fill="white"/>
<path id="Vector_24" d="M17.8457 16.0477C17.4836 15.8152 17.038 15.6293 16.5645 15.7036C16.4067 15.7316 16.221 15.7873 16.0353 15.9175L14.4199 14.0207C14.4385 14.0207 14.457 14.0207 14.4849 14.0207C15.3019 14.0207 16.0353 13.5092 16.4717 12.6817L18.0685 14.1043L17.8457 16.0477Z" fill="white"/>
<path id="Vector_25" d="M12.9717 19.6554C12.5724 21.1989 12.2011 22.1659 11.9597 22.7052C10.9664 21.2733 11.5048 19.237 11.8019 18.3908C12.164 18.8371 12.5632 19.2649 12.9717 19.6554Z" fill="white"/>
<path id="Vector_26" d="M11.1522 15.2669C10.7994 15.1274 10.4652 15.1181 10.1681 15.239C9.92668 15.3413 9.74101 15.5087 9.60175 15.7039C9.60175 15.5365 9.62961 15.3692 9.69461 15.2111C9.81528 14.9322 10.0195 14.7369 10.2423 14.6718C10.2981 14.6532 10.3445 14.6532 10.4002 14.6532C10.5302 14.6532 10.6601 14.6997 10.7715 14.7927C10.9201 14.9136 11.0501 15.0716 11.1522 15.2669Z" fill="white"/>
<path id="Vector_27" d="M26.907 19.6555C27.3248 19.265 27.7148 18.8373 28.0768 18.3817C28.3739 19.2278 28.9124 21.2641 27.919 22.6961C27.6776 22.1568 27.3062 21.1897 26.907 19.6555Z" fill="white"/>
<path id="Vector_28" d="M28.6805 17.0612C28.6063 16.8938 28.5598 16.7264 28.532 16.5497C28.9033 16.2429 29.2097 16.1127 29.3861 16.1871C29.6089 16.2801 29.7389 16.7264 29.7667 16.931L29.8225 17.5447C29.8225 17.5447 31.7257 16.7078 31.0293 14.7831C30.8251 14.2159 30.3702 13.844 29.8781 13.7045C29.4325 13.5743 28.9683 13.6673 28.5784 13.9648C27.6871 14.6436 27.3436 16.0383 27.7335 17.2285C26.5173 18.9394 24.8741 20.2318 23.0916 20.9478C23.5836 20.5108 24.02 20.018 24.3263 19.488C24.8462 18.586 24.939 17.6749 24.5863 16.8752C24.5491 16.8008 24.5213 16.7264 24.4842 16.6613L27.4922 13.1187C27.65 12.9327 27.8171 12.784 27.9842 12.6538C28.1792 12.5422 28.3649 12.4306 28.532 12.3098C28.8848 12.1517 29.2375 12.0959 29.5903 12.161C30.3609 12.3005 31.0851 12.9606 31.5121 13.9369C32.1156 15.3038 31.7628 17.0518 30.7415 17.8329C30.4166 18.0839 30.0545 18.1584 29.6925 18.056C29.2747 17.9352 28.9033 17.5725 28.6805 17.0612Z" fill="white"/>
<path id="Vector_29" d="M28.7358 15.2669C28.838 15.0809 28.9586 14.9136 29.1165 14.7927C29.2372 14.6997 29.3672 14.6532 29.4971 14.6532C29.5528 14.6532 29.5992 14.6625 29.655 14.6718C29.8778 14.7369 30.0727 14.9322 30.2027 15.2111C30.2677 15.3599 30.2956 15.5365 30.2956 15.7039C30.1563 15.5087 29.9706 15.3413 29.7292 15.239C29.4228 15.1089 29.0886 15.1181 28.7358 15.2669Z" fill="white"/>
<path id="Vector_30" d="M27.3435 9.1579L29.4788 7.24246C29.8594 8.41402 29.3766 10.1156 27.752 11.5568C27.7798 11.3616 27.7984 11.157 27.7984 10.9525C27.8076 10.3016 27.6405 9.67859 27.3435 9.1579Z" fill="white"/>
<path id="Vector_31" d="M29.6178 4.88072C29.4786 5.24331 29.2372 5.50368 28.9586 5.59668C28.7451 5.67105 28.5316 5.63387 28.3366 5.48509C27.9652 5.21545 27.6403 4.3786 28.0302 3.96018C28.5223 3.43018 29.1258 3.65334 29.0608 4.15544C29.4786 3.8207 28.578 2.10053 27.4546 3.3279C26.5448 4.31351 27.0833 5.80123 27.826 6.33124C28.0488 6.48929 28.2902 6.59156 28.5408 6.62879C28.2624 6.87984 27.9746 7.14016 27.6682 7.41912C26.4798 6.63806 26.0249 4.8249 26.6562 3.22562C26.8976 2.59334 27.3246 2.14702 27.8167 1.97966C28.2252 1.84018 28.6522 1.91457 29.0329 2.19351C29.7199 2.68632 29.9892 3.91369 29.6178 4.88072Z" fill="white"/>
<path id="Vector_32" d="M12.2196 7.40952C11.9132 7.13056 11.6254 6.86092 11.3469 6.61914C11.5976 6.58196 11.839 6.48896 12.0618 6.32159C12.8045 5.79163 13.343 4.30389 12.4331 3.31828C11.3098 2.09091 10.3999 3.81109 10.827 4.14582C10.762 3.64372 11.3562 3.42056 11.8575 3.95056C12.2474 4.35968 11.9318 5.2058 11.5512 5.47549C11.3562 5.61495 11.1426 5.65213 10.9291 5.58704C10.6506 5.49408 10.4092 5.23371 10.27 4.87107C9.89861 3.91337 10.1678 2.6767 10.8548 2.18389C11.2355 1.90495 11.6626 1.83986 12.071 1.97004C12.5631 2.12811 12.9902 2.58372 13.2316 3.216C13.8628 4.82457 13.4079 6.63773 12.2196 7.40952Z" fill="white"/>
<path id="Vector_33" d="M7.4847 11.2311C6.93695 11.2311 6.50989 11.3892 6.17566 11.7053C5.95285 11.9192 5.80431 12.1702 5.71147 12.4213C5.57221 12.04 5.60934 11.6216 5.76717 11.2776C5.84144 11.1195 6.07354 10.7011 6.51916 10.7011C6.63056 10.7011 6.75128 10.729 6.89055 10.7941C7.14122 10.9057 7.33616 11.0638 7.4847 11.2311Z" fill="white"/>
<path id="Vector_34" d="M26.1086 7.64213C25.7558 8.42319 24.7809 8.98106 24.1218 8.04196C23.3048 6.87035 24.4374 5.93124 24.6602 6.36825C24.326 6.29388 24.1867 6.92617 24.5395 7.43754C24.8181 7.83736 25.3658 7.50263 25.5422 7.11212C25.6351 6.90757 25.6536 6.68439 25.6072 6.46125C25.5422 6.17302 25.3751 5.92197 25.1337 5.77319C24.5024 5.38264 23.6854 5.67092 23.3605 6.39616C23.1841 6.79598 23.1377 7.23299 23.2212 7.66072C23.3326 8.17214 23.6297 8.60915 24.0475 8.86947C25.0687 9.49248 26.2107 9.08333 26.7492 7.94895C26.5449 7.763 26.3685 7.55845 26.2107 7.32599C26.1921 7.43754 26.155 7.53986 26.1086 7.64213Z" fill="white"/>
<path id="Vector_35" d="M23.7967 9.76218C23.7132 9.71568 23.6389 9.65986 23.5647 9.59477C23.6297 9.95741 23.5647 10.3201 23.3883 10.6362C23.0355 11.2685 22.0607 11.7241 21.4015 10.9616C20.5845 10.0132 21.7265 9.25077 21.94 9.60409C21.6057 9.54832 21.4665 10.0504 21.8193 10.4688C22.0978 10.7942 22.6455 10.5246 22.8219 10.2085C22.9148 10.0411 22.9333 9.86446 22.8869 9.6785C22.8219 9.44604 22.6549 9.24145 22.4135 9.12058C21.7821 8.80444 20.9651 9.0369 20.6402 9.62268C20.4638 9.94814 20.4174 10.3015 20.5009 10.6455C20.6124 11.0639 20.9095 11.4173 21.3272 11.6218C21.8471 11.8822 22.4042 11.91 22.8962 11.7706C23.444 11.2592 24.0753 10.692 24.7159 10.0969C24.4188 10.0504 24.1031 9.93882 23.7967 9.76218Z" fill="white"/>
<path id="Vector_36" d="M14.4385 4.90833C14.4478 4.89905 14.4664 4.88973 14.4756 4.88046C15.4226 4.30396 16.5646 4.74096 17.0659 5.86607C17.3537 6.50762 17.428 7.24218 17.2794 7.93955C17.2423 8.10692 17.1958 8.27429 17.1309 8.43238C17.1494 8.42306 17.168 8.40447 17.1958 8.3952C18.1428 7.93028 19.2848 8.2836 19.7861 9.19485C19.8511 9.30639 19.8975 9.41799 19.9346 9.53885C19.9811 9.4273 20.0275 9.30639 20.0832 9.19485C20.5938 8.2836 21.7265 7.93028 22.6734 8.3952C22.692 8.40447 22.7199 8.42306 22.7384 8.43238C22.6734 8.27429 22.627 8.11624 22.5899 7.93955C22.4413 7.24218 22.5156 6.49835 22.8034 5.86607C23.314 4.74096 24.4467 4.30396 25.3936 4.88046C25.4122 4.88973 25.4308 4.90833 25.4493 4.91764C25.4215 4.22957 25.5236 3.50431 25.7928 2.81624C25.8021 2.79764 25.8021 2.78835 25.8114 2.76975C25.6907 2.76975 25.57 2.76975 25.4401 2.76045C25.0873 2.72326 24.4931 2.31414 24.0846 1.72835C23.2583 0.556774 22.6734 -0.0383136 21.8843 0.184844C21.1694 0.389405 20.7238 1.25414 20.928 2.06309C21.0116 2.38852 21.2065 2.64887 21.4758 2.78835C21.6058 2.85344 21.8286 2.92782 22.0793 2.85344C22.4506 2.75115 22.8034 2.23975 22.5713 1.81203C22.1628 1.05888 21.5037 2.23045 21.5037 2.23045C21.1601 1.57028 21.2901 1.11466 21.9121 0.761331C22.4135 0.473086 23.3511 0.928702 23.4997 1.66326C23.6854 2.55589 23.1933 3.41133 22.3671 3.65308C22.1999 3.69958 22.0235 3.72747 21.8565 3.72747C21.5593 3.72747 21.2715 3.66238 21.0023 3.52291C20.5381 3.29045 20.0182 2.75116 19.9439 2.0166C19.8697 2.75116 19.3498 3.29045 18.8856 3.52291C18.6163 3.66238 18.3285 3.72747 18.0314 3.72747C17.855 3.72747 17.6879 3.69958 17.5208 3.65308C16.6945 3.41133 16.2025 2.55589 16.3882 1.66326C16.5367 0.928702 17.4744 0.482386 17.9757 0.761331C18.607 1.12396 18.7277 1.57028 18.3842 2.23045C18.3842 2.23045 17.725 1.04958 17.3166 1.81203C17.0844 2.23975 17.4465 2.74186 17.8086 2.85344C18.0686 2.92782 18.2821 2.86273 18.412 2.78835C18.6813 2.64887 18.8763 2.38852 18.9598 2.06309C19.1641 1.25414 18.7184 0.389405 18.0036 0.184844C17.2144 -0.0383136 16.6296 0.556774 15.8033 1.72835C15.3948 2.31414 14.8006 2.73256 14.4478 2.76045C14.3178 2.76975 14.1878 2.77905 14.0764 2.76975C14.0857 2.78835 14.0857 2.79764 14.095 2.81624C14.355 3.50431 14.4664 4.22027 14.4385 4.90833Z" fill="white"/>
<path id="Vector_37" d="M21.9864 12.6169C21.68 12.5797 21.3736 12.496 21.0766 12.3472C20.5381 12.0869 20.1296 11.622 19.9346 11.0734C19.7396 11.622 19.3312 12.0869 18.7927 12.3472C18.4956 12.496 18.1985 12.5797 17.9014 12.6169C18.607 13.2678 19.0619 13.6862 19.0619 13.6862L18.2356 20.8179C18.932 21.2828 19.6097 21.5804 19.9439 21.5804C20.2781 21.5711 20.9558 21.2828 21.6522 20.8179L20.8259 13.6862C20.8352 13.6862 21.2808 13.2678 21.9864 12.6169Z" fill="white"/>
<path id="Vector_38" d="M15.8124 8.86951C16.2302 8.61846 16.5273 8.18146 16.6387 7.66077C16.7315 7.23303 16.6851 6.79603 16.4994 6.3962C16.1745 5.67092 15.3668 5.39196 14.7262 5.77319C14.4848 5.92197 14.3084 6.17302 14.2527 6.46129C14.2063 6.68443 14.2249 6.90757 14.3177 7.11217C14.4941 7.50267 15.0511 7.8374 15.3203 7.43758C15.6731 6.92616 15.5339 6.29388 15.1997 6.36829C15.4225 5.93129 16.5551 6.87971 15.7381 8.042C15.079 8.9811 14.1041 8.42319 13.7514 7.64213C13.7049 7.54917 13.6771 7.4469 13.64 7.34463C13.4821 7.56776 13.2964 7.77231 13.1015 7.95827C13.6492 9.08338 14.7912 9.4832 15.8124 8.86951Z" fill="white"/>
<path id="Vector_39" d="M19.3591 10.6547C19.4519 10.3106 19.4055 9.95729 19.2198 9.63187C18.8949 9.04604 18.0779 8.81359 17.4466 9.12973C17.2052 9.25064 17.0381 9.44587 16.9731 9.68764C16.9267 9.86433 16.9545 10.0503 17.0381 10.2177C17.2145 10.5338 17.7715 10.8034 18.0407 10.478C18.3935 10.0596 18.2543 9.55746 17.9201 9.61323C18.1429 9.25991 19.2755 10.0224 18.4585 10.9708C17.8087 11.7333 16.8245 11.2776 16.4717 10.6453C16.2954 10.3292 16.2304 9.9666 16.2954 9.60396C16.2211 9.66905 16.1375 9.72483 16.054 9.77133C15.7569 9.95729 15.4413 10.0596 15.1349 10.1061C15.7847 10.7012 16.4161 11.2776 16.9638 11.789C17.4466 11.9285 17.9943 11.8913 18.5143 11.6403C18.9506 11.4264 19.2477 11.0638 19.3591 10.6547Z" fill="white"/>
<path id="Vector_40" d="M44.3425 9.38085H48.6691V27.0847H44.3425V9.38085Z" fill="white"/>
<path id="Vector_41" d="M60.4784 17.963C60.4784 17.619 60.4411 17.3214 60.3671 17.0518C60.2925 16.7821 60.1905 16.5683 60.0698 16.3823C59.9491 16.1963 59.8005 16.0662 59.6425 15.9732C59.4851 15.8802 59.3178 15.8337 59.1412 15.8337C58.9651 15.8337 58.7699 15.8709 58.5378 15.936C58.3151 16.0011 58.0738 16.1033 57.8231 16.2335C57.5724 16.3637 57.3218 16.5125 57.0618 16.6984C56.8018 16.8844 56.5511 17.0889 56.3191 17.3121V27.0753H52.2525V14.9318L55.103 13.4441H56.3191V14.8016C56.9411 14.346 57.6097 14.0205 58.3244 13.8067C59.0392 13.5928 59.745 13.4905 60.4505 13.4905C60.9984 13.4905 61.5179 13.5928 62.0099 13.8067C62.5024 14.0205 62.9292 14.3088 63.3005 14.6714C63.6719 15.0341 63.9598 15.4618 64.1825 15.9546C64.3959 16.4474 64.5077 16.9681 64.5077 17.526V27.0846H60.4784V17.963Z" fill="white"/>
<path id="Vector_42" d="M67.8129 9.05544C67.8129 8.7858 67.8684 8.52543 67.9802 8.2837C68.0915 8.04192 68.249 7.8281 68.4536 7.66074C68.6483 7.48405 68.8803 7.3446 69.1403 7.24227C69.4003 7.14 69.6789 7.08423 69.9855 7.08423C70.2916 7.08423 70.5703 7.14 70.8396 7.24227C71.1089 7.3446 71.3316 7.48405 71.5263 7.66074C71.7216 7.83737 71.879 8.04192 71.9909 8.2837C72.1022 8.52543 72.1577 8.7858 72.1577 9.05544C72.1577 9.32508 72.1022 9.57617 71.9909 9.8179C71.879 10.0597 71.7216 10.2642 71.5263 10.4409C71.3316 10.6176 71.0995 10.757 70.8396 10.8593C70.5703 10.9616 70.2916 11.0174 69.9855 11.0174C69.6789 11.0174 69.4003 10.9616 69.1403 10.8593C68.8803 10.757 68.6483 10.6176 68.4536 10.4409C68.249 10.2642 68.1009 10.0597 67.9802 9.8179C67.8684 9.57617 67.8129 9.32508 67.8129 9.05544ZM67.9802 14.9319L70.8209 13.4442H72.037V27.0847H67.9802V14.9319Z" fill="white"/>
<path id="Vector_43" d="M73.9776 15.3875V14.4391L76.1315 13.7231V11.008L78.963 9.52033H80.179V13.7231H83.447V15.3968H80.179V23.9977C80.179 24.2673 80.2536 24.4998 80.3836 24.7043C80.5229 24.9089 80.7083 25.0019 80.931 25.0019C81.0704 25.0019 81.2283 24.9554 81.3956 24.8624C81.5624 24.7694 81.7296 24.6578 81.8783 24.5277C82.0269 24.3975 82.1657 24.2766 82.2869 24.1465C82.4076 24.0163 82.491 23.914 82.5376 23.8489L83.9204 24.9461C83.6977 25.2901 83.447 25.6156 83.1777 25.9224C82.9089 26.2293 82.6023 26.4803 82.2496 26.7035C81.9062 26.9173 81.4976 27.094 81.0517 27.2149C80.597 27.3451 80.077 27.4008 79.4923 27.4008C78.9257 27.4008 78.4337 27.3171 78.0162 27.1591C77.5983 27.001 77.2549 26.7779 76.9763 26.4896C76.6976 26.2014 76.4936 25.8573 76.3542 25.4575C76.2149 25.0577 76.1497 24.6114 76.1497 24.1279V15.4061H73.9776V15.3875Z" fill="white"/>
<path id="Vector_44" d="M85.5823 9.05544C85.5823 8.7858 85.6382 8.52543 85.7496 8.2837C85.8609 8.04192 86.0189 7.8281 86.223 7.66074C86.4177 7.48405 86.6502 7.3446 86.9097 7.24227C87.1697 7.14 87.4483 7.08423 87.7549 7.08423C88.061 7.08423 88.3397 7.14 88.609 7.24227C88.8783 7.3446 89.101 7.48405 89.2957 7.66074C89.491 7.83737 89.6489 8.04192 89.7603 8.2837C89.8716 8.52543 89.9271 8.7858 89.9271 9.05544C89.9271 9.32508 89.8716 9.57617 89.7603 9.8179C89.6489 10.0597 89.491 10.2642 89.2957 10.4409C89.101 10.6176 88.8689 10.757 88.609 10.8593C88.3397 10.9616 88.061 11.0174 87.7549 11.0174C87.4483 11.0174 87.1697 10.9616 86.9097 10.8593C86.6502 10.757 86.4177 10.6176 86.223 10.4409C86.0189 10.2642 85.8703 10.0597 85.7496 9.8179C85.6382 9.57617 85.5823 9.32508 85.5823 9.05544ZM85.7496 14.9319L88.5903 13.4442H89.8064V27.0847H85.7496V14.9319Z" fill="white"/>
<path id="Vector_45" d="M91.9144 17.1079C92.0537 16.55 92.295 16.0479 92.6477 15.5829C93.0004 15.118 93.4277 14.7368 93.9477 14.4207C94.4676 14.1046 95.0524 13.8535 95.721 13.6861C96.3891 13.5095 97.1038 13.4258 97.8745 13.4258C98.831 13.4258 99.6571 13.5095 100.354 13.6861C101.05 13.8628 101.616 14.1046 102.071 14.4207C102.517 14.7368 102.851 15.118 103.064 15.5737C103.278 16.02 103.38 16.5221 103.38 17.08V24.7324C103.38 25.281 103.547 25.7459 103.891 26.1272C104.234 26.5084 104.708 26.8245 105.32 27.0756H100.52C100.381 27.0756 100.251 27.0384 100.112 26.9547C99.9823 26.8803 99.8612 26.778 99.7591 26.6478C99.6571 26.5177 99.5644 26.3875 99.4898 26.2387C99.4158 26.09 99.351 25.9505 99.323 25.811C99.0817 26.0341 98.8497 26.248 98.6358 26.434C98.4224 26.62 98.1811 26.778 97.9211 26.9082C97.6611 27.0384 97.3731 27.1407 97.0484 27.215C96.7232 27.2894 96.343 27.3266 95.8878 27.3266C95.2658 27.3266 94.7183 27.2429 94.2258 27.0663C93.7338 26.8896 93.3163 26.6478 92.9725 26.341C92.6291 26.0342 92.3691 25.6622 92.1837 25.2438C91.9978 24.8254 91.9144 24.3605 91.9144 23.8677C91.9144 23.1052 92.1278 22.4451 92.555 21.8965C92.9818 21.3479 93.539 20.8737 94.2445 20.4645C94.941 20.0554 95.7391 19.7021 96.6211 19.3952C97.5031 19.0884 98.4131 18.8001 99.3324 18.5212V17.2194C99.3324 16.7917 99.2858 16.4291 99.2024 16.1315C99.1185 15.834 98.9885 15.5923 98.8403 15.397C98.6917 15.2017 98.4965 15.0716 98.2738 14.9879C98.0511 14.9042 97.8097 14.867 97.5404 14.867C97.2157 14.867 96.9277 14.9321 96.6771 15.0529C96.4264 15.1739 96.2037 15.3412 96.0271 15.5458C95.8416 15.7503 95.693 15.9921 95.5817 16.2617C95.4698 16.5314 95.3864 16.8103 95.331 17.1079H91.9144ZM99.323 20.1949C98.9331 20.3622 98.5338 20.5575 98.1345 20.7993C97.7352 21.0317 97.3731 21.3014 97.0577 21.5896C96.7418 21.8779 96.4818 22.2033 96.2778 22.5566C96.0737 22.91 95.9712 23.2819 95.9712 23.6817C95.9712 24.128 96.083 24.4721 96.315 24.7231C96.5471 24.9742 96.8532 25.1044 97.2432 25.1044C97.5777 25.1044 97.9024 25.002 98.2183 24.8068C98.5338 24.6115 98.9051 24.3605 99.3137 24.0443V20.1949H99.323Z" fill="white"/>
<path id="Vector_46" d="M110.854 27.0849H106.824V8.39546L109.637 6.9077H110.854V27.0849Z" fill="white"/>
<path id="Vector_47" d="M47.5178 34.765C47.4806 34.8301 47.434 34.8766 47.3972 34.9138C47.3599 34.951 47.304 34.9602 47.2299 34.9602C47.1558 34.9602 47.0813 34.9324 46.9886 34.8673C46.8958 34.8022 46.7845 34.7278 46.6545 34.6534C46.5152 34.5697 46.3572 34.5046 46.1713 34.4395C45.9859 34.3744 45.7632 34.3466 45.4939 34.3466C45.2432 34.3466 45.0298 34.3744 44.8439 34.4395C44.6585 34.5046 44.5005 34.5883 44.3798 34.6999C44.2592 34.8115 44.1567 34.9416 44.0919 35.0904C44.0271 35.2392 43.9992 35.4065 43.9992 35.5832C43.9992 35.8064 44.0546 36.0017 44.1753 36.1504C44.2866 36.2992 44.4446 36.4294 44.6305 36.5317C44.8159 36.6339 45.0298 36.7269 45.2712 36.8106C45.5125 36.8943 45.7538 36.9687 46.0045 37.0523C46.2552 37.136 46.4965 37.229 46.7379 37.3406C46.9792 37.4522 47.1926 37.5916 47.3785 37.759C47.564 37.9264 47.7219 38.131 47.8333 38.3727C47.9446 38.6145 48.0099 38.912 48.0099 39.256C48.0099 39.628 47.9446 39.972 47.8146 40.2974C47.6846 40.6136 47.4992 40.9018 47.2579 41.1436C47.0165 41.3853 46.7192 41.5806 46.3665 41.7201C46.0138 41.8596 45.6145 41.9246 45.1593 41.9246C44.8905 41.9246 44.6305 41.8967 44.3705 41.8409C44.1198 41.7851 43.8785 41.7108 43.6465 41.6178C43.4233 41.5248 43.2099 41.4039 43.0058 41.2737C42.8106 41.1343 42.6345 40.9855 42.4765 40.8181L42.8386 40.223C42.8758 40.1766 42.9126 40.1393 42.9685 40.1022C43.0151 40.0743 43.0706 40.0557 43.1358 40.0557C43.2192 40.0557 43.3119 40.1022 43.4233 40.1859C43.5346 40.2695 43.6646 40.3625 43.8226 40.4741C43.9805 40.5764 44.166 40.6694 44.3892 40.7624C44.6119 40.846 44.8812 40.8925 45.1966 40.8925C45.4566 40.8925 45.6886 40.8553 45.8932 40.7902C46.0972 40.7252 46.2645 40.6229 46.4038 40.4927C46.5427 40.3625 46.6452 40.2138 46.7192 40.0278C46.7933 39.8511 46.8306 39.6466 46.8306 39.4327C46.8306 39.1817 46.7752 38.9864 46.6638 38.8283C46.552 38.6702 46.4038 38.5401 46.2086 38.4378C46.0138 38.3355 45.8093 38.2425 45.5679 38.1681C45.3266 38.0938 45.0852 38.0194 44.8346 37.9357C44.5839 37.852 44.3426 37.759 44.1012 37.6567C43.8599 37.5544 43.6465 37.415 43.4606 37.2383C43.2751 37.0617 43.1265 36.8571 43.0058 36.5968C42.8945 36.3364 42.8386 36.0202 42.8386 35.6483C42.8386 35.3508 42.8945 35.0532 43.0151 34.7743C43.1358 34.4954 43.3026 34.2443 43.5258 34.0211C43.7485 33.8073 44.0271 33.6306 44.3519 33.5004C44.6766 33.3702 45.0573 33.3052 45.4752 33.3052C45.9486 33.3052 46.3852 33.3796 46.7845 33.5283C47.1833 33.6771 47.5272 33.8909 47.824 34.1792L47.5178 34.765Z" fill="white"/>
<path id="Vector_48" d="M55.0656 40.8089L55.0568 41.8224H49.8389V33.3888H55.0568V34.4024H51.0922V37.0709H54.2862V38.0566H51.0922V40.8089H55.0656Z" fill="white"/>
<path id="Vector_49" d="M62.7808 40.0187C62.8549 40.0187 62.9108 40.0465 62.9663 40.1023L63.4583 40.6416C63.1149 41.0507 62.697 41.3669 62.205 41.59C61.7129 41.8132 61.1189 41.9248 60.4228 41.9248C59.8096 41.9248 59.2622 41.8225 58.7702 41.6086C58.2781 41.3948 57.8509 41.0972 57.5075 40.7253C57.1548 40.3441 56.8855 39.8885 56.6903 39.3585C56.4955 38.8285 56.4028 38.2519 56.4028 37.6104C56.4028 36.9781 56.5048 36.3923 56.7089 35.8623C56.9134 35.3323 57.1916 34.8767 57.5536 34.4955C57.9161 34.1142 58.3522 33.8167 58.8629 33.6121C59.3735 33.3983 59.9303 33.296 60.5435 33.296C61.1375 33.296 61.6761 33.389 62.1402 33.5936C62.6043 33.7888 63.0129 34.0492 63.3563 34.3746L62.9476 34.9604C62.9202 35.0069 62.8829 35.0348 62.8456 35.0627C62.8083 35.0906 62.7529 35.0998 62.6877 35.0998C62.6136 35.0998 62.5302 35.0627 62.4281 34.9883C62.3256 34.9139 62.1956 34.8302 62.0382 34.7373C61.8802 34.6443 61.6761 34.5606 61.4343 34.4862C61.193 34.4118 60.8962 34.3746 60.5435 34.3746C60.1255 34.3746 59.7449 34.449 59.3922 34.5978C59.0395 34.7465 58.7422 34.9604 58.4915 35.23C58.2409 35.4997 58.0456 35.8437 57.9068 36.2435C57.7675 36.6434 57.7023 37.099 57.7023 37.6011C57.7023 38.1125 57.7768 38.5681 57.9161 38.968C58.0643 39.3678 58.2595 39.7025 58.5102 39.9814C58.7608 40.2604 59.067 40.4742 59.4108 40.6137C59.7542 40.7532 60.1255 40.8276 60.5248 40.8276C60.7662 40.8276 60.9889 40.809 61.1748 40.7811C61.3696 40.7532 61.5461 40.7067 61.7036 40.6509C61.8616 40.5951 62.0195 40.5208 62.1682 40.4277C62.3163 40.3348 62.4556 40.2232 62.5949 40.093C62.6229 40.0651 62.6602 40.0465 62.697 40.0279C62.7063 40.0279 62.7436 40.0187 62.7808 40.0187Z" fill="white"/>
<path id="Vector_50" d="M68.2953 40.8276C68.6294 40.8276 68.9359 40.7718 69.1959 40.6602C69.4652 40.5486 69.6879 40.3906 69.8734 40.186C70.0593 39.9814 70.1986 39.7397 70.2913 39.4514C70.3934 39.1632 70.4399 38.8564 70.4399 38.5123V33.4076H71.684V38.5123C71.684 39.0051 71.6099 39.4607 71.4519 39.8791C71.294 40.2976 71.0713 40.6602 70.774 40.967C70.4772 41.2739 70.124 41.5156 69.7066 41.683C69.2886 41.8597 68.8153 41.9434 68.2953 41.9434C67.7753 41.9434 67.3019 41.8597 66.884 41.683C66.4665 41.5063 66.1134 41.2739 65.8166 40.967C65.5193 40.6602 65.2966 40.2976 65.1386 39.8791C64.9807 39.4607 64.9066 39.0051 64.9066 38.5123V33.4076H66.16V38.503C66.16 38.847 66.2065 39.1632 66.2993 39.4514C66.392 39.7397 66.5313 39.9814 66.7172 40.186C66.9026 40.3906 67.1254 40.5486 67.3947 40.6602C67.6546 40.7625 67.9612 40.8276 68.2953 40.8276Z" fill="white"/>
<path id="Vector_51" d="M80.2718 41.8319H79.1577C78.935 41.8319 78.7771 41.7483 78.675 41.5716L76.5956 38.6427C76.5304 38.5403 76.4563 38.4753 76.3818 38.4381C76.3077 38.4009 76.187 38.373 76.0291 38.373H75.2123V41.8319H73.9589V33.3984H76.3911C76.939 33.3984 77.4031 33.4542 77.7931 33.5658C78.183 33.6774 78.5078 33.8355 78.7678 34.04C79.0278 34.2446 79.2137 34.4956 79.3343 34.7839C79.455 35.0721 79.5198 35.3976 79.5198 35.7602C79.5198 36.0577 79.4736 36.3274 79.3809 36.5877C79.2877 36.8481 79.1577 37.0805 78.9816 37.2851C78.805 37.4896 78.5916 37.6663 78.341 37.8151C78.0903 37.9639 77.8024 38.0755 77.4869 38.1592C77.6444 38.2521 77.7744 38.3823 77.8951 38.5497L80.2718 41.8319ZM76.345 37.4525C76.6697 37.4525 76.9483 37.4153 77.1897 37.3316C77.431 37.2572 77.6351 37.1456 77.8024 36.9969C77.9696 36.8574 78.0903 36.6807 78.1737 36.4854C78.2571 36.2902 78.2944 36.067 78.2944 35.8346C78.2944 35.3511 78.1364 34.9792 77.821 34.7374C77.5051 34.4863 77.0224 34.3655 76.3911 34.3655H75.2123V37.4525H76.345Z" fill="white"/>
<path id="Vector_52" d="M82.8991 41.8319H81.6457V33.3984H82.8991V41.8319Z" fill="white"/>
<path id="Vector_53" d="M91.0135 34.4398H88.3396V41.8319H87.0955V34.4398H84.4123V33.3984H91.0135V34.4398Z" fill="white"/>
<path id="Vector_54" d="M95.7945 38.4936V41.8316H94.5505V38.4936L91.4684 33.3982H92.5638C92.6751 33.3982 92.759 33.4261 92.8238 33.4725C92.8885 33.5283 92.9444 33.5934 92.991 33.6771L94.8198 36.8292C94.8943 36.978 94.9591 37.1082 95.0239 37.2384C95.0891 37.3685 95.1357 37.4987 95.1818 37.6195C95.2284 37.4987 95.2745 37.3685 95.3305 37.2384C95.3864 37.1082 95.4511 36.9687 95.5252 36.8292L97.3451 33.6771C97.3824 33.6027 97.4378 33.5376 97.5031 33.4818C97.5678 33.4261 97.6605 33.3888 97.763 33.3888H98.8678L95.7945 38.4936Z" fill="white"/>
<path id="Vector_55" d="M107.818 34.7653C107.78 34.8304 107.734 34.8769 107.697 34.9141C107.66 34.9513 107.604 34.9606 107.53 34.9606C107.456 34.9606 107.381 34.9326 107.288 34.8676C107.196 34.8025 107.084 34.7281 106.954 34.6537C106.815 34.5701 106.657 34.505 106.471 34.4399C106.286 34.3748 106.063 34.3469 105.794 34.3469C105.543 34.3469 105.329 34.3748 105.144 34.4399C104.958 34.505 104.8 34.5886 104.68 34.7002C104.559 34.8118 104.457 34.942 104.392 35.0907C104.327 35.2395 104.299 35.4069 104.299 35.5835C104.299 35.8067 104.355 36.0019 104.475 36.1507C104.587 36.2995 104.745 36.4297 104.93 36.5319C105.116 36.6343 105.329 36.7272 105.571 36.8109C105.812 36.8946 106.054 36.969 106.304 37.0527C106.555 37.1364 106.796 37.2293 107.038 37.3409C107.279 37.4525 107.493 37.592 107.678 37.7593C107.864 37.9267 108.022 38.1312 108.133 38.373C108.245 38.6148 108.31 38.9123 108.31 39.2564C108.31 39.6283 108.245 39.9723 108.115 40.2977C107.985 40.6232 107.799 40.9114 107.558 41.1532C107.316 41.3949 107.019 41.5902 106.666 41.7297C106.314 41.8692 105.914 41.9342 105.459 41.9342C105.19 41.9342 104.93 41.9063 104.67 41.8506C104.42 41.7948 104.178 41.7204 103.946 41.6274C103.723 41.5344 103.51 41.4135 103.306 41.2833C103.111 41.1439 102.934 40.9951 102.776 40.8277L103.138 40.2326C103.176 40.1862 103.213 40.149 103.268 40.1118C103.315 40.0839 103.371 40.0653 103.436 40.0653C103.519 40.0653 103.612 40.1118 103.723 40.1955C103.835 40.2791 103.965 40.3721 104.123 40.4837C104.28 40.586 104.466 40.679 104.689 40.772C104.912 40.8556 105.181 40.9021 105.497 40.9021C105.757 40.9021 105.989 40.8649 106.193 40.7998C106.397 40.7347 106.564 40.6325 106.704 40.5023C106.843 40.3721 106.945 40.2234 107.019 40.0374C107.093 39.8607 107.131 39.6562 107.131 39.4423C107.131 39.1913 107.075 38.996 106.963 38.8379C106.852 38.6798 106.704 38.5497 106.509 38.4474C106.314 38.3451 106.109 38.2522 105.868 38.1777C105.627 38.1034 105.385 38.029 105.134 37.9453C104.884 37.8616 104.642 37.7686 104.401 37.6663C104.16 37.5641 103.946 37.4246 103.76 37.2479C103.575 37.0713 103.426 36.8667 103.306 36.6064C103.194 36.346 103.138 36.0298 103.138 35.6579C103.138 35.3604 103.194 35.0628 103.315 34.7839C103.436 34.505 103.603 34.2539 103.825 34.0307C104.048 33.8169 104.327 33.6402 104.652 33.51C104.977 33.3799 105.357 33.3148 105.775 33.3148C106.249 33.3148 106.685 33.3892 107.084 33.5379C107.483 33.6867 107.827 33.9005 108.124 34.1888L107.818 34.7653Z" fill="white"/>
<path id="Vector_56" d="M115.356 40.8089L115.347 41.8224H110.129V33.3888H115.347V34.4024H111.383V37.0709H114.577V38.0566H111.383V40.8089H115.356Z" fill="white"/>
<path id="Vector_57" d="M123.507 41.8319H122.393C122.171 41.8319 122.013 41.7483 121.911 41.5716L119.831 38.6427C119.766 38.5403 119.692 38.4753 119.617 38.4381C119.543 38.4009 119.423 38.373 119.265 38.373H118.448V41.8319H117.195V33.3984H119.627C120.175 33.3984 120.639 33.4542 121.029 33.5658C121.419 33.6774 121.743 33.8355 122.003 34.04C122.263 34.2446 122.449 34.4956 122.57 34.7839C122.691 35.0721 122.755 35.3976 122.755 35.7602C122.755 36.0577 122.709 36.3274 122.616 36.5877C122.523 36.8481 122.393 37.0805 122.217 37.2851C122.041 37.4896 121.827 37.6663 121.577 37.8151C121.326 37.9639 121.038 38.0755 120.723 38.1592C120.88 38.2521 121.01 38.3823 121.131 38.5497L123.507 41.8319ZM119.581 37.4525C119.905 37.4525 120.184 37.4153 120.425 37.3316C120.667 37.2572 120.871 37.1456 121.038 36.9969C121.205 36.8574 121.326 36.6807 121.409 36.4854C121.493 36.2902 121.53 36.067 121.53 35.8346C121.53 35.3511 121.372 34.9792 121.057 34.7374C120.741 34.4863 120.258 34.3655 119.627 34.3655H118.448V37.4525H119.581Z" fill="white"/>
<path id="Vector_58" d="M131.826 33.3888L128.4 41.8224H127.276L123.851 33.3888H124.844C124.956 33.3888 125.039 33.4167 125.114 33.4725C125.188 33.5283 125.234 33.5934 125.271 33.6864L127.546 39.4234C127.602 39.5629 127.657 39.721 127.704 39.8883C127.76 40.0557 127.806 40.2324 127.843 40.4183C127.88 40.2324 127.926 40.0557 127.973 39.8883C128.02 39.721 128.075 39.5629 128.122 39.4234L130.387 33.6864C130.414 33.612 130.461 33.5376 130.535 33.4818C130.61 33.4261 130.693 33.3982 130.804 33.3982H131.826V33.3888Z" fill="white"/>
<path id="Vector_59" d="M134.425 41.8319H133.172V33.3984H134.425V41.8319Z" fill="white"/>
<path id="Vector_60" d="M142.679 40.0187C142.753 40.0187 142.809 40.0465 142.864 40.1023L143.356 40.6416C143.013 41.0507 142.595 41.3669 142.103 41.59C141.611 41.8132 141.017 41.9248 140.32 41.9248C139.708 41.9248 139.16 41.8225 138.668 41.6086C138.176 41.3948 137.749 41.0972 137.406 40.7253C137.052 40.3441 136.784 39.8885 136.588 39.3585C136.394 38.8285 136.3 38.2519 136.3 37.6104C136.3 36.9781 136.403 36.3923 136.607 35.8623C136.811 35.3323 137.09 34.8767 137.452 34.4955C137.814 34.1142 138.25 33.8167 138.761 33.6121C139.272 33.3983 139.828 33.296 140.441 33.296C141.036 33.296 141.574 33.389 142.038 33.5936C142.502 33.7888 142.911 34.0492 143.254 34.3746L142.846 34.9604C142.818 35.0069 142.781 35.0348 142.744 35.0627C142.706 35.0906 142.651 35.0998 142.586 35.0998C142.512 35.0998 142.428 35.0627 142.326 34.9883C142.224 34.9139 142.094 34.8302 141.936 34.7373C141.778 34.6443 141.574 34.5606 141.332 34.4862C141.091 34.4118 140.794 34.3746 140.441 34.3746C140.024 34.3746 139.643 34.449 139.29 34.5978C138.937 34.7465 138.64 34.9604 138.39 35.23C138.139 35.4997 137.944 35.8437 137.805 36.2435C137.666 36.6434 137.6 37.099 137.6 37.6011C137.6 38.1125 137.675 38.5681 137.814 38.968C137.962 39.3678 138.158 39.7025 138.408 39.9814C138.659 40.2604 138.965 40.4742 139.308 40.6137C139.652 40.7532 140.024 40.8276 140.423 40.8276C140.664 40.8276 140.887 40.809 141.072 40.7811C141.268 40.7532 141.444 40.7067 141.602 40.6509C141.76 40.5951 141.918 40.5208 142.066 40.4277C142.214 40.3348 142.354 40.2232 142.493 40.093C142.521 40.0651 142.558 40.0465 142.595 40.0279C142.604 40.0279 142.642 40.0187 142.679 40.0187Z" fill="white"/>
<path id="Vector_61" d="M150.134 40.8089L150.125 41.8224H144.907V33.3888H150.125V34.4024H146.161V37.0709H149.354V38.0566H146.161V40.8089H150.134Z" fill="white"/>
</g>
<defs>
<clipPath id="clip0_0_425">
<rect width="150.521" height="46.8288" fill="white"/>
</clipPath>
</defs>
</svg>
