<svg preserveAspectRatio="none" width="100%" height="100%" overflow="visible" style="display: block;" viewBox="0 0 46 46" fill="none" xmlns="http://www.w3.org/2000/svg">
<path id="Vector" d="M46 23C46 10.2961 35.7039 0 23 0C10.2961 0 0 10.2961 0 23C0 35.7039 10.2961 46 23 46C23.1348 46 23.2695 46 23.4043 45.991V28.0941H18.4629V22.3352H23.4043V18.0945C23.4043 13.1801 26.4051 10.5027 30.7895 10.5027C32.8918 10.5027 34.6977 10.6555 35.2188 10.7273V15.8664H32.2C29.8191 15.8664 29.352 16.9984 29.352 18.6605V22.3262H35.057L34.3113 28.0852H29.352V45.1105C38.9652 42.3523 46 33.5027 46 23Z" fill="#F4A31D"/>
</svg>
