<svg preserveAspectRatio="none" width="100%" height="100%" overflow="visible" style="display: block;" viewBox="0 0 53 53" fill="none" xmlns="http://www.w3.org/2000/svg">
<path id="Vector" d="M53 26.5C53 11.8629 41.1371 0 26.5 0C11.8629 0 0 11.8629 0 26.5C0 41.1371 11.8629 53 26.5 53C26.6553 53 26.8105 53 26.9658 52.9896V32.3693H21.2725V25.734H26.9658V20.848C26.9658 15.1857 30.4232 12.101 35.4748 12.101C37.8971 12.101 39.9777 12.277 40.5781 12.3598V18.2809H37.1C34.3568 18.2809 33.8186 19.5852 33.8186 21.5002V25.7236H40.3918L39.5326 32.359H33.8186V51.9752C44.8947 48.7973 53 38.601 53 26.5Z" fill="#F4A31D"/>
</svg>
