<svg preserveAspectRatio="none" width="100%" height="100%" overflow="visible" style="display: block;" viewBox="0 0 22.5332 23.1398" fill="none" xmlns="http://www.w3.org/2000/svg">
<g id="XMLID_7_">
<path id="XMLID_8_" d="M19.4912 9.71029C19.519 6.44787 16.7404 3.45709 13.2973 3.04353C13.2288 3.03541 13.1542 3.02304 13.0752 3.00997C12.9047 2.98172 12.7285 2.95269 12.5506 2.95269C11.8449 2.95269 11.6563 3.4484 11.6066 3.74404C11.5583 4.03149 11.6044 4.27288 11.7433 4.4618C11.977 4.77958 12.3882 4.83599 12.7185 4.88119C12.8153 4.89456 12.9066 4.90699 12.9831 4.92417C16.0766 5.61541 17.1183 6.70219 17.6273 9.76943C17.6398 9.84438 17.6454 9.93672 17.6513 10.0347C17.6735 10.4013 17.7198 11.1641 18.5399 11.1641H18.54C18.6083 11.1641 18.6816 11.1582 18.758 11.1466C19.5217 11.0305 19.4978 10.3333 19.4863 9.99824C19.483 9.90388 19.4799 9.81463 19.4879 9.75527C19.4901 9.74032 19.4912 9.72531 19.4912 9.71029Z" fill="white"/>
<path id="XMLID_9_" d="M12.35 1.846C12.4416 1.85262 12.5284 1.85894 12.6006 1.87001C17.6805 2.65122 20.0167 5.05805 20.6641 10.1777C20.6751 10.2647 20.6768 10.3708 20.6786 10.4832C20.685 10.8832 20.6983 11.7153 21.592 11.7326L21.6197 11.7329C21.9 11.7329 22.1229 11.6483 22.2823 11.4815C22.5605 11.1905 22.5411 10.7583 22.5254 10.4109C22.5216 10.3256 22.518 10.2454 22.5189 10.1751C22.5835 4.93904 18.0511 0.191011 12.8198 0.0144444C12.7981 0.0137257 12.7774 0.0148755 12.7565 0.0178219C12.7462 0.019331 12.7271 0.0211994 12.6945 0.0211994C12.6423 0.0211994 12.5782 0.0166721 12.5101 0.0120729C12.4278 0.00646763 12.3345 0 12.24 0C11.4069 0 11.2485 0.592147 11.2282 0.945136C11.1815 1.76092 11.9707 1.81834 12.35 1.846Z" fill="white"/>
<path id="XMLID_10_" d="M20.4193 16.7945C20.3113 16.712 20.1996 16.6266 20.0951 16.5424C19.5404 16.0961 18.9504 15.6846 18.3797 15.2867C18.2613 15.2042 18.1428 15.1217 18.0248 15.0389C17.2939 14.5254 16.6367 14.2759 16.0158 14.2759C15.1795 14.2759 14.4504 14.738 13.8486 15.6491C13.582 16.0531 13.2586 16.2495 12.8599 16.2495C12.6242 16.2495 12.3564 16.1822 12.064 16.0495C9.70452 14.9795 8.01971 13.3391 7.05624 11.1736C6.5905 10.127 6.74149 9.44288 7.56115 8.88609C8.0266 8.57018 8.89298 7.98206 8.83161 6.85583C8.76212 5.57689 5.94022 1.72872 4.75125 1.29166C4.24786 1.10654 3.71895 1.10481 3.17639 1.28735C1.80956 1.74683 0.828708 2.55378 0.339612 3.62079C-0.133028 4.65181 -0.111685 5.8624 0.401342 7.12172C1.88444 10.7627 3.9696 13.9372 6.59913 16.5568C9.17296 19.1211 12.3364 21.2217 16.0016 22.7998C16.3319 22.942 16.6784 23.0195 16.9315 23.0761C17.0177 23.0955 17.0921 23.112 17.1464 23.1269C17.1762 23.135 17.207 23.1394 17.2378 23.1397L17.2668 23.1398C17.2668 23.1398 17.2668 23.1398 17.2669 23.1398C18.9907 23.1398 21.0606 21.5646 21.6963 19.7687C22.2532 18.1962 21.2364 17.419 20.4193 16.7945Z" fill="white"/>
<path id="XMLID_11_" d="M13.1131 6.00513C12.818 6.0126 12.2037 6.02784 11.9882 6.6534C11.8874 6.94574 11.8995 7.19955 12.0242 7.40781C12.2071 7.71337 12.5577 7.80701 12.8765 7.85839C14.0329 8.04394 14.6267 8.68337 14.7455 9.87054C14.8007 10.4241 15.1735 10.8106 15.6521 10.8106C15.6874 10.8106 15.7236 10.8086 15.7596 10.8042C16.3353 10.7357 16.6143 10.3128 16.5891 9.5473C16.5983 8.74841 16.1802 7.84143 15.4691 7.119C14.7556 6.39434 13.8955 5.98623 13.1131 6.00513Z" fill="white"/>
</g>
</svg>
