<svg preserveAspectRatio="none" width="100%" height="100%" overflow="visible" style="display: block;" viewBox="0 0 20.54 20.592" fill="none" xmlns="http://www.w3.org/2000/svg">
<path id="+" d="M11.96 8.684H19.76C20.28 8.684 20.54 8.944 20.54 9.464V11.128C20.54 11.6133 20.28 11.856 19.76 11.856H11.96V19.76C11.96 20.3147 11.7 20.592 11.18 20.592H9.412C8.892 20.592 8.632 20.3147 8.632 19.76V11.856H0.78C0.26 11.856 0 11.6133 0 11.128V9.464C0 8.944 0.26 8.684 0.78 8.684H8.632V0.832002C8.632 0.277334 8.892 0 9.412 0H11.18C11.7 0 11.96 0.277334 11.96 0.832002V8.684Z" fill="#F4A31D"/>
</svg>
