<svg preserveAspectRatio="none" width="100%" height="100%" overflow="visible" style="display: block;" viewBox="0 0 37.1704 37.1704" fill="none" xmlns="http://www.w3.org/2000/svg">
<g id="Group">
<path id="Vector" d="M35.4193 10.7242L34.4293 11.7142C33.8647 12.2793 33.1177 12.6527 32.3268 12.7656L30.9835 12.9576C31.7666 14.6756 32.2143 16.5773 32.2143 18.5852C32.2143 26.1003 26.1003 32.2143 18.5852 32.2143C11.0701 32.2143 4.95606 26.1003 4.95606 18.5852C4.95606 11.0701 11.0701 4.95606 18.5852 4.95606C20.5931 4.95606 22.4948 5.40381 24.2128 6.18687L24.4047 4.84355C24.5176 4.05262 24.8911 3.3057 25.4561 2.74061L26.4459 1.751C24.0044 0.60754 21.3426 0 18.5851 0C8.33709 0 0 8.33716 0 18.5852C0 28.8332 8.33716 37.1704 18.5852 37.1704C28.8332 37.1704 37.1704 28.8332 37.1704 18.5852C37.1704 15.8276 36.5628 13.1657 35.4193 10.7242Z" fill="#F4A31D"/>
</g>
</svg>
