<svg preserveAspectRatio="none" width="100%" height="100%" overflow="visible" style="display: block;" viewBox="0 0 23.1304 23.1309" fill="none" xmlns="http://www.w3.org/2000/svg">
<g id="Group">
<path id="Vector" d="M21.714 3.73216L19.0125 4.11816L19.3985 1.41674C19.5663 0.24255 18.1362 -0.475128 17.2961 0.36575L12.3401 5.32181C12.1505 5.51136 12.0275 5.75739 11.9896 6.02279L11.4285 9.95035L5.30956 16.0693C4.82499 15.8375 4.28907 15.6969 3.71701 15.6969C1.66736 15.6969 0 17.3643 0 19.4139C0 21.4636 1.66736 23.1309 3.71701 23.1309C5.76666 23.1309 7.43402 21.4636 7.43402 19.4139C7.43402 18.8418 7.29345 18.3059 7.0616 17.8214L13.1806 11.7024L17.1081 11.1413C17.3735 11.1034 17.6195 10.9804 17.8091 10.7909L22.7652 5.8348C23.6026 4.99711 22.8936 3.56688 21.714 3.73216Z" fill="#F4A31D"/>
</g>
</svg>
