<svg preserveAspectRatio="none" width="100%" height="100%" overflow="visible" style="display: block;" viewBox="0 0 24.933 31.7331" fill="none" xmlns="http://www.w3.org/2000/svg">
<g id="Group">
<path id="Vector" d="M24.9105 14.3374C24.7106 12.5793 23.0683 11.3332 21.2989 11.3332H12.4632C13.2141 9.98867 13.6171 6.18572 13.5993 4.6322C13.5696 2.0607 11.4401 0 8.86851 0H7.93333C7.30693 0 6.79997 0.50688 6.79997 1.13335C6.79997 3.75409 5.7795 8.48447 3.85491 10.4091C2.55951 11.7045 1.4521 12.1739 0 12.8997V29.9051C2.2232 30.6461 5.04595 31.7331 9.3484 31.7331H16.762C19.2048 31.7331 21.1073 29.4707 20.1607 27.0803C21.6029 26.6874 22.6664 25.3648 22.6664 23.7998C22.6664 23.3582 22.5812 22.9355 22.4274 22.547C24.8576 21.8848 25.7522 18.884 24.0654 16.9999C24.6851 16.3076 25.0268 15.3606 24.9105 14.3374Z" fill="#F4A31D"/>
</g>
</svg>
