<svg preserveAspectRatio="none" width="100%" height="100%" overflow="visible" style="display: block;" viewBox="0 0 184.648 204.46" fill="none" xmlns="http://www.w3.org/2000/svg">
<g id="Group 292">
<g id="Group">
<path id="Vector" d="M54.0875 138.368L51.8557 140.469C51.3263 140.621 51.049 140.081 50.8055 140.206C46.963 142.18 49.123 143.132 46.6046 144.407C46.2843 144.569 45.774 143.459 45.5543 144.932C43.759 142.813 43.9987 145.124 43.4538 144.67C43.0697 144.35 43.7442 142.837 42.6661 142.832C41.6193 150.39 40.2012 143.155 37.9401 145.72C37.0018 144.1 34.5057 148.562 35.1832 149.527C34.8393 150.552 33.4906 150.071 34.6581 150.577L32.8202 150.84C32.2976 156.642 37.0382 154.135 34.0017 156.485C38.9177 156.872 34.2285 154.282 34.3955 153.728C37.321 152.354 35.1415 150.993 35.1832 150.577C38.6773 148.52 35.2452 145.036 38.4652 147.033C38.2834 143.269 41.3977 150.059 43.1913 144.932C44.5777 145.082 44.8696 146.633 46.342 144.932C48.7935 147.355 47.9447 139.524 50.8055 142.307C50.2243 142.086 51.8145 140.773 53.1685 139.681C53.2978 139.577 54.0818 139.786 54.2188 139.681C55.246 138.897 55.0805 136.565 57.1069 137.581C57.2369 137.646 58.0571 140.196 58.0259 140.338C57.9891 140.505 56.1936 142.959 56.188 143.226C56.1844 143.397 59.4648 145.121 56.188 144.013C56.7198 144.615 56.4527 145.294 56.4505 146.245C54.6525 145.421 56.2074 148.067 56.188 148.214C56.1741 148.319 55.0587 149.64 55.1377 150.052C55.3152 150.977 61.8358 152.504 53.4311 154.647C52.5561 155.649 53.6438 157.024 53.2998 157.666C53.0243 158.181 52.1427 156.681 51.4619 157.929C50.367 159.937 52.187 163.657 52.2496 163.968C52.307 164.253 50.5308 166.525 53.9562 165.674C54.8018 167.691 56.1971 165.166 57.1069 167.775C59.7225 163.75 59.1912 167.675 60.6515 165.149L62.2268 165.412C63.438 170.196 66.7977 167.842 66.1653 170.532C65.9045 171.641 63.0644 172.301 62.8833 172.238C62.5227 172.114 63.7802 171.724 63.1458 171.451C62.7214 171.268 59.8907 172.109 59.6012 172.632C58.5653 174.506 60.2288 178.085 59.7325 180.115C54.8591 177.815 58.0378 184.401 50.8055 178.802C49.2073 178.412 47.9418 180.651 41.2221 173.814C41.0274 173.616 41.7875 172.824 40.3031 173.289L39.1216 171.451C38.2809 168.522 38.0438 164.109 36.2334 161.867C36.6668 158.701 35.2826 160.013 34.1329 158.454C33.9271 158.175 30.7964 152.753 30.7196 152.415C30.1173 149.762 32.8348 149.655 31.1134 149.133C29.2882 151.078 29.987 149.496 29.9319 149.396C29.9435 149.03 30.2369 149.285 30.457 148.871C30.9814 147.883 29.4154 148.439 28.8817 147.427C28.8247 145.444 27.6907 143.808 27.3063 141.65C27.1777 140.929 27.6128 135.89 26.5186 134.824C26.7827 132.602 27.8764 135.306 29.9319 132.723C28.332 132.725 26.3304 132.105 27.5689 131.279C28.186 132.724 29.0182 131.419 27.8314 131.017C25.6128 130.264 26.713 133.581 25.4684 130.623C27.8501 129.319 25.0913 129.671 25.2058 129.31C25.3121 128.975 26.2281 128.808 26.2561 128.522C26.3265 127.802 23.5881 128.247 26.2561 125.897C23.0417 125.162 27.0232 123.058 27.7002 126.291C28.7896 123.832 29.6464 126.69 30.457 124.715C30.5956 124.378 30.0644 123.293 31.7698 122.746C29.5356 120.708 34.4939 123.985 32.4262 121.564L35.4457 121.171C34.1841 119.492 36.7733 118.786 34.1329 117.889C35.2511 117.943 35.9453 118.18 36.1021 118.151C37.3401 117.923 36.4789 116.364 36.3646 116.313C35.9432 116.126 35.8547 117.13 35.577 117.101C33.6591 116.899 36.2039 115.775 36.2334 115.657C36.6206 114.111 34.8456 115.847 34.9206 114.344C34.9902 112.949 35.7093 112.356 35.7083 112.244C35.6974 111.081 34.7324 112.014 34.9206 110.931C35.2254 109.177 36.4523 111.765 36.6272 111.85C37.5999 112.323 40.1529 110.892 41.6159 114.738C44.8667 114.588 46.4441 117.352 48.705 115.788C51.4398 118.169 53.7257 113.793 54.7439 112.375C55.9768 116.141 60.2269 115.567 62.8832 114.213C65.0123 115.301 70.7646 115.096 73.1231 114.213C78.7942 117.392 74.4659 117.556 74.8297 122.746C77.9253 124.179 77.3025 126.749 76.9302 129.31C75.9185 129.65 77.575 126.81 74.1733 129.179C70.7218 125.032 71.5404 127.705 70.76 127.866C70.4258 127.935 68.2648 125.688 67.8719 127.078C68.5433 123.093 67.1488 127.166 66.2965 127.078C65.7118 126.685 63.1434 124.888 62.6207 124.978C62.0612 125.074 60.529 127.65 61.4391 129.047C56.7631 131.034 60.1753 131.182 59.0761 132.986C58.4085 134.082 55.1903 131.203 56.9756 136.399C55.936 138.055 54.1531 134.865 54.0875 138.368Z" fill="#F4A31D"/>
<path id="Vector_2" d="M47.5233 91.6335C47.5577 91.5932 47.5988 90.7354 47.392 90.5833C47.0112 90.3031 46.8041 92.9448 43.1911 88.4828C43.7163 92.1921 42.2461 89.8544 41.8783 90.0582C41.4415 90.3002 42.1401 90.7064 42.0096 90.9771C41.8959 91.2128 40.1139 90.5268 39.9091 94.1278C44.2647 96.4421 38.7589 94.5925 40.6968 99.6416C39.3331 101.759 38.4109 101.409 39.9091 102.661C37.2333 102.571 39.6786 102.936 39.384 103.317C38.6992 104.205 36.1998 102.252 35.5769 101.873C35.4026 101.768 34.674 101.979 34.5266 101.873C33.7882 101.344 32.8072 99.5297 32.82 99.379C32.846 99.0706 34.259 99.8363 33.0825 97.8037C36.0374 96.6817 31.6601 97.0546 30.5882 95.8345C29.4533 94.5428 31.9881 94.5835 25.8621 91.6335L17.5915 91.8961C17.6276 91.7738 17.3135 91.5811 18.1166 89.4017C17.0012 88.4666 16.0432 84.4455 15.7536 84.1505C14.884 83.2649 13.2322 84.2845 12.3403 83.1003L13.1279 77.8491L12.4715 77.1927C2.09458 79.0185 14.0473 67.9115 14.8346 68.0031C16.6014 70.6536 25.0231 68.9547 23.8929 64.7211L26.781 62.8832C25.7515 60.6093 28.9015 60.6021 29.9317 59.4699C30.8741 58.4342 31.6557 54.421 32.5573 53.2997C34.6784 51.3763 35.2886 55.886 40.828 53.8248C39.0155 63.6949 43.6196 56.6887 45.5541 59.076C47.2853 57.4776 46.3534 60.6146 47.2607 61.5704C44.8826 61.3405 46.0656 64.9655 47.392 66.4277L51.0678 66.6903C55.1516 62.9362 54.1489 68.2299 56.319 66.1652C58.5987 68.5333 56.3358 68.3104 56.1877 68.922C56.1052 69.2627 56.818 69.8173 56.7128 70.4974C56.355 72.8117 54.5604 73.4672 58.2882 73.9107C57.4572 78.2954 58.9815 73.0797 59.2072 72.9917C59.9144 72.716 60.4816 74.699 61.5702 73.7794C64.3703 77.8804 52.859 79.595 50.9365 82.3126C52.146 86.1538 48.1037 86.4108 55.2687 86.6448C62.4215 91.4708 53.0506 89.3317 52.7744 91.7647C52.7219 92.2277 54.8936 93.8907 50.5427 94.259C50.9343 96.4095 48.8875 91.9815 48.1796 95.8344C45.8639 94.3203 49.5816 92.5743 48.4422 90.8458C48.0877 91.1113 47.8888 91.3491 47.5233 91.6335Z" fill="#F4A31D"/>
<path id="Vector_3" d="M71.6786 32.5574C69.9853 30.1262 71.193 34.1045 71.1535 34.264C71.0766 34.574 67.4749 37.6206 67.0838 32.8199C63.7238 33.2346 61.4122 30.5979 58.4193 29.1441C57.1991 30.0159 53.085 30.6138 52.643 28.619C51.7783 29.8673 51.4025 28.9971 50.0174 29.1441C46.1351 31.7172 47.4868 33.2816 47.2605 33.7389C46.9402 34.3858 45.5767 31.8585 46.4728 37.6773C45.1482 38.2759 46.2658 36.8818 45.0288 35.9707C43.6385 34.9466 41.7384 36.6131 41.6155 32.5574C37.3126 33.1714 37.9866 30.4002 37.6771 30.1943C37.5101 30.0833 35.7201 30.8882 33.87 29.5379C34.252 28.3954 33.7764 23.6765 33.6074 23.2365C33.5222 23.0145 32.2876 23.3154 31.7695 19.5606C36.0153 15.3675 32.1437 22.1615 35.3141 17.854C39.8049 18.0031 36.0398 17.0362 35.9705 16.41C35.9621 16.3339 36.8164 15.3904 36.7582 15.0972C36.5086 13.8408 30.9578 15.1121 34.3951 12.209C31.3157 11.2983 32.762 8.96018 30.0629 9.97726C28.692 7.31484 26.7132 11.4421 27.8312 7.2204C31.3418 6.51934 26.6214 4.79014 30.0629 5.77632C30.2053 5.72778 30.1554 4.75518 31.3757 4.98866C29.8896 -0.770973 37.7873 5.7471 35.1828 2.49433C35.8267 -2.38936 37.668 2.49591 42.9283 0C42.7066 2.08481 47.9646 2.1951 46.7354 4.0697C48.7577 4.27781 48.5257 6.13809 50.8051 5.77632C51.8493 6.91964 49.3932 6.57846 52.1179 8.40194C52.3155 8.53413 54.7455 8.87711 54.6123 10.1086C54.5875 10.3372 53.4589 10.9208 53.6933 11.2901C54.1496 12.0091 57.0733 11.4728 58.4194 13.3906C61.1003 12.2259 63.0716 14.5472 63.408 12.0778C66.4124 13.0723 65.2738 11.0671 66.0337 10.765C66.5019 10.5789 66.8065 11.1273 67.0839 11.0276C73.162 8.84326 71.0579 9.24735 76.2735 12.6029C77.6858 13.5116 78.1578 10.7174 76.9299 17.7228C72.0146 21.3802 75.7711 20.8925 72.8603 23.1053C72.5881 23.3122 72.1936 21.9761 71.2849 24.1556C67.7502 22.6252 70.2174 25.7958 70.1034 26.3873C69.8518 27.6925 66.4226 27.4207 71.1537 29.538C70.6272 30.9604 72.3828 30.9822 71.6786 32.5574Z" fill="#F4A31D"/>
<path id="Vector_4" d="M75.092 61.7019C75.2264 61.7388 76.9474 62.9822 77.0612 63.0147C78.0784 63.3053 79.371 62.8029 80.4744 63.2772C80.6633 63.3585 83.6214 65.9035 82.5749 66.1654C83.9407 65.8701 87.0009 69.6225 87.301 69.5787C87.8586 69.4972 87.3232 68.4051 88.3513 68.5284C88.7883 68.5809 88.9953 70.3344 91.2394 69.5787C93.0401 71.991 93.783 70.5927 95.9655 72.2043C100.242 69.9836 97.4265 72.5444 98.985 74.8299C98.5497 74.8318 99.144 75.7656 99.2475 76.1427C100.745 81.6011 101.741 79.6135 101.873 80.4749C101.909 80.7062 100.566 81.5957 101.348 82.5754C101.695 83.0103 109.58 85.4123 97.2783 86.3826C91.6405 90.2578 95.4784 91.4427 95.5717 92.2902C96.0792 96.8997 87.1697 88.9196 86.776 87.9579C85.8059 88.445 87.4219 89.723 86.776 90.0584C86.3736 90.2674 84.5925 88.5345 83.8878 88.7456C83.1034 91.2804 79.2379 89.7091 78.1115 88.7456C77.6963 88.3906 78.4329 88.055 78.2428 87.8267C77.6664 87.1345 74.6571 88.8152 72.8603 87.1703C70.3493 89.7112 71.8708 86.8262 71.5475 86.6451C70.6382 86.136 69.2622 87.5545 68.9219 87.4328C68.4104 87.2499 68.6089 86.4688 68.3967 86.3826C68.1854 86.2967 65.8552 88.6875 68.7906 84.1508C65.17 80.5283 71.4114 85.3483 70.4972 80.3437C69.2229 81.3695 69.6704 80.3274 71.1536 79.1622C66.8923 76.9149 67.8673 75.0256 67.0839 74.83C66.8177 74.7635 65.8415 75.3612 65.7711 75.3551C65.5188 75.3332 66.1471 73.2613 63.1455 76.1428C61.6587 69.525 55.83 74.8383 56.5815 72.2043C59.9404 71.5553 57.2553 69.9008 57.2379 69.71C57.2198 69.5109 58.7761 66.7008 58.8133 66.0342C58.8448 65.4698 58.0398 64.8449 58.0256 64.5901C58.0063 64.2419 58.0553 63.6817 58.0256 63.2773C58.0226 63.2354 58.774 62.9839 58.5508 62.6209C58.3738 62.3332 56.553 62.0021 56.7129 61.3081C57.0304 59.9297 59.3652 63.3572 58.8133 61.0456C58.5546 59.9618 55.2702 61.01 58.0257 58.9451C55.7364 57.652 57.8057 57.2081 58.5508 56.0569C58.6535 55.8983 58.5622 52.8388 59.9949 54.8754C60.715 53.5775 62.1207 56.1478 64.1958 53.8252C63.3193 57.5815 65.8925 57.1829 65.9025 57.6323C65.9096 57.9542 64.0033 58.3477 64.9835 59.0764C66.5628 60.2505 67.993 56.2041 70.8911 58.6826C68.4485 59.6371 71.1746 59.1336 71.5475 59.339C72.3672 59.7902 73.2125 62.4601 70.4973 60.6518C71.5585 63.6679 72.9305 61.1769 73.1229 61.1769C73.2527 61.1769 74.0079 62.1973 74.1732 62.2271C74.6232 62.3083 74.8286 61.6297 75.092 61.7019Z" fill="#F4A31D"/>
<path id="Vector_5" d="M124.191 112.114C122.539 114.721 118.999 114.09 117.889 116.709C116.678 119.568 120.919 118.675 117.364 120.91C118.421 122.463 115.686 124.04 114.607 126.292C113.176 126.215 111.511 126.652 110.406 125.504L106.862 129.312C108.141 130.29 106.657 131.177 106.599 131.281L106.074 130.231C106.326 129.832 106.614 128.378 106.074 127.736L107.912 124.586C109.815 123.473 111.106 124.397 111.85 121.697C110.255 121.033 110.378 122.936 109.881 123.141C108.197 121.956 105.127 127.701 105.811 129.312C102.07 133.846 100.802 130.985 100.429 131.018C100.026 131.054 95.8799 136.058 95.5716 130.362C91.3965 129.406 95.5925 133.426 92.1583 132.725C94.2775 135.291 89.6561 131.785 89.7953 135.876C86.8224 137.184 86.1661 138.942 82.181 139.551C83.4057 135.528 85.6633 137.635 85.0692 133.512C87.4161 133.532 86.0948 127.89 89.1389 130.23C89.6451 129.845 90.3027 128.829 90.0579 128.261C89.9401 127.988 89.0841 128.741 86.382 124.323C86.1825 123.52 87.0635 122.881 86.1195 121.172C91.0022 120.97 87.9752 117.912 89.4015 117.365C89.5758 117.298 91.0179 118.528 92.8148 117.628C93.2896 117.39 92.4102 116.777 93.0774 116.315C93.2297 116.209 93.9932 116.42 94.1276 116.315C96.224 114.679 94.7485 113.281 97.1471 111.72C94.2313 103.003 97.6855 109.734 100.429 108.963C100.678 108.893 102.134 105.61 104.499 108.569C104.548 108.631 104.606 110.133 105.155 110.013C105.414 109.957 105.156 109.307 105.418 109.226C105.611 109.166 105.874 110.005 105.943 110.013C108.094 110.265 107.016 108.681 108.043 108.701C108.28 108.705 111.422 111.325 111.982 111.326C114.358 111.33 116.868 105.867 117.233 113.164L124.191 112.114Z" fill="#F4A31D"/>
<path id="Vector_6" d="M76.6675 169.352C80.4019 172.795 74.3533 177.48 74.0419 179.198C74.5754 182.893 73.9753 186.089 75.0921 189.7C74.7548 190.531 72.812 188.351 71.1537 190.225C70.8093 190.615 70.5211 192.724 70.3661 193.114C69.769 194.615 68.0487 194.38 70.1035 196.789C62.593 195.14 65.3112 201.015 61.8329 203.485C60.286 204.583 58.3303 205.161 57.5006 202.96C57.046 201.753 56.9726 198.587 58.5509 197.84C57.2506 195.816 59.2527 192.058 59.076 191.801C58.1002 192.009 54.6614 191.016 56.0566 189.832C57.0028 191.841 56.7805 190.649 57.7632 188.125C50.7627 184.39 54.3045 183.793 53.8248 183.136C53.7115 182.981 50.4013 182.698 53.1683 180.905C56.5768 183.129 57.1265 180.233 57.3693 180.117C58.5614 179.549 61.0456 183.38 60.3887 176.31C65.5507 173.886 58.9078 176.86 59.8636 173.422C60.331 171.74 64.9096 174.041 64.4584 172.503C68.2086 174.331 68.9478 171.611 69.1845 171.452C69.528 171.222 71.0917 171.596 71.5475 169.615C73.5427 170.412 72.349 168.517 73.648 168.827C74.2579 168.973 74.8624 170.488 75.8797 168.564C75.9391 168.98 76.4315 169.134 76.6675 169.352Z" fill="#F4A31D"/>
<path id="Vector_7" d="M66.4278 43.0602C65.931 43.1479 63.294 43.5103 63.1458 43.5853C60.1521 45.1014 62.374 49.5874 61.0453 47.2611C59.3652 48.495 59.1977 46.0238 56.3192 48.5739C54.8 44.8923 55.0258 47.0077 53.9562 46.4734C53.7212 46.356 53.2864 43.4244 50.8055 42.535C53.8827 46.2847 52.902 46.6389 53.0372 46.8673C53.9466 48.4027 59.2766 44.4296 47.9173 53.8251C47.5321 53.9114 41.9789 53.1984 40.0405 53.3C39.235 53.3422 37.9792 55.1308 37.1523 53.0374C36.0895 53.6268 35.1752 53.1644 34.9206 51.9872C36.1549 51.2852 36.6934 51.2467 35.7082 49.7554C39.4338 49.1798 36.8731 48.9872 36.7585 48.7052C36.5546 48.2035 42.0712 44.8249 39.3841 43.1914C41.3341 41.6864 38.616 41.8199 39.778 39.3843C43.1113 38.9439 46.5489 37.4971 49.3614 39.7781C48.0344 40.6701 50.2827 43.6723 50.9368 41.8786C51.2115 41.1251 49.8641 41.5969 49.624 41.0909C49.507 40.8445 50.1818 39.5919 50.1491 39.5156C50.0024 39.1733 44.1836 37.1185 47.7861 34.5269C47.1363 30.1792 49.5164 31.5368 49.8866 31.1136C50.0282 30.9517 48.197 28.9134 52.3809 29.6695C52.8853 29.7607 54.0378 30.5417 54.4814 30.9823C56.4985 29.446 57.6016 30.8495 58.1572 29.9321C58.5941 34.4954 58.4498 27.72 59.9951 32.0326L65.2463 33.0828C64.3806 36.6748 67.32 40.008 66.9529 42.9289C66.9252 43.1487 66.4313 43.0334 66.4278 43.0602Z" fill="#F4A31D"/>
<path id="Vector_8" d="M122.878 79.8179C126.296 79.8026 123.4 80.3894 122.353 83.0999C123.559 92.039 117.089 87.6198 117.889 91.5018C117.555 91.9036 117.252 91.3434 117.233 91.3705C115.056 94.3832 117.901 90.4267 112.507 91.6331C111.147 88.4737 111.66 90.9952 111.194 91.1079C111.028 91.1481 108.491 90.7786 107.781 91.1079C107.474 91.2501 106.558 92.6347 106.468 92.6833C103.772 94.1345 102.314 91.1073 99.6412 93.7336C99.0241 92.6548 98.2378 94.0952 95.9654 93.7336C96.5357 90.6129 93.2859 90.0295 95.8341 89.4013C94.3583 84.7938 111.884 87.9628 101.61 81.7871C103.781 78.1342 99.5973 80.2145 101.085 78.1113C99.477 78.0348 100.278 76.1488 99.2474 76.1421C99.1439 75.7649 98.5495 74.8311 98.9848 74.8293C100.102 76.4677 99.9154 75.0694 101.61 75.7482C97.8234 73.7432 101.358 73.295 98.9848 73.1226L100.429 70.8909H101.217C106.26 72.7897 102.778 73.1578 103.973 74.1729C105.411 73.7802 107.53 78.0249 108.306 77.98C109.194 77.9285 108.488 73.8299 113.294 79.0302C117.183 77.7701 118.769 80.5463 120.646 79.2928C122.561 81.4762 122.725 79.8775 122.878 79.8179Z" fill="#F4A31D"/>
<path id="Vector_9" d="M129.179 94.7845C132.522 97.5395 129.281 99.1843 127.472 98.1978C125.823 101.066 132.46 98.7593 130.492 101.217C130.503 101.711 132.841 100.788 131.017 103.843C134.79 104.936 131.523 105.219 131.542 105.943C131.55 106.239 133.755 106.435 133.38 111.195C130.521 110.142 127.985 108.735 129.704 105.418C125.109 105.683 127.454 106.553 127.341 106.731C127.14 107.049 126.511 106.677 126.291 106.994C125.444 108.21 128.282 106.841 128.654 107.781C129.033 108.74 126.975 108.546 126.816 108.831C126.534 109.338 127.821 111.937 127.341 113.295C126.637 115.289 126.945 110.8 125.372 108.963C125.364 112.238 124.521 111.448 124.453 111.588C116.678 113.064 119.235 110.476 116.707 108.963C115.218 108.071 114.791 109.435 113.951 108.831C112.337 107.673 116.627 108.779 114.476 107.387C114.736 107.42 114.743 106.505 116.182 108.438L116.576 108.044C116.132 107.619 115.902 107.519 115.788 106.862C118.09 107.261 117.817 111.891 118.152 108.306C115.949 105.669 115.808 102.611 114.607 103.974C111.587 98.7116 115.031 100.5 115.263 100.167C115.598 99.6872 112.547 98.1958 117.233 99.7732C116.352 96.3838 118.876 101.768 121.827 97.5415C121.945 97.3732 120.231 96.988 123.928 94.9158C124.12 91.1 124.673 95.2264 124.847 95.3097C127.167 96.4188 127.335 93.6111 129.179 94.7845Z" fill="#F4A31D"/>
<path id="Vector_10" d="M75.0923 61.1761C72.2748 61.8838 72.5407 56.5013 68.397 57.5003C69.2408 54.7086 63.8475 58.0359 64.5899 55.2686C64.7051 54.8392 65.6957 54.6741 65.6401 54.2183C65.5983 53.875 59.3708 50.0757 61.3079 49.6235C61.8306 49.5015 62.0108 50.8468 63.0145 49.4922C61.6371 46.8941 62.0458 44.2295 65.2462 43.5846C65.8977 43.4533 66.2676 43.8868 66.9529 43.8471C67.5174 43.8145 69.0066 42.9558 69.9723 43.5846C70.3358 43.8212 72.8528 48.008 73.123 48.0481C73.7987 48.1483 74.1696 46.7575 74.4358 46.7353C74.8082 46.7043 75.4559 49.4411 77.324 48.8358C78.7685 50.9243 81.64 50.5886 79.687 51.724C79.5795 51.7864 78.3267 51.8454 78.1116 51.9865C75.779 53.5175 76.7795 55.6651 76.6675 56.0562C76.4449 56.8343 73.8033 56.2995 76.6675 58.6818C75.4322 58.7828 75.3811 60.1986 75.0923 61.1761Z" fill="#F4A31D"/>
<path id="Vector_11" d="M41.222 173.814C39.9784 173.403 42.8385 175.901 44.504 177.753C50.9716 179.667 47.6447 183.4 52.1182 180.378C50.3207 184.43 52.7198 182.703 53.0372 183.66C53.1867 184.111 52.1396 184.478 52.2495 184.973C52.3203 185.292 54.8804 186.651 54.8751 186.811C54.7963 189.168 51.5307 184.507 51.7244 186.286C52.0215 189.012 57.285 186.635 56.8443 188.78C56.1726 188.075 54.799 189.831 54.8751 190.487C54.9456 191.094 57.381 192.437 58.0258 192.85C57.9 196.46 56.2332 199.36 57.2382 202.958C56.6578 203.627 52.1574 198.185 51.987 197.838C51.6362 197.125 50.7634 190.592 48.3112 188.386L45.1605 180.509C42.4534 179.282 41.4376 176.889 39.6467 174.733C40.1915 172.829 39.351 172.25 39.1215 171.451L40.3031 173.289C41.7874 172.824 41.0273 173.616 41.222 173.814Z" fill="#F4A31D"/>
<path id="Vector_12" d="M34.1327 117.889C36.7731 118.787 34.1839 119.492 35.4455 121.171L32.4261 121.565C34.4938 123.986 29.5354 120.708 31.7696 122.746C30.0642 123.293 30.5954 124.378 30.4569 124.715C29.8191 125.17 29.9579 124.717 29.9317 124.715C29.8362 122.387 29.559 121.374 32.4261 120.514C32.8073 120.4 33.4679 121.228 33.7388 121.04C35.9991 119.466 32.8729 118.157 33.0824 117.758C33.3517 117.412 33.5285 117.859 34.1327 117.889Z" fill="#FAF5EF"/>
<path id="Vector_13" d="M128.523 111.063C128.908 111.386 128.548 114.286 127.998 113.951C127.609 113.715 128.043 111.384 128.523 111.063Z" fill="#F4A31D"/>
<path id="Vector_14" d="M44.2411 37.5447C44.5107 37.5556 44.7626 37.4563 44.8975 37.676C41.0844 40.091 41.7556 37.4438 44.2411 37.5447Z" fill="#F4A31D"/>
<path id="Vector_15" d="M24.0243 108.175C24.0986 108.132 25.4924 108.644 25.4684 109.094C25.4231 109.941 23.0266 108.744 24.0243 108.175Z" fill="#F4A31D"/>
<path id="Vector_16" d="M60.2575 30.7198C62.0472 30.4748 61.8555 32.4562 60.2575 31.5075C59.7268 31.1924 59.9759 30.7584 60.2575 30.7198Z" fill="#F4A31D"/>
<path id="Vector_17" d="M76.6673 169.351C76.5083 166.878 77.4134 166.402 77.1924 169.219L76.6673 169.351Z" fill="#F4A31D"/>
<path id="Vector_18" d="M23.4993 110.8C23.7608 110.788 24.4005 112.079 23.7618 112.113C22.8515 112.16 23.0306 110.821 23.4993 110.8Z" fill="#F4A31D"/>
<path id="Vector_19" d="M127.735 108.962C129.328 109.244 126.848 112.423 127.341 109.356C127.346 109.327 127.708 108.957 127.735 108.962Z" fill="#F4A31D"/>
<path id="Vector_20" d="M27.5686 131.28C27.6038 131.257 27.8596 131.338 27.8311 131.018C29.0179 131.421 28.1857 132.726 27.5686 131.28Z" fill="#FAF5EF"/>
<path id="Vector_21" d="M129.048 109.225C129.502 109.226 129.5 110.276 129.048 110.275C128.594 110.274 128.597 109.224 129.048 109.225Z" fill="#F4A31D"/>
<path id="Vector_22" d="M12.0777 104.498C12.1839 104.881 11.8934 104.995 11.8151 105.285C10.958 105.029 11.2596 103.965 12.0777 104.498Z" fill="#F4A31D"/>
<path id="Vector_23" d="M129.573 111.063C129.82 111.045 129.997 112.223 129.573 112.114C129.016 111.97 129.193 111.091 129.573 111.063Z" fill="#F4A31D"/>
<g id="Group_2">
<path id="Vector_24" d="M176.309 52.7742C179.976 56.7301 177.453 53.4391 178.41 53.5618C179.673 53.724 178.51 55.6678 178.541 55.7936C178.604 56.0557 179.801 56.4812 179.854 56.8438C180.026 58.0242 173.838 62.4984 181.298 59.6007C182.356 61.0805 182.774 59.8352 182.873 59.8632C185.691 60.6609 184.846 61.8973 182.479 65.2457C182.274 66.349 185.438 66.1756 184.186 67.74C180.342 63.9374 181.927 66.801 181.035 67.4775C180.562 67.8364 179.022 66.5279 176.046 69.8405C173.613 64.3407 176.909 65.6483 176.44 63.6703C175.804 60.9857 170.698 64.9729 169.745 65.377C168.907 65.7326 166.752 66.0968 166.069 66.4272C163.852 67.4997 162.755 69.0954 161.081 68.7902C159.759 72.8387 154.61 71.4368 151.103 72.4661C150.364 72.0085 151.073 69.7222 150.972 69.4466C150.393 67.8686 141.302 66.0552 151.103 65.902C153.251 68.4114 151.174 64.7773 157.142 65.3769L157.536 64.9831C157.709 64.2565 152.6 62.3512 159.768 60.9134C160.383 54.7941 163.135 61.9325 162.262 57.8939C166.537 56.5134 165.909 54.2867 166.857 54.0868C170.511 53.3166 168.306 59.4077 176.309 52.7742Z" fill="#F4A31D"/>
<path id="Vector_25" d="M174.734 63.2773C177.494 63.1713 174.942 64.5947 174.865 64.7214C171.934 69.5663 166.631 72.3648 162.656 76.4053C161.704 74.5717 159.195 77.381 158.849 78.6371C158.802 78.8082 159.42 80.5924 158.455 81.6565C156.48 81.2513 157.33 82.9718 157.011 83.6257C156.686 84.2903 155.623 86.1713 154.91 85.4636C155.687 81.3986 154.167 82.7338 153.466 79.8186C149.491 79.8273 140.664 82.8553 139.288 80.8688C135.663 84.6987 137.689 76.4247 138.5 76.1428C138.627 76.0988 140.028 76.9345 141.126 76.6679C141.208 76.6481 141.809 75.3713 142.439 75.6177C142.59 75.677 142.901 76.8974 143.226 76.9304C143.31 76.9389 144.064 75.9666 144.539 75.8802C149.489 74.9799 148.507 77.4869 149.265 77.4556C149.432 77.4487 151.707 75.4845 151.76 75.2238C152.188 73.117 147.918 73.0852 155.042 72.467C155.154 72.4572 155.46 71.9468 155.567 71.9418C156.57 71.8955 158.152 73.831 158.192 71.9418C161.106 73.1974 159.331 71.674 159.374 71.548C159.496 71.187 160.926 71.7075 161.606 69.3163C163.88 69.0691 165.911 66.1429 170.27 65.903C170.803 64.9884 174.135 63.3003 174.734 63.2773Z" fill="#F4A31D"/>
<path id="Vector_26" d="M174.209 68.791C177.281 69.8732 173.227 73.2608 171.846 74.8298C171.237 73.2098 164.667 79.2219 163.575 80.4748C159.775 84.8368 159.079 90.0018 155.698 91.2398C155.292 93.5813 153.054 99.0914 152.022 95.7034C150.932 92.1221 153.399 90.5618 153.073 88.3517C153.979 87.1283 154.531 89.179 155.567 88.7455C158.051 87.7061 148.803 85.2094 146.903 87.6952L142.439 86.645C140.995 88.7332 140.562 86.4218 139.551 87.6952L136.531 85.9886L136.925 82.1815C141.447 82.5885 145.781 81.1807 150.316 80.8687L154.648 82.8379C154.006 87.2378 156.811 87.9496 155.698 86.5137C157.547 85.5797 157.516 84.6052 157.536 82.8379C161.589 80.3973 159.349 78.6624 159.374 78.3744C159.386 78.2336 161.043 76.7996 161.343 76.4052C163.761 78.0822 166.717 73.1021 168.695 71.6791C170.385 70.4637 172.491 69.94 174.209 68.791Z" fill="#F4A31D"/>
<path id="Vector_27" d="M126.816 93.9965C126.482 94.0616 124.257 97.6476 125.766 89.9268C125.57 89.4448 123.992 90.1992 122.615 88.3514C122.431 80.2752 124.784 82.9489 125.766 78.6367C126.117 78.076 126.83 78.4948 127.342 77.4552C127.787 76.5497 127.63 72.8359 129.967 75.486C125.448 75.463 132.834 77.5157 134.037 76.9301C134.107 79.7444 134.942 79.668 132.724 81.131C128.518 77.6554 128.098 81.9611 127.079 78.8993C125.085 85.2224 126.456 82.3732 126.817 82.8377C127.083 83.1808 126.993 84.7384 127.079 84.9382C127.908 86.8576 128.183 82.5399 128.261 85.332C128.634 85.463 128.927 84.806 129.048 84.8069C130.769 84.8205 127.156 86.2258 130.492 89.1391C128.255 90.7006 127.612 90.2246 127.473 90.3207C127.14 90.5497 127.62 91.6398 126.948 91.8961C126.419 92.0976 124.83 90.4302 126.816 93.9965Z" fill="#F4A31D"/>
<path id="Vector_28" d="M164.231 83.4943C166.844 82.7728 165.922 87.0114 167.251 87.8266L165.019 96.0972C162.245 94.1704 162.056 95.3794 161.868 95.3096C160.752 94.8932 160.573 93.5397 160.293 93.4716C159.497 93.278 160.159 95.4035 158.192 93.7342C156.114 91.9696 158.196 88.7555 160.162 88.3517C160.733 82.0911 163.125 84.6137 163.444 84.5446C163.761 84.4758 163.9 83.5858 164.231 83.4943Z" fill="#F4A31D"/>
<path id="Vector_29" d="M156.354 91.8951C157.664 95.0269 159.672 94.633 159.899 95.1771C160.712 100.096 159.413 101.146 159.374 101.479C159.102 103.779 160.325 105.448 159.636 106.73C159.441 107.094 157.083 108.741 156.879 107.649C156.96 111.086 155.115 108.265 155.435 106.205C155.462 106.036 157.446 103.313 155.567 105.548C154.05 103.648 153.861 101.919 153.86 99.6405C153.86 99.5408 154.378 99.2231 154.385 99.1154C154.446 98.1512 153.338 97.3496 156.354 91.8951Z" fill="#F4A31D"/>
<path id="Vector_30" d="M171.058 75.0926C171.14 75.0805 172.528 75.5425 172.633 75.6178C174.547 76.9873 171.929 76.1914 171.189 78.1121C172.108 81.3187 169.465 82.23 169.351 82.5756C168.86 84.0602 170.336 86.8852 168.17 83.7571C166.938 84.8885 165.945 83.0246 164.494 82.9694C163.416 82.9285 161.007 84.9422 163.575 81.2628C164.478 79.968 170.578 75.1636 171.058 75.0926Z" fill="#F4A31D"/>
<path id="Vector_31" d="M151.103 92.6846L151.76 96.2292C149.967 96.1177 151.375 103.851 149.922 102.531C149.229 98.5662 149.395 102.119 148.871 102.531C147.535 103.581 148.496 99.3672 147.296 99.3799C145.876 104.52 144.87 95.4801 146.377 97.1482C147.013 93.9557 148.929 96.097 151.103 92.6846Z" fill="#F4A31D"/>
<path id="Vector_32" d="M128.261 69.3157C129.519 69.5318 129.901 75.4944 127.867 70.2347C129.522 74.1172 126.761 73.6924 126.423 76.9299C124.021 75.1902 125.121 68.7764 128.261 69.3157Z" fill="#F4A31D"/>
<path id="Vector_33" d="M136.4 77.7172C137.805 77.5884 136.829 81.2165 135.612 80.3429C135.151 80.0116 136.068 77.7476 136.4 77.7172Z" fill="#F4A31D"/>
<path id="Vector_34" d="M151.366 80.3439C153.804 79.5522 153.903 82.2155 151.628 81.1316C151.205 80.93 150.685 80.5649 151.366 80.3439Z" fill="#F4A31D"/>
<path id="Vector_35" d="M150.316 90.5842C150.502 90.4957 151.949 92.0329 151.103 92.1595C150.216 92.2924 150.069 90.7012 150.316 90.5842Z" fill="#F4A31D"/>
<path id="Vector_36" d="M174.471 66.952C175.284 67.0052 174.747 68.4341 173.946 68.2648C173.099 68.0858 174.379 66.946 174.471 66.952Z" fill="#F4A31D"/>
<path id="Vector_37" d="M135.087 77.4546C135.769 77.4504 135.284 79.574 134.825 79.2925C134.521 79.1063 134.648 77.4574 135.087 77.4546Z" fill="#F4A31D"/>
<path id="Vector_38" d="M173.158 68.0027C173.335 68.0999 173.346 68.5072 173.289 68.6592C172.19 71.5938 171.898 67.3118 173.158 68.0027Z" fill="#F4A31D"/>
<path id="Vector_39" d="M136.4 76.1417C137.64 75.3651 136.99 79.0768 136.268 76.7981C136.215 76.6287 136.22 76.2545 136.4 76.1417Z" fill="#F4A31D"/>
<path id="Vector_40" d="M135.35 80.8692C135.598 80.732 136.702 81.1631 136.531 81.5256C136.316 81.9828 134.716 81.2189 135.35 80.8692Z" fill="#F4A31D"/>
<path id="Vector_41" d="M149.265 92.4211C149.719 92.4218 149.717 93.4721 149.265 93.4713C148.811 93.4706 148.814 92.4203 149.265 92.4211Z" fill="#F4A31D"/>
<path id="Vector_42" d="M151.891 90.0584C152.391 90.0146 152.189 91.0944 151.628 90.846C151.264 90.6847 151.728 90.0726 151.891 90.0584Z" fill="#F4A31D"/>
</g>
<path id="Vector_43" d="M24.2866 110.275C24.6851 110.131 24.864 110.662 24.5491 110.8C24.1647 110.969 23.9703 110.39 24.2866 110.275Z" fill="#F4A31D"/>
<path id="Vector_44" d="M129.573 112.9C129.602 112.897 130.104 113.283 129.836 113.425C129.16 113.784 129.078 112.957 129.573 112.9Z" fill="#F4A31D"/>
<path id="Vector_45" d="M131.674 111.326L132.068 111.457L131.674 111.851L131.543 111.719L131.674 111.326Z" fill="#F4A31D"/>
<path id="Vector_46" d="M58.0259 63.2769C58.0556 63.6813 58.0066 64.2415 58.0259 64.5897C57.6398 64.3151 55.9034 63.7564 55.7942 63.802C55.6095 63.8791 55.051 68.2823 55.2691 64.0646C46.3371 68.0962 48.698 64.5865 48.3112 63.1457C48.2633 62.9672 47.5505 62.5132 47.5235 62.358C47.096 59.9012 48.4868 58.8562 45.8169 57.5006C45.6216 57.4014 45.2266 57.9285 44.5041 57.7632C44.7243 52.1623 50.3656 56.0569 51.5932 51.1992C52.4508 51.1182 55.3035 48.6367 55.5317 48.5736C55.6117 48.5514 55.945 49.3875 57.107 49.0987C57.7528 48.9382 58.0878 47.6685 58.6824 47.7859C61.0837 48.26 57.062 51.2662 58.5511 51.593C56.2119 53.6295 58.315 56.6899 57.107 56.7129C56.9468 56.716 55.1804 54.1945 55.4004 56.8442C55.4459 57.3921 56.691 58.5714 56.7132 58.6821C57.0352 60.2866 54.7693 61.6838 58.0259 63.2769Z" fill="#F4A31D"/>
<path id="Vector_47" d="M39.9093 102.661C40.5114 102.681 40.6839 103.143 40.9596 102.792C39.7515 101.267 42.5368 99.1694 40.9596 97.8034C44.1048 95.4841 41.2896 94.11 41.2221 93.865C40.7503 92.1521 43.0753 92.7615 43.1913 92.6835C43.7166 92.3304 43.6986 90.5953 44.2416 90.583C44.3904 90.5796 46.136 92.6861 46.2108 92.8148C46.3138 92.992 45.0838 94.9463 47.261 93.3399L45.9483 94.9153C47.805 95.6736 45.8011 95.3842 45.6857 95.9655C45.6568 96.1115 47.7703 97.9127 47.9175 97.9347C48.4692 98.0173 49.2488 95.348 49.2302 94.784C50.4724 97.4584 55.092 95.5558 53.5625 93.6025C55.4441 92.3138 52.7173 91.9464 53.9563 91.1081C55.6728 89.9468 59.7979 97.6138 58.2886 85.9882C55.3012 84.0405 54.1996 85.8135 53.9563 85.8569C49.791 86.6015 51.5704 84.3441 53.1687 81.1309C53.5976 80.8467 60.6072 78.6742 62.0957 76.4048C62.9845 77.6345 63.2779 75.7732 64.7213 76.9299C65.5605 76.5447 64.0219 75.6687 64.7213 75.3546C65.0182 75.2213 66.2391 77.4809 70.1038 78.8991C70.3841 79.6096 68.6323 79.4114 69.5787 82.0498C65.2604 81.0724 66.6423 85.466 66.1654 86.2508C65.6734 87.0604 61.4969 88.2449 68.2659 94.1276C64.6907 93.8889 68.9729 96.2747 69.71 96.0968C70.3645 95.9388 71.1639 94.4483 69.9725 93.9963C69.5703 93.8437 68.8194 94.6455 68.5284 93.865C68.2279 93.059 70.3341 90.5312 67.872 92.9461C66.7052 91.2854 64.5013 90.3741 65.1151 88.0887C68.431 86.7005 69.7679 89.7953 72.8607 88.22C73.7286 89.1735 75.5947 89.0211 77.0616 88.22C80.5479 91.7655 82.2701 90.4832 82.5754 90.583C83.2728 90.8112 82.3744 93.687 83.8882 90.8456C87.1644 91.5238 81.8267 89.3759 84.6758 89.5328C85.2942 89.5668 90.0486 92.7557 91.6336 93.0773C89.0251 95.3921 92.2397 96.0796 91.2398 96.8845C90.7676 96.295 84.9547 97.2303 84.8071 97.5409C83.6525 99.9705 89.5295 99.0327 86.1199 100.954C89.0991 106.221 82.7058 103.999 81.6563 105.418C82.205 106.645 79.2401 108.212 78.7682 108.831C78.3773 109.343 78.8072 110.548 77.4554 110.931C77.9068 114.662 76.8767 112.918 75.7488 115.526C73.1167 112.389 71.5536 114.467 71.0227 114.476C70.1177 114.491 64.7844 114.517 64.4587 114.476C64.3515 114.463 64.2369 113.74 63.9336 113.688C62.3014 113.409 61.6905 114.576 61.5705 113.163L59.47 115.001C53.3502 114.157 56.4098 108.424 52.6435 114.213C48.6088 113.935 48.1357 115.88 47.6548 115.789C46.8387 115.634 47.6521 114.631 46.8672 114.213C46.5413 114.04 38.5055 115.373 42.7975 112.769C42.4735 112.458 41.2469 112.085 40.3031 111.85C38.0326 111.287 35.8528 111.998 35.7083 108.306C35.8593 107.878 37.3994 107.91 37.0211 105.943C37.5795 104.931 40.2294 107.143 39.9093 102.661Z" fill="#F4A31D"/>
<path id="Vector_48" d="M115.789 106.862C115.903 107.519 116.132 107.62 116.577 108.044L116.183 108.438C114.744 106.505 114.736 107.42 114.476 107.388C113.315 107.24 112.123 107.016 112.901 108.569C110.605 109.499 113.706 112.049 107.781 108.175C107.241 107.822 106.39 104.875 105.155 108.7C101.279 103.999 100.811 110.009 97.8035 107.65C95.8071 106.084 99.9615 103.064 98.8538 105.287C102.71 104.15 97.1785 96.9786 92.421 96.7538L92.2898 93.7344C95.6118 95.0012 96.7291 92.9566 95.4405 96.8851C97.5581 91.9821 99.3627 94.6307 99.904 94.522C99.9864 94.5055 100.538 93.3002 100.954 93.2093C101.716 93.043 105 95.362 109.356 91.3713C111.847 92.3536 114.597 91.8257 114.87 91.8965C115.719 92.1166 115.669 94.0187 116.708 93.7344C119.727 92.5655 118.431 90.3184 119.333 91.6339C121.151 90.5838 117.302 90.3672 122.484 89.0083C126.651 92.89 124.348 92.3788 121.303 95.9661C120.959 96.371 120.929 98.1307 119.071 98.9855C116.674 96.1718 114.519 99.4913 112.113 99.9045C113.23 100.659 112.404 101.561 113.688 104.105C116.852 104.486 115.744 106.603 115.789 106.862Z" fill="#F4A31D"/>
<g id="Group_3">
<path id="Vector_49" d="M106.074 130.23L106.6 131.28C104.472 135.1 102.26 134.279 102.005 134.431C101.526 134.717 95.1657 141.035 93.8654 142.045C86.9805 142.36 90.4498 145.149 88.2204 146.377C88.0746 147.031 91.5344 148.491 85.726 149.922C82.6183 145.148 83.6264 149.243 82.444 151.629C82.374 151.77 80.4791 153.52 80.2123 153.86L79.6872 150.447C72.1452 157.124 76.2221 158.969 76.4052 159.505C77.2975 162.12 76.3863 163.241 76.4052 163.444C76.5367 164.857 78.8479 163.77 75.6175 167.251C74.9389 167.982 74.5684 168.81 74.436 168.826C73.5517 167.679 71.1035 168.818 70.4976 170.139C67.524 168.08 65.4128 176.28 66.953 167.382C66.6287 166.879 63.516 169.337 65.6402 167.382C61.9 165.31 61.5044 162.559 62.227 165.413L60.6516 165.151C62.3466 162.219 62.3329 163.726 62.4895 163.444C62.7818 162.918 61.236 161.594 59.7326 165.413C56.6612 160.764 56.2953 168.94 54.2189 164.625C50.5931 166.471 53.3403 163.902 53.2999 163.707C53.1897 163.172 52.174 163.54 52.2497 162.919C52.2699 162.753 54.6141 161.65 51.9871 160.556C52.064 160.436 52.5243 160.08 52.5122 160.031C51.3424 155.274 54.7083 162.775 53.5625 155.567L58.8137 152.942C58.2714 152.386 58.2714 151.922 58.8137 151.366C57.3186 151.328 54.3757 149.289 57.2383 148.741C56.3815 146.245 59.0022 144.354 57.2383 142.176C59.5032 140.562 57.732 136.229 56.9758 133.775C60.9351 134.603 59.1207 131.837 59.8639 130.624C60.262 129.974 61.8333 130.052 61.9644 129.836C62.3763 129.157 61.0408 127.842 62.6208 126.817C64.6939 125.472 64.2369 127.629 64.7213 127.604C64.7998 127.6 65.0127 126.798 65.2465 126.817C65.3915 126.829 65.5818 128.262 67.6095 128.13C67.8838 128.112 67.604 126.517 68.9223 128.392C69.3955 126.741 70.1625 128.677 70.7602 128.655C71.4907 128.627 71.475 127.635 71.8104 127.604C73.0786 127.49 73.5057 131.441 72.2043 132.199C73.5361 138.327 74.5205 135.216 74.9611 135.219C75.0268 135.219 75.8156 136.022 76.0114 136.006C77.7816 135.865 77.7382 132.671 81.2626 140.732L87.0389 138.894C88.0814 135.942 89.9301 138.141 90.9773 134.168C94.2866 135.548 93.7992 130.938 97.0162 134.168C98.6621 132.746 100.015 134.557 100.955 132.068C101.711 133.912 105.683 130.85 106.074 130.23Z" fill="#F4A31D"/>
<path id="Vector_50" d="M54.4813 158.061C54.5225 160.282 56.8679 160.341 58.0258 161.868C55.3427 164.536 56.7815 162.263 56.4505 161.343C56.2075 160.668 53.1578 160.297 54.4813 158.061Z" fill="#FAF5EF"/>
<path id="Vector_51" d="M85.4634 147.297C86.2838 147.05 88.67 147.682 88.4828 148.216C85.667 147.266 84.8997 148.835 84.807 147.69C85.0212 147.659 85.3457 147.332 85.4634 147.297Z" fill="#FAF5EF"/>
<path id="Vector_52" d="M99.9038 132.33C100.27 132.378 99.8113 133.14 99.6413 133.117C99.2749 133.069 99.7338 132.307 99.9038 132.33Z" fill="#F4A31D"/>
</g>
<g id="Group_4">
<path id="Vector_53" d="M66.4274 43.0604C66.3291 43.7944 66.8658 43.4122 66.9526 43.8481C66.2672 43.8877 65.8974 43.4543 65.2459 43.5855C62.0455 44.2304 61.6368 46.895 63.0142 49.4932C62.0106 50.8477 61.8303 49.5024 61.3076 49.6245C59.3705 50.0766 65.598 53.8759 65.6398 54.2193C65.6954 54.675 64.7048 54.8402 64.5896 55.2695C63.8472 58.0368 69.2405 54.7096 68.3967 57.5013C72.5404 56.5023 72.2745 61.8848 75.092 61.1771C75.0529 61.3093 75.1116 61.534 75.092 61.7022C74.8286 61.63 74.6232 62.3086 74.173 62.2273C74.0078 62.1975 73.2526 61.1771 73.1228 61.1771C72.9305 61.1771 71.5583 63.6682 70.4971 60.652C73.2123 62.4603 72.367 59.7903 71.5474 59.3392C71.1744 59.1339 68.4483 59.6374 70.891 58.6828C67.9929 56.2043 66.5627 60.2507 64.9834 59.0766C64.0032 58.3479 65.9095 57.9544 65.9023 57.6325C65.8923 57.1831 63.3191 57.5817 64.1957 53.8254C62.1206 56.1481 60.7148 53.5777 59.9948 54.8757C58.562 52.8391 58.6533 55.8985 58.5507 56.0571C57.8055 57.2084 55.7363 57.6522 58.0255 58.9453C55.27 61.0101 58.5545 59.962 58.8132 61.0458C59.3651 63.3575 57.0303 59.93 56.7127 61.3083C56.5528 62.0023 58.3736 62.3334 58.5506 62.6211C58.7738 62.9841 58.0224 63.2356 58.0255 63.2775C54.7688 61.6845 57.0347 60.2873 56.7127 58.6828C56.6905 58.5721 55.4454 57.3928 55.3999 56.8449C55.1799 54.1952 56.9463 56.7166 57.1065 56.7136C58.3145 56.6906 56.2114 53.6301 58.5506 51.5937C57.0615 51.2669 61.0832 48.2607 58.6819 47.7865C58.0874 47.6691 57.7523 48.9389 57.1065 49.0993C55.9445 49.3881 55.6112 48.552 55.5312 48.5742C55.3031 48.6374 52.4503 51.1189 51.5928 51.1998C50.3651 56.0576 44.7238 52.163 44.5036 57.7638C45.2261 57.9291 45.6211 57.402 45.8164 57.5013C48.4863 58.8568 47.0955 59.9019 47.523 62.3586C47.5501 62.5139 48.2628 62.9678 48.3107 63.1463C48.6975 64.5872 46.3366 68.0969 55.2686 64.0653C55.0504 68.283 55.609 63.8798 55.7937 63.8027C55.9029 63.7571 57.6394 64.3158 58.0254 64.5903C58.0396 64.8451 58.8446 65.47 58.8131 66.0344C58.7759 66.701 57.2196 69.5111 57.2377 69.7102C57.2551 69.901 59.9402 71.5555 56.5813 72.2046C55.8299 74.8386 61.6586 69.5252 63.1453 76.143C66.1469 73.2615 65.5186 75.3335 65.7709 75.3553C65.8414 75.3614 66.8175 74.7637 67.0837 74.8302C67.8671 75.0258 66.8921 76.9151 71.1534 79.1624C69.6702 80.3276 69.2227 81.3697 70.497 80.3439C71.4112 85.3485 65.1697 80.5285 68.7904 84.151C65.8549 88.6877 68.1852 86.2969 68.3965 86.3828C68.6087 86.469 68.4102 87.2501 68.9217 87.433C69.262 87.5547 70.638 86.1362 71.5473 86.6454C71.8706 86.8264 70.3491 89.7114 72.8601 87.1705C74.6569 88.8154 77.6662 87.1347 78.2426 87.8269C78.4327 88.0552 77.6961 88.3908 78.1113 88.7459C79.2378 89.7093 83.1032 91.2806 83.8876 88.7459C84.5923 88.5348 86.3734 90.2676 86.7758 90.0586C87.4217 89.7232 85.8057 88.4452 86.7758 87.9581C87.1695 88.9198 96.079 96.8999 95.5715 92.2904C95.4783 91.4429 91.6403 90.2581 97.2782 86.3828C109.58 85.4125 101.695 83.0105 101.348 82.5756C100.566 81.5959 101.909 80.7065 101.873 80.4752C101.741 79.6137 100.745 81.6013 99.2474 76.1429C100.277 76.1496 99.477 78.0356 101.085 78.1121C99.5973 80.2154 103.781 78.135 101.61 81.7879C111.884 87.9636 94.3582 84.7947 95.8341 89.4022C93.2859 90.0303 96.5356 90.6137 95.9654 93.7344C98.2379 94.0961 99.0241 92.6557 99.6412 93.7344C102.314 91.1082 103.772 94.1353 106.468 92.6842C106.558 92.6356 107.474 91.251 107.781 91.1088C108.49 90.7794 111.028 91.1489 111.194 91.1088C111.66 90.996 111.147 88.4745 112.507 91.6339C117.901 90.4276 115.056 94.384 117.233 91.3714C117.252 91.3443 117.554 91.9044 117.889 91.5027C117.089 87.6207 123.559 92.0398 122.353 83.1007C123.4 80.3902 126.296 79.8034 122.878 79.8187C124.999 78.9901 126.01 80.6046 125.241 77.8495L127.341 77.4557C126.83 78.4953 126.117 78.0766 125.766 78.6372C124.784 82.9494 122.431 80.2757 122.615 88.3519C123.992 90.1997 125.57 89.4453 125.766 89.9273C124.257 97.6481 126.482 94.0621 126.816 93.997C128.367 93.6953 128.568 94.2809 129.179 94.7847C127.335 93.6113 127.167 96.4189 124.847 95.3098C124.673 95.2264 124.12 91.1001 123.928 94.9159C120.231 96.9881 121.945 97.3733 121.828 97.5416C118.876 101.769 116.352 96.3839 117.233 99.7733C112.547 98.1959 115.598 99.6873 115.264 100.167C115.031 100.5 111.587 98.7118 114.607 103.974C115.808 102.611 115.949 105.669 118.152 108.307C117.818 111.892 118.09 107.261 115.789 106.862C115.744 106.603 116.851 104.486 113.688 104.106C112.404 101.561 113.23 100.659 112.113 99.9046C114.519 99.4914 116.674 96.1719 119.071 98.9857C120.929 98.1309 120.959 96.3712 121.302 95.9662C124.348 92.3789 126.651 92.8902 122.484 89.0084C117.302 90.3672 121.151 90.5839 119.333 91.634C118.431 90.3185 119.727 92.5655 116.708 93.7345C115.668 94.0188 115.719 92.1167 114.87 91.8966C114.597 91.8258 111.847 92.3538 109.356 91.3715C104.999 95.3621 101.715 93.0431 100.954 93.2094C100.538 93.3003 99.9861 94.5056 99.9037 94.5222C99.3624 94.6308 97.5577 91.9822 95.4401 96.8852C96.7288 92.9567 95.6114 95.0013 92.2894 93.7345L92.4207 96.754C97.1781 96.9787 102.709 104.151 98.8535 105.287C99.9612 103.065 95.8068 106.084 97.8032 107.65C100.81 110.009 101.279 104 105.155 108.7C106.39 104.875 107.241 107.823 107.781 108.175C113.706 112.049 110.604 109.499 112.9 108.569C112.123 107.016 113.315 107.241 114.476 107.388C116.627 108.78 112.337 107.673 113.951 108.832C114.791 109.435 115.218 108.071 116.708 108.963C119.235 110.477 116.678 113.064 124.453 111.589C124.373 111.754 124.286 111.963 124.191 112.114L117.233 113.164C116.867 105.867 114.357 111.33 111.981 111.326C111.421 111.325 108.28 108.705 108.043 108.7C107.016 108.681 108.094 110.265 105.943 110.013C105.873 110.005 105.61 109.166 105.417 109.226C105.156 109.307 105.414 109.957 105.155 110.013C104.606 110.133 104.548 108.631 104.498 108.569C102.133 105.61 100.678 108.893 100.429 108.963C97.6851 109.734 94.2309 103.003 97.1467 111.72C94.7482 113.281 96.2237 114.679 94.1273 116.315C93.9929 116.42 93.2294 116.209 93.077 116.315C92.4098 116.777 93.2893 117.39 92.8145 117.627C91.0176 118.528 89.5755 117.298 89.4012 117.365C87.9748 117.912 91.0019 120.97 86.1192 121.172C87.0632 122.881 86.1822 123.52 86.3817 124.323C89.0838 128.741 89.9398 127.988 90.0575 128.261C90.3023 128.829 89.6448 129.845 89.1386 130.23C86.0945 127.89 87.4158 133.531 85.0689 133.512C85.663 137.635 83.4054 135.528 82.1807 139.551C86.1658 138.941 86.822 137.184 89.7949 135.875C89.6558 131.785 94.2772 135.291 92.158 132.725C95.5922 133.426 91.3961 129.405 95.5713 130.362C95.8796 136.058 100.026 131.054 100.429 131.018C100.802 130.985 102.07 133.846 105.811 129.311C105.127 127.701 108.197 121.956 109.881 123.141C110.378 122.936 110.255 121.033 111.85 121.697C111.106 124.397 109.815 123.473 107.912 124.585L106.074 127.736C106.614 128.378 106.325 129.832 106.074 130.23C105.682 130.851 101.71 133.912 100.954 132.068C100.015 134.557 98.6613 132.747 97.0154 134.169C93.7983 130.938 94.2858 135.548 90.9765 134.169C89.9292 138.141 88.0806 135.943 87.0381 138.895L81.2618 140.733C77.7374 132.672 77.7808 135.865 76.0106 136.007C75.8147 136.022 75.026 135.219 74.9603 135.219C74.5197 135.217 73.5353 138.327 72.2034 132.2C73.5049 131.441 73.0778 127.49 71.8096 127.605C71.4742 127.635 71.4899 128.628 70.7594 128.655C70.1616 128.677 69.3947 126.742 68.9215 128.392C67.6031 126.518 67.883 128.112 67.6087 128.13C65.581 128.263 65.3906 126.829 65.2456 126.817C65.0119 126.798 64.799 127.601 64.7205 127.605C64.2361 127.629 64.6931 125.472 62.62 126.817C61.04 127.842 62.3755 129.158 61.9636 129.837C61.8325 130.053 60.2612 129.974 59.8631 130.624C59.1199 131.837 60.9343 134.603 56.9749 133.775C57.7313 136.23 59.5024 140.563 57.2375 142.177C59.0014 144.355 56.3807 146.245 57.2375 148.741C54.3748 149.289 57.3178 151.328 58.8128 151.367C58.2706 151.922 58.2706 152.386 58.8128 152.942L53.5616 155.568C54.7074 162.776 51.3416 155.274 52.5114 160.031C52.5235 160.08 52.0631 160.437 51.9863 160.556C54.6133 161.65 52.269 162.753 52.2489 162.919C52.1732 163.541 53.1889 163.172 53.2991 163.707C53.3395 163.903 50.5923 166.472 54.2181 164.626C56.2945 168.941 56.6603 160.764 59.7318 165.413C61.2352 161.595 62.781 162.918 62.4887 163.444C62.332 163.726 62.3458 162.219 60.6508 165.151C59.1906 167.677 59.7218 163.752 57.1062 167.777C56.1964 165.168 54.801 167.692 53.9555 165.676C50.53 166.527 52.3062 164.254 52.2489 163.969C52.1863 163.659 50.3663 159.938 51.4612 157.931C52.142 156.682 53.0236 158.182 53.2991 157.668C53.643 157.026 52.5554 155.651 53.4304 154.649C61.8351 152.506 55.3145 150.979 55.137 150.054C55.058 149.642 56.1734 148.321 56.1873 148.216C56.2067 148.069 54.6518 145.422 56.4498 146.247C56.4486 146.789 55.9447 147.163 56.3185 147.297C56.6457 147.414 57.2888 146.631 56.4498 146.247C56.452 145.296 56.719 144.617 56.1873 144.015C59.4641 145.122 56.1837 143.399 56.1873 143.227C56.1929 142.961 57.9884 140.506 58.0252 140.339C58.0564 140.197 57.2361 137.647 57.1062 137.582C55.0797 136.567 55.2453 138.899 54.2181 139.683C54.0811 139.787 53.2971 139.579 53.1678 139.683C51.8138 140.774 50.2235 142.087 50.8048 142.308C47.9439 139.526 48.7929 147.357 46.3412 144.934C44.8688 146.634 44.577 145.084 43.1905 144.934C41.397 150.06 38.2827 143.271 38.4645 147.034C35.2444 145.038 38.6766 148.522 35.1825 150.579C35.1408 150.995 37.3203 152.355 34.3948 153.73C34.2277 154.284 38.917 156.874 34.001 156.487C37.0375 154.136 32.297 156.643 32.8194 150.842L34.6574 150.579C33.4899 150.073 34.8386 150.554 35.1825 149.529C34.505 148.564 37.0012 144.102 37.9393 145.722C40.2005 143.156 41.6185 150.391 42.6654 142.833C43.7435 142.838 43.0689 144.352 43.4531 144.671C43.998 145.125 43.7582 142.814 45.5536 144.934C45.7732 143.461 46.2835 144.571 46.6038 144.409C49.1223 143.134 46.9623 142.181 50.8048 140.208C51.0483 140.083 51.3255 140.622 51.855 140.471L54.0868 138.37C53.9311 139.227 54.6282 138.663 54.6119 138.501C54.5898 138.282 54.0863 138.397 54.0868 138.37C54.1524 134.867 55.9353 138.056 56.9749 136.401C55.1896 131.204 58.4078 134.083 59.0754 132.988C60.1746 131.183 56.7625 131.036 61.4385 129.049C60.5283 127.651 62.0606 125.076 62.62 124.979C63.1428 124.889 65.7112 126.687 66.2958 127.08C67.148 127.167 68.5427 123.095 67.8712 127.08C68.2641 125.69 70.4251 127.936 70.7594 127.868C71.5397 127.707 70.721 125.034 74.1727 129.18C77.5743 126.811 75.9178 129.652 76.9295 129.312C77.3019 126.75 77.9246 124.18 74.829 122.748C74.4652 117.558 78.7935 117.394 73.1224 114.214C70.7639 115.098 65.0116 115.303 62.8825 114.214C60.2262 115.569 55.9761 116.143 54.7432 112.377C53.7251 113.794 51.439 118.171 48.7043 115.79C46.4434 117.354 44.8661 114.59 41.6152 114.74C40.1522 110.894 37.5993 112.325 36.6266 111.851C36.4516 111.766 35.2247 109.179 34.9199 110.932C34.7317 112.015 35.6968 111.083 35.7076 112.245C35.7087 112.357 34.9895 112.951 34.9199 114.346C34.845 115.849 36.6199 114.113 36.2327 115.659C36.2033 115.776 33.6584 116.901 35.5763 117.103C35.8541 117.132 35.9425 116.128 36.364 116.315C36.4783 116.366 37.3395 117.925 36.1014 118.153C35.9446 118.182 35.2504 117.945 34.1322 117.89C35.1365 115.934 33.8715 114.294 33.8697 114.083C33.8683 113.927 35.4194 112.859 33.8697 111.458C36.0361 109.311 34.3658 107.578 36.4953 107.257C36.5571 106.719 36.402 105.861 36.4953 105.681C38.0398 102.707 37.175 105.8 38.9897 105.025C41.8015 103.824 30.8034 103.702 32.2944 97.5418C31.8844 96.8353 29.7941 100.497 29.6687 94.3911C24.5457 90.8775 22.347 92.6762 21.9232 92.6845C21.3551 92.6957 17.8532 92.0745 17.4597 92.422C16.766 93.0346 18.4296 95.1323 15.7531 94.2599C17.9986 94.3087 16.6086 93.1246 16.8033 92.5533C16.9252 92.1955 17.4847 92.2565 17.591 91.8969L25.8616 91.6343C31.9877 94.5843 29.4529 94.5436 30.5877 95.8353C31.6596 97.0554 36.0369 96.6825 33.082 97.8045C34.2584 99.8371 32.8455 99.0714 32.8195 99.3799C32.8068 99.5304 33.7877 101.345 34.5261 101.874C34.6735 101.98 35.4021 101.768 35.5764 101.874C36.1993 102.252 38.6987 104.206 39.3835 103.318C39.6781 102.936 37.2328 102.572 39.9086 102.662C40.2286 107.144 37.5788 104.932 37.0204 105.944C37.3987 107.911 35.8586 107.879 35.7077 108.307C35.8521 111.999 38.0319 111.288 40.3024 111.851C41.2462 112.086 42.4728 112.459 42.7968 112.77C38.5047 115.374 46.5406 114.041 46.8665 114.214C47.6514 114.632 46.838 115.635 47.6541 115.79C48.135 115.881 48.6081 113.936 52.6428 114.214C56.4091 108.425 53.3495 114.158 59.4694 115.002L61.5699 113.164C61.6899 114.577 62.3007 113.41 63.9329 113.689C64.2362 113.741 64.3508 114.464 64.458 114.477C64.7837 114.518 70.1171 114.492 71.022 114.477C71.5529 114.468 73.116 112.39 75.7481 115.527C76.8761 112.919 77.9061 114.663 77.4547 110.932C78.8065 110.549 78.3767 109.345 78.7675 108.832C79.2394 108.213 82.2044 106.646 81.6556 105.419C82.7052 104 89.0985 106.222 86.1192 100.955C89.5288 99.0337 83.6519 99.9715 84.8064 97.5419C84.954 97.2313 90.7669 96.296 91.2391 96.8855C92.2391 96.0806 89.0244 95.3931 91.633 93.0784C90.0479 92.7567 85.2935 89.5678 84.6752 89.5338C81.8261 89.377 87.1637 91.5248 83.8875 90.8466C82.3737 93.6879 83.2721 90.8121 82.5747 90.584C82.2695 90.4842 80.5472 91.7665 77.0609 88.221C75.594 89.0221 73.728 89.1745 72.86 88.221C69.7672 89.7963 68.4303 86.7015 65.1144 88.0897C64.5007 90.3751 66.7046 91.2865 67.8713 92.9471C70.3334 90.5322 68.2272 93.06 68.5277 93.866C68.8187 94.6465 69.5696 93.8447 69.9718 93.9973C71.1632 94.4493 70.3638 95.9398 69.7093 96.0978C68.9723 96.2758 64.69 93.8899 68.2652 94.1286C61.4963 88.2459 65.6727 87.0614 66.1647 86.2518C66.6416 85.467 65.2597 81.0734 69.578 82.0508C68.6317 79.4124 70.3834 79.6106 70.1031 78.9001C66.2384 77.4819 65.0175 75.2223 64.7206 75.3556C64.0212 75.6696 65.5598 76.5457 64.7206 76.9309C63.2773 75.7742 62.9838 77.6356 62.095 76.4058C60.6064 78.6752 53.5969 80.8477 53.168 81.1319C51.5697 84.3451 49.7903 86.6026 53.9556 85.858C54.1989 85.8145 55.3005 84.0415 58.2879 85.9892C59.7972 97.6149 55.6721 89.9478 53.9556 91.1092C52.7166 91.9475 55.4435 92.3149 53.5618 93.6035C55.0913 95.5568 50.4717 97.4593 49.2296 94.785C49.2481 95.3491 48.4685 98.0183 47.9168 97.9357C47.7696 97.9137 45.656 96.1125 45.685 95.9665C45.8004 95.3852 47.8044 95.6746 45.9476 94.9163L47.2604 93.3409C45.0831 94.9473 46.3131 92.993 46.2101 92.8158C46.1354 92.6871 44.3897 90.5807 44.2409 90.584C43.6979 90.5963 43.7159 92.3314 43.1906 92.6845C43.0746 92.7625 40.7496 92.1531 41.2214 93.866C41.2889 94.1109 44.104 95.4851 40.9589 97.8044C42.5361 99.1704 39.7508 101.268 40.9589 102.793C40.6833 103.144 40.5107 102.682 39.9087 102.662C38.4105 101.41 39.3326 101.759 40.6963 99.6423C38.7584 94.5933 44.2642 96.4429 39.9087 94.1286C40.1134 90.5275 41.8954 91.2135 42.0092 90.9779C42.1398 90.7071 41.441 90.3009 41.8779 90.0589C42.2456 89.8551 43.7158 92.1929 43.1906 88.4835C46.8037 92.9455 47.0108 90.3038 47.3916 90.584C47.5983 90.7362 47.5572 91.594 47.5229 91.6343C47.3809 91.8006 46.4933 91.2738 46.4726 92.0281C46.4349 93.407 47.4579 91.6848 47.5229 91.6343C47.8885 91.3498 48.0873 91.1121 48.4418 90.8466C49.5813 92.5751 45.8636 94.3211 48.1793 95.8353C48.8872 91.9824 50.934 96.4104 50.5423 94.2599C54.8933 93.8915 52.7216 92.2286 52.7741 91.7656C53.0503 89.3325 62.4212 91.4717 55.2684 86.6457C48.1033 86.4117 52.1457 86.1546 50.9362 82.3134C52.8587 79.5958 64.37 77.8813 61.5699 73.7802C60.4813 74.6999 59.9141 72.7168 59.2068 72.9926C58.9812 73.0806 57.4568 78.2962 58.2879 73.9115C54.5601 73.4681 56.3547 72.8127 56.7125 70.4983C56.8176 69.8182 56.1049 69.2636 56.1874 68.9229C56.3355 68.3112 58.5984 68.5342 56.3187 66.166C54.1486 68.2307 55.1513 62.9371 51.0675 66.6911L47.3916 66.4286C46.0652 64.9664 44.8824 61.3414 47.2604 61.5712C46.353 60.6154 47.2849 57.4785 45.5537 59.0769C43.6192 56.6896 39.0152 63.6957 40.8277 53.8257C35.2883 55.8869 34.6781 51.3771 32.557 53.3006C33.5067 52.1195 33.9557 52.5362 34.9201 51.9878C35.1747 53.165 36.089 53.6275 37.1518 53.0381C37.9787 55.1314 39.2344 53.3429 40.04 53.3006C41.9784 53.199 47.5316 53.9121 47.9168 53.8258C59.2761 44.4303 53.9461 48.4034 53.0367 46.8679C52.9014 46.6396 53.8822 46.2853 50.8049 42.5357C53.2859 43.425 53.7206 46.3567 53.9556 46.4741C55.0253 47.0083 54.7995 44.893 56.3187 48.5746C59.1972 46.0244 59.3647 48.4956 61.0447 47.2618C62.3734 49.588 60.1515 45.102 63.1452 43.586C63.2937 43.5104 65.9306 43.1481 66.4274 43.0604Z" fill="#FAF5EF"/>
<g id="Group_5">
<path id="Vector_54" d="M91.5023 97.4098C94.3592 96.4593 99.4591 100.689 99.5104 103.843C98.755 103.391 95.0806 107.219 95.0469 107.518C94.9831 108.085 96.6995 110.371 96.6222 110.932C94.5162 112.627 95.4045 116.631 91.7649 115.789C92.4877 115.791 91.1028 117.329 90.9772 117.364C90.7572 117.426 88.6152 115.159 88.2203 119.334L87.8265 119.727C86.1246 117.055 84.5604 123.251 83.7568 125.372C85.2161 126.209 86.068 128.848 87.8265 127.079C87.6589 130.824 86.4083 129.074 86.2511 129.18C85.8663 129.439 86.7947 130.338 84.8071 130.361C84.9337 136.564 83.5854 135.264 81.2625 139.682C78.4955 132.43 77.3944 134.793 76.7989 134.693C75.4457 132.429 74.3052 135.649 73.517 134.825C72.0629 133.304 75.6438 132.1 74.8297 130.361C82.7151 129.179 75.7729 127.88 78.5056 125.11C74.0568 121.393 76.2039 122.129 76.1425 120.909C76.1223 120.507 74.4812 121.92 76.9302 116.708C80.9541 116.335 75.9036 111.233 79.0307 110.932C78.3638 108.339 82.598 108.105 82.3127 105.549C85.4391 105.175 85.5639 106.765 85.4634 105.024C85.8682 105.101 86.6876 104.855 86.7762 104.762C89.4038 101.999 83.8147 102.252 89.7956 99.1165C88.4358 97.3315 90.0844 98.9964 90.1894 98.9852C90.2915 98.9744 91.4044 97.4424 91.5023 97.4098Z" fill="#F4A31D"/>
<path id="Vector_55" d="M44.6352 54.6125C44.459 57.9465 41.3726 60.3486 40.9593 57.1069C40.285 51.8169 43.7495 54.4671 44.6352 54.6125Z" fill="#F4A31D"/>
<path id="Vector_56" d="M59.2074 50.4111C60.8508 50.3646 61.2948 51.6115 62.4894 52.6429C61.1201 52.955 59.7804 54.2123 58.6823 53.2993C57.1517 56.766 57.9043 53.8874 59.2074 50.4111Z" fill="#F4A31D"/>
<path id="Vector_57" d="M85.4633 97.9346C90.8457 97.4091 89.0451 100.257 85.9884 98.7223C85.7915 98.6234 85.2003 98.0175 85.4633 97.9346Z" fill="#F4A31D"/>
<path id="Vector_58" d="M56.5817 64.5896C56.8908 64.3379 57.7394 64.7695 58.0258 65.246C59.8509 68.2823 55.0173 65.8639 56.5817 64.5896Z" fill="#F4A31D"/>
<path id="Vector_59" d="M85.2008 124.716C85.3335 124.707 86.7838 125.463 86.9074 125.635C88.8016 128.262 83.2653 124.842 85.2008 124.716Z" fill="#F4A31D"/>
<path id="Vector_60" d="M34.0015 151.235C34.6693 151.023 36.1219 152.884 34.5267 153.073C33.229 153.226 33.4333 151.415 34.0015 151.235Z" fill="#F4A31D"/>
<path id="Vector_61" d="M49.7554 114.738C50.0904 114.544 51.7256 114.758 51.7246 115.395C51.7223 116.838 48.5404 115.442 49.7554 114.738Z" fill="#F4A31D"/>
<path id="Vector_62" d="M56.8442 90.5839C57.3276 90.612 57.4049 90.5382 57.7632 90.9777C59.3049 92.8691 52.8717 90.3531 56.8442 90.5839Z" fill="#F4A31D"/>
<path id="Vector_63" d="M60.7829 48.0487C62.5723 48.6316 59.0655 51.092 59.864 48.7051C59.9058 48.5801 60.7292 48.0312 60.7829 48.0487Z" fill="#F4A31D"/>
<path id="Vector_64" d="M87.8263 90.3205L90.5832 91.7646C90.263 92.5612 88.1487 90.9415 87.8263 90.3205Z" fill="#F4A31D"/>
<path id="Vector_65" d="M55.006 85.595C57.3218 85.3415 57.3729 86.9734 55.7937 86.6452C55.7294 86.6318 54.771 85.7663 55.006 85.595Z" fill="#F4A31D"/>
<path id="Vector_66" d="M106.206 107.65C106.877 107.378 106.986 109.221 106.468 109.226C105.613 109.233 105.592 107.899 106.206 107.65Z" fill="#F4A31D"/>
<path id="Vector_67" d="M61.0452 53.5624C62.2817 53.2918 63.0844 54.1266 63.0144 54.2188C62.7446 54.5739 60.5038 54.2126 61.0452 53.5624Z" fill="#F4A31D"/>
<path id="Vector_68" d="M45.5543 114.738C45.8033 114.567 46.7877 114.742 46.7358 115.395C46.6672 116.257 44.72 115.311 45.5543 114.738Z" fill="#F4A31D"/>
<path id="Vector_69" d="M85.4635 131.018C86.1581 130.848 86.3785 132.171 85.7261 132.331C85.0315 132.501 84.8111 131.178 85.4635 131.018Z" fill="#F4A31D"/>
<path id="Vector_70" d="M77.8491 114.476C79.2561 115.393 76.8811 116.752 76.9302 115.658C76.9335 115.583 77.7864 114.435 77.8491 114.476Z" fill="#F4A31D"/>
<path id="Vector_71" d="M117.758 111.063C118.407 111.128 118.391 112.702 117.758 112.639C117.11 112.574 117.126 111 117.758 111.063Z" fill="#F4A31D"/>
<path id="Vector_72" d="M85.2007 122.878C85.9163 122.423 86.2669 124.223 85.7258 124.19C84.9269 124.142 84.896 123.071 85.2007 122.878Z" fill="#F4A31D"/>
<path id="Vector_73" d="M51.3302 94.5216C51.7249 94.2692 52.5217 95.1111 52.5118 95.178C52.3623 96.1876 50.4557 95.0806 51.3302 94.5216Z" fill="#F4A31D"/>
<path id="Vector_74" d="M46.8671 63.0148C47.209 63.5292 47.7505 63.5629 47.786 63.6712C48.2097 64.9638 46.9254 64.9608 46.8671 63.0148Z" fill="#F4A31D"/>
<path id="Vector_75" d="M66.5593 57.2379C67.4772 57.862 66.2244 59.2745 65.6403 58.4194L66.5593 57.2379Z" fill="#F4A31D"/>
<path id="Vector_76" d="M66.8215 75.6173C66.8799 75.6116 67.792 76.4159 67.3466 76.6676C66.6107 77.0835 66.0823 75.69 66.8215 75.6173Z" fill="#F4A31D"/>
<path id="Vector_77" d="M57.3695 70.6293C58.4007 70.7655 56.9306 71.9814 56.8444 71.9421C56.3105 71.6986 57.2108 70.6083 57.3695 70.6293Z" fill="#F4A31D"/>
<path id="Vector_78" d="M47.5232 91.6328C47.4583 91.6833 46.4353 93.4055 46.473 92.0266C46.4936 91.2723 47.3812 91.7991 47.5232 91.6328Z" fill="#F4A31D"/>
<path id="Vector_79" d="M73.9108 129.704C74.86 129.518 74.3069 130.772 73.9108 130.754C73.5171 130.737 73.3741 129.809 73.9108 129.704Z" fill="#F4A31D"/>
<path id="Vector_80" d="M88.3514 128.392C88.6865 128.201 89.5818 128.581 89.5329 128.786C89.4001 129.342 87.47 128.893 88.3514 128.392Z" fill="#F4A31D"/>
<path id="Vector_81" d="M50.0176 52.2498C50.3496 52.2371 50.474 52.2833 50.4115 52.6436C50.135 54.2383 48.5911 52.3043 50.0176 52.2498Z" fill="#F4A31D"/>
<path id="Vector_82" d="M30.5882 96.3589C31.1558 96.0441 31.4617 97.4373 30.8507 97.4091C30.5977 97.3974 30.219 96.5636 30.5882 96.3589Z" fill="#F4A31D"/>
<path id="Vector_83" d="M77.5866 128.129C78.0318 127.826 78.3735 129.257 77.8491 129.179C77.2285 129.088 77.3628 128.281 77.5866 128.129Z" fill="#F4A31D"/>
<path id="Vector_84" d="M35.84 148.084C36.817 147.897 36.5338 148.754 36.1025 148.872C35.5637 149.019 35.2752 148.193 35.84 148.084Z" fill="#F4A31D"/>
<path id="Vector_85" d="M94.1283 130.755C94.559 130.586 95.1168 131.7 94.916 131.806C94.6053 131.969 93.6557 130.942 94.1283 130.755Z" fill="#F4A31D"/>
<path id="Vector_86" d="M58.1572 164.624C58.7681 164.596 58.4622 165.989 57.8946 165.675C57.5254 165.47 57.9042 164.636 58.1572 164.624Z" fill="#F4A31D"/>
<path id="Vector_87" d="M70.2347 87.1711C71.0117 87.1341 70.5123 88.2218 70.2347 88.2214C69.7997 88.2207 69.7584 87.1939 70.2347 87.1711Z" fill="#F4A31D"/>
<path id="Vector_88" d="M56.0567 56.4501C56.4273 56.302 56.8912 57.3767 56.5818 57.5004C56.2111 57.6485 55.7473 56.5738 56.0567 56.4501Z" fill="#F4A31D"/>
<path id="Vector_89" d="M91.5023 94.2596C91.5562 94.2643 92.0734 95.1648 91.7648 95.3099C91.1417 95.6029 90.936 94.2106 91.5023 94.2596Z" fill="#F4A31D"/>
<path id="Vector_90" d="M57.3693 86.3816C58.3482 86.339 57.447 87.7787 56.9755 87.038C56.8492 86.8398 57.2912 86.385 57.3693 86.3816Z" fill="#F4A31D"/>
<path id="Vector_91" d="M61.8329 48.3118C62.3892 48.0992 62.5472 49.4632 62.0954 49.362C62.0426 49.3502 61.5144 48.4335 61.8329 48.3118Z" fill="#F4A31D"/>
<path id="Vector_92" d="M44.6351 54.6125C44.6904 54.6216 44.8601 53.7231 45.6854 54.2187L44.6351 54.6125Z" fill="#F4A31D"/>
<path id="Vector_93" d="M56.4503 146.245C57.2893 146.63 56.6462 147.413 56.319 147.295C55.9452 147.161 56.449 146.788 56.4503 146.245Z" fill="#F4A31D"/>
<path id="Vector_94" d="M42.4034 91.3707C43.3808 91.2508 42.4621 92.8146 42.0095 92.0271C41.9905 91.9939 42.3654 91.3754 42.4034 91.3707Z" fill="#F4A31D"/>
<path id="Vector_95" d="M67.0844 83.7569C67.752 83.4168 67.8405 84.9513 67.347 84.8072C67.2811 84.788 66.981 83.8096 67.0844 83.7569Z" fill="#F4A31D"/>
<path id="Vector_96" d="M75.4863 134.168C76.1163 133.809 76.0707 135.923 75.355 134.825C75.2917 134.727 75.3126 134.267 75.4863 134.168Z" fill="#F4A31D"/>
<path id="Vector_97" d="M52.3809 161.212C52.6494 161.295 52.604 162.189 52.1183 162C51.7197 161.844 52.2898 161.184 52.3809 161.212Z" fill="#F4A31D"/>
<path id="Vector_98" d="M62.6208 125.766C63.2412 125.842 62.7857 126.943 62.3582 126.291C62.1855 126.028 62.5916 125.763 62.6208 125.766Z" fill="#F4A31D"/>
<path id="Vector_99" d="M66.0336 86.908C66.2527 86.7748 66.7059 87.267 66.69 87.3018C66.4914 87.7381 65.4469 87.2648 66.0336 86.908Z" fill="#F4A31D"/>
<path id="Vector_100" d="M89.4019 96.8849C89.5045 96.8356 90.0626 97.5932 89.6645 97.6725C89.1334 97.7783 89.1474 97.007 89.4019 96.8849Z" fill="#F4A31D"/>
<path id="Vector_101" d="M113.557 109.751C113.956 109.606 114.135 110.137 113.82 110.276C113.435 110.445 113.241 109.865 113.557 109.751Z" fill="#F4A31D"/>
<path id="Vector_102" d="M69.1847 94.7845C69.8606 94.4262 69.9426 95.2533 69.4473 95.3097C69.4181 95.313 68.917 94.9265 69.1847 94.7845Z" fill="#F4A31D"/>
<path id="Vector_103" d="M66.5592 85.8562C66.9578 85.7118 67.1367 86.243 66.8218 86.3813C66.4373 86.5502 66.243 85.9707 66.5592 85.8562Z" fill="#F4A31D"/>
<path id="Vector_104" d="M57.107 165.938C57.5056 165.794 57.6844 166.325 57.3695 166.463C56.9851 166.632 56.7907 166.053 57.107 165.938Z" fill="#F4A31D"/>
<path id="Vector_105" d="M86.5136 119.99C86.9122 119.845 87.0911 120.376 86.7762 120.515C86.3918 120.684 86.1974 120.104 86.5136 119.99Z" fill="#F4A31D"/>
<path id="Vector_106" d="M73.123 131.805C73.5216 131.661 73.7005 132.192 73.3856 132.33C73.0011 132.499 72.8068 131.92 73.123 131.805Z" fill="#F4A31D"/>
<path id="Vector_107" d="M112.77 109.225L113.164 109.356L112.77 109.75L112.639 109.619L112.77 109.225Z" fill="#F4A31D"/>
<path id="Vector_108" d="M46.8671 95.8337L47.1296 96.0962V96.3588H46.8671V95.8337Z" fill="#F4A31D"/>
<path id="Vector_109" d="M85.7256 121.828L85.9882 122.091V122.353H85.7256V121.828Z" fill="#F4A31D"/>
<path id="Vector_110" d="M41.0906 96.6217L41.4844 96.753L41.0906 97.1469L40.9593 97.0156L41.0906 96.6217Z" fill="#F4A31D"/>
<path id="Vector_111" d="M75.486 129.179L75.8799 129.31L75.7486 129.704L75.6173 129.573L75.486 129.179Z" fill="#F4A31D"/>
<path id="Vector_112" d="M73.6483 131.018L74.0422 131.149L73.9109 131.543L73.7796 131.412L73.6483 131.018Z" fill="#F4A31D"/>
<path id="Vector_113" d="M54.0876 138.37C54.0871 138.397 54.5906 138.282 54.6127 138.501C54.629 138.662 53.9319 139.227 54.0876 138.37Z" fill="#F4A31D"/>
</g>
</g>
<g id="Group_6">
<path id="Vector_114" d="M34.1329 117.889C33.5287 117.859 33.3519 117.412 33.0827 117.758C32.8731 118.157 35.9994 119.467 33.7391 121.04C33.4682 121.228 32.8075 120.4 32.4263 120.515C29.5592 121.374 29.8365 122.388 29.932 124.716C29.0592 124.662 28.5483 124.979 28.2253 123.928C23.3384 125.234 27.4804 121.997 27.5689 121.696C28.0674 120.001 26.3222 119.342 28.3566 117.233C28.1738 116.13 25.4134 119.399 27.3063 116.707C23.0452 113.867 31.0254 112.913 25.2058 112.507C27.8958 109.325 23.0535 112.771 26.5186 108.831C24.2347 106.042 22.5048 107.455 23.893 109.881C21.4479 111.711 22.456 117.22 22.8427 112.769C24.1642 112.049 23.187 113.663 23.4992 113.688C23.6322 113.699 24.2495 112.317 24.4181 113.294C24.6059 114.383 17.9261 118.397 16.1475 118.414C15.9978 118.416 14.0301 118.003 13.2593 117.627C12.8538 115.981 1.32616 107.496 4.0697 106.336C5.5479 105.711 4.9147 109.849 10.765 106.336C12.4359 108.031 16.316 100.949 14.3096 101.61L10.765 103.973C10.4606 104.003 7.47078 105.329 4.85737 103.973C4.25343 103.66 1.2105 100.102 0 99.3786C4.95255 97.8611 4.01732 90.8709 4.85737 94.5212C5.70678 91.8662 9.25641 95.0488 11.1588 94.5212C11.6911 94.3736 12.8994 91.0241 14.047 93.9961C14.9491 92.8845 14.6935 93.9131 15.7536 94.2586C18.4301 95.131 16.7665 93.0333 17.4602 92.4207C17.8537 92.0732 21.3556 92.6944 21.9237 92.6833C22.3475 92.6749 24.5463 90.8763 29.6693 94.3899C29.7946 100.496 31.8848 96.834 32.2949 97.5406C30.804 103.7 41.802 103.822 38.9902 105.024C37.1755 105.799 38.0403 102.705 36.4958 105.68C36.4025 105.86 36.5576 106.718 36.4958 107.255C34.3663 107.577 36.0366 109.31 33.8702 111.456C35.42 112.857 33.8688 113.926 33.8702 114.082C33.8722 114.293 35.1372 115.933 34.1329 117.889Z" fill="#F4A31D"/>
<path id="Vector_115" d="M10.7646 106.337C10.8063 106.312 10.6471 105.986 10.8959 105.812C10.9446 105.778 11.5754 106.457 12.0774 105.943C12.2797 105.737 11.7595 105.492 11.8149 105.287C11.8932 104.996 12.1837 104.883 12.0774 104.499C11.9035 103.872 11.5483 103.899 10.7646 103.974L14.3092 101.611C16.3156 100.95 12.4355 108.031 10.7646 106.337Z" fill="#FAF5EF"/>
<path id="Vector_116" d="M26.6499 114.739L26.9124 115.002V115.264H26.6499V114.739Z" fill="#FAF5EF"/>
</g>
<g id="Group_7">
<path id="Vector_117" d="M75.6174 167.251C76.4309 167.054 76.1016 168.144 75.88 168.563C74.8627 170.487 74.2581 168.972 73.6482 168.826C72.3493 168.516 73.5429 170.411 71.5477 169.614C71.0919 171.595 69.5281 171.221 69.1847 171.452C68.9479 171.61 68.2088 174.33 64.4586 172.502C64.9098 174.04 60.3313 171.739 59.8638 173.421C58.908 176.859 65.5509 173.886 60.389 176.309C61.0458 183.379 58.5617 179.548 57.3695 180.116C57.1267 180.232 56.577 183.128 53.1686 180.904C50.4015 182.697 53.7117 182.98 53.825 183.135C54.3047 183.792 50.7628 184.389 57.7634 188.124C56.7807 190.648 57.0029 191.84 56.0568 189.831C54.6616 191.015 58.1004 192.008 59.0762 191.8C59.2529 192.057 57.2508 195.815 58.5511 197.839C56.9728 198.586 57.0462 201.752 57.5009 202.959H57.2383C56.2334 199.36 57.9002 196.46 58.026 192.85C57.3811 192.438 54.9457 191.094 54.8753 190.487C54.7992 189.831 56.1728 188.076 56.8445 188.78C57.2851 186.635 52.0216 189.012 51.7246 186.286C51.5309 184.508 54.7965 189.169 54.8753 186.811C54.8807 186.651 52.3205 185.292 52.2497 184.973C52.1398 184.479 53.1869 184.112 53.0373 183.66C52.72 182.703 50.3209 184.431 52.1184 180.378C47.6449 183.4 50.9718 179.667 44.5041 177.753C42.8386 175.902 39.9786 173.403 41.2221 173.814C47.9419 180.652 49.2074 178.413 50.8056 178.803C58.0379 184.402 54.8592 177.815 59.7326 180.116C60.2289 178.086 58.5654 174.507 59.6013 172.633C59.8908 172.109 62.7215 171.269 63.1459 171.451C63.7803 171.724 62.5228 172.114 62.8833 172.239C63.0644 172.302 65.9046 171.641 66.1653 170.532C66.7978 167.842 63.4381 170.197 62.2269 165.413C61.5044 162.558 61.9 165.309 65.6402 167.382C63.5159 169.337 66.6287 166.879 66.953 167.382C65.4127 176.279 67.524 168.08 70.4976 170.139C71.1035 168.817 73.5517 167.679 74.436 168.826C74.5683 168.809 74.9387 167.982 75.6174 167.251Z" fill="#FAF5EF"/>
<g id="Group_8">
<path id="Vector_118" d="M49.4925 179.328C50.0242 179.016 51.7811 179.813 51.4617 180.247C50.7425 181.226 48.4093 179.965 49.4925 179.328Z" fill="#F4A31D"/>
<path id="Vector_119" d="M68.1343 171.189C68.2874 171.37 68.6334 171.534 68.5281 171.846C68.3675 172.321 65.523 173.209 68.1343 171.189Z" fill="#F4A31D"/>
<path id="Vector_120" d="M65.7711 171.715C66.2644 171.769 66.307 172.831 65.5085 172.765C64.7868 172.706 65.574 171.693 65.7711 171.715Z" fill="#F4A31D"/>
<path id="Vector_121" d="M69.1845 170.139C69.8029 170.036 69.9618 170.841 69.4471 170.927C68.8287 171.029 68.6698 170.224 69.1845 170.139Z" fill="#F4A31D"/>
<path id="Vector_122" d="M63.9332 166.725C65.0859 166.792 63.6076 167.728 63.2768 167.119C63.2586 167.086 63.8951 166.723 63.9332 166.725Z" fill="#F4A31D"/>
</g>
</g>
</g>
<ellipse id="Ellipse 18" cx="65.3929" cy="104.229" rx="37.9792" ry="37.9792" fill="#F4A31D"/>
</g>
</svg>
