<svg preserveAspectRatio="none" width="100%" height="100%" overflow="visible" style="display: block;" viewBox="0 0 22.3022 22.3022" fill="none" xmlns="http://www.w3.org/2000/svg">
<g id="Group">
<path id="Vector" d="M21.203 6.35564L17.2776 10.2807C17.318 10.5658 17.3461 10.8549 17.3461 11.151C17.3461 14.5672 14.5672 17.3461 11.1511 17.3461C7.73497 17.3461 4.95606 14.5672 4.95606 11.151C4.95606 7.73489 7.73489 4.95599 11.1511 4.95599C11.4472 4.95599 11.7362 4.98404 12.0212 5.02441L15.9465 1.09915C14.4915 0.402107 12.8693 0 11.1511 0C5.00245 0 0 5.00245 0 11.1511C0 17.2998 5.00245 22.3022 11.1511 22.3022C17.2998 22.3022 22.3022 17.2998 22.3022 11.1511C22.3021 9.43283 21.9002 7.81067 21.203 6.35564Z" fill="#F4A31D"/>
</g>
</svg>
