<svg preserveAspectRatio="none" width="100%" height="100%" overflow="visible" style="display: block;" viewBox="0 0 38.2353 38.2276" fill="none" xmlns="http://www.w3.org/2000/svg">
<g id="layer1">
<path id="path825" d="M16.5414 0C7.42641 0 0 7.4165 0 16.5315C-5.08662e-08 25.6466 7.42641 33.0605 16.5414 33.0605C20.641 33.0605 24.3888 31.5538 27.281 29.0742L28.724 30.5172L27.8249 31.4163C27.5865 31.6548 27.4526 31.9782 27.4526 32.3154C27.4526 32.6526 27.5865 32.976 27.8249 33.2145L31.6374 37.0295C32.4715 37.8641 33.5445 38.2693 34.5408 38.2242C35.5372 38.1809 36.426 37.7331 37.0817 37.0792C37.7374 36.4253 38.1847 35.5396 38.2316 34.5433C38.2786 33.547 37.8735 32.472 37.0394 31.6374L33.222 27.8174C33.1019 27.6973 32.9589 27.6024 32.8015 27.5384C32.644 27.4744 32.4754 27.4426 32.3055 27.4449C31.9743 27.4495 31.658 27.5832 31.4238 27.8174L30.5222 28.719L29.0792 27.276C31.5621 24.3837 33.073 20.6336 33.073 16.5315C33.073 7.4165 25.6565 0 16.5414 0ZM19.0748 10.1658H24.1639C24.3318 10.1651 24.498 10.1977 24.6532 10.2617C24.8084 10.3256 24.9494 10.4196 25.0681 10.5383C25.1867 10.6569 25.2807 10.7979 25.3447 10.9531C25.4086 11.1083 25.4412 11.2746 25.4405 11.4424V16.5315C25.4443 16.7009 25.4142 16.8693 25.352 17.0269C25.2898 17.1844 25.1967 17.328 25.0782 17.4491C24.9598 17.5702 24.8183 17.6664 24.6622 17.7321C24.506 17.7978 24.3383 17.8317 24.1689 17.8317C23.9995 17.8317 23.8318 17.7978 23.6756 17.7321C23.5195 17.6664 23.378 17.5702 23.2596 17.4491C23.1411 17.328 23.048 17.1844 22.9858 17.0269C22.9236 16.8693 22.8935 16.7009 22.8972 16.5315V14.5098L17.4331 19.9665C16.9371 20.4594 16.1359 20.4594 15.6399 19.9665L13.9981 18.3223L9.81062 22.5098C8.61618 23.7903 6.73318 21.9177 8.00745 20.7165L13.0966 15.6299C13.5926 15.137 14.3938 15.137 14.8898 15.6299L16.5315 17.2816L21.104 12.7091H19.0748C18.9054 12.7129 18.737 12.6828 18.5794 12.6206C18.4217 12.5584 18.2782 12.4654 18.157 12.3469C18.0359 12.2284 17.9396 12.087 17.8739 11.9308C17.8082 11.7746 17.7743 11.6069 17.7743 11.4374C17.7743 11.268 17.8082 11.1003 17.8739 10.9441C17.9396 10.7879 18.0359 10.6464 18.157 10.528C18.2782 10.4095 18.4217 10.3165 18.5794 10.2543C18.737 10.1921 18.9054 10.162 19.0748 10.1658Z" fill="#F4A31D"/>
</g>
</svg>
