<svg preserveAspectRatio="none" width="100%" height="100%" overflow="visible" style="display: block;" viewBox="0 0 39.4975 39.5" fill="none" xmlns="http://www.w3.org/2000/svg">
<g id="Group 10">
<path id="Vector" d="M12.6603 21.7756C12.6603 14.5238 18.5751 8.60897 25.8269 8.60897C27.8121 8.60897 29.6959 9.05461 31.3974 9.86487V5.57051C31.3974 2.49154 28.9059 0 25.8269 0H5.57051C2.49154 0 0 2.49154 0 5.57051V33.9295C0 37.0085 2.49154 39.5 5.57051 39.5H25.8269C28.9059 39.5 31.3974 37.0085 31.3974 33.9295V33.6864C29.6959 34.4967 27.8121 34.9423 25.8269 34.9423C18.5751 34.9423 12.6603 29.0274 12.6603 21.7756ZM7.59615 6.07692H17.7244C18.5549 6.07692 19.2436 6.76564 19.2436 7.59615C19.2436 8.42667 18.5549 9.11538 17.7244 9.11538H7.59615C6.76564 9.11538 6.07692 8.42667 6.07692 7.59615C6.07692 6.76564 6.76564 6.07692 7.59615 6.07692ZM9.6218 21.2692H7.59615C6.76564 21.2692 6.07692 20.5805 6.07692 19.75C6.07692 18.9195 6.76564 18.2308 7.59615 18.2308H9.6218C10.4523 18.2308 11.141 18.9195 11.141 19.75C11.141 20.5805 10.4523 21.2692 9.6218 21.2692ZM7.59615 15.1923C6.76564 15.1923 6.07692 14.5036 6.07692 13.6731C6.07692 12.8426 6.76564 12.1538 7.59615 12.1538H11.6474C12.4779 12.1538 13.1667 12.8426 13.1667 13.6731C13.1667 14.5036 12.4779 15.1923 11.6474 15.1923H7.59615ZM39.0544 30.8303L34.7316 26.5075C35.4872 25.0896 35.9551 23.4954 35.9551 21.7777C35.9551 16.1849 31.4197 11.6495 25.8269 11.6495C20.2341 11.6495 15.6987 16.1849 15.6987 21.7777C15.6987 27.3705 20.2341 31.9059 25.8269 31.9059C28.5919 31.9059 31.0936 30.7918 32.9207 28.995L36.9052 32.9795C37.2009 33.2752 37.5898 33.4251 37.9787 33.4251C38.3677 33.4251 38.7566 33.2772 39.0523 32.9795C39.6458 32.3859 39.6458 31.4238 39.0523 30.8303H39.0544ZM30.7918 20.9634L25.3894 25.0329C25.118 25.2375 24.7959 25.3387 24.4738 25.3387C24.1497 25.3387 23.8276 25.2354 23.5562 25.0308L20.856 22.9849C20.1855 22.4785 20.0538 21.5265 20.5603 20.858C21.0687 20.1896 22.0228 20.0579 22.6892 20.5623L24.4758 21.9134L28.9606 18.5346C29.6311 18.0302 30.5831 18.1639 31.0895 18.8324C31.5939 19.5029 31.4602 20.4549 30.7918 20.9613V20.9634Z" fill="#F4A31D"/>
</g>
</svg>
