<svg preserveAspectRatio="none" width="100%" height="100%" overflow="visible" style="display: block;" viewBox="0 0 66.3717 12.9389" fill="none" xmlns="http://www.w3.org/2000/svg">
<g id="Group 300">
<path id="Vector" d="M6.78556 0.000244141L8.38725 4.94176H13.57L9.37633 7.99622L10.978 12.9389L6.78556 9.88445L2.59194 12.9389L4.19363 7.99622L0 4.94176H5.18387L6.78556 0.000244141Z" fill="white"/>
<path id="Vector_2" d="M21.6813 1.72159e-05L23.283 4.94154H28.4669L24.2733 7.99599L25.875 12.9387L21.6813 9.88423L17.4877 12.9387L19.0894 7.99599L14.897 4.94154H20.0797L21.6813 1.72159e-05Z" fill="white"/>
<path id="Vector_3" d="M36.5782 1.72159e-05L38.1799 4.94154H43.3626L39.1702 7.99599L40.7718 12.9387L36.5782 9.88423L32.3846 12.9387L33.9863 7.99599L29.7927 4.94154H34.9765L36.5782 1.72159e-05Z" fill="white"/>
<path id="Vector_4" d="M51.474 1.72159e-05L53.0769 4.94154H58.2596L54.0659 7.99599L55.6676 12.9387L51.474 9.88423L47.2815 12.9387L48.8832 7.99599L44.6896 4.94154H49.8723L51.474 1.72159e-05Z" fill="white"/>
<path id="Subtract" d="M66.3717 0.0029469V9.88381H66.3707L62.1774 12.9385L63.7789 7.99611L59.5866 4.94142H64.7692L66.3707 1.72159e-05L66.3717 0.0029469Z" fill="white"/>
</g>
</svg>
