<svg preserveAspectRatio="none" width="100%" height="100%" overflow="visible" style="display: block;" viewBox="0 0 40.207 29.2019" fill="none" xmlns="http://www.w3.org/2000/svg">
<g id="Group">
<path id="Vector" d="M26.2834 23.3217C24.4473 22.1148 22.7462 20.1738 22.3125 20.9932C21.6762 22.193 26.3598 23.2097 24.5308 25.7088C24.1486 26.2296 23.1977 26.9193 22.4316 26.4393C20.9972 25.5435 20.2827 24.4397 19.5379 24.6565C19.3708 24.7045 19.2748 25.3284 19.4153 25.4493L21.2194 27.0063C21.5873 27.3245 21.1607 28.311 20.8692 28.6203C20.5777 28.9296 19.7192 29.4059 19.3139 29.1073L17.5667 27.8222C18.1426 26.9068 18.1639 26.0892 17.78 25.1756C17.4725 24.4415 16.5429 23.8478 15.8088 23.5012C15.8319 22.4756 15.743 21.4536 15.0178 20.6626C14.4064 19.996 13.507 19.5837 12.3659 19.5748C12.373 17.6125 10.8728 16.1443 8.8998 16.2563C8.94068 14.909 8.25992 13.8549 7.2521 13.2915C6.19451 12.7013 4.96806 12.8062 4.0029 13.6203L3.28125 12.7458L11.1643 2.49161C14.7494 2.71379 18.7327 1.27227 21.7402 2.39385L15.5937 4.60501C14.9681 4.83075 13.9958 4.73299 13.4448 5.10448C12.5667 5.69459 12.4458 6.82151 12.94 7.73512C13.6367 9.022 15.1654 9.87874 16.7046 9.69921L21.2087 9.17309C21.8095 9.10376 22.7231 9.60501 23.2404 10.0192L32.604 17.5378C33.2617 18.0657 32.908 19.2655 32.5276 19.7934C32.1863 20.2662 31.1376 21.0305 30.4959 20.5293L26.1145 17.1041C25.951 16.9761 25.5582 16.9406 25.4017 17.0188C25.2133 17.113 25.176 17.728 25.3484 17.8684L28.3666 20.3462C29.0615 20.9168 28.7683 21.9904 28.3434 22.5947C27.988 23.0995 27.0068 23.7963 26.2851 23.3217H26.2834Z" fill="#F4A31D"/>
<path id="Vector_2" d="M16.7683 8.59005C15.0974 8.78557 13.5102 7.47203 13.7412 6.402C13.8941 5.69457 15.3676 5.88476 16.0715 5.62703L21.6972 3.56339C24.1518 3.09237 26.7594 3.42653 29.0807 2.35828L36.9798 12.8631C35.7711 14.3117 34.2247 15.2875 32.4579 15.9932L23.7075 9.01131C23.0765 8.50651 21.9424 7.98394 21.1781 8.07281L16.7683 8.58828V8.59005Z" fill="#F4A31D"/>
<path id="Vector_3" d="M2.43495 12.0597L0.808576 10.7497C-0.140588 9.98537 -0.256123 8.62917 0.472636 7.59291C2.09724 5.27866 3.8036 3.05505 5.61305 0.89366C6.41113 -0.0590587 7.70335 -0.291906 8.63118 0.427965L10.3464 1.75928L2.43495 12.0597Z" fill="#F4A31D"/>
<path id="Vector_4" d="M39.5139 10.6661L37.7614 12.097L29.969 1.7344C30.5662 1.2136 31.1919 0.73191 31.9011 0.28399C32.7454 -0.249249 33.9185 -0.00929142 34.6064 0.817228C36.4123 2.98928 38.0795 5.24133 39.6917 7.57691C40.3565 8.54029 40.4595 9.89294 39.5139 10.6644V10.6661Z" fill="#F4A31D"/>
<path id="Vector_5" d="M12.329 25.7603C11.6003 26.3327 10.6316 25.787 10.1908 25.2982C9.74817 24.8094 9.32513 23.8762 9.84593 23.2132C10.5036 22.3743 11.2555 21.5069 12.082 20.8368C12.6916 20.3409 13.7386 20.9292 14.1296 21.3398C14.6273 21.8606 15.0361 22.7724 14.5242 23.4656C13.9376 24.2602 13.152 25.1133 12.329 25.7621V25.7603Z" fill="#F4A31D"/>
<path id="Vector_6" d="M5.55303 19.0113C4.90426 19.6121 3.85556 19.1801 3.34009 18.6647C2.87795 18.2025 2.38204 17.2178 2.94905 16.4855C3.57294 15.6821 4.3248 14.8893 5.09622 14.1784C5.66679 13.6522 6.70482 14.1197 7.17763 14.5854C7.65043 15.0511 8.15523 16.0376 7.62377 16.7397C7.03899 17.5129 6.32267 18.2967 5.55303 19.0095V19.0113Z" fill="#F4A31D"/>
<path id="Vector_7" d="M8.93761 22.5111C8.16797 22.7244 7.39655 22.5982 6.82421 22.065C6.34074 21.6135 5.87682 20.611 6.37273 19.9053C6.96996 19.0557 7.77693 18.1741 8.59811 17.5555C9.28777 17.0347 10.2618 17.5502 10.7026 18.0195C11.1683 18.5136 11.5789 19.5267 11.0581 20.156C10.372 20.9843 9.68059 21.7077 8.93761 22.5111Z" fill="#F4A31D"/>
<path id="Vector_8" d="M15.5293 28.3181C15.0992 28.6949 14.2229 28.3909 13.8461 28.071C13.5315 27.8026 13.1013 27.0774 13.192 26.6259L15.0423 24.5907C16.139 24.6352 17.257 25.627 16.8802 26.873C16.5674 27.3102 16.0466 27.8666 15.5293 28.3181Z" fill="#F4A31D"/>
</g>
</svg>
