<svg preserveAspectRatio="none" width="100%" height="100%" overflow="visible" style="display: block;" viewBox="0 0 29.3349 29.3336" fill="none" xmlns="http://www.w3.org/2000/svg">
<g id="Group 5">
<path id="Vector" d="M13.0773 19.5595C13.0637 19.4155 13.0415 19.2723 13.0108 19.1306C12.9998 19.0782 12.9852 19.0306 12.9721 18.9807C12.9463 18.8823 12.9197 18.7848 12.8831 18.6887C12.8642 18.6362 12.8463 18.5838 12.8253 18.5314C12.7729 18.3999 12.7128 18.2718 12.6453 18.1475C12.6207 18.103 12.5928 18.0605 12.5662 18.017C12.5179 17.9375 12.4678 17.86 12.4143 17.7835C12.3775 17.7311 12.3404 17.6822 12.3015 17.6336C12.2455 17.5628 12.1869 17.4958 12.1266 17.4303C12.0905 17.3912 12.0565 17.3497 12.0192 17.3119C11.9255 17.2195 11.8271 17.1321 11.7243 17.05C11.6836 17.017 11.6406 16.9868 11.5982 16.9558C11.5191 16.8975 11.4409 16.8425 11.3562 16.7914C11.3163 16.7666 11.2769 16.742 11.2368 16.7185C10.9846 16.5755 10.7165 16.4627 10.438 16.3822C10.4022 16.3722 10.3661 16.364 10.3301 16.3545C10.2196 16.3261 10.1073 16.3021 9.99425 16.2857C9.95487 16.2801 9.91573 16.2727 9.87584 16.2681C9.72723 16.2489 9.57787 16.2389 9.42799 16.2382C9.11774 16.2387 8.80852 16.2775 8.50774 16.3535C6.88618 16.7702 5.75288 18.2324 5.75391 19.9066C5.75467 21.5806 6.88951 23.0415 8.51132 23.4566C8.65225 23.4917 8.79522 23.5185 8.93922 23.5375L9.00214 23.5449C9.12516 23.5587 9.24895 23.5664 9.373 23.5679H9.48247C9.56892 23.5679 9.65383 23.562 9.73798 23.5546C9.80192 23.549 9.86637 23.5411 9.93185 23.5316C9.95538 23.5285 9.97891 23.5244 10.0022 23.5206C10.3319 23.4669 10.6531 23.3697 10.9575 23.2316L11.001 23.2106C11.0649 23.1812 11.1288 23.1492 11.1938 23.1152C12.1624 22.5804 12.8386 21.6376 13.0343 20.5486C13.0558 20.4212 13.0721 20.2946 13.0816 20.1678C13.0816 20.1248 13.0862 20.0813 13.0877 20.0378C13.0926 19.9163 13.0906 19.7954 13.0831 19.6749C13.0806 19.6365 13.0806 19.5979 13.0773 19.5595Z" fill="#F4A31D"/>
<path id="Vector_2" d="M18.3333 21.4764C18.6226 21.4764 18.8571 21.2418 18.8571 20.9526V18.8573C18.8571 18.568 18.6226 18.3335 18.3333 18.3335H17.7571C17.1056 18.3312 16.5228 17.9281 16.2905 17.3194C16.235 17.1739 16.1747 17.0291 16.1102 16.8872C15.8409 16.2928 15.9659 15.5937 16.4245 15.1293L16.8348 14.7188C17.0391 14.5142 17.0391 14.1827 16.8348 13.9781L15.3544 12.4977C15.149 12.2946 14.8186 12.2946 14.6132 12.4977L14.2032 12.9074C13.739 13.3665 13.0397 13.4913 12.4451 13.2218C12.3031 13.1573 12.1586 13.0975 12.0121 13.0415C11.4049 12.8084 11.0028 12.2268 11 11.5764V11.0002C11 10.7109 10.7655 10.4764 10.4762 10.4764H8.38095C8.09168 10.4764 7.85714 10.7109 7.85714 11.0002V11.5764C7.85484 12.2279 7.45175 12.8107 6.84302 13.043C6.69749 13.0985 6.55273 13.1588 6.41078 13.2233C5.81638 13.4931 5.11711 13.3681 4.6529 12.909L4.24239 12.4987C4.03778 12.2944 3.70631 12.2944 3.5017 12.4987L2.02132 13.9781C1.92311 14.0763 1.86786 14.2095 1.86786 14.3487C1.86786 14.4876 1.92311 14.6211 2.02132 14.7193L2.43106 15.1293C2.88965 15.5937 3.01472 16.2928 2.74539 16.8872C2.68094 17.0294 2.62109 17.1739 2.56508 17.3204C2.33259 17.9281 1.75072 18.3304 1.10005 18.3335H0.523809C0.234538 18.3335 0 18.568 0 18.8573V20.9526C0 21.2418 0.234538 21.4764 0.523809 21.4764H1.10005C1.75149 21.4787 2.33438 21.8818 2.56661 22.4905C2.62212 22.636 2.68248 22.7808 2.74693 22.9227C3.01625 23.5171 2.89118 24.2161 2.43259 24.6806L2.02234 25.0911C1.81799 25.2957 1.81799 25.6272 2.02234 25.8318L3.50272 27.3122C3.60093 27.4104 3.73419 27.4656 3.87332 27.4656C4.0122 27.4656 4.14571 27.4104 4.24393 27.3122L4.65392 26.9024C5.11839 26.4441 5.8174 26.319 6.41206 26.5881C6.55401 26.6528 6.69852 26.7129 6.84507 26.7684C7.45226 27.0014 7.85432 27.583 7.85714 28.2335V28.8097C7.85714 29.099 8.09168 29.3335 8.38095 29.3335H10.4762C10.7655 29.3335 11 29.099 11 28.8097V28.2335C11.0023 27.582 11.4054 26.9991 12.0141 26.7669C12.1596 26.7114 12.3044 26.651 12.4464 26.5866C13.0408 26.3167 13.74 26.4418 14.2042 26.9009L14.6147 27.3112C14.8193 27.5155 15.1508 27.5155 15.3554 27.3112L16.8358 25.8308C16.934 25.7326 16.9893 25.5993 16.9893 25.4602C16.9893 25.3213 16.934 25.1878 16.8358 25.0896L16.4261 24.6796C15.9675 24.2151 15.8424 23.5161 16.1117 22.9214C16.1764 22.7795 16.2366 22.635 16.2921 22.4884C16.5251 21.8812 17.1067 21.4792 17.7571 21.4764H18.3333ZM14.1388 19.9929C14.1388 20.0873 14.1313 20.1814 14.1239 20.2763C14.1162 20.3812 14.1029 20.4807 14.0884 20.5817C13.9769 21.3457 13.7083 22.0784 13.2996 22.7335C13.2218 22.8601 13.1275 22.9757 13.0188 23.0772C12.6167 23.4588 12.165 23.7849 11.6762 24.0468H11.6732C11.5847 24.0939 11.4972 24.1338 11.4113 24.1739C11.3435 24.2054 11.276 24.2379 11.2069 24.2663C11.1379 24.2944 11.0596 24.3184 10.9864 24.3468C10.913 24.3752 10.8435 24.3993 10.7701 24.4197C10.6757 24.4473 10.5841 24.4722 10.4918 24.4913C10.4396 24.5028 10.3918 24.5161 10.3406 24.5259C10.2092 24.5522 10.0787 24.5711 9.95289 24.5852C9.93626 24.5852 9.91938 24.5903 9.90045 24.5921C9.74341 24.6077 9.58612 24.6177 9.43803 24.6177C9.35311 24.6177 9.27715 24.6057 9.19556 24.6013C9.07279 24.5957 8.95079 24.5926 8.82879 24.5773C8.64413 24.5527 8.46075 24.5177 8.27992 24.4727C8.27097 24.4727 8.26202 24.4699 8.25358 24.4678C6.17113 23.9304 4.71556 22.0526 4.71479 19.9019C4.71403 17.7511 6.1678 15.872 8.24999 15.3331C8.41727 15.2924 8.58684 15.2607 8.75769 15.2382C8.81677 15.23 8.87637 15.2231 8.9357 15.2167C9.04824 15.2052 9.16027 15.1991 9.27204 15.1958C9.32421 15.1958 9.37664 15.1861 9.42908 15.1861C10.4419 15.1861 11.4271 15.5147 12.2371 16.1224L12.3231 16.1864C12.3891 16.2385 12.454 16.292 12.5175 16.3467C12.5699 16.3928 12.6223 16.4411 12.6745 16.4897C12.7175 16.5306 12.7604 16.5703 12.8014 16.6127C12.8794 16.692 12.9538 16.7746 13.0262 16.86C13.0418 16.8785 13.0592 16.8961 13.0743 16.915C13.2518 17.1294 13.4093 17.3593 13.5456 17.6018C13.5525 17.6138 13.5566 17.6268 13.5635 17.6388C13.65 17.7977 13.7272 17.9614 13.7945 18.1292C13.8239 18.201 13.8469 18.2731 13.874 18.346C13.9109 18.4509 13.9439 18.557 13.973 18.665C13.9963 18.7499 14.0203 18.8343 14.0385 18.9197C14.0664 19.0502 14.0863 19.1816 14.1029 19.3172C14.1183 19.442 14.1272 19.5671 14.1324 19.6929C14.1354 19.762 14.1428 19.83 14.1428 19.9024C14.1428 19.9349 14.1393 19.963 14.1388 19.9929Z" fill="#F4A31D"/>
<path id="Vector_3" d="M22.5352 10.5088C22.5561 10.5612 22.5725 10.6137 22.5917 10.6628C22.5725 10.6114 22.5561 10.5597 22.5352 10.5088Z" fill="#F4A31D"/>
<path id="Vector_4" d="M22.5917 15.5278C22.5725 15.5803 22.5561 15.6327 22.5352 15.6818C22.5561 15.6309 22.5725 15.5792 22.5917 15.5278Z" fill="#F4A31D"/>
<path id="Vector_5" d="M22.2461 9.90002C22.2822 9.96755 22.3121 10.0384 22.3461 10.1095C22.3116 10.0358 22.2822 9.9655 22.2461 9.90002Z" fill="#F4A31D"/>
<path id="Vector_6" d="M22.7827 14.9652C22.7748 14.9921 22.7694 15.0176 22.7617 15.0455C22.7694 15.0187 22.7748 14.9921 22.7827 14.9652Z" fill="#F4A31D"/>
<path id="Vector_7" d="M18.1055 6.55176C18.1318 6.55969 18.1579 6.56506 18.1858 6.57273C18.1589 6.56506 18.1323 6.55969 18.1055 6.55176Z" fill="#F4A31D"/>
<path id="Vector_8" d="M13.6523 6.79749C13.7048 6.77652 13.7572 6.76015 13.8063 6.74097C13.7549 6.76015 13.7032 6.77652 13.6523 6.79749Z" fill="#F4A31D"/>
<path id="Vector_9" d="M22.7617 11.145C22.7694 11.1714 22.7748 11.1975 22.7827 11.2253C22.7748 11.1985 22.7694 11.1719 22.7617 11.145Z" fill="#F4A31D"/>
<path id="Vector_10" d="M19.2266 6.98453C19.2956 7.01854 19.3665 7.04847 19.436 7.08453C19.366 7.04847 19.2956 7.01906 19.2266 6.98453Z" fill="#F4A31D"/>
<path id="Vector_11" d="M19.7773 7.28784C19.8554 7.33541 19.9344 7.37941 20.0114 7.42979C19.9349 7.37889 19.8554 7.33337 19.7773 7.28784Z" fill="#F4A31D"/>
<path id="Vector_12" d="M20.3436 7.67183C20.413 7.72427 20.4856 7.77337 20.5531 7.82888C20.4851 7.77286 20.4135 7.72478 20.3436 7.67183Z" fill="#F4A31D"/>
<path id="Vector_13" d="M21.5039 8.7804C21.5561 8.84792 21.6085 8.92056 21.6609 8.98987C21.6075 8.92004 21.5594 8.84843 21.5039 8.7804Z" fill="#F4A31D"/>
<path id="Vector_14" d="M18.668 6.74097C18.7204 6.76015 18.7728 6.77652 18.8219 6.79749C18.771 6.77652 18.7194 6.76015 18.668 6.74097Z" fill="#F4A31D"/>
<path id="Vector_15" d="M21.9023 9.31909C21.9548 9.39505 21.9967 9.47613 22.0443 9.55312C21.9988 9.47511 21.9532 9.39557 21.9023 9.31909Z" fill="#F4A31D"/>
<path id="Vector_16" d="M14.2852 6.57273C14.3115 6.56506 14.3376 6.55969 14.3655 6.55176C14.3386 6.55969 14.312 6.56506 14.2852 6.57273Z" fill="#F4A31D"/>
<path id="Vector_17" d="M11.9258 7.82831C11.9933 7.77332 12.0654 7.7237 12.1353 7.67126C12.0654 7.72472 11.9938 7.7728 11.9258 7.82831Z" fill="#F4A31D"/>
<path id="Vector_18" d="M21.6611 17.2014C21.6087 17.2707 21.5601 17.3428 21.5041 17.4109C21.5606 17.3423 21.6087 17.2707 21.6611 17.2014Z" fill="#F4A31D"/>
<path id="Vector_19" d="M12.4648 7.42989C12.5403 7.37746 12.6219 7.33551 12.6978 7.28845C12.6203 7.33347 12.5413 7.37899 12.4648 7.42989Z" fill="#F4A31D"/>
<path id="Vector_20" d="M13.0428 7.08455C13.1103 7.04848 13.1812 7.01856 13.2523 6.98454C13.1786 7.01907 13.1083 7.04848 13.0428 7.08455Z" fill="#F4A31D"/>
<path id="Vector_21" d="M22.3461 16.0857C22.3121 16.1548 22.2822 16.2256 22.2461 16.2952C22.2822 16.2251 22.3116 16.1548 22.3461 16.0857Z" fill="#F4A31D"/>
<path id="Vector_22" d="M22.0438 16.6384C21.9967 16.7159 21.9527 16.7955 21.9023 16.8714C21.9532 16.795 21.9988 16.7159 22.0438 16.6384Z" fill="#F4A31D"/>
<path id="Vector_23" d="M28.811 11H27.1637C26.4933 11.0025 25.8966 10.5762 25.6817 9.94138C25.5342 9.50146 25.3559 9.07254 25.148 8.65743C24.8487 8.05663 24.9676 7.33154 25.4434 6.8576L26.6115 5.68747C26.8158 5.48312 26.8158 5.1519 26.6115 4.94729L24.3881 2.72391C24.1835 2.5193 23.852 2.5193 23.6474 2.72391L22.4772 3.89199C22.0033 4.36695 21.279 4.48614 20.6779 4.18792C20.2628 3.97972 19.8336 3.8012 19.3935 3.65362C18.7584 3.43878 18.332 2.84156 18.3349 2.1712V0.523809C18.3349 0.234538 18.1003 0 17.8111 0H14.6682C14.3789 0 14.1444 0.234538 14.1444 0.523809V2.1712C14.1469 2.84131 13.7206 3.43801 13.0858 3.65311C12.6459 3.80069 12.2169 3.97895 11.8018 4.18689C11.201 4.48665 10.4757 4.36772 10.002 3.89148L8.83187 2.72391C8.62725 2.5193 8.29578 2.5193 8.09117 2.72391L5.8683 4.94677C5.66369 5.15139 5.66369 5.48286 5.8683 5.68747L9.60505 9.42856H10.4777H10.5061C10.7698 9.01243 11.0777 8.62597 11.4248 8.27608C11.5837 8.11725 11.7504 7.96635 11.9246 7.82414C11.9926 7.76864 12.0642 7.71928 12.1341 7.6671C12.243 7.58423 12.3504 7.50034 12.464 7.42438C12.5405 7.3722 12.621 7.33026 12.697 7.28294C12.8113 7.21337 12.9239 7.14201 13.0423 7.07935C13.1103 7.04303 13.1807 7.01336 13.2518 6.97935C13.3848 6.91387 13.518 6.84891 13.6556 6.79213C13.708 6.77115 13.7605 6.75504 13.8096 6.7356C13.9669 6.67499 14.1283 6.61616 14.2922 6.56756C14.3188 6.55964 14.3444 6.55452 14.3723 6.54659C15.5936 6.19184 16.8908 6.19184 18.1123 6.54659C18.1389 6.55452 18.1645 6.55964 18.1924 6.56756C18.3563 6.61616 18.5162 6.67499 18.6748 6.7356C18.7272 6.75504 18.7796 6.77115 18.8287 6.79213C18.9666 6.84891 19.0996 6.91387 19.2326 6.97935C19.3019 7.01336 19.372 7.04303 19.4421 7.07935C19.5605 7.14201 19.6728 7.21286 19.7863 7.28243C19.8643 7.33026 19.9434 7.37374 20.0204 7.42438C20.1342 7.50034 20.2416 7.58168 20.35 7.66659C20.4196 7.71877 20.4915 7.76762 20.5595 7.82363C20.9076 8.1083 21.2266 8.42724 21.5112 8.77534C21.5667 8.84337 21.6161 8.91524 21.6683 8.98481C21.7506 9.09325 21.8345 9.20068 21.9105 9.31449C21.9626 9.39097 22.0046 9.47153 22.0524 9.54852C22.122 9.66208 22.1928 9.77436 22.2555 9.89278C22.2918 9.96081 22.3215 10.0309 22.3555 10.1023C22.421 10.2353 22.4859 10.3682 22.5427 10.5061C22.5637 10.5585 22.5798 10.6107 22.5992 10.6601C22.6599 10.8171 22.7187 10.9785 22.7673 11.1425C22.7752 11.1693 22.7803 11.1949 22.7883 11.2225C23.143 12.444 23.143 13.7413 22.7883 14.9626C22.7803 14.9894 22.7752 15.015 22.7673 15.0426C22.7187 15.2066 22.6627 15.3664 22.5992 15.5253C22.5798 15.5774 22.5637 15.6299 22.5427 15.6792C22.4859 15.8168 22.421 15.9501 22.3555 16.0831C22.3215 16.1521 22.2918 16.2225 22.2555 16.2926C22.1928 16.411 22.1215 16.5235 22.0519 16.6378C22.0046 16.7153 21.9611 16.7949 21.9105 16.8708C21.8345 16.9844 21.7532 17.0918 21.6677 17.2008C21.6156 17.2701 21.5672 17.3417 21.5107 17.4103C21.3685 17.5844 21.2176 17.7512 21.0588 17.91C20.7089 18.2571 20.3224 18.565 19.9063 18.8287C19.9063 18.8387 19.9088 18.8477 19.9088 18.8571V19.7298L23.6474 23.4665C23.8517 23.6709 24.183 23.6709 24.3876 23.4665L26.6109 21.2437C26.8156 21.0391 26.8156 20.7076 26.6109 20.503L25.4429 19.3329C24.9674 18.8592 24.8482 18.1343 25.1469 17.5335C25.3551 17.1184 25.5337 16.6893 25.6812 16.2491C25.8961 15.614 26.4933 15.1877 27.1637 15.1905H28.811C29.1003 15.1905 29.3349 14.9559 29.3349 14.6667V11.5238C29.3349 11.2345 29.1003 11 28.811 11Z" fill="#F4A31D"/>
<path id="Vector_24" d="M18.8242 6.79761C18.9611 6.85362 19.0946 6.91961 19.2281 6.98457C19.0951 6.9191 18.9616 6.85413 18.8242 6.79761Z" fill="#F4A31D"/>
<path id="Vector_25" d="M19.4336 7.08447C19.551 7.14688 19.664 7.21798 19.7779 7.28781C19.664 7.21798 19.552 7.14739 19.4336 7.08447Z" fill="#F4A31D"/>
<path id="Vector_26" d="M13.8047 6.74117C13.9617 6.6803 14.1241 6.62122 14.2871 6.57288C14.1231 6.62173 13.9635 6.6803 13.8047 6.74117Z" fill="#F4A31D"/>
<path id="Vector_27" d="M18.1875 6.57288C18.3504 6.62122 18.51 6.6803 18.6699 6.74117C18.511 6.6803 18.3514 6.62173 18.1875 6.57288Z" fill="#F4A31D"/>
<path id="Vector_28" d="M12.6953 7.28832C12.8096 7.21849 12.9232 7.14688 13.0406 7.08447C12.9222 7.14739 12.8096 7.21849 12.6953 7.28832Z" fill="#F4A31D"/>
<path id="Vector_29" d="M12.1328 7.6724C12.2418 7.58953 12.3502 7.50538 12.4628 7.42993C12.3492 7.50589 12.2418 7.58953 12.1328 7.6724Z" fill="#F4A31D"/>
<path id="Vector_30" d="M13.2461 6.98457C13.3796 6.91961 13.5131 6.85362 13.6499 6.79761C13.5126 6.85413 13.3791 6.9191 13.2461 6.98457Z" fill="#F4A31D"/>
<path id="Vector_31" d="M11.4258 8.28056C11.5859 8.11969 11.7537 7.96981 11.9255 7.82837C11.7514 7.97058 11.5846 8.12148 11.4258 8.28056Z" fill="#F4A31D"/>
<path id="Vector_32" d="M21.9026 16.8715C21.8272 16.984 21.7456 17.0924 21.6602 17.2014C21.743 17.0924 21.8267 16.985 21.9026 16.8715Z" fill="#F4A31D"/>
<path id="Vector_33" d="M22.5346 15.682C22.4786 15.8188 22.4126 15.9524 22.3477 16.0859C22.4131 15.9529 22.4781 15.8194 22.5346 15.682Z" fill="#F4A31D"/>
<path id="Vector_34" d="M22.2507 16.2906C22.1883 16.408 22.1167 16.5215 22.0469 16.6356C22.1167 16.5241 22.1878 16.4116 22.2507 16.2906Z" fill="#F4A31D"/>
<path id="Vector_35" d="M20.0117 7.42993C20.1243 7.50538 20.2322 7.58697 20.3411 7.67189C20.2327 7.58953 20.1253 7.50589 20.0117 7.42993Z" fill="#F4A31D"/>
<path id="Vector_36" d="M22.7812 14.9653C23.136 13.744 23.136 12.4467 22.7812 11.2255C23.1276 12.448 23.1276 13.7427 22.7812 14.9653Z" fill="#F4A31D"/>
<path id="Vector_37" d="M18.1109 6.55171C16.8896 6.19696 15.5924 6.19696 14.3711 6.55171C15.5937 6.2054 16.8883 6.2054 18.1109 6.55171Z" fill="#F4A31D"/>
<path id="Vector_38" d="M21.5069 17.4105C21.3654 17.5823 21.2156 17.7501 21.0547 17.9102C21.2138 17.7514 21.3647 17.5846 21.5069 17.4105Z" fill="#F4A31D"/>
<path id="Vector_39" d="M21.0547 8.28064C21.2156 8.44075 21.3654 8.60853 21.5069 8.78041C21.3647 8.60623 21.2138 8.43947 21.0547 8.28064Z" fill="#F4A31D"/>
<path id="Vector_40" d="M21.6602 8.98987C21.7425 9.09882 21.8267 9.20676 21.9021 9.3193C21.8261 9.20573 21.7425 9.09831 21.6602 8.98987Z" fill="#F4A31D"/>
<path id="Vector_41" d="M20.5508 7.82837C20.7227 7.96981 20.8904 8.11969 21.0505 8.28056C20.8917 8.12148 20.725 7.97058 20.5508 7.82837Z" fill="#F4A31D"/>
<path id="Vector_42" d="M22.5898 10.6627C22.6507 10.8198 22.7098 10.9822 22.7581 11.1451C22.7093 10.9811 22.6507 10.8216 22.5898 10.6627Z" fill="#F4A31D"/>
<path id="Vector_43" d="M22.043 9.55322C22.1128 9.66704 22.1839 9.78009 22.2463 9.89748C22.1834 9.77906 22.1128 9.66704 22.043 9.55322Z" fill="#F4A31D"/>
<path id="Vector_44" d="M22.7581 15.0455C22.7098 15.2085 22.6533 15.3681 22.5898 15.5279C22.6507 15.3691 22.7093 15.2095 22.7581 15.0455Z" fill="#F4A31D"/>
<path id="Vector_45" d="M22.3477 10.105C22.4126 10.2385 22.4786 10.372 22.5346 10.5088C22.4781 10.3715 22.4131 10.238 22.3477 10.105Z" fill="#F4A31D"/>
</g>
</svg>
