<svg preserveAspectRatio="none" width="100%" height="100%" overflow="visible" style="display: block;" viewBox="0 0 27.0078 33.5836" fill="none" xmlns="http://www.w3.org/2000/svg">
<g id="Group">
<path id="Vector" d="M19.7654 25.1603C17.8999 28.1582 15.3054 25.7515 13.3662 25.8739C12.5301 25.9268 11.6802 26.2273 10.9276 26.4944C9.44324 27.0202 8.06324 26.4916 7.24108 25.1603C5.95847 23.0819 5.7804 22.7731 3.35706 21.8675C1.74335 21.2651 1.03249 19.8963 1.34132 18.1949C1.79761 15.6937 1.52216 15.4015 0.427347 13.3761C-0.337772 11.9613 -0.0609379 10.5048 1.141 9.4656C3.03849 7.82546 3.19986 7.48324 3.66867 5.09607C3.96498 3.59087 4.98607 2.57396 6.565 2.51275C8.94521 2.42094 9.44185 2.50301 11.4019 0.840617C12.679 -0.24307 14.2273 -0.295933 15.528 0.780799C16.154 1.2983 16.9052 1.92013 17.6912 2.19001C19.202 2.71029 20.8491 2.1761 22.1359 3.04973L18.946 6.70282C15.6031 3.97065 10.8928 4.14315 7.75163 6.96157C4.6202 9.77026 3.97889 14.5029 6.32433 18.0683C8.66977 21.6338 13.0894 22.9025 16.9525 21.2095C20.767 19.5374 22.9288 15.3069 21.7853 11.0988L24.3937 8.05917L26.2731 9.9052C27.2163 10.8317 27.1745 12.2437 26.5819 13.3552C25.5497 15.2916 25.1964 15.7771 25.6582 18.1949C25.9823 19.8907 25.2576 21.2637 23.6494 21.8661C21.2024 22.7842 21.0605 23.075 19.764 25.1575L19.7654 25.1603Z" fill="#F4A31D"/>
<path id="Vector_2" d="M12.9374 17.3213L8.92954 13.3412C8.33275 12.7486 8.28267 11.8583 8.83216 11.2671C9.40809 10.6466 10.3554 10.6689 10.9773 11.2921L13.8569 14.1815L24.3474 2.10789C24.9442 1.42068 25.9792 1.69612 26.4063 2.1858C27.0684 2.94257 26.7624 3.69795 26.1892 4.35456L20.3576 11.0306L15.1034 17.0458C14.5803 17.6454 13.6093 17.9904 12.9374 17.3213Z" fill="#F4A31D"/>
<path id="Vector_3" d="M7.97922 33.5641C7.02491 32.2773 6.45872 31.124 5.72838 29.9096C4.283 30.16 3.06994 30.3923 1.46875 30.5773L4.70451 23.5549C5.3806 24.2185 5.84245 24.8667 6.25701 25.6068C7.1668 27.2316 8.84033 28.1094 10.7601 27.6643L7.98061 33.5641H7.97922Z" fill="#F4A31D"/>
<path id="Vector_4" d="M21.2972 29.8929C20.5557 31.1254 19.9534 32.2536 19.0436 33.5835L16.246 27.6643C18.1602 28.1122 19.8393 27.233 20.7463 25.6082C21.1595 24.8681 21.6213 24.2185 22.3002 23.5577L25.5346 30.5731C23.9654 30.409 22.8261 30.178 21.2958 29.8929H21.2972Z" fill="#F4A31D"/>
</g>
</svg>
