<svg preserveAspectRatio="none" width="100%" height="100%" overflow="visible" style="display: block;" viewBox="0 0 134.953 16.5132" fill="none" xmlns="http://www.w3.org/2000/svg">
<g id="Group">
<path id="Vector" d="M1.00004 3.95813C1.66667 2.7082 2.61106 1.73603 3.83322 1.04162C5.05538 0.347214 6.47197 1.07288e-05 8.0691 1.07288e-05C10.0968 1.07288e-05 11.7911 0.541648 13.1661 1.62492C14.541 2.7082 15.4298 4.16645 15.8326 6.02747H10.9856C10.694 5.41639 10.2912 4.94419 9.77734 4.62476C9.26348 4.30534 8.66629 4.13868 7.99966 4.13868C6.95805 4.13868 6.12476 4.51366 5.4998 5.24973C4.87483 5.99969 4.56929 6.98575 4.56929 8.22179C4.56929 9.47173 4.87483 10.4717 5.4998 11.2216C6.12476 11.9716 6.95805 12.3327 7.99966 12.3327C8.68018 12.3327 9.26348 12.166 9.77734 11.8466C10.2912 11.5272 10.694 11.055 10.9856 10.4439H15.8326C15.4298 12.3049 14.541 13.7632 13.1661 14.8464C11.7911 15.9297 10.0829 16.4713 8.0691 16.4713C6.47197 16.4713 5.06926 16.1241 3.83322 15.4297C2.61106 14.7353 1.66667 13.7632 1.00004 12.5132C0.333407 11.2633 9.15527e-05 9.83282 9.15527e-05 8.22179C9.15527e-05 6.62466 0.333407 5.20807 1.00004 3.95813Z" fill="white"/>
<path id="Vector_2" d="M17.9589 6.40263C18.445 5.40269 19.0977 4.63884 19.931 4.0972C20.7643 3.55556 21.6948 3.29169 22.7225 3.29169C23.6113 3.29169 24.3752 3.47223 25.0279 3.81944C25.6668 4.16664 26.1668 4.65272 26.5279 5.24992V3.45834H31.0276V16.3465H26.5279V14.555C26.1807 15.1522 25.6668 15.6244 25.0279 15.9855C24.3752 16.3327 23.6113 16.5132 22.7364 16.5132C21.7087 16.5132 20.7782 16.2493 19.9449 15.7077C19.1116 15.166 18.445 14.4022 17.9728 13.4023C17.4867 12.4023 17.2506 11.2357 17.2506 9.90244C17.2367 8.56918 17.4728 7.40258 17.9589 6.40263ZM25.8473 7.94422C25.389 7.47202 24.8335 7.23592 24.1808 7.23592C23.5002 7.23592 22.9447 7.47202 22.5003 7.93033C22.0559 8.40252 21.8337 9.05527 21.8337 9.90244C21.8337 10.7357 22.0559 11.3885 22.5003 11.8607C22.9447 12.3468 23.5002 12.5829 24.1808 12.5829C24.8335 12.5829 25.389 12.3468 25.8473 11.8746C26.3056 11.4024 26.5279 10.7357 26.5279 9.90244C26.5279 9.06915 26.2918 8.41641 25.8473 7.94422Z" fill="white"/>
<path id="Vector_3" d="M39.9423 3.98635C40.6645 3.55582 41.4423 3.3475 42.2617 3.3475V8.1528H40.9978C40.0118 8.1528 39.2896 8.34723 38.8174 8.72221C38.3452 9.11108 38.1091 9.77771 38.1091 10.7221V16.3468H33.6093V3.4586H38.1091V5.73626C38.6091 5.00019 39.2202 4.41689 39.9423 3.98635Z" fill="white"/>
<path id="Vector_4" d="M51.4818 12.5134V16.3465H49.5235C46.232 16.3465 44.5793 14.7077 44.5793 11.444V7.19424H42.9961V3.44444H44.5793V0.333496H49.1069V3.45833H51.454V7.20813H49.1069V11.5273C49.1069 11.8745 49.1902 12.1384 49.343 12.2912C49.5096 12.444 49.7735 12.5273 50.1624 12.5273H51.4818V12.5134Z" fill="white"/>
<path id="Vector_5" d="M70.0657 8.23587C69.6074 9.04139 68.9268 9.68024 68.0241 10.1663C67.1075 10.6524 65.9964 10.8885 64.6771 10.8885H62.4411V16.3604H57.9413V0.152976H64.6771C65.9825 0.152976 67.0797 0.389074 67.9963 0.847383C68.9129 1.30569 69.5935 1.94455 70.0518 2.75006C70.5101 3.55557 70.7462 4.49996 70.7462 5.55546C70.7462 6.54152 70.524 7.43036 70.0657 8.23587ZM66.1492 5.55546C66.1492 4.37497 65.5103 3.79167 64.2465 3.79167H62.455V7.30537H64.2465C65.5103 7.30537 66.1492 6.72207 66.1492 5.55546Z" fill="white"/>
<path id="Vector_6" d="M75.094 15.708C74.0802 15.1664 73.2747 14.4025 72.6914 13.4026C72.1081 12.4026 71.8164 11.236 71.8164 9.88889C71.8164 8.55563 72.1081 7.38903 72.7053 6.38908C73.2886 5.38914 74.0941 4.62529 75.1218 4.08365C76.1356 3.54201 77.2883 3.27814 78.5799 3.27814C79.8715 3.27814 81.0243 3.54201 82.0381 4.08365C83.0519 4.62529 83.8574 5.38914 84.4546 6.38908C85.0379 7.38903 85.3435 8.55563 85.3435 9.88889C85.3435 11.2222 85.0518 12.3888 84.4546 13.3887C83.8713 14.3887 83.0519 15.1664 82.0242 15.6941C80.9965 16.2358 79.8438 16.4996 78.5522 16.4996C77.2606 16.4996 76.1217 16.2497 75.094 15.708ZM80.1354 11.9166C80.5521 11.4444 80.7743 10.7777 80.7743 9.90278C80.7743 9.02783 80.5659 8.3612 80.1354 7.90289C79.7188 7.44458 79.191 7.20848 78.5799 7.20848C77.9689 7.20848 77.455 7.44458 77.0384 7.90289C76.6217 8.3612 76.4134 9.02783 76.4134 9.90278C76.4134 10.7916 76.6078 11.4721 77.0106 11.9304C77.4133 12.3888 77.9272 12.6249 78.5522 12.6249C79.191 12.611 79.7188 12.3749 80.1354 11.9166Z" fill="white"/>
<path id="Vector_7" d="M94.7864 12.5134V16.3465H92.8281C89.5367 16.3465 87.884 14.7077 87.884 11.444V7.19424H86.3007V3.44444H87.884V0.333493H92.4115V3.45832H94.7586V7.20812H92.4115V11.5273C92.4115 11.8745 92.4948 12.1384 92.6476 12.2912C92.8143 12.444 93.0781 12.5273 93.467 12.5273H94.7864V12.5134Z" fill="white"/>
<path id="Vector_8" d="M96.8417 6.40263C97.3278 5.40269 97.9805 4.63884 98.8138 4.0972C99.6471 3.55556 100.578 3.29169 101.605 3.29169C102.494 3.29169 103.258 3.47223 103.911 3.81944C104.55 4.16664 105.05 4.65272 105.411 5.24992V3.45834H109.91V16.3465H105.411V14.555C105.063 15.1522 104.55 15.6244 103.911 15.9855C103.258 16.3327 102.494 16.5132 101.619 16.5132C100.591 16.5132 99.661 16.2493 98.8277 15.7077C97.9944 15.166 97.3278 14.4022 96.8556 13.4023C96.3695 12.4023 96.1334 11.2357 96.1334 9.90244C96.1195 8.56918 96.3556 7.40258 96.8417 6.40263ZM104.73 7.94422C104.272 7.47202 103.716 7.23592 103.064 7.23592C102.383 7.23592 101.828 7.47202 101.383 7.93033C100.939 8.40252 100.716 9.05527 100.716 9.90244C100.716 10.7357 100.939 11.3885 101.383 11.8607C101.828 12.3468 102.383 12.5829 103.064 12.5829C103.716 12.5829 104.272 12.3468 104.73 11.8746C105.188 11.4024 105.411 10.7357 105.411 9.90244C105.411 9.06915 105.175 8.41641 104.73 7.94422Z" fill="white"/>
<path id="Vector_9" d="M120.091 12.5134V16.3465H118.133C114.841 16.3465 113.189 14.7077 113.189 11.444V7.19424H111.605V3.44444H113.189V0.333496H117.716V3.45833H120.063V7.20813H117.716V11.5273C117.716 11.8745 117.8 12.1384 117.952 12.2912C118.119 12.444 118.383 12.5273 118.772 12.5273H120.091V12.5134Z" fill="white"/>
<path id="Vector_10" d="M124.703 15.708C123.69 15.1664 122.884 14.4025 122.301 13.4026C121.717 12.4026 121.426 11.236 121.426 9.88889C121.426 8.55563 121.717 7.38903 122.315 6.38908C122.898 5.38914 123.703 4.62529 124.731 4.08365C125.745 3.54201 126.898 3.27814 128.189 3.27814C129.481 3.27814 130.634 3.54201 131.647 4.08365C132.661 4.62529 133.467 5.38914 134.064 6.38908C134.647 7.38903 134.953 8.55563 134.953 9.88889C134.953 11.2222 134.661 12.3888 134.064 13.3887C133.481 14.3887 132.661 15.1664 131.634 15.6941C130.606 16.2358 129.453 16.4997 128.162 16.4997C126.87 16.5135 125.717 16.2497 124.703 15.708ZM129.731 11.9166C130.148 11.4444 130.37 10.7777 130.37 9.90278C130.37 9.02783 130.161 8.3612 129.731 7.90289C129.314 7.44458 128.786 7.20848 128.175 7.20848C127.564 7.20848 127.05 7.44458 126.634 7.90289C126.217 8.3612 126.009 9.02783 126.009 9.90278C126.009 10.7916 126.203 11.4721 126.606 11.9305C127.009 12.3888 127.523 12.6249 128.148 12.6249C128.787 12.611 129.314 12.3749 129.731 11.9166Z" fill="white"/>
</g>
</svg>
