<svg preserveAspectRatio="none" width="100%" height="100%" overflow="visible" style="display: block;" viewBox="0 0 55.9089 57.4691" fill="none" xmlns="http://www.w3.org/2000/svg">
<g id="Group">
<path id="Vector" opacity="0.8" d="M3.08906 16.1052C3.03019 16.1446 3.02038 16.2495 2.90266 16.2069C2.76858 16.1577 2.81109 16.0528 2.81109 15.9741C2.81436 15.6299 3.05963 15.384 3.2166 15.1184C3.78889 14.148 4.33502 13.1578 5.01522 12.2562C5.56462 11.5251 6.11075 10.7973 6.70593 10.099C7.36979 9.31868 8.05654 8.57445 8.79561 7.86957C9.71454 6.9942 10.6923 6.20079 11.7127 5.45657C13.0404 4.48612 14.4498 3.6501 15.9182 2.9157C23.7373 -1.00214 33.6101 -0.985751 41.3606 3.05012C42.6915 3.74189 43.9637 4.53202 45.1507 5.45001C45.9454 6.0631 46.727 6.69257 47.5151 7.31877C47.8389 7.5745 47.8454 7.86957 47.5347 8.16464C45.275 10.3022 43.1003 12.5284 40.9027 14.7283C40.5005 15.1282 40.1277 15.5577 39.7451 15.9774C39.4802 16.2724 39.163 16.3085 38.9242 15.9971C38.2996 15.184 37.4232 14.6988 36.5893 14.1676C35.013 13.1644 33.2733 12.5579 31.4419 12.253C30.8566 12.1546 30.2647 12.053 29.6466 12.0595C29.0743 12.0661 28.4857 11.9579 27.9068 11.9972C26.4875 12.0956 25.0879 12.2792 23.7111 12.6923C22.1774 13.1513 20.7745 13.8529 19.45 14.725C18.4755 15.3676 17.6056 16.1413 16.7848 16.9806C15.964 17.8199 15.2347 18.7248 14.6133 19.7149C13.9299 20.8001 13.3281 21.9214 12.9717 23.1639C12.8736 23.5115 12.7362 23.5803 12.5498 23.3967C10.3588 21.6984 8.17427 19.9969 5.97667 18.3051C5.01849 17.5675 4.09629 16.7806 3.09233 16.1052H3.08906Z" fill="#E44135"/>
<path id="Vector_2" opacity="0.6" d="M12.5447 34.3345C12.7573 34.1509 12.875 34.2623 12.9404 34.4754C13.3361 35.7737 13.9705 36.954 14.6835 38.0949C15.1282 38.8064 15.6743 39.449 16.2139 40.0948C16.7339 40.7112 17.2996 41.2718 17.9046 41.7833C18.5881 42.3603 19.3206 42.8816 20.0891 43.3537C22.0938 44.5864 24.275 45.3012 26.5904 45.5929C27.4929 45.7077 28.4184 45.6913 29.3275 45.6552C31.6134 45.5667 33.8274 45.1438 35.9138 44.134C36.5449 43.8291 37.1532 43.4914 37.7451 43.1275C37.9282 43.016 38.059 42.9472 38.0819 43.2455C38.1702 43.3275 38.2553 43.4127 38.3501 43.4848C41.1919 45.6979 44.037 47.9109 46.8789 50.1239C47.0031 50.219 47.1601 50.2878 47.2157 50.455C47.2974 50.3894 47.3988 50.3599 47.4479 50.4648C47.5002 50.5796 47.4577 50.7107 47.3628 50.7927C47.0195 51.0878 46.6761 51.3796 46.3229 51.6615C45.5708 52.268 44.7957 52.8483 43.9847 53.3696C43.0952 53.9401 42.1665 54.4548 41.2115 54.9105C40.0146 55.4843 38.7752 55.9597 37.5064 56.3498C36.11 56.7793 34.694 57.176 33.242 57.3137C30.4034 57.5793 27.5518 57.4317 24.7067 57.3957C23.4869 57.3793 22.29 56.9891 21.0996 56.6777C19.9681 56.3793 18.8661 55.999 17.7771 55.5794C16.7045 55.1663 15.6612 54.6679 14.6671 54.0843C13.7187 53.5303 12.7671 52.986 11.8809 52.327C10.9554 51.6386 10.0659 50.9107 9.19928 50.1468C8.64007 49.655 8.11029 49.137 7.6034 48.5961C6.73352 47.6715 5.93559 46.6912 5.19652 45.652C4.41493 44.5536 3.68894 43.4291 3.06433 42.2357C2.96295 42.0423 2.72422 41.9243 2.76674 41.6554C2.77982 41.5669 2.75693 41.4751 2.87465 41.4292C3.00219 41.3767 3.03162 41.4784 3.09049 41.544C3.22457 41.4554 3.36192 41.3735 3.48946 41.2751C6.36072 39.0424 9.22871 36.8065 12.1032 34.5771C12.234 34.4754 12.342 34.3115 12.548 34.3312L12.5447 34.3345Z" fill="#34A050"/>
<path id="Vector_3" d="M47.2179 50.4582C47.1623 50.2877 47.0053 50.2222 46.881 50.1271C44.0392 47.9141 41.1941 45.7011 38.3523 43.4881C38.2574 43.4159 38.1757 43.3274 38.0841 43.2487C37.7636 43.1864 37.901 43.0651 38.0416 42.9405C38.3883 42.6324 38.797 42.4127 39.147 42.1045C39.9187 41.4259 40.6316 40.698 41.2366 39.8686C42.1065 38.6784 42.7573 37.3769 43.1661 35.9573C43.2707 35.5966 43.2969 35.2098 43.4571 34.9442C43.0483 35.0491 42.5513 34.9901 42.0673 35.036C40.3275 35.2032 38.5779 35.1016 36.8349 35.118C34.9905 35.1344 33.1461 35.118 31.3017 35.1245C30.4154 35.1245 29.5358 34.9442 28.643 35.0458C28.2833 35.0885 28.0968 34.7344 28.1132 34.4459C28.1459 33.8131 28.0968 33.1803 28.074 32.5443C27.9759 30.0166 27.9399 27.4888 28.1165 24.9611C28.1394 24.6299 28.1557 24.3021 28.1165 23.9677C28.0641 23.5611 28.2996 23.3087 28.7051 23.2923C34.9022 23.053 41.0993 23.2267 47.2964 23.1775C48.7385 23.1644 50.1774 23.1874 51.6196 23.171C52.3946 23.1644 53.1697 23.2038 53.9382 23.2726C54.2456 23.2988 54.5432 23.2956 54.8473 23.2628C55.4229 23.2005 55.5799 23.3546 55.6583 23.9185C56.0835 27.0036 55.8382 30.1051 55.8415 33.2C55.8415 35.0262 55.3509 36.8097 54.8408 38.5637C54.2652 40.5538 53.4771 42.4586 52.4666 44.2651C51.6392 45.7437 50.7007 47.1469 49.5855 48.4288C48.9642 49.1402 48.3755 49.8812 47.6528 50.4943C47.5711 50.5631 47.4893 50.6484 47.3912 50.6746C47.1983 50.7303 47.0903 50.6779 47.2179 50.4582Z" fill="#3F7FEE"/>
<path id="Vector_4" opacity="0.4" d="M12.5452 34.3337C12.3425 34.3108 12.2345 34.4747 12.1005 34.5796C9.22921 36.809 6.35794 39.045 3.48668 41.2777C3.35914 41.376 3.22179 41.458 3.08772 41.5465C3.12696 41.6514 3.09426 41.7563 2.99288 41.7563C2.8588 41.7563 2.74434 41.6809 2.68221 41.5432C1.76981 39.5728 0.965336 37.5598 0.471532 35.4419C0.187022 34.219 -0.0320837 32.983 0.00388886 31.7011C0.0594828 29.7208 0.0529423 27.7373 0.00388886 25.7538C-0.0288134 24.4293 0.242616 23.1638 0.559828 21.8983C0.906472 20.5278 1.3643 19.1902 1.90062 17.8788C2.14589 17.2788 2.42713 16.6952 2.68875 16.1018C2.75088 15.9641 2.83918 15.8756 2.99615 15.8985C3.12369 15.9149 3.12369 16.0035 3.08445 16.1018C4.08841 16.7805 5.01061 17.564 5.96879 18.3017C8.16311 19.9934 10.3509 21.695 12.5419 23.3933C12.7284 23.2261 12.7643 23.367 12.7774 23.5146C12.7905 23.7211 12.6989 23.908 12.6401 24.0982C12.1691 25.6981 11.9566 27.3242 11.9827 28.9996C12.0089 30.711 12.1986 32.3797 12.8068 33.9862C12.8624 34.1305 12.8363 34.2813 12.7316 34.3928C12.6531 34.478 12.5943 34.3829 12.5419 34.3305L12.5452 34.3337Z" fill="#F6D37D"/>
</g>
</svg>
