<svg preserveAspectRatio="none" width="100%" height="100%" overflow="visible" style="display: block;" viewBox="0 0 280.001 103.695" fill="none" xmlns="http://www.w3.org/2000/svg">
<g id="Group 1">
<path id="Vector" fill-rule="evenodd" clip-rule="evenodd" d="M44.377 70.6134H56.6446L54.3037 78.0999H52.548L51.0243 84.6478L58.1574 77.868H56.4017L58.6211 70.3926H72.0703L70.0827 78.2213H67.3995L49.9753 95.756H41.2079L45.5364 78.2213H42.7317C42.7317 78.2213 44.2555 70.503 44.3659 70.6245L44.377 70.6134ZM81.0805 77.7465H85.7623L83.1895 88.391H78.3973C78.3973 88.391 81.202 77.7465 81.0805 77.7465ZM78.9163 70.6134H90.1129C92.266 70.6134 93.6242 72.3801 93.1273 74.5333L89.1632 91.6263C88.6664 93.7795 86.4911 95.5462 84.3269 95.5462H73.1303C70.9661 95.5462 69.6079 93.7795 70.1158 91.6263L74.0799 74.5333C74.5768 72.3801 76.7631 70.6134 78.9163 70.6134ZM96.981 70.3815H105.163L110.43 81.9535L111.247 78.2103H109.723L111.247 70.492H122.344L120.589 78.2103L118.369 78.4422L114.041 95.745H108.542L103.164 84.4049L100.128 95.6235H90.8968L92.4206 88.2585H94.8719L96.8595 78.2103H94.9934C94.9934 78.2103 96.8595 70.492 96.981 70.3815ZM32.3302 79.966L26.9527 85.8072H30.5745C30.5745 85.8072 32.4406 80.0764 32.3302 79.966ZM32.3302 70.6134L6.38153 97.1473H2.75976L1.35743 103.463H16.3193L17.8873 97.0148L15.977 97.0921L19.3559 93.0618H28.8188L27.6484 97.1473H23.5518L22.028 103.695H112.948L114.041 96.5621H34.7925L42.0361 70.492C42.0361 70.492 32.3302 70.492 32.3302 70.6024V70.6134Z" fill="white"/>
<path id="Vector_2" fill-rule="evenodd" clip-rule="evenodd" d="M263.659 73.8488C263.979 71.541 266.43 70.5031 268.495 70.5031L268.539 70.2049H252.407L252.363 70.5031C254.428 70.5031 256.592 71.541 256.283 73.8488L252.805 99.2674C252.484 101.575 250.044 102.514 247.979 102.514L247.935 102.856H276.457L280.001 90.6105H279.604C276.953 97.0038 270.163 102.459 265.779 102.459H263.515C261.451 102.459 259.86 101.52 260.17 99.2122L263.648 73.8377L263.659 73.8488ZM231.041 86.1827H229.561L231.692 70.6466H234.685C240.681 70.6466 244.678 74.8315 246.986 79.1489H247.284L244.965 70.2049H219.988L219.944 70.5031C222.009 70.5031 224.184 71.541 223.864 73.8488L220.385 99.2674C220.065 101.575 217.636 102.514 215.571 102.514L215.527 102.856H243.894L247.781 91.3945H247.383C244.733 97.7878 237.754 102.459 233.382 102.459H231.118C229.053 102.459 227.463 101.52 227.784 99.2122L229.495 86.6685H230.975C235.005 86.6685 238.284 91.0963 237.732 95.1267H238.075L240.338 78.6079H239.996C239.444 82.6382 235.071 86.1827 231.041 86.1827ZM198.655 86.1827H197.175L199.306 70.6466H202.299C208.294 70.6466 212.303 74.8315 214.61 79.1489H214.909L212.601 70.2049H187.624L187.58 70.5031C189.645 70.5031 191.82 71.541 191.5 73.8488L188.021 99.2674C187.701 101.575 185.261 102.514 183.196 102.514L183.152 102.856H211.53L215.406 91.3945H215.008C212.369 97.7878 205.379 102.459 201.007 102.459H198.743C196.678 102.459 195.088 101.52 195.397 99.2122L197.109 86.6685H198.589C202.619 86.6685 205.898 91.0963 205.346 95.1267H205.689L207.952 78.6079H207.61C207.058 82.6382 202.685 86.1827 198.655 86.1827ZM182.401 70.2049H159.091C158.252 70.2049 157.281 69.8074 157.303 69.2664H157.06L153.063 80.8715H153.361C155.956 74.8205 162.382 70.6466 167.009 70.6466L163.1 99.2122C162.779 101.52 160.35 102.459 158.285 102.459L158.23 102.856H174.362L174.418 102.459C172.353 102.459 170.167 101.52 170.487 99.2122L174.396 70.6466C179.022 70.6466 184.289 74.8315 185.239 80.8715H185.537L184.72 69.2664H184.477C184.355 69.8074 183.273 70.2049 182.434 70.2049H182.401ZM149.352 81.0702H149.595L150.103 70.2049H149.86C149.684 70.746 149.198 71.4306 148.513 71.4306C146.647 71.4306 144.516 69.3657 141.027 69.3657C135.318 69.3657 130.338 74.1359 129.576 79.7341C129.046 83.5768 130.846 85.8845 133.319 87.5519C136.157 89.4732 139.967 90.6988 142.263 92.6201C143.677 93.8016 144.56 95.2812 144.262 97.4344C143.865 100.338 141.744 103.231 138.84 103.231C132.16 103.231 129.609 93.8458 129.09 90.4559H128.847L127.169 102.701H127.313C127.567 101.962 128.163 101.52 128.903 101.52C130.625 101.52 132.602 103.585 138.609 103.585C144.615 103.585 149.606 98.3178 150.313 93.1612C150.832 89.3738 149.562 87.1102 147.63 85.487C145.156 83.4774 141.601 82.5388 138.896 81.0592C136.511 79.7783 134.821 78.111 135.263 74.9088C135.682 71.817 137.825 69.7964 140.486 69.7964C145.3 69.7964 148.767 77.5699 149.363 81.0592L149.352 81.0702Z" fill="white"/>
<path id="Vector_3" fill-rule="evenodd" clip-rule="evenodd" d="M13.2614 75.1296L14.3987 77.9233H11.1855L9.72798 75.0192C9.72798 75.0192 13.151 75.0192 13.2504 75.1186L13.2614 75.1296ZM9.63964 63.0939L10.9647 66.5169H16.1655V67.6653H11.4064L12.4112 70.2601H16.9826V71.3975H12.8529L13.8135 73.8819H18.0315V75.0192H14.2441L15.3263 77.8128H21.8521L30.6636 68.4824H35.2239V63.0939C35.2239 63.0939 9.61756 62.9945 9.61756 63.0939H9.63964ZM3.52239 71.3975L4.56034 73.7825H12.7535L11.7597 71.3975H3.52239ZM1.89922 67.6653L3.0255 70.2601H11.2849L10.2028 67.6653H1.89922ZM0 63.3037L1.40233 66.5169H9.72798L8.30357 63.0939C6.95644 63.2485 0.011042 63.116 0.011042 63.3037H0Z" fill="white"/>
<path id="Vector_4" fill-rule="evenodd" clip-rule="evenodd" d="M161.068 31.5469L152.831 40.502H158.385C158.385 40.502 161.256 31.7236 161.068 31.5469ZM155.072 53.7965C150.965 56.0601 146.25 57.352 141.226 57.352C139.669 57.352 138.156 57.2306 136.677 56.9987L141.193 51.5992H155.702L155.072 53.7965ZM137.781 23.4532L139.271 27.1191H135.075L133.176 23.3207C133.176 23.3207 137.648 23.3207 137.781 23.4532ZM125.038 18.5726L126.396 21.6864H137.107L135.804 18.5726H125.038ZM122.907 13.6921L124.387 17.0819H135.186L133.772 13.6921H122.918H122.907ZM141.226 0C148.79 0 155.658 2.92612 160.781 7.7073C151.208 7.67417 133.033 7.63001 133.033 7.72938L134.766 12.2014H141.568V13.6921H135.34L136.654 17.0819H142.639V18.5726H137.24L138.498 21.83H144.019V23.3207H139.073L140.497 26.9866H149.033L160.56 14.7852H166.313C166.722 15.525 167.097 16.2869 167.451 17.0709C164.116 17.093 161.068 17.1371 161.068 17.2255L126.054 53.0346C117.949 47.9663 112.55 38.9561 112.55 28.6981C112.55 20.9025 115.664 13.8246 120.71 8.65691L122.267 12.2235H133.154L131.277 7.75147C129.886 7.90606 123.901 7.82876 121.461 7.9171C126.606 3.0255 133.563 0.022084 141.226 0.022084V0Z" fill="white"/>
</g>
</svg>
