<svg preserveAspectRatio="none" width="100%" height="100%" overflow="visible" style="display: block;" viewBox="0 0 57.4167 57.4258" fill="none" xmlns="http://www.w3.org/2000/svg">
<g id="Group">
<path id="Vector" d="M57.4166 27.5277C57.4166 25.9289 56.7919 24.4221 55.6709 23.3011C54.5408 22.171 53.0431 21.5554 51.4444 21.5554C49.8456 21.5554 48.3388 22.1802 47.2086 23.3103L46.6665 23.8616V13.1666C46.6665 13.139 46.6482 13.1115 46.6482 13.0839C46.639 12.9828 46.6206 12.8818 46.5838 12.7807C46.5655 12.7348 46.5563 12.698 46.5379 12.6612C46.4828 12.551 46.4185 12.4407 46.3266 12.3397C46.3174 12.3305 46.3174 12.3213 46.3082 12.3121L34.3361 0.358337C34.3269 0.349149 34.3085 0.339961 34.2901 0.321585C34.1982 0.238891 34.1064 0.174575 34.0053 0.128634C33.9593 0.101069 33.9042 0.0918814 33.8491 0.0735051C33.7664 0.0459407 33.6837 0.0275644 33.601 0.0275644C33.5643 0.0275644 33.5275 0 33.4907 0H5.98148C2.68294 0 0 2.68294 0 5.98148V51.4444C0 54.7429 2.68294 57.4258 5.98148 57.4258H40.6759C43.9744 57.4258 46.6573 54.7429 46.6573 51.4444V40.7586L53.9711 33.4448L53.9803 33.4356L55.6709 31.7634C56.801 30.6241 57.4166 29.1264 57.4166 27.5277ZM44.6268 39.4079C44.6176 39.4171 44.6084 39.4263 44.5992 39.4355L36.2104 47.8242L33.6837 45.2975C33.6561 45.2699 33.6194 45.2332 33.5826 45.2056L31.1386 42.7616L46.3633 27.5368L51.426 32.6087L44.6268 39.4079ZM30.0636 45.0586L31.9839 46.9789C32.0206 47.0157 32.0574 47.0432 32.0942 47.0708L33.9134 48.8993L28.621 50.351L30.0636 45.0586ZM34.6944 4.08872L42.5778 11.9721H38.287C36.3115 11.9721 34.6944 10.3642 34.6944 8.37958V4.08872ZM44.2684 51.4444C44.2684 53.4198 42.6605 55.0369 40.6759 55.0369H5.98148C4.00603 55.0369 2.38891 53.429 2.38891 51.4444V5.98148C2.38891 4.00603 3.99684 2.38891 5.98148 2.38891H32.2963V8.37958C32.2963 11.6781 34.9792 14.3611 38.2778 14.3611H44.2684V26.2505L28.6302 41.8887C28.5108 41.999 28.4281 42.1276 28.3638 42.2838C28.3546 42.3022 28.3454 42.3205 28.3362 42.3389C28.327 42.3757 28.2995 42.4032 28.2903 42.4492L25.7452 51.7568C25.6349 52.1702 25.7543 52.6113 26.0575 52.9145C26.2873 53.1442 26.5905 53.2636 26.9029 53.2636C27.0039 53.2636 27.1142 53.2452 27.2153 53.2177L36.5228 50.6726C36.5504 50.6634 36.578 50.645 36.6055 50.6358C36.6423 50.6174 36.679 50.6082 36.725 50.5899C36.8352 50.5347 36.9363 50.4704 37.0282 50.3877C37.0374 50.3785 37.0557 50.3694 37.0649 50.3602L44.2684 43.1567V51.4444ZM53.9803 30.0636L53.1258 30.9089L48.0539 25.837L48.8993 24.9917C50.2499 23.6411 52.6204 23.6411 53.9803 24.9917C54.6602 25.6716 55.0277 26.5721 55.0277 27.5277C55.0277 28.4832 54.6602 29.3837 53.9803 30.0636Z" fill="white"/>
<path id="Vector_2" d="M13.1595 7.17596H5.98359C5.32205 7.17596 4.78914 7.70888 4.78914 8.37042V15.5464C4.78914 16.2079 5.32205 16.7408 5.98359 16.7408H13.1595C13.8211 16.7408 14.354 16.2079 14.354 15.5464V8.37042C14.3632 7.70888 13.8211 7.17596 13.1595 7.17596ZM11.9651 14.3519H7.18724V9.56488H11.9743V14.3519H11.9651Z" fill="white"/>
<path id="Vector_3" d="M17.9445 10.7685H28.713C29.3745 10.7685 29.9074 10.2356 29.9074 9.57405C29.9074 8.9125 29.3745 8.37959 28.713 8.37959H17.9445C17.2829 8.37959 16.75 8.9125 16.75 9.57405C16.75 10.2356 17.2829 10.7685 17.9445 10.7685Z" fill="white"/>
<path id="Vector_4" d="M17.9445 15.5464H25.1204C25.782 15.5464 26.3149 15.0135 26.3149 14.3519C26.3149 13.6904 25.782 13.1575 25.1204 13.1575H17.9445C17.2829 13.1575 16.75 13.6904 16.75 14.3519C16.75 15.0135 17.2829 15.5464 17.9445 15.5464Z" fill="white"/>
<path id="Vector_5" d="M13.1595 20.3517H5.98359C5.32205 20.3517 4.78914 20.8846 4.78914 21.5461V28.7221C4.78914 29.3836 5.32205 29.9165 5.98359 29.9165H13.1595C13.8211 29.9165 14.354 29.3836 14.354 28.7221V21.5461C14.3632 20.8846 13.8211 20.3517 13.1595 20.3517ZM11.9651 27.5276H7.18724V22.7406H11.9743V27.5276H11.9651Z" fill="white"/>
<path id="Vector_6" d="M17.9445 23.9351H28.713C29.3745 23.9351 29.9074 23.4022 29.9074 22.7407C29.9074 22.0791 29.3745 21.5462 28.713 21.5462H17.9445C17.2829 21.5462 16.75 22.0791 16.75 22.7407C16.75 23.4022 17.2829 23.9351 17.9445 23.9351Z" fill="white"/>
<path id="Vector_7" d="M17.9445 28.7129H25.1204C25.782 28.7129 26.3149 28.18 26.3149 27.5185C26.3149 26.8569 25.782 26.324 25.1204 26.324H17.9445C17.2829 26.324 16.75 26.8569 16.75 27.5185C16.75 28.18 17.2829 28.7129 17.9445 28.7129Z" fill="white"/>
<path id="Vector_8" d="M13.1595 33.5183H5.98359C5.32205 33.5183 4.78914 34.0512 4.78914 34.7128V41.8887C4.78914 42.5502 5.32205 43.0832 5.98359 43.0832H13.1595C13.8211 43.0832 14.354 42.5502 14.354 41.8887V34.7128C14.3632 34.0604 13.8211 33.5183 13.1595 33.5183ZM11.9651 40.6942H7.18724V35.9072H11.9743V40.6942H11.9651Z" fill="white"/>
<path id="Vector_9" d="M17.9445 37.1109H28.713C29.3745 37.1109 29.9074 36.578 29.9074 35.9164C29.9074 35.2549 29.3745 34.722 28.713 34.722H17.9445C17.2829 34.722 16.75 35.2549 16.75 35.9164C16.75 36.578 17.2829 37.1109 17.9445 37.1109Z" fill="white"/>
<path id="Vector_10" d="M26.3149 40.6942C26.3149 40.0327 25.782 39.4998 25.1204 39.4998H17.9445C17.2829 39.4998 16.75 40.0327 16.75 40.6942C16.75 41.3558 17.2829 41.8887 17.9445 41.8887H25.1204C25.782 41.8887 26.3149 41.3558 26.3149 40.6942Z" fill="white"/>
</g>
</svg>
