<svg preserveAspectRatio="none" width="100%" height="100%" overflow="visible" style="display: block;" viewBox="0 0 26 29.4513" fill="none" xmlns="http://www.w3.org/2000/svg">
<g id="_148">
<path id="Vector" d="M17.4004 21.5535V22.4912C17.4004 23.377 16.6757 24.1018 15.7898 24.1018H3.33628C2.45044 24.1018 1.72566 23.377 1.72566 22.4912V3.33628C1.72566 2.45044 2.45044 1.72566 3.33628 1.72566H15.7898C16.6757 1.72566 17.4004 2.45044 17.4004 3.33628V4.30266C17.665 4.27965 17.9354 4.26239 18.2058 4.26239C18.5106 4.26239 18.8212 4.27965 19.1261 4.30841V3.33628C19.1261 1.49558 17.6305 0 15.7898 0H3.33628C1.49558 0 0 1.49558 0 3.33628V26.115C0 27.9558 1.49558 29.4513 3.33628 29.4513H15.7898C17.6305 29.4513 19.1261 27.9558 19.1261 26.115V21.542C18.8212 21.5766 18.5106 21.5938 18.2058 21.5938C17.9296 21.5938 17.665 21.5766 17.4004 21.5535ZM10.8947 27.7257H8.22566C7.69646 27.7142 7.2823 27.277 7.29381 26.7478C7.30531 26.2416 7.71372 25.8274 8.22566 25.8159H10.9004C11.4296 25.8044 11.8668 26.2186 11.8783 26.7478C11.8898 27.277 11.4757 27.7142 10.9465 27.7257C10.9292 27.7257 10.9119 27.7257 10.8947 27.7257Z" fill="#F4A31D"/>
<path id="Vector_2" d="M18.2057 5.1309C13.8973 5.1309 10.4057 8.62249 10.4057 12.9309C10.4057 17.2393 13.8973 20.7309 18.2057 20.7309C22.5141 20.7309 26 17.2336 26 12.9309C26 8.62249 22.5084 5.1309 18.2057 5.1309ZM22.6349 11.838L18.0216 16.4513C17.4694 17.0035 16.5778 17.0035 16.0314 16.4513L13.4889 13.9088C12.9482 13.3508 12.9597 12.4592 13.5177 11.9185C14.0641 11.3836 14.9385 11.3836 15.4849 11.9185L17.0265 13.4601L20.6389 9.84196C21.1911 9.28975 22.0827 9.28975 22.6349 9.84196C23.1814 10.3942 23.1814 11.2858 22.6349 11.838Z" fill="#F4A31D"/>
</g>
</svg>
