<svg preserveAspectRatio="none" width="100%" height="100%" overflow="visible" style="display: block;" viewBox="0 0 28.581 28.5855" fill="none" xmlns="http://www.w3.org/2000/svg">
<g id="Group">
<path id="Vector" d="M26.1606 6.34017L25.7329 6.47575L23.4554 6.67865L22.8121 7.70593L22.3454 7.55762L20.5328 5.92344L20.2699 5.07359L19.9177 4.16732L18.7786 3.1455L17.4346 2.88254L17.4037 3.49764L18.7203 4.78242L19.3645 5.54128L18.6402 5.9198L18.0506 5.746L17.1671 5.37749L17.1971 4.66504L16.0379 4.18825L15.653 5.86338L14.4847 6.12816L14.6003 7.06263L16.1225 7.35562L16.3855 5.86247L17.6421 6.04809L18.2262 6.39022H19.1634L19.8049 7.675L21.5055 9.40017L21.3809 10.0708L20.0096 9.89607L17.6403 11.0926L15.9342 13.139L15.7122 14.0452H15.0998L13.9588 13.5193L12.8505 14.0452L13.1262 15.2144L13.6085 14.6585L14.4565 14.6321L14.3974 15.6821L15.0998 15.8878L15.8014 16.6758L16.9469 16.3536L18.2554 16.5602L19.7749 16.9687L20.5338 17.0579L21.8204 18.5183L24.3035 19.9787L22.6975 23.0469L21.0024 23.8349L20.3591 25.5882L17.906 27.2261L17.6448 28.1705C23.9159 26.6601 28.5809 21.0269 28.5809 14.2918C28.5791 11.3501 27.6874 8.6122 26.1606 6.34017Z" fill="#F4A31D"/>
<path id="Vector_2" d="M15.9333 21.7621L14.8924 19.8322L15.8478 17.8413L14.8924 17.5556L13.8196 16.4783L11.4429 15.9451L10.654 14.2945V15.2745H10.3065L8.25827 12.4975V10.2164L6.75693 7.7751L4.37299 8.20002H2.76701L1.95902 7.67046L2.98994 6.85337L1.96175 7.09085C0.722463 9.20729 0 11.6631 0 14.2936C0 22.1852 6.39752 28.5855 14.29 28.5855C14.8978 28.5855 15.4938 28.5318 16.0834 28.4608L15.9342 26.7293C15.9342 26.7293 16.5902 24.1579 16.5902 24.0705C16.5893 23.9823 15.9333 21.7621 15.9333 21.7621Z" fill="#F4A31D"/>
<path id="Vector_3" d="M5.31017 4.60866L7.8488 4.2547L9.01893 3.61322L10.3356 3.99265L12.4393 3.87618L13.1599 2.74336L14.2108 2.91624L16.7631 2.67693L17.4665 1.9017L18.4583 1.23929L19.8613 1.45038L20.3727 1.37304C18.5247 0.503176 16.4683 0 14.2891 0C9.85331 0 5.88705 2.0218 3.26835 5.19645H3.27563L5.31017 4.60866ZM14.8933 1.42127L16.3527 0.617824L17.2899 1.15922L15.9333 2.19195L14.6376 2.32207L14.0543 1.94355L14.8933 1.42127ZM10.5703 1.53864L11.2145 1.80707L12.058 1.53864L12.5175 2.33481L10.5703 2.84617L9.63403 2.29841C9.63403 2.29841 10.5494 1.7088 10.5703 1.53864Z" fill="#F4A31D"/>
</g>
</svg>
