<svg preserveAspectRatio="none" width="100%" height="100%" overflow="visible" style="display: block;" viewBox="0 0 134.951 16.5132" fill="none" xmlns="http://www.w3.org/2000/svg">
<g id="Group">
<path id="Vector" d="M1.00004 3.95813C1.66667 2.7082 2.61106 1.73603 3.83322 1.04162C5.05538 0.347214 6.47197 1.07288e-05 8.0691 1.07288e-05C10.0968 1.07288e-05 11.7911 0.541648 13.1661 1.62492C14.541 2.7082 15.4298 4.16645 15.8326 6.02747H10.9856C10.694 5.41639 10.2912 4.94419 9.77734 4.62476C9.26348 4.30534 8.66629 4.13868 7.99966 4.13868C6.95805 4.13868 6.12476 4.51366 5.4998 5.24973C4.87483 5.99969 4.56929 6.98575 4.56929 8.22179C4.56929 9.47173 4.87483 10.4717 5.4998 11.2216C6.12476 11.9716 6.95805 12.3327 7.99966 12.3327C8.68018 12.3327 9.26348 12.166 9.77734 11.8466C10.2912 11.5272 10.694 11.055 10.9856 10.4439H15.8326C15.4298 12.3049 14.541 13.7632 13.1661 14.8464C11.7911 15.9297 10.0829 16.4713 8.0691 16.4713C6.47197 16.4713 5.06926 16.1241 3.83322 15.4297C2.61106 14.7353 1.66667 13.7632 1.00004 12.5132C0.333407 11.2633 9.15527e-05 9.83282 9.15527e-05 8.22179C9.15527e-05 6.62466 0.333407 5.20807 1.00004 3.95813Z" fill="white"/>
<path id="Vector_2" d="M17.9574 6.40262C18.4435 5.40267 19.0963 4.63882 19.9296 4.09719C20.7628 3.55555 21.6934 3.29167 22.7211 3.29167C23.6099 3.29167 24.3738 3.47222 25.0265 3.81942C25.6654 4.16663 26.1653 4.65271 26.5264 5.2499V3.45833H31.0262V16.3465H26.5264V14.555C26.1792 15.1522 25.6654 15.6243 25.0265 15.9854C24.3738 16.3326 23.6099 16.5132 22.735 16.5132C21.7072 16.5132 20.7767 16.2493 19.9434 15.7077C19.1102 15.166 18.4435 14.4022 17.9713 13.4022C17.4852 12.4023 17.2491 11.2357 17.2491 9.90243C17.2353 8.56917 17.4714 7.40257 17.9574 6.40262ZM25.8459 7.9442C25.3876 7.47201 24.8321 7.23591 24.1793 7.23591C23.4988 7.23591 22.9433 7.47201 22.4989 7.93031C22.0544 8.40251 21.8322 9.05525 21.8322 9.90243C21.8322 10.7357 22.0544 11.3885 22.4989 11.8607C22.9433 12.3467 23.4988 12.5828 24.1793 12.5828C24.8321 12.5828 25.3876 12.3467 25.8459 11.8745C26.3042 11.4024 26.5264 10.7357 26.5264 9.90243C26.5264 9.06914 26.2903 8.4164 25.8459 7.9442Z" fill="white"/>
<path id="Vector_3" d="M39.9423 3.98635C40.6645 3.55582 41.4423 3.3475 42.2617 3.3475V8.1528H40.9978C40.0118 8.1528 39.2896 8.34723 38.8174 8.72221C38.3452 9.11108 38.1091 9.77771 38.1091 10.7221V16.3468H33.6093V3.4586H38.1091V5.73626C38.6091 5.00019 39.2202 4.41689 39.9423 3.98635Z" fill="white"/>
<path id="Vector_4" d="M51.4832 12.5134V16.3465H49.525C46.2335 16.3465 44.5808 14.7077 44.5808 11.444V7.19424H42.9975V3.44444H44.5808V0.333493H49.1083V3.45832H51.4554V7.20812H49.1083V11.5273C49.1083 11.8745 49.1916 12.1384 49.3444 12.2912C49.5111 12.444 49.7749 12.5273 50.1638 12.5273H51.4832V12.5134Z" fill="white"/>
<path id="Vector_5" d="M70.0657 8.23587C69.6074 9.04139 68.9268 9.68024 68.0241 10.1663C67.1075 10.6524 65.9964 10.8885 64.6771 10.8885H62.4411V16.3604H57.9413V0.152976H64.6771C65.9825 0.152976 67.0797 0.389074 67.9963 0.847383C68.9129 1.30569 69.5935 1.94455 70.0518 2.75006C70.5101 3.55557 70.7462 4.49996 70.7462 5.55546C70.7462 6.54152 70.524 7.43036 70.0657 8.23587ZM66.1492 5.55546C66.1492 4.37497 65.5103 3.79167 64.2465 3.79167H62.455V7.30537H64.2465C65.5103 7.30537 66.1492 6.72207 66.1492 5.55546Z" fill="white"/>
<path id="Vector_6" d="M75.0929 15.708C74.0791 15.1664 73.2735 14.4025 72.6902 13.4026C72.1069 12.4026 71.8153 11.236 71.8153 9.88887C71.8153 8.5556 72.1069 7.389 72.7041 6.38905C73.2874 5.38911 74.0929 4.62526 75.1207 4.08362C76.1345 3.54198 77.2872 3.27811 78.5788 3.27811C79.8704 3.27811 81.0231 3.54198 82.037 4.08362C83.0508 4.62526 83.8563 5.38911 84.4535 6.38905C85.0368 7.389 85.3423 8.5556 85.3423 9.88887C85.3423 11.2221 85.0507 12.3887 84.4535 13.3887C83.8702 14.3886 83.0508 15.1664 82.0231 15.6941C80.9953 16.2357 79.8426 16.4996 78.551 16.4996C77.2594 16.4996 76.1206 16.2496 75.0929 15.708ZM80.1343 11.9165C80.5509 11.4443 80.7731 10.7777 80.7731 9.90275C80.7731 9.0278 80.5648 8.36117 80.1343 7.90286C79.7176 7.44455 79.1899 7.20845 78.5788 7.20845C77.9677 7.20845 77.4539 7.44455 77.0372 7.90286C76.6206 8.36117 76.4123 9.0278 76.4123 9.90275C76.4123 10.7916 76.6067 11.4721 77.0095 11.9304C77.4122 12.3887 77.9261 12.6248 78.551 12.6248C79.1899 12.6109 79.7176 12.3748 80.1343 11.9165Z" fill="white"/>
<path id="Vector_7" d="M94.7864 12.5134V16.3465H92.8281C89.5367 16.3465 87.884 14.7077 87.884 11.444V7.19424H86.3007V3.44444H87.884V0.333493H92.4115V3.45832H94.7586V7.20812H92.4115V11.5273C92.4115 11.8745 92.4948 12.1384 92.6476 12.2912C92.8143 12.444 93.0781 12.5273 93.467 12.5273H94.7864V12.5134Z" fill="white"/>
<path id="Vector_8" d="M96.842 6.40262C97.3281 5.40267 97.9809 4.63882 98.8141 4.09719C99.6474 3.55555 100.578 3.29167 101.606 3.29167C102.494 3.29167 103.258 3.47222 103.911 3.81942C104.55 4.16663 105.05 4.65271 105.411 5.2499V3.45833H109.911V16.3465H105.411V14.555C105.064 15.1522 104.55 15.6243 103.911 15.9854C103.258 16.3326 102.495 16.5132 101.62 16.5132C100.592 16.5132 99.6613 16.2493 98.828 15.7077C97.9947 15.166 97.3281 14.4022 96.8559 13.4022C96.3698 12.4023 96.1337 11.2357 96.1337 9.90243C96.1198 8.56917 96.3559 7.40257 96.842 6.40262ZM104.73 7.9442C104.272 7.47201 103.717 7.23591 103.064 7.23591C102.383 7.23591 101.828 7.47201 101.383 7.93031C100.939 8.40251 100.717 9.05525 100.717 9.90243C100.717 10.7357 100.939 11.3885 101.383 11.8607C101.828 12.3467 102.383 12.5828 103.064 12.5828C103.717 12.5828 104.272 12.3467 104.73 11.8745C105.189 11.4024 105.411 10.7357 105.411 9.90243C105.411 9.06914 105.175 8.4164 104.73 7.9442Z" fill="white"/>
<path id="Vector_9" d="M120.091 12.5134V16.3465H118.133C114.841 16.3465 113.188 14.7077 113.188 11.444V7.19424H111.605V3.44444H113.188V0.333493H117.716V3.45832H120.063V7.20812H117.716V11.5273C117.716 11.8745 117.799 12.1384 117.952 12.2912C118.119 12.444 118.383 12.5273 118.771 12.5273H120.091V12.5134Z" fill="white"/>
<path id="Vector_10" d="M124.702 15.708C123.688 15.1664 122.882 14.4025 122.299 13.4026C121.716 12.4026 121.424 11.236 121.424 9.88887C121.424 8.5556 121.716 7.389 122.313 6.38905C122.896 5.38911 123.702 4.62526 124.729 4.08362C125.743 3.54198 126.896 3.27811 128.188 3.27811C129.479 3.27811 130.632 3.54198 131.646 4.08362C132.66 4.62526 133.465 5.38911 134.062 6.38905C134.646 7.389 134.951 8.5556 134.951 9.88887C134.951 11.2221 134.659 12.3887 134.062 13.3887C133.479 14.3886 132.66 15.1664 131.632 15.6941C130.604 16.2357 129.451 16.4996 128.16 16.4996C126.868 16.5135 125.715 16.2496 124.702 15.708ZM129.729 11.9165C130.146 11.4443 130.368 10.7777 130.368 9.90275C130.368 9.0278 130.16 8.36117 129.729 7.90286C129.313 7.44455 128.785 7.20845 128.174 7.20845C127.563 7.20845 127.049 7.44455 126.632 7.90286C126.215 8.36117 126.007 9.0278 126.007 9.90275C126.007 10.7916 126.202 11.4721 126.604 11.9304C127.007 12.3887 127.521 12.6248 128.146 12.6248C128.785 12.6109 129.313 12.3748 129.729 11.9165Z" fill="white"/>
</g>
</svg>
