<svg preserveAspectRatio="none" width="100%" height="100%" overflow="visible" style="display: block;" viewBox="0 0 55.9076 57.469" fill="none" xmlns="http://www.w3.org/2000/svg">
<g id="Group">
<path id="Vector" opacity="0.8" d="M3.09055 16.1052C3.03168 16.1446 3.02187 16.2495 2.90415 16.2069C2.77007 16.1577 2.81258 16.0528 2.81258 15.9741C2.81585 15.6299 3.06112 15.384 3.21809 15.1184C3.79038 14.148 4.33651 13.1578 5.01671 12.2562C5.56611 11.5251 6.11224 10.7973 6.70742 10.099C7.37128 9.31868 8.05803 8.57445 8.7971 7.86957C9.71603 6.9942 10.6938 6.20079 11.7141 5.45657C13.0419 4.48612 14.4513 3.6501 15.9197 2.9157C23.7388 -1.00214 33.6116 -0.985751 41.362 3.05012C42.693 3.74189 43.9651 4.53202 45.1522 5.45001C45.9469 6.0631 46.7285 6.69257 47.5166 7.31877C47.8404 7.5745 47.8469 7.86957 47.5362 8.16464C45.2765 10.3022 43.1018 12.5284 40.9042 14.7283C40.502 15.1282 40.1292 15.5577 39.7465 15.9774C39.4817 16.2724 39.1644 16.3085 38.9257 15.9971C38.3011 15.184 37.4247 14.6988 36.5908 14.1676C35.0145 13.1644 33.2748 12.5579 31.4434 12.253C30.8581 12.1546 30.2662 12.053 29.6481 12.0595C29.0758 12.0661 28.4871 11.9579 27.9083 11.9972C26.489 12.0956 25.0894 12.2792 23.7126 12.6923C22.1789 13.1513 20.7759 13.8529 19.4515 14.725C18.477 15.3676 17.6071 16.1413 16.7863 16.9806C15.9654 17.8199 15.2362 18.7248 14.6148 19.7149C13.9314 20.8001 13.3296 21.9214 12.9732 23.1639C12.8751 23.5115 12.7377 23.5803 12.5513 23.3967C10.3603 21.6984 8.17576 19.9969 5.97816 18.3051C5.01998 17.5675 4.09778 16.7806 3.09382 16.1052H3.09055Z" fill="#E44135"/>
<path id="Vector_2" opacity="0.6" d="M12.545 34.3344C12.7576 34.1508 12.8753 34.2623 12.9407 34.4754C13.3364 35.7737 13.9708 36.954 14.6837 38.0949C15.1285 38.8064 15.6746 39.449 16.2142 40.0948C16.7342 40.7112 17.2999 41.2718 17.9049 41.7833C18.5884 42.3603 19.3209 42.8816 20.0894 43.3537C22.0941 44.5864 24.2753 45.3011 26.5906 45.5929C27.4932 45.7077 28.4187 45.6913 29.3278 45.6552C31.6137 45.5667 33.8276 45.1438 35.914 44.134C36.5452 43.8291 37.1535 43.4914 37.7454 43.1275C37.9285 43.016 38.0593 42.9471 38.0822 43.2455C38.1705 43.3275 38.2555 43.4127 38.3504 43.4848C41.1922 45.6978 44.0373 47.9108 46.8791 50.1239C47.0034 50.2189 47.1604 50.2878 47.216 50.455C47.2977 50.3894 47.3991 50.3599 47.4481 50.4648C47.5005 50.5796 47.458 50.7107 47.3631 50.7927C47.0197 51.0877 46.6764 51.3795 46.3232 51.6615C45.571 52.268 44.796 52.8483 43.985 53.3696C43.0955 53.9401 42.1667 54.4548 41.2118 54.9105C40.0149 55.4843 38.7755 55.9597 37.5067 56.3498C36.1103 56.7793 34.6943 57.176 33.2423 57.3137C30.4037 57.5792 27.5521 57.4317 24.707 57.3956C23.4872 57.3793 22.2903 56.9891 21.0999 56.6776C19.9684 56.3793 18.8663 55.999 17.7774 55.5793C16.7047 55.1662 15.6615 54.6679 14.6674 54.0843C13.719 53.5303 12.7674 52.986 11.8811 52.327C10.9557 51.6385 10.0662 50.9107 9.19955 50.1468C8.64034 49.655 8.11056 49.137 7.60368 48.5961C6.7338 47.6715 5.93586 46.6912 5.19679 45.6519C4.4152 44.5536 3.68921 43.4291 3.0646 42.2357C2.96322 42.0423 2.7245 41.9242 2.76701 41.6554C2.78009 41.5669 2.7572 41.4751 2.87493 41.4292C3.00247 41.3767 3.0319 41.4784 3.09076 41.5439C3.22484 41.4554 3.36219 41.3735 3.48973 41.2751C6.36099 39.0424 9.22898 36.8065 12.1035 34.5771C12.2343 34.4754 12.3422 34.3115 12.5483 34.3312L12.545 34.3344Z" fill="#34A050"/>
<path id="Vector_3" d="M47.2163 50.4585C47.1607 50.288 47.0038 50.2224 46.8795 50.1274C44.0377 47.9143 41.1926 45.7013 38.3507 43.4883C38.2559 43.4162 38.1741 43.3277 38.0826 43.249C37.7621 43.1867 37.8994 43.0654 38.0401 42.9408C38.3867 42.6326 38.7955 42.413 39.1454 42.1048C39.9172 41.4261 40.6301 40.6983 41.2351 39.8688C42.1049 38.6787 42.7557 37.3771 43.1645 35.9575C43.2692 35.5969 43.2953 35.21 43.4556 34.9445C43.0468 35.0494 42.5497 34.9904 42.0657 35.0363C40.3259 35.2035 38.5764 35.1018 36.8333 35.1182C34.9889 35.1346 33.1445 35.1182 31.3001 35.1248C30.4139 35.1248 29.5342 34.9445 28.6414 35.0461C28.2817 35.0887 28.0953 34.7346 28.1116 34.4461C28.1443 33.8134 28.0953 33.1806 28.0724 32.5446C27.9743 30.0168 27.9383 27.4891 28.1149 24.9613C28.1378 24.6302 28.1542 24.3024 28.1149 23.9679C28.0626 23.5614 28.298 23.309 28.7036 23.2926C34.9006 23.0532 41.0977 23.227 47.2948 23.1778C48.737 23.1647 50.1759 23.1877 51.618 23.1713C52.3931 23.1647 53.1681 23.204 53.9366 23.2729C54.244 23.2991 54.5416 23.2958 54.8458 23.2631C55.4213 23.2008 55.5783 23.3549 55.6568 23.9188C56.0819 27.0039 55.8366 30.1054 55.8399 33.2003C55.8399 35.0264 55.3494 36.81 54.8392 38.564C54.2637 40.554 53.4755 42.4589 52.465 44.2653C51.6377 45.744 50.6991 47.1472 49.584 48.4291C48.9626 49.1405 48.374 49.8815 47.6513 50.4946C47.5695 50.5634 47.4877 50.6487 47.3896 50.6749C47.1967 50.7306 47.0888 50.6782 47.2163 50.4585Z" fill="#3F7FEE"/>
<path id="Vector_4" opacity="0.4" d="M12.5452 34.3337C12.3424 34.3108 12.2345 34.4747 12.1005 34.5796C9.22919 36.809 6.35793 39.045 3.48667 41.2777C3.35913 41.376 3.22178 41.458 3.0877 41.5465C3.12694 41.6514 3.09424 41.7563 2.99286 41.7563C2.85878 41.7563 2.74433 41.6809 2.68219 41.5432C1.7698 39.5728 0.965322 37.5598 0.471517 35.4419C0.187007 34.219 -0.0320985 32.983 0.00387405 31.7011C0.0594679 29.7208 0.0529275 27.7373 0.00387405 25.7538C-0.0288282 24.4293 0.242601 23.1638 0.559813 21.8983C0.906457 20.5278 1.36429 19.1902 1.90061 17.8788C2.14587 17.2788 2.42711 16.6952 2.68873 16.1018C2.75087 15.9641 2.83916 15.8756 2.99613 15.8985C3.12367 15.9149 3.12367 16.0035 3.08443 16.1018C4.08839 16.7805 5.0106 17.564 5.96877 18.3017C8.1631 19.9934 10.3509 21.695 12.5419 23.3933C12.7283 23.2261 12.7643 23.367 12.7774 23.5146C12.7905 23.7211 12.6989 23.908 12.64 24.0982C12.1691 25.6981 11.9566 27.3242 11.9827 28.9996C12.0089 30.711 12.1986 32.3797 12.8068 33.9862C12.8624 34.1305 12.8363 34.2813 12.7316 34.3928C12.6531 34.478 12.5943 34.3829 12.5419 34.3305L12.5452 34.3337Z" fill="#F6D37D"/>
</g>
</svg>
