<svg preserveAspectRatio="none" width="100%" height="100%" overflow="visible" style="display: block;" viewBox="0 0 29.5051 29.49" fill="none" xmlns="http://www.w3.org/2000/svg">
<g id="Layer 2">
<path id="Vector" d="M14.3743 29.49C11.5261 29.4184 8.7597 28.5228 6.40997 26.9116C4.06024 25.3004 2.22792 23.0426 1.13481 20.4115H8.07987C8.42327 22.5165 9.14615 24.5416 10.2133 26.3882C10.6161 27.1945 11.2024 27.8951 11.925 28.4338C12.6476 28.9725 13.4865 29.3343 14.3743 29.49ZM19.2918 3.11695C20.3626 4.95789 21.0905 6.97776 21.4404 9.0785H28.3703C27.2772 6.44745 25.4449 4.18964 23.0952 2.5784C20.7454 0.967155 17.979 0.0715514 15.1308 0C16.0201 0.157338 16.8599 0.521378 17.5826 1.06278C18.3054 1.60419 18.8908 2.30781 19.2918 3.11695ZM29.1117 11.3481H21.7581C21.8814 12.4787 21.942 13.6153 21.9397 14.7526C21.942 15.8899 21.8814 17.0264 21.7581 18.157H29.0966C29.6413 15.9201 29.6413 13.5851 29.0966 11.3481H29.1117ZM10.41 9.0785H19.0951C18.2175 4.88726 16.417 2.26963 14.7526 2.26963C13.0882 2.26963 11.2876 4.88726 10.41 9.0785ZM8.07987 9.0785C8.42504 6.97875 9.14786 4.95894 10.2133 3.11695C10.6237 2.32659 11.2116 1.64204 11.9309 1.117C12.6502 0.591961 13.4813 0.240705 14.3592 0.0907849C11.5238 0.157551 8.76785 1.04106 6.42214 2.63529C4.07642 4.22951 2.24055 6.46674 1.13481 9.0785H8.07987ZM9.83504 14.7526C9.83628 15.8902 9.90195 17.0268 10.0317 18.157H19.4734C19.6032 17.0268 19.6689 15.8902 19.6701 14.7526C19.6689 13.6149 19.6032 12.4783 19.4734 11.3481H10.0317C9.90195 12.4783 9.83628 13.6149 9.83504 14.7526ZM21.4253 20.4266C21.0801 22.5264 20.3573 24.5462 19.2918 26.3882C18.8815 27.1785 18.2936 27.8631 17.5743 28.3881C16.855 28.9132 16.0238 29.2644 15.146 29.4143C17.9942 29.3428 20.7606 28.4472 23.1103 26.8359C25.46 25.2247 27.2923 22.9669 28.3854 20.3358H21.4253V20.4266ZM7.80751 18.157C7.56537 15.8938 7.56537 13.6113 7.80751 11.3481H0.408533C-0.136178 13.5851 -0.136178 15.9201 0.408533 18.157H7.74699H7.80751ZM19.1556 20.4266H10.41C11.2876 24.6179 13.0882 27.2355 14.7526 27.2355C16.417 27.2355 18.2175 24.6179 19.0951 20.4266H19.1556Z" fill="#F4A31D"/>
</g>
</svg>
