<svg preserveAspectRatio="none" width="100%" height="100%" overflow="visible" style="display: block;" viewBox="0 0 27.7648 27.7592" fill="none" xmlns="http://www.w3.org/2000/svg">
<g id="layer1">
<path id="path825" d="M12.0117 0C5.39274 0 0 5.38554 0 12.0045C-3.69368e-08 18.6234 5.39274 24.0071 12.0117 24.0071C14.9886 24.0071 17.7101 22.913 19.8103 21.1124L20.8581 22.1603L20.2052 22.8132C20.0321 22.9864 19.9349 23.2212 19.9349 23.4661C19.9349 23.7109 20.0321 23.9458 20.2052 24.119L22.9737 26.8892C23.5794 27.4953 24.3586 27.7895 25.0821 27.7567C25.8056 27.7253 26.451 27.4001 26.9271 26.9253C27.4032 26.4505 27.7281 25.8073 27.7622 25.0839C27.7963 24.3604 27.5021 23.5798 26.8964 22.9737L24.1244 20.1998C24.0371 20.1126 23.9333 20.0437 23.819 19.9972C23.7047 19.9507 23.5822 19.9277 23.4589 19.9293C23.2184 19.9327 22.9887 20.0297 22.8186 20.1998L22.1639 20.8545L21.116 19.8067C22.919 17.7064 24.0162 14.9832 24.0162 12.0045C24.0162 5.38554 18.6306 0 12.0117 0ZM13.8513 7.38196H17.5468C17.6687 7.38149 17.7894 7.40515 17.9021 7.45158C18.0148 7.498 18.1172 7.56627 18.2034 7.65244C18.2895 7.73862 18.3578 7.841 18.4042 7.95368C18.4506 8.06636 18.4743 8.18712 18.4738 8.30899V12.0045C18.4766 12.1275 18.4547 12.2498 18.4095 12.3642C18.3643 12.4786 18.2967 12.5828 18.2107 12.6708C18.1247 12.7587 18.022 12.8286 17.9086 12.8763C17.7952 12.924 17.6734 12.9486 17.5504 12.9486C17.4274 12.9486 17.3056 12.924 17.1922 12.8763C17.0788 12.8286 16.9761 12.7587 16.8901 12.6708C16.8041 12.5828 16.7365 12.4786 16.6913 12.3642C16.6461 12.2498 16.6243 12.1275 16.627 12.0045V10.5364L12.6592 14.4988C12.299 14.8567 11.7172 14.8567 11.357 14.4988L10.1648 13.3048L7.12405 16.3456C6.2567 17.2755 4.88935 15.9157 5.81467 15.0435L9.51016 11.3498C9.87034 10.9918 10.4521 10.9918 10.8123 11.3498L12.0045 12.5491L15.3248 9.2288H13.8513C13.7283 9.23156 13.606 9.20972 13.4915 9.16455C13.3771 9.11939 13.2728 9.05181 13.1848 8.96579C13.0969 8.87977 13.027 8.77704 12.9792 8.66363C12.9315 8.55022 12.9069 8.42842 12.9069 8.30538C12.9069 8.18234 12.9315 8.06054 12.9792 7.94713C13.027 7.83372 13.0969 7.73099 13.1848 7.64497C13.2728 7.55895 13.3771 7.49137 13.4915 7.44621C13.606 7.40104 13.7283 7.3792 13.8513 7.38196Z" fill="#F4A31D"/>
</g>
</svg>
