<svg preserveAspectRatio="none" width="100%" height="100%" overflow="visible" style="display: block;" viewBox="0 0 30 23.3226" fill="none" xmlns="http://www.w3.org/2000/svg">
<g id="_x31_1-DSLR_Camera">
<path id="Vector" d="M27.8135 3.11865H19.8724L18.2688 0.424766C18.112 0.161381 17.8282 1.16825e-05 17.5216 1.16825e-05H12.4783C12.1717 1.16825e-05 11.8879 0.161381 11.7311 0.424766L10.1275 3.11865H7.5217V2.52491C7.5217 2.04471 7.13238 1.65539 6.65217 1.65539H3.43484C2.95454 1.65539 2.56532 2.04471 2.56532 2.52491V3.11865H2.18654C0.978858 3.11865 0 4.09761 0 5.3051V21.1361C0 22.3437 0.978858 23.3226 2.18645 23.3226H27.8135C29.021 23.3226 30 22.3437 30 21.1361V5.3051C30.0001 4.09761 29.021 3.11865 27.8135 3.11865ZM15 19.4443C11.5627 19.4443 8.77624 16.6579 8.77624 13.2205C8.77624 9.78332 11.5627 6.99679 15 6.99679C18.4372 6.99679 21.2237 9.78332 21.2237 13.2205C21.2237 16.6579 18.4372 19.4443 15 19.4443ZM26.4493 7.62646H23.7246C23.2444 7.62646 22.8551 7.23714 22.8551 6.75684C22.8551 6.27654 23.2444 5.88722 23.7246 5.88722H26.4493C26.9297 5.88722 27.3189 6.27654 27.3189 6.75684C27.3189 7.23714 26.9296 7.62646 26.4493 7.62646Z" fill="#F4A31D"/>
<path id="Vector_2" d="M14.9999 17.5683C17.4012 17.5683 19.3478 15.6217 19.3478 13.2204C19.3478 10.8192 17.4012 8.87254 14.9999 8.87254C12.5986 8.87254 10.652 10.8192 10.652 13.2204C10.652 15.6217 12.5986 17.5683 14.9999 17.5683Z" fill="#F4A31D"/>
</g>
</svg>
