<svg preserveAspectRatio="none" width="100%" height="100%" overflow="visible" style="display: block;" viewBox="0 0 46 46" fill="none" xmlns="http://www.w3.org/2000/svg">
<g id="Group 295">
<path id="Vector" d="M23 0C10.2994 0 4.88311e-05 10.2994 4.88311e-05 23C4.88311e-05 35.7006 10.2994 46 23 46C35.7007 46 46 35.7006 46 23C46 10.2994 35.7007 0 23 0ZM23.4875 36.3913C23.4879 36.3913 23.4872 36.3913 23.4875 36.3913H23.4819C21.1779 36.3902 18.9139 35.8126 16.9033 34.7162L9.60596 36.6299L11.559 29.4986C10.3542 27.4118 9.72037 25.0443 9.72142 22.6189C9.72458 15.0313 15.8999 8.85838 23.4875 8.85838C27.1697 8.85979 30.6262 10.2931 33.225 12.894C35.8242 15.4952 37.2547 18.9528 37.2533 22.6297C37.2501 30.2177 31.0741 36.3913 23.4875 36.3913Z" fill="#F4A31D"/>
<path id="Vector_2" d="M23.4916 11.1836C17.1804 11.1836 12.0477 16.3142 12.0449 22.6208C12.0442 24.7819 12.6493 26.8866 13.7944 28.7077L14.0664 29.1404L12.9104 33.3613L17.2408 32.2256L17.6588 32.4734C19.4153 33.5157 21.429 34.0671 23.4821 34.0678H23.4867C29.7929 34.0678 34.9256 28.9369 34.9284 22.6299C34.9295 19.5735 33.7404 16.6999 31.5803 14.538C29.4202 12.3761 26.5473 11.1846 23.4916 11.1836ZM30.2214 27.5383C29.9347 28.3413 28.5607 29.0744 27.8999 29.1734C27.3071 29.2618 26.5575 29.2987 25.7335 29.0372C25.2337 28.8786 24.5932 28.667 23.7723 28.3129C20.3221 26.8234 18.0687 23.3504 17.8967 23.1209C17.7247 22.8914 16.4922 21.2563 16.4922 19.5636C16.4922 17.8713 17.3808 17.0392 17.696 16.6953C18.0115 16.351 18.3842 16.265 18.6133 16.265C18.8425 16.265 19.072 16.2671 19.2724 16.277C19.4837 16.2875 19.7673 16.1966 20.0463 16.8673C20.333 17.5558 21.0209 19.2481 21.1069 19.4201C21.1928 19.5924 21.25 19.7932 21.1356 20.0227C21.0209 20.2522 20.6397 20.7474 20.2758 21.1987C20.1231 21.3879 19.9241 21.5563 20.1249 21.9006C20.3253 22.2446 21.016 23.3708 22.0383 24.2825C23.3522 25.454 24.4606 25.8169 24.8045 25.9892C25.1481 26.1612 25.3488 26.1324 25.5496 25.9032C25.75 25.6737 26.4094 24.8992 26.6386 24.5549C26.8677 24.2106 27.0973 24.2681 27.4124 24.3829C27.7279 24.4973 29.4188 25.3294 29.7627 25.5014C30.1067 25.6737 30.3358 25.7597 30.4218 25.9032C30.5082 26.0468 30.5082 26.735 30.2214 27.5383Z" fill="#F4A31D"/>
</g>
</svg>
