<svg preserveAspectRatio="none" width="100%" height="100%" overflow="visible" style="display: block;" viewBox="0 0 35.9968 35.9781" fill="none" xmlns="http://www.w3.org/2000/svg">
<g id="Group">
<path id="Vector" d="M33.8371 13.1288C33.8308 12.9204 33.8245 12.712 33.8308 12.5036C33.8434 11.0953 34.2981 9.6618 35.1822 8.24723C35.7127 7.38838 35.9968 6.40323 35.9968 5.39281C35.9968 3.86457 35.3401 2.39947 34.1971 1.37643C33.0603 0.353386 31.5258 -0.132875 29.9975 0.0313173C27.5789 0.302865 25.5896 2.23528 25.2612 4.64132C25.0781 5.96117 25.3812 7.28734 26.1074 8.37984C26.9221 9.60497 27.3641 11.0322 27.3768 12.5036C27.3768 12.712 27.3768 12.9204 27.3705 13.1351C27.3389 14.5812 26.8968 15.9769 26.1074 17.1767C25.5201 18.0545 25.2107 19.0776 25.2107 20.1385C25.1981 23.0056 27.522 25.4305 30.3827 25.5442C30.4522 25.5505 30.528 25.5505 30.6038 25.5505C32.0057 25.5505 33.3256 25.0201 34.336 24.0475C35.4095 23.0182 35.9968 21.6352 35.9968 20.1575C35.9968 19.1218 35.7064 18.1177 35.1506 17.2525C34.3234 15.9579 33.8687 14.5307 33.8371 13.1288ZM31.5321 20.3406C31.5195 20.3974 31.5005 20.4606 31.4753 20.5174C31.4563 20.5742 31.4247 20.6311 31.3868 20.6816C31.3553 20.7321 31.3174 20.7826 31.2732 20.8269C31.229 20.8647 31.1784 20.909 31.1279 20.9405C31.0774 20.9784 31.0206 21.0037 30.9637 21.0289C30.9069 21.0542 30.8501 21.0731 30.7869 21.0858C30.7238 21.0921 30.6669 21.0984 30.6038 21.0984C30.5406 21.0984 30.4775 21.0921 30.4206 21.0858C30.3575 21.0731 30.3007 21.0542 30.2375 21.0289C30.1807 21.0037 30.1301 20.9784 30.0796 20.9405C30.0228 20.909 29.9786 20.8647 29.9344 20.8269C29.8902 20.7826 29.8523 20.7321 29.8144 20.6816C29.7828 20.6311 29.7512 20.5742 29.726 20.5174C29.7007 20.4606 29.6881 20.3974 29.6755 20.3406C29.6628 20.2774 29.6565 20.2143 29.6565 20.1511C29.6565 20.0943 29.6628 20.0312 29.6755 19.968C29.6881 19.9112 29.7007 19.848 29.726 19.7912C29.7512 19.7343 29.7828 19.6775 29.8144 19.627C29.8523 19.5765 29.8902 19.5259 29.9344 19.4817C29.9786 19.4439 30.0228 19.3996 30.0796 19.3681C30.1301 19.3302 30.1807 19.3049 30.2375 19.2797C30.3007 19.2544 30.3575 19.2355 30.4206 19.2228C30.5406 19.2039 30.6669 19.2039 30.7869 19.2228C30.8501 19.2355 30.9069 19.2544 30.9637 19.2797C31.0206 19.3049 31.0774 19.3302 31.1279 19.3681C31.1784 19.3996 31.229 19.4439 31.2732 19.4817C31.3174 19.5259 31.3553 19.5765 31.3868 19.627C31.4247 19.6775 31.4563 19.7343 31.4753 19.7912C31.5005 19.848 31.5195 19.9112 31.5321 19.968C31.5447 20.0312 31.551 20.0943 31.551 20.1511C31.551 20.2143 31.5447 20.2774 31.5321 20.3406ZM31.5321 5.36755C31.5195 5.43071 31.5005 5.48754 31.4753 5.54438C31.4563 5.60121 31.4247 5.65805 31.3868 5.70857C31.3553 5.75909 31.3174 5.80961 31.2732 5.85381C31.229 5.89802 31.1784 5.93591 31.1279 5.9738C31.0774 6.00538 31.0206 6.03695 30.9637 6.0559C30.9069 6.08116 30.8501 6.1001 30.7869 6.11273C30.7238 6.12536 30.6669 6.13168 30.6038 6.13168C30.5406 6.13168 30.4775 6.12536 30.4206 6.11273C30.3575 6.1001 30.3007 6.08116 30.2375 6.0559C30.1807 6.03695 30.1301 6.00538 30.0796 5.9738C30.0228 5.93591 29.9786 5.89802 29.9344 5.85381C29.8902 5.80961 29.8523 5.75909 29.8144 5.70857C29.7828 5.65805 29.7512 5.60121 29.726 5.54438C29.7007 5.48754 29.6881 5.43071 29.6755 5.36755C29.6628 5.3044 29.6565 5.24757 29.6565 5.18442C29.6565 5.12127 29.6628 5.05812 29.6755 5.00128C29.6881 4.93813 29.7007 4.88129 29.726 4.81814C29.7512 4.76131 29.7828 4.71079 29.8144 4.66027C29.8523 4.60343 29.8902 4.55922 29.9344 4.51502C29.9786 4.47081 30.0228 4.43292 30.0796 4.39503C30.1301 4.36346 30.1807 4.33188 30.2375 4.30662C30.3007 4.28768 30.3575 4.26873 30.4206 4.2561C30.5406 4.23084 30.6669 4.23084 30.7869 4.2561C30.8501 4.26873 30.9069 4.28768 30.9637 4.30662C31.0206 4.33188 31.0774 4.36346 31.1279 4.39503C31.1784 4.43292 31.229 4.47081 31.2732 4.51502C31.3174 4.55922 31.3553 4.60343 31.3868 4.66027C31.4247 4.71079 31.4563 4.76131 31.4753 4.81814C31.5005 4.88129 31.5195 4.93813 31.5321 5.00128C31.5447 5.05812 31.551 5.12127 31.551 5.18442C31.551 5.24757 31.5447 5.3044 31.5321 5.36755Z" fill="#F4A31D"/>
<g id="Group_2">
<g id="Group_3">
<path id="Vector_2" d="M5.3917 35.9774C4.19563 35.9774 3.00018 35.589 2.03461 34.8154C0.830325 33.8486 0.0914614 32.417 0.0081024 30.8862C-0.0758881 29.3554 0.496258 27.8575 1.57803 26.7757C2.30174 26.0596 3.19595 25.5632 4.16721 25.3359C5.79334 24.9633 7.12898 24.2724 8.14129 23.2822C8.28843 23.1401 8.4242 22.9993 8.55998 22.8579C9.54639 21.8228 10.2316 20.4916 10.5625 18.9886C10.6749 18.4783 11.1776 18.1531 11.691 18.2668C12.2019 18.3792 12.5246 18.8844 12.4128 19.3953C12.008 21.2368 11.1567 22.8793 9.95055 24.1455C9.77373 24.3299 9.62028 24.489 9.46051 24.6425C8.20191 25.8746 6.56252 26.7309 4.59537 27.1818C3.96892 27.3283 3.38667 27.6529 2.91493 28.1189C2.21775 28.8168 1.84642 29.7893 1.90073 30.7833C1.95567 31.7912 2.42488 32.6986 3.22121 33.3377C4.44507 34.3191 6.24171 34.3412 7.49273 33.3914C8.18612 32.8698 8.65723 32.1246 8.82331 31.2897C9.18896 29.4779 10.063 27.8303 11.35 26.5225C11.5186 26.3545 11.6803 26.1916 11.8432 26.0356C13.1517 24.7833 14.7727 23.9365 16.5321 23.586C17.043 23.4862 17.5444 23.8165 17.6461 24.3299C17.7484 24.8427 17.4156 25.3416 16.9022 25.4439C15.4965 25.7236 14.2012 26.4012 13.1536 27.4034C13.0014 27.55 12.8479 27.7034 12.6945 27.8562C11.6714 28.8963 10.9723 30.2143 10.6806 31.6623C10.4242 32.9512 9.69669 34.1031 8.63512 34.9026C7.68976 35.6206 6.54168 35.9781 5.39297 35.9781L5.3917 35.9774Z" fill="#F4A31D"/>
<path id="Vector_3" d="M18.3035 24.8056C17.9973 24.8056 17.6967 24.6572 17.5142 24.3831C17.2243 23.948 17.343 23.3595 17.7781 23.0696C19.3064 22.0535 21.0891 21.5047 22.9337 21.4839H23.0259C23.5488 21.4839 23.9732 21.9076 23.9732 22.4311C23.9732 22.9547 23.5488 23.3784 23.0259 23.3784H22.9439C21.4769 23.3948 20.0497 23.8337 18.8271 24.6471C18.6654 24.7545 18.4841 24.8056 18.3035 24.8056Z" fill="#F4A31D"/>
<path id="Vector_4" d="M23.0131 18.8251H22.9437C21.1647 18.8049 19.4015 18.253 17.6927 17.1844C17.6541 17.1604 17.6276 17.1421 17.5973 17.1282C17.1224 16.9097 16.914 16.3471 17.1325 15.8722C17.351 15.3966 17.9137 15.1883 18.3892 15.4074C18.4966 15.4573 18.597 15.5141 18.705 15.5836C20.1069 16.4607 21.5392 16.9154 22.9544 16.9312H23.0137C23.5366 16.9312 23.961 17.355 23.961 17.8785C23.961 18.402 23.5366 18.8257 23.0137 18.8257L23.0131 18.8251Z" fill="#F4A31D"/>
<path id="Vector_5" d="M15.8389 25.5482C15.5913 25.5482 15.3438 25.5318 15.0949 25.4983C12.6902 25.17 10.7521 23.1776 10.4837 20.7614C10.2803 18.9458 11.0009 17.1631 12.4129 15.9935C12.9952 15.5142 13.645 15.1732 14.3472 14.9768C14.6327 14.8934 14.9345 14.8322 15.2572 14.793C15.297 14.7874 15.3374 14.7836 15.3779 14.7829C16.2519 14.7097 17.1391 14.8505 17.95 15.1928C18.1287 15.2736 18.2841 15.3507 18.4318 15.4283C18.9535 15.7214 19.4044 16.0775 19.7972 16.5C21.7416 18.6054 21.6677 21.9594 19.6342 23.9796C19.3848 24.2284 19.1158 24.4513 18.8328 24.6427C18.6623 24.7538 18.5064 24.846 18.3352 24.9319C18.2304 24.9881 18.1041 25.0531 17.9797 25.103C17.89 25.1428 17.7807 25.1864 17.6639 25.2306C17.5256 25.2824 17.3892 25.3247 17.2534 25.3588C17.1802 25.3809 17.0634 25.4112 16.9554 25.4346C16.9345 25.439 16.9137 25.4428 16.8922 25.4466C16.8897 25.4466 16.8872 25.4466 16.8846 25.4478C16.5398 25.5148 16.1894 25.5482 15.8376 25.5482H15.8389ZM15.4581 16.6775C15.2497 16.704 15.0558 16.7431 14.8682 16.7981C14.4098 16.9263 13.993 17.146 13.6185 17.4542C12.7034 18.2126 12.2342 19.3715 12.3662 20.5517C12.5399 22.1185 13.7947 23.4093 15.3488 23.6215C15.7454 23.6746 16.1458 23.6626 16.5335 23.5861C16.5474 23.5836 16.5619 23.5811 16.5765 23.5786C16.639 23.5647 16.704 23.5464 16.7659 23.5287C16.8657 23.5034 16.932 23.4826 16.9977 23.4579C17.0804 23.4264 17.1606 23.3948 17.2465 23.3575C17.3381 23.3203 17.4012 23.2843 17.4663 23.2502C17.5926 23.1864 17.6898 23.1283 17.7864 23.0651C17.9557 22.9502 18.1325 22.8037 18.2973 22.6395L18.2992 22.6376C19.6191 21.3272 19.6683 19.1523 18.4097 17.7889C18.1514 17.5123 17.8546 17.2768 17.5288 17.0936C17.4366 17.0456 17.3134 16.9844 17.1903 16.9282C16.6743 16.7103 16.0795 16.6181 15.501 16.6743C15.4871 16.6756 15.472 16.6768 15.4581 16.6775Z" fill="#F4A31D"/>
</g>
<path id="Vector_6" d="M15.8457 21.0985C15.593 21.0985 15.3531 20.9974 15.1763 20.8269C14.9994 20.6501 14.8984 20.4038 14.8984 20.1575C14.8984 19.9049 14.9994 19.6586 15.1763 19.4818C15.391 19.2671 15.7187 19.166 16.0288 19.2229C16.0919 19.2355 16.1481 19.2545 16.2056 19.2797C16.2624 19.305 16.3193 19.3302 16.3698 19.3681C16.4203 19.3997 16.4708 19.4376 16.5144 19.4818C16.6912 19.6649 16.7923 19.9049 16.7923 20.1575C16.7923 20.4038 16.6912 20.6438 16.5144 20.8269C16.4708 20.8711 16.4203 20.909 16.3698 20.9406C16.3193 20.9785 16.2624 21.0037 16.2056 21.029C16.1481 21.0543 16.0913 21.0732 16.0288 21.0858C15.9656 21.0921 15.9088 21.0985 15.8457 21.0985Z" fill="#F4A31D"/>
<path id="Vector_7" d="M5.34312 31.6067C5.09052 31.6067 4.85054 31.5057 4.67309 31.3289C4.62952 31.2847 4.58468 31.2341 4.55374 31.1836C4.52279 31.1331 4.48995 31.0763 4.46469 31.0194C4.44006 30.9626 4.4268 30.8994 4.4148 30.8426C4.40154 30.7795 4.39586 30.7163 4.39586 30.6595C4.39586 30.4069 4.4969 30.1606 4.67309 29.9838C4.71161 29.9395 4.76213 29.9017 4.81265 29.8701C4.86317 29.8322 4.92001 29.8069 4.97685 29.7817C5.03368 29.7564 5.0962 29.7375 5.15367 29.7248C5.27934 29.7059 5.40564 29.7059 5.52626 29.7248C5.58941 29.7375 5.64561 29.7564 5.70308 29.7817C5.75991 29.8069 5.81675 29.8322 5.86727 29.8701C5.91779 29.9017 5.96831 29.9395 6.01189 29.9838C6.18871 30.1606 6.28975 30.4069 6.28975 30.6595C6.28975 30.7163 6.28343 30.7795 6.2708 30.8426C6.25817 30.8994 6.23923 30.9626 6.21397 31.0194C6.18871 31.0763 6.16345 31.1331 6.12556 31.1836C6.09335 31.2341 6.05609 31.2847 6.01125 31.3289C5.83506 31.5057 5.58814 31.6067 5.34186 31.6067H5.34312Z" fill="#F4A31D"/>
</g>
</g>
</svg>
