<svg preserveAspectRatio="none" width="100%" height="100%" overflow="visible" style="display: block;" viewBox="0 0 58.9987 58.9995" fill="none" xmlns="http://www.w3.org/2000/svg">
<g id="Group 266">
<path id="Vector" d="M0.0786666 40.914C0.113083 41.3467 0.426767 41.7056 0.851567 41.7971L4.27848 42.5365C4.39943 43.1206 4.55283 43.6969 4.73868 44.2593L2.14465 46.6095C1.8231 46.9006 1.73067 47.3686 1.9175 47.761C2.39147 48.7581 2.91952 49.6795 3.4869 50.4996C3.73273 50.8555 4.1831 51.0089 4.59708 50.8762L7.92763 49.8034C8.32588 50.2498 8.7497 50.6736 9.19613 51.0719L8.12332 54.4024C7.99057 54.8144 8.14298 55.2658 8.49993 55.5126C9.32003 56.08 10.2414 56.608 11.2385 57.082C11.6318 57.2688 12.0989 57.1754 12.39 56.8548L14.7402 54.2608C15.3036 54.4457 15.8798 54.6001 16.4639 54.721L17.2034 58.1479C17.2949 58.5717 17.6538 58.8854 18.0855 58.9208C18.6086 58.9621 19.1327 58.9995 19.6667 58.9995C20.2006 58.9995 20.7247 58.9621 21.2479 58.9208C21.6805 58.8864 22.0394 58.5727 22.1309 58.1479L22.8704 54.721C23.4545 54.6001 24.0317 54.4467 24.5941 54.2608L26.9443 56.8548C27.2364 57.1764 27.7044 57.2698 28.0958 57.082C29.0929 56.608 30.0143 56.079 30.8344 55.5126C31.1913 55.2658 31.3438 54.8144 31.211 54.4024L30.1382 51.0719C30.5846 50.6736 31.0084 50.2498 31.4067 49.8043L34.7372 50.8772C35.1492 51.0109 35.6006 50.8575 35.8474 50.5005C36.4148 49.6804 36.9428 48.7591 37.4168 47.762C37.6036 47.3696 37.5112 46.9015 37.1897 46.6105L34.5956 44.2603C34.7805 43.6969 34.9349 43.1206 35.0558 42.5365L38.4827 41.7971C38.9066 41.7056 39.2202 41.3467 39.2556 40.915C39.296 40.3909 39.3333 39.8668 39.3333 39.3328C39.3333 38.7989 39.296 38.2748 39.2547 37.7516C39.2202 37.319 38.9066 36.96 38.4818 36.8686L35.0548 36.1291C34.9339 35.545 34.7805 34.9678 34.5946 34.4053L37.1887 32.0552C37.5102 31.7641 37.6027 31.296 37.4158 30.9037C36.9419 29.9066 36.4128 28.9852 35.8464 28.1651C35.5996 27.8082 35.1483 27.6548 34.7362 27.7885L31.4057 28.8613C31.0074 28.4149 30.5836 27.9911 30.1372 27.5928L31.21 24.2623C31.3428 23.8502 31.1903 23.3989 30.8334 23.1521C30.0133 22.5847 29.0919 22.0566 28.0948 21.5827C27.7015 21.3949 27.2344 21.4883 26.9433 21.8098L24.5932 24.4039C24.0297 24.219 23.4535 24.0646 22.8694 23.9437L22.1299 20.5167C22.0385 20.0929 21.6795 19.7792 21.2479 19.7438C20.2006 19.6593 19.1317 19.6612 18.0845 19.7438C17.6518 19.7783 17.2929 20.0919 17.2014 20.5167L16.462 23.9437C15.8779 24.0646 15.3016 24.218 14.7392 24.4039L12.389 21.8098C12.0979 21.4883 11.6309 21.3958 11.2375 21.5827C10.2404 22.0566 9.31905 22.5847 8.49895 23.1521C8.142 23.3989 7.98958 23.8502 8.12233 24.2623L9.19515 27.5928C8.74872 27.9911 8.3249 28.4149 7.92665 28.8613L4.59708 27.7885C4.18408 27.6548 3.73273 27.8082 3.4869 28.1651C2.91952 28.9852 2.39147 29.9066 1.9175 30.9037C1.73067 31.296 1.8231 31.7641 2.14465 32.0552L4.73868 34.4053C4.55382 34.9688 4.39943 35.545 4.27848 36.1291L0.851567 36.8686C0.42775 36.96 0.114067 37.319 0.0786666 37.7506C0.0373666 38.2748 0 38.7989 0 39.3328C0 39.8668 0.0373666 40.3909 0.0786666 40.914ZM1.98732 38.6356L5.33262 37.9129C5.72792 37.8273 6.03078 37.5087 6.09568 37.1095C6.24318 36.2029 6.48115 35.313 6.8027 34.4634C6.94627 34.0858 6.84302 33.658 6.5431 33.3866L4.01692 31.0974C4.23718 30.6756 4.46728 30.2714 4.70525 29.8889L7.94632 30.9332C8.32982 31.0561 8.75265 30.9332 9.0093 30.6205C9.58947 29.9105 10.2444 29.2566 10.9543 28.6755C11.267 28.4198 11.3919 27.9979 11.267 27.6125L10.2227 24.3714C10.6052 24.1325 11.0084 23.9024 11.4312 23.6831L13.7204 26.2102C13.9928 26.5102 14.4216 26.6134 14.7982 26.4698C15.6458 26.1483 16.5357 25.9103 17.4433 25.7628C17.8426 25.6979 18.1612 25.3951 18.2467 24.9998L18.9685 21.6545C19.4317 21.6299 19.9027 21.6289 20.3638 21.6545L21.0866 24.9998C21.1721 25.3951 21.4907 25.6979 21.89 25.7628C22.7966 25.9103 23.6865 26.1483 24.5361 26.4698C24.9118 26.6134 25.3405 26.5111 25.6129 26.2102L27.9021 23.6841C28.3239 23.9043 28.7281 24.1344 29.1106 24.3724L28.0663 27.6135C27.9424 27.9989 28.0663 28.4198 28.379 28.6764C29.089 29.2566 29.7429 29.9115 30.324 30.6215C30.5807 30.9352 31.0025 31.06 31.387 30.9342L34.6281 29.8899C34.867 30.2724 35.0971 30.6756 35.3164 31.0974L32.7892 33.3866C32.4893 33.658 32.3861 34.0858 32.5296 34.4643C32.8512 35.312 33.0892 36.2019 33.2367 37.1095C33.3016 37.5087 33.6044 37.8273 33.9997 37.9129L37.345 38.6347C37.3578 38.8657 37.3667 39.0988 37.3667 39.3328C37.3667 39.5669 37.3588 39.7999 37.346 40.03L34.0007 40.7528C33.6054 40.8383 33.3025 41.1569 33.2376 41.5561C33.0901 42.4628 32.8522 43.3527 32.5306 44.2023C32.3871 44.5799 32.4903 45.0076 32.7902 45.279L35.3164 47.5682C35.0961 47.9901 34.866 48.3942 34.6281 48.7768L31.387 47.7325C31.0006 47.6066 30.5807 47.7315 30.324 48.0452C29.7448 48.7532 29.0899 49.4081 28.379 49.9902C28.0663 50.2459 27.9424 50.6677 28.0663 51.0522L29.1106 54.2933C28.7281 54.5322 28.3249 54.7623 27.9031 54.9816L25.6139 52.4544C25.3425 52.1545 24.9147 52.0532 24.5361 52.1948C23.6885 52.5164 22.7986 52.7543 21.891 52.9018C21.4917 52.9667 21.1731 53.2696 21.0876 53.6649L20.3658 57.0102C19.9027 57.0348 19.4316 57.0358 18.9705 57.0102L18.2477 53.6649C18.1622 53.2696 17.8436 52.9667 17.4443 52.9018C16.5377 52.7543 15.6478 52.5164 14.7982 52.1948C14.4216 52.0513 13.9928 52.1535 13.7214 52.4544L11.4322 54.9806C11.0104 54.7603 10.6062 54.5302 10.2237 54.2923L11.268 51.0512C11.3919 50.6657 11.268 50.2449 10.9553 49.9882C10.2453 49.4081 9.59143 48.7532 9.01028 48.0432C8.75363 47.7295 8.3308 47.6056 7.9473 47.7305L4.70623 48.7748C4.46728 48.3923 4.23718 47.9891 4.0179 47.5663L6.54507 45.2771C6.84498 45.0057 6.94823 44.5779 6.80467 44.1993C6.48312 43.3517 6.24515 42.4618 6.09765 41.5542C6.03275 41.1549 5.72988 40.8363 5.33458 40.7508L1.98732 40.031C1.97552 39.7999 1.96667 39.5669 1.96667 39.3328C1.96667 39.0988 1.97453 38.8657 1.98732 38.6356Z" fill="white"/>
<path id="Vector_2" d="M51.3496 13.9973C51.7193 13.8812 51.9868 13.5577 52.031 13.1722C52.09 12.6757 52.1176 12.2263 52.1176 11.7995C52.1176 11.3727 52.09 10.9234 52.032 10.4268C51.9878 10.0413 51.7203 9.71779 51.3506 9.60176L48.6238 8.74528C48.5422 8.52206 48.4517 8.30278 48.3524 8.08841L49.674 5.55632C49.853 5.21314 49.8136 4.79621 49.5737 4.49137C49.0043 3.77157 48.3494 3.11668 47.6277 2.54536C47.3228 2.30444 46.9059 2.26609 46.5627 2.44408L44.0287 3.76568C43.8143 3.66734 43.595 3.57687 43.3718 3.49526L42.5153 0.768475C42.3993 0.398742 42.0758 0.131275 41.6903 0.087025C40.6952 -0.0290083 39.939 -0.0290083 38.9439 0.087025C38.5584 0.131275 38.2349 0.398742 38.1188 0.768475L37.2624 3.49526C37.0391 3.57687 36.8199 3.66734 36.6055 3.76666L34.0734 2.44506C33.7302 2.26708 33.3143 2.30543 33.0085 2.54536C32.2887 3.11471 31.6338 3.76961 31.0624 4.49137C30.8215 4.79621 30.7822 5.21216 30.9612 5.55632L32.2818 8.08841C32.1834 8.30278 32.093 8.52206 32.0114 8.74528L29.2846 9.60176C28.9148 9.71779 28.6474 10.0413 28.6031 10.4268C28.5451 10.9234 28.5176 11.3727 28.5176 11.7995C28.5176 12.2263 28.5451 12.6757 28.6031 13.1722C28.6474 13.5577 28.9148 13.8812 29.2846 13.9973L32.0114 14.8537C32.093 15.077 32.1834 15.2962 32.2828 15.5106L30.9612 18.0427C30.7822 18.3859 30.8215 18.8028 31.0615 19.1076C31.6308 19.8274 32.2857 20.4823 33.0075 21.0537C33.3113 21.2946 33.7292 21.3329 34.0724 21.1549L36.6045 19.8343C36.8189 19.9327 37.0382 20.0231 37.2614 20.1047L38.1179 22.8315C38.2339 23.2013 38.5574 23.4687 38.9429 23.513C39.4414 23.572 39.8908 23.5995 40.3176 23.5995C40.7443 23.5995 41.1937 23.572 41.6903 23.514C42.0758 23.4697 42.3993 23.2022 42.5153 22.8325L43.3718 20.1057C43.595 20.0241 43.8143 19.9336 44.0287 19.8343L46.5608 21.1559C46.9039 21.3349 47.3209 21.2965 47.6257 21.0556C48.3455 20.4863 49.0004 19.8314 49.5717 19.1096C49.8126 18.8048 49.852 18.3888 49.673 18.0447L48.3514 15.5126C48.4507 15.2982 48.5412 15.0789 48.6228 14.8557L51.3496 13.9973ZM47.5539 13.128C47.2432 13.2263 47.0013 13.4712 46.9069 13.7839C46.7732 14.2283 46.5962 14.6561 46.3818 15.0563C46.2274 15.3434 46.2245 15.6886 46.3759 15.9767L47.6237 18.3682C47.3907 18.6268 47.1439 18.8736 46.8862 19.1057L44.4948 17.8578C44.2057 17.7064 43.8605 17.7103 43.5744 17.8637C43.1742 18.0781 42.7464 18.2551 42.3019 18.3888C41.9902 18.4822 41.7444 18.7251 41.6461 19.0359L40.8358 21.6161C40.4769 21.6378 40.1593 21.6378 39.7994 21.6161L38.9891 19.0359C38.8908 18.7251 38.6459 18.4832 38.3332 18.3888C37.8878 18.2551 37.46 18.0781 37.0618 17.8637C36.7746 17.7093 36.4295 17.7064 36.1404 17.8578L33.7489 19.1057C33.4903 18.8726 33.2435 18.6258 33.0114 18.3682L34.2593 15.9767C34.4097 15.6886 34.4077 15.3425 34.2534 15.0563C34.039 14.6561 33.862 14.2283 33.7283 13.7839C33.6348 13.4722 33.392 13.2263 33.0812 13.128L30.501 12.3177C30.4892 12.1378 30.4842 11.9657 30.4842 11.7995C30.4842 11.6333 30.4892 11.4612 30.501 11.2813L33.0812 10.471C33.392 10.3727 33.6339 10.1278 33.7283 9.81514C33.862 9.36969 34.039 8.94194 34.2534 8.54369C34.4077 8.25656 34.4107 7.91141 34.2593 7.62231L33.0114 5.23084C33.2445 4.97223 33.4913 4.72541 33.7489 4.49334L36.1404 5.74119C36.4285 5.89164 36.7746 5.88869 37.0608 5.73529C37.461 5.52093 37.8887 5.34392 38.3332 5.21019C38.6449 5.11677 38.8908 4.87389 38.9891 4.56316L39.7994 1.98289C40.1583 1.96126 40.4759 1.96126 40.8358 1.98289L41.6461 4.56316C41.7444 4.87389 41.9892 5.11579 42.3019 5.21019C42.7474 5.34392 43.1751 5.52093 43.5734 5.73529C43.8605 5.88968 44.2057 5.89263 44.4948 5.74119L46.8862 4.49334C47.1449 4.72639 47.3917 4.97321 47.6237 5.23084L46.3759 7.62231C46.2254 7.91042 46.2274 8.25656 46.3818 8.54271C46.5962 8.94293 46.7732 9.37068 46.9069 9.81514C47.0003 10.1269 47.2432 10.3727 47.5539 10.471L50.1342 11.2813C50.146 11.4612 50.1509 11.6333 50.1509 11.7995C50.1509 11.9657 50.146 12.1378 50.1342 12.3177L47.5539 13.128Z" fill="white"/>
<path id="Vector_3" d="M58.273 32.4141L56.5836 31.8143C56.4873 31.5399 56.3771 31.2715 56.2522 31.0109L57.0202 29.3933C57.1805 29.057 57.1363 28.6597 56.9062 28.3667C56.4145 27.7383 55.8461 27.169 55.2158 26.6754C54.9218 26.4453 54.5226 26.402 54.1882 26.5613L52.5697 27.3293C52.3101 27.2054 52.0416 27.0943 51.7673 26.9989L51.1664 25.3095C51.0416 24.9585 50.7279 24.7077 50.3581 24.6625C49.482 24.5573 48.8477 24.5573 47.9716 24.6625C47.6019 24.7067 47.2882 24.9575 47.1633 25.3095L46.5635 26.9989C46.2891 27.0952 46.0207 27.2054 45.7601 27.3303L44.1425 26.5623C43.8082 26.403 43.4099 26.4472 43.1159 26.6763C42.4875 27.168 41.9182 27.7364 41.4246 28.3667C41.1954 28.6597 41.1512 29.058 41.3105 29.3943L42.0785 31.0128C41.9546 31.2724 41.8435 31.5409 41.7481 31.8152L40.0587 32.4161C39.7077 32.5409 39.4569 32.8546 39.4117 33.2244C39.3576 33.66 39.332 34.0504 39.332 34.4162C39.332 34.782 39.3576 35.1714 39.4107 35.6089C39.4549 35.9787 39.7057 36.2924 40.0577 36.4172L41.7471 37.0171C41.8435 37.2914 41.9536 37.5599 42.0785 37.8205L41.3105 39.438C41.1502 39.7743 41.1945 40.1716 41.4246 40.4646C41.9162 41.093 42.4846 41.6623 43.1149 42.156C43.4079 42.3851 43.8072 42.4293 44.1425 42.27L45.7611 41.5021C46.0207 41.626 46.2891 41.7371 46.5635 41.8325L47.1643 43.5218C47.2892 43.8729 47.6028 44.1236 47.9726 44.1689C48.4102 44.2239 48.7996 44.2495 49.1654 44.2495C49.5312 44.2495 49.9206 44.2239 50.3581 44.1708C50.7279 44.1266 51.0416 43.8758 51.1664 43.5238L51.7663 41.8344C52.0406 41.7381 52.3091 41.6279 52.5697 41.503L54.1872 42.271C54.5226 42.4313 54.9218 42.388 55.2138 42.157C55.8422 41.6653 56.4115 41.0969 56.9052 40.4666C57.1343 40.1736 57.1785 39.7753 57.0192 39.439L56.2513 37.8205C56.3752 37.5609 56.4863 37.2924 56.5817 37.0181L58.271 36.4172C58.6221 36.2924 58.8728 35.9787 58.9181 35.6089C58.9731 35.1714 58.9987 34.782 58.9987 34.4162C58.9987 34.0504 58.9731 33.661 58.92 33.2234C58.8758 32.8527 58.625 32.54 58.273 32.4141ZM57.0222 34.7751L55.4636 35.3287C55.1617 35.4359 54.9306 35.6837 54.8451 35.9924C54.7163 36.4595 54.5324 36.905 54.2993 37.317C54.142 37.5953 54.1302 37.9335 54.2669 38.2226L54.9729 39.7104C54.8097 39.8894 54.6386 40.0605 54.4606 40.2227L52.9728 39.5167C52.6857 39.38 52.3464 39.3918 52.0672 39.5492C51.6542 39.7832 51.2087 39.9661 50.7436 40.0949C50.4348 40.1805 50.187 40.4115 50.0789 40.7134L49.5253 42.272C49.2873 42.2848 49.0454 42.2848 48.8074 42.272L48.2538 40.7134C48.1466 40.4115 47.8988 40.1805 47.5901 40.0949C47.123 39.9661 46.6775 39.7822 46.2655 39.5492C45.9872 39.3928 45.6499 39.381 45.3599 39.5167L43.8721 40.2227C43.6931 40.0595 43.522 39.8884 43.3598 39.7104L44.0658 38.2226C44.2035 37.9335 44.1907 37.5953 44.0333 37.317C43.7993 36.904 43.6164 36.4585 43.4876 35.9934C43.402 35.6847 43.171 35.4369 42.8691 35.3287L41.3105 34.7751C41.3026 34.6561 41.2987 34.5371 41.2987 34.4162C41.2987 34.2952 41.3026 34.1752 41.3085 34.0572L42.8671 33.5026C43.169 33.3955 43.4001 33.1477 43.4846 32.8389C43.6144 32.3708 43.7983 31.9264 44.0314 31.5143C44.1887 31.2361 44.2005 30.8978 44.0638 30.6087L43.3578 29.1209C43.521 28.9419 43.6921 28.7708 43.8701 28.6086L45.3579 29.3146C45.647 29.4523 45.9853 29.4405 46.2635 29.2822C46.6765 29.0481 47.122 28.8652 47.5871 28.7364C47.8959 28.6509 48.1437 28.4198 48.2518 28.1179L48.8055 26.5593C49.0434 26.5465 49.2853 26.5465 49.5233 26.5593L50.0769 28.1179C50.1841 28.4198 50.4319 28.6509 50.7407 28.7364C51.2077 28.8652 51.6532 29.0491 52.0652 29.2822C52.3445 29.4405 52.6818 29.4523 52.9709 29.3146L54.4586 28.6086C54.6376 28.7718 54.8087 28.9429 54.971 29.1209L54.2649 30.6087C54.1273 30.8978 54.14 31.2361 54.2974 31.5143C54.5314 31.9273 54.7143 32.3728 54.8431 32.8379C54.9287 33.1467 55.1598 33.3945 55.4616 33.5026L57.0202 34.0563C57.0281 34.1762 57.032 34.2952 57.032 34.4162C57.032 34.5371 57.0281 34.6561 57.0222 34.7751Z" fill="white"/>
<path id="Vector_4" d="M19.6663 50.1495C25.6302 50.1495 30.4829 45.2968 30.4829 39.3328C30.4829 33.3689 25.6302 28.5162 19.6663 28.5162C13.7024 28.5162 8.84961 33.3689 8.84961 39.3328C8.84961 45.2968 13.7024 50.1495 19.6663 50.1495ZM19.6663 30.4828C24.5456 30.4828 28.5163 34.4535 28.5163 39.3328C28.5163 44.2121 24.5456 48.1828 19.6663 48.1828C14.787 48.1828 10.8163 44.2121 10.8163 39.3328C10.8163 34.4535 14.787 30.4828 19.6663 30.4828Z" fill="white"/>
<path id="Vector_5" d="M0.0216365 22.9692L1.53204 24.2288C6.03472 18.8293 12.6437 15.7328 19.6667 15.7328C20.1672 15.7328 20.6667 15.7613 21.1663 15.7928L19.9548 17.0043L21.3452 18.3947L24.2952 15.4447C24.6797 15.0602 24.6797 14.4388 24.2952 14.0543L21.3452 11.1043L19.9548 12.4947L21.2911 13.8311C20.7503 13.7966 20.2085 13.7662 19.6667 13.7662C12.0596 13.7662 4.89897 17.1203 0.0216365 22.9692Z" fill="white"/>
<path id="Vector_6" d="M40.3171 6.88284C37.606 6.88284 35.4004 9.08846 35.4004 11.7995C35.4004 14.5106 37.606 16.7162 40.3171 16.7162C43.0281 16.7162 45.2337 14.5106 45.2337 11.7995C45.2337 9.08846 43.0281 6.88284 40.3171 6.88284ZM40.3171 14.7495C38.6906 14.7495 37.3671 13.4259 37.3671 11.7995C37.3671 10.1731 38.6906 8.84951 40.3171 8.84951C41.9435 8.84951 43.2671 10.1731 43.2671 11.7995C43.2671 13.4259 41.9435 14.7495 40.3171 14.7495Z" fill="white"/>
<path id="Vector_7" d="M49.1658 30.4828C46.9965 30.4828 45.2324 32.2469 45.2324 34.4162C45.2324 36.5854 46.9965 38.3495 49.1658 38.3495C51.335 38.3495 53.0991 36.5854 53.0991 34.4162C53.0991 32.2469 51.335 30.4828 49.1658 30.4828ZM49.1658 36.3828C48.0811 36.3828 47.1991 35.5008 47.1991 34.4162C47.1991 33.3316 48.0811 32.4495 49.1658 32.4495C50.2504 32.4495 51.1324 33.3316 51.1324 34.4162C51.1324 35.5008 50.2504 36.3828 49.1658 36.3828Z" fill="white"/>
<path id="Vector_8" d="M58.2097 2.96915L53.2931 1.98582C52.7581 1.87765 52.2419 2.22477 52.1357 2.75675L51.1523 7.67342L53.0807 8.05987L53.6107 5.41273C54.5635 7.39513 55.067 9.5801 55.067 11.7995C55.067 15.19 53.948 18.378 51.8318 21.0182L53.3668 22.2484C55.7317 19.2974 57.0337 15.5873 57.0337 11.7995C57.0337 9.22413 56.4387 6.68517 55.3069 4.394L57.8243 4.89747L58.2097 2.96915Z" fill="white"/>
</g>
</svg>
