<svg preserveAspectRatio="none" width="100%" height="100%" overflow="visible" style="display: block;" viewBox="0 0 26.8008 26.8008" fill="none" xmlns="http://www.w3.org/2000/svg">
<g id="Group 388">
<path id="Vector" d="M7.89652 4.51505e-06H3.27171L3.8147e-06 3.27171V7.89652L3.27171 11.1672H7.89652L11.1672 7.89652V3.27171L7.89652 4.51505e-06ZM5.58361 7.81679C4.35011 7.81679 3.3501 6.81678 3.3501 5.58328C3.3501 4.34977 4.35011 3.3501 5.58361 3.3501C6.81812 3.3501 7.81712 4.35011 7.81712 5.58361C7.81712 6.81712 6.81812 7.81679 5.58361 7.81679Z" fill="#F4A31D"/>
<path id="Vector_2" d="M9.47575 13.4004H3.92598L0 17.3264V22.8751L3.92598 26.8008H9.47575L13.4004 22.8748V17.3264L9.47575 13.4004ZM6.7002 22.8922C5.15815 22.8922 3.90856 21.6426 3.90856 20.1006C3.90856 18.5585 5.15815 17.3089 6.7002 17.3089C8.24325 17.3089 9.49183 18.5585 9.49183 20.1006C9.49183 21.6426 8.24325 22.8922 6.7002 22.8922Z" fill="#F4A31D"/>
<path id="Vector_3" d="M13.4004 0.00100512V3.3501L16.7505 4.46669H16.7515V7.25866H23.4507V4.46669L26.8008 3.3501V0L13.4004 0.00100512Z" fill="#F4A31D"/>
<path id="Vector_4" d="M24.5675 10.6087V8.93369H15.6342L15.6352 10.6087H16.7508V12.2838H15.6342L15.6352 13.9588H16.7508L16.7518 15.6339H15.6342L15.6352 17.3089H16.7518V18.984H15.6342L15.6352 20.659H16.7518V22.3341H15.6342L15.6352 24.0091H16.7518V26.8008H23.4509V24.0091H24.5675V22.3341H23.4509V20.659H24.5675V18.984H23.4509V17.3089H24.5675V15.6339H23.4509V13.9588H24.5675V12.2838H23.4509V10.6087H24.5675Z" fill="#F4A31D"/>
</g>
</svg>
