<svg preserveAspectRatio="none" width="100%" height="100%" overflow="visible" style="display: block;" viewBox="0 0 23.9997 24" fill="none" xmlns="http://www.w3.org/2000/svg">
<g id="Group">
<path id="Vector" d="M4.71428 19.5V17.3203L0.606011 21.4285H2.7857C3.85037 21.4274 4.71315 20.5646 4.71428 19.5Z" fill="#F4A31D"/>
<path id="Vector_2" d="M7.28574 19.5V15.6429C7.28752 14.1051 8.53369 12.8589 10.0715 12.8571H12.8572V11.1429H0V12.8571H2.78573C4.32352 12.8589 5.56969 14.1051 5.57147 15.6429V19.5C5.56969 21.0378 4.32352 22.284 2.78573 22.2858H0V24H12.8572V22.2858H10.0714C8.53364 22.284 7.28752 21.0378 7.28574 19.5Z" fill="#F4A31D"/>
<path id="Vector_3" d="M23.394 0H10.8917L0.606011 10.2857H13.1083L23.394 0Z" fill="#F4A31D"/>
<path id="Vector_4" d="M13.7139 10.8917V12.2512L18.3395 7.62559L23.9997 1.96543V0.606011L13.7139 10.8917Z" fill="#F4A31D"/>
<path id="Vector_5" d="M13.7139 22.0285V23.3571L21.5461 15.1332L23.9997 12.6797V11.3202L22.1598 13.1601L13.7139 22.0285Z" fill="#F4A31D"/>
<path id="Vector_6" d="M23.3938 10.7143H21.2141C21.1776 10.7119 21.1416 10.7046 21.107 10.6927C21.0724 10.7046 21.0363 10.7119 20.9998 10.7143C19.8043 10.7123 18.7431 9.9487 18.3614 8.81583L13.5886 13.5886C13.5081 13.6688 13.3992 13.714 13.2855 13.7143H10.0712C9.0066 13.7155 8.14381 14.5783 8.14264 15.6429V19.5C8.14381 20.5647 9.0066 21.4275 10.0712 21.4286H13.1018L21.5464 12.5617L23.3938 10.7143ZM10.1613 19.9971C10.0386 20.1207 9.85344 20.1578 9.69261 20.0911C9.53178 20.0243 9.42739 19.8669 9.42838 19.6928C9.42838 19.4561 9.62024 19.2642 9.85696 19.2642C10.0936 19.2642 10.2855 19.4561 10.2855 19.6928C10.2867 19.8067 10.2419 19.9164 10.1613 19.9971ZM11.8814 18.1938L11.4529 18.6429C11.2895 18.8142 11.0181 18.8205 10.8468 18.6571C10.6755 18.4937 10.6692 18.2224 10.8326 18.0511L11.2611 17.602C11.3668 17.4912 11.5236 17.4452 11.6725 17.4814C11.8213 17.5176 11.9395 17.6304 11.9826 17.7773C12.0257 17.9242 11.9871 18.083 11.8814 18.1938ZM13.5957 16.3979L13.1671 16.847C13.0037 17.0182 12.7324 17.0246 12.5611 16.8612C12.3898 16.6978 12.3834 16.4265 12.5468 16.2552L12.9754 15.8061C13.1388 15.6348 13.4102 15.6285 13.5815 15.7919C13.7527 15.9553 13.7591 16.2266 13.5957 16.3979ZM15.31 14.602L14.8814 15.0511C14.718 15.2224 14.4466 15.2287 14.2753 15.0653C14.1041 14.9019 14.0977 14.6306 14.2611 14.4593L14.6897 14.0102C14.8531 13.839 15.1244 13.8326 15.2957 13.996C15.4671 14.1594 15.4734 14.4307 15.31 14.602ZM17.0243 12.8061L16.5957 13.2552C16.49 13.366 16.3332 13.412 16.1844 13.3758C16.0356 13.3396 15.9173 13.2268 15.8743 13.0799C15.8312 12.9329 15.8698 12.7741 15.9755 12.6633L16.404 12.2143C16.5674 12.043 16.8388 12.0366 17.0101 12.2C17.1813 12.3635 17.1877 12.6348 17.0243 12.8061ZM18.3041 11.4643C18.2242 11.5465 18.1145 11.5928 17.9998 11.5928C17.8852 11.5928 17.7755 11.5464 17.6956 11.4643C17.6143 11.3858 17.5693 11.2772 17.5713 11.1642C17.5703 10.9901 17.6747 10.8327 17.8356 10.7659C17.9964 10.6992 18.1816 10.7363 18.3042 10.86C18.3831 10.9417 18.4276 11.0506 18.4285 11.1642C18.4303 11.2772 18.3853 11.3858 18.3041 11.4643Z" fill="#F4A31D"/>
</g>
</svg>
