<svg preserveAspectRatio="none" width="100%" height="100%" overflow="visible" style="display: block;" viewBox="0 0 30.0006 30.705" fill="none" xmlns="http://www.w3.org/2000/svg">
<g id="Group 389">
<path id="Vector" d="M15.121 24.2837C15.1212 22.6392 15.6007 21.0304 16.5009 19.6541C17.4011 18.2778 18.6829 17.1937 20.1895 16.5344C21.6962 15.8752 23.3623 15.6694 24.984 15.9422C26.6058 16.215 28.1129 16.9545 29.3209 18.0704C29.3609 15.1795 29.3369 12.2887 29.2489 9.39779C29.201 7.41164 28.0796 5.41769 26.2008 4.43241C25.2353 3.92208 24.235 3.43094 23.2233 2.96559C19.2258 4.2585 14.5441 5.964 9.82221 8.07549C9.36822 8.27616 8.97929 8.59964 8.69926 9.00947C8.41922 9.41929 8.25921 9.89918 8.23725 10.3951C8.16349 12.6739 8.1407 15.0258 8.17068 17.3514C8.1731 17.4196 8.15358 17.4868 8.115 17.5431C8.07641 17.5994 8.02079 17.6418 7.95631 17.6641C7.89182 17.6865 7.82187 17.6876 7.75673 17.6672C7.69159 17.6469 7.63469 17.6062 7.59439 17.5511C7.09465 16.9114 6.60651 16.279 6.12996 15.6537C6.09478 15.6048 6.0425 15.5709 5.98351 15.5588C5.92451 15.5467 5.86312 15.5573 5.81153 15.5883C5.44093 15.809 5.07692 16.0267 4.71951 16.2414C4.51921 16.3613 4.27274 16.2012 4.27154 15.9547C4.25955 13.6381 4.31712 11.3156 4.44125 9.06437C4.49343 8.11507 5.08891 7.22094 5.96985 6.78557C10.4987 4.54875 15.3303 2.72152 19.4531 1.36923C18.4936 0.99383 17.5395 0.649612 16.6082 0.323384C15.3525 -0.107795 13.9888 -0.107795 12.7331 0.323384C9.62551 1.39562 6.23191 2.79528 3.13994 4.43241C1.26173 5.41769 0.141525 7.41164 0.0917515 9.39779C-0.0305838 13.3677 -0.0305838 17.3376 0.0917515 21.3075C0.139726 23.2936 1.26173 25.2876 3.13994 26.2729C6.23191 27.91 9.62552 29.3097 12.7349 30.3813C13.9906 30.8125 15.3543 30.8125 16.61 30.3813C16.8815 30.2878 17.1555 30.1912 17.4322 30.0917C15.9433 28.5251 15.1155 26.4449 15.121 24.2837Z" fill="#F4A31D"/>
<path id="Vector_2" d="M23.5792 17.8634C22.3093 17.8635 21.0679 18.2402 20.0121 18.9458C18.9563 19.6514 18.1334 20.6543 17.6475 21.8276C17.1617 23.0009 17.0346 24.2919 17.2825 25.5374C17.5304 26.7829 18.142 27.9269 19.04 28.8248C19.9381 29.7227 21.0822 30.3341 22.3278 30.5817C23.5733 30.8294 24.8643 30.7021 26.0375 30.216C27.2107 29.7299 28.2134 28.9069 28.9189 27.8509C29.6243 26.7949 30.0007 25.5535 30.0006 24.2836C30.0005 23.4404 29.8344 22.6055 29.5116 21.8265C29.1889 21.0475 28.7159 20.3397 28.1196 19.7436C27.5233 19.1474 26.8154 18.6745 26.0364 18.3519C25.2574 18.0293 24.4224 17.8633 23.5792 17.8634ZM27.2415 23.221L23.3819 27.2736C23.2769 27.3841 23.1506 27.4722 23.0107 27.5326C22.8707 27.593 22.72 27.6244 22.5676 27.625H22.5622C22.4106 27.6249 22.2606 27.5945 22.1211 27.5355C21.9815 27.4765 21.8552 27.3901 21.7496 27.2814L19.7017 25.1717C19.4925 24.9562 19.3775 24.6665 19.382 24.3662C19.3865 24.0659 19.5101 23.7797 19.7257 23.5706C19.9412 23.3614 20.2309 23.2465 20.5312 23.251C20.8315 23.2554 21.1177 23.379 21.3268 23.5946L22.5556 24.8593L25.6025 21.6594C25.8121 21.4541 26.0931 21.3381 26.3864 21.3359C26.6797 21.3337 26.9624 21.4454 27.175 21.6475C27.3876 21.8496 27.5135 22.1263 27.5261 22.4194C27.5387 22.7124 27.4371 22.9989 27.2427 23.2186L27.2415 23.221Z" fill="#F4A31D"/>
</g>
</svg>
