<svg preserveAspectRatio="none" width="100%" height="100%" overflow="visible" style="display: block;" viewBox="0 0 29 29" fill="none" xmlns="http://www.w3.org/2000/svg">
<g id="Group 391">
<path id="Vector" d="M26.2813 23.5625H8.45821V18.7293C8.45821 17.7487 8.11058 16.8577 7.55051 16.1399L11.712 7.81621C10.4201 7.7158 9.2771 7.11514 8.46873 6.1962L4.31266 14.508C4.28439 14.5072 4.25829 14.5 4.22929 14.5C1.89406 14.5 0 16.3941 0 18.7293V29H26.2813C27.7845 29 29 27.7824 29 26.2812C29 24.7801 27.7845 23.5625 26.2813 23.5625ZM10.573 27.1875C10.0717 27.1875 9.66679 26.7815 9.66679 26.2812C9.66679 25.781 10.0717 25.375 10.573 25.375C11.0737 25.375 11.4793 25.781 11.4793 26.2812C11.4793 26.7815 11.0737 27.1875 10.573 27.1875ZM14.5 27.1875C13.9998 27.1875 13.5938 26.7815 13.5938 26.2812C13.5938 25.781 13.9998 25.375 14.5 25.375C15.0003 25.375 15.4063 25.781 15.4063 26.2812C15.4063 26.7815 15.0003 27.1875 14.5 27.1875ZM18.427 27.1875C17.9267 27.1875 17.5207 26.7815 17.5207 26.2812C17.5207 25.781 17.9267 25.375 18.427 25.375C18.9276 25.375 19.3332 25.781 19.3332 26.2812C19.3332 26.7815 18.9276 27.1875 18.427 27.1875ZM22.3543 27.1875C21.8537 27.1875 21.448 26.7815 21.448 26.2812C21.448 25.781 21.8537 25.375 22.3543 25.375C22.8545 25.375 23.2605 25.781 23.2605 26.2812C23.2605 26.7815 22.8545 27.1875 22.3543 27.1875ZM26.2813 27.1875C25.781 27.1875 25.375 26.7815 25.375 26.2812C25.375 25.781 25.781 25.375 26.2813 25.375C26.7815 25.375 27.1875 25.781 27.1875 26.2812C27.1875 26.7815 26.7815 27.1875 26.2813 27.1875Z" fill="#F4A31D"/>
<path id="Vector_2" d="M24.9563 7.53674L28.0938 9.34779L29 7.77889L24.712 4.60556L23.1529 5.88845L21.2922 5.42191L20.6879 6.46772L15.0829 3.23205C15.0876 3.16136 15.1043 3.09394 15.1043 3.02107C15.1043 1.35212 13.7522 0 12.0832 0C10.4146 0 9.0625 1.35212 9.0625 3.02107C9.0625 4.6893 10.4146 6.04142 12.0832 6.04142C12.7948 6.04142 13.4404 5.78441 13.9573 5.3737L19.4797 8.56189L18.8754 9.6077L20.2101 10.9863L19.8784 12.9779L24.7707 15.1043L25.677 13.535L22.5384 11.7225L22.9618 9.17596L24.9563 7.53674Z" fill="#F4A31D"/>
<path id="Vector_3" d="M12.0826 15.7083H21.7494V21.7501H12.0826V15.7083Z" fill="#F4A31D"/>
</g>
</svg>
