<svg preserveAspectRatio="none" width="100%" height="100%" overflow="visible" style="display: block;" viewBox="0 0 25 30" fill="none" xmlns="http://www.w3.org/2000/svg">
<path id="Vector" d="M24.5671 25.1644L15.9759 10.1353V1.75781H17.714V0H7.28569V1.75781H9.02373V10.1353L0.432905 25.1644C-0.143728 26.1733 -0.144452 27.3783 0.431637 28.3878C1.00736 29.3974 2.03933 30 3.19133 30H21.8083C22.9607 30 23.9925 29.3974 24.5684 28.3878C25.1445 27.3783 25.1437 26.1733 24.5671 25.1644ZM6.41666 21.7383C6.41666 21.091 6.93572 20.5664 7.57536 20.5664C8.21536 20.5664 8.73406 21.091 8.73406 21.7383C8.73406 22.3856 8.21536 22.9102 7.57536 22.9102C6.93572 22.9102 6.41666 22.3856 6.41666 21.7383ZM8.73406 26.4258C8.09442 26.4258 7.57536 25.9012 7.57536 25.2539C7.57536 24.6066 8.09442 24.082 8.73406 24.082C9.37406 24.082 9.89275 24.6066 9.89275 25.2539C9.89275 25.9012 9.37406 26.4258 8.73406 26.4258ZM13.9482 23.7891C12.9885 23.7891 12.2101 23.0019 12.2101 22.0312C12.2101 21.0606 12.9885 20.2734 13.9482 20.2734C14.9083 20.2734 15.6862 21.0606 15.6862 22.0312C15.6862 23.0019 14.9083 23.7891 13.9482 23.7891ZM7.71477 15.9375L10.7618 10.6069V1.75781H14.2379V10.6069L17.2852 15.9375H7.71477ZM19.1623 26.4258C18.5227 26.4258 18.0036 25.9012 18.0036 25.2539C18.0036 24.6066 18.5227 24.082 19.1623 24.082C19.8023 24.082 20.321 24.6066 20.321 25.2539C20.321 25.9012 19.8023 26.4258 19.1623 26.4258Z" fill="#F4A31D"/>
</svg>
