<svg preserveAspectRatio="none" width="100%" height="100%" overflow="visible" style="display: block;" viewBox="0 0 30 30" fill="none" xmlns="http://www.w3.org/2000/svg">
<path id="Vector" d="M27.8571 4.28571H25.7143V1.07143H24.6429V0H23.5714V1.07143H22.5V1.60714H7.5V1.07143C7.5 0.776786 7.25893 0.535714 6.96429 0.535714C6.66964 0.535714 6.42857 0.776786 6.42857 1.07143V4.28571H3.21429C2.03036 4.28571 1.07143 5.24464 1.07143 6.42857V11.7857C1.07143 12.375 1.55357 12.8571 2.14286 12.8571H3.21429V14.4643C3.21429 14.7589 3.45536 15 3.75 15H5.89286V17.1429H6.42857V19.2857C6.42857 19.5804 6.66964 19.8214 6.96429 19.8214C7.25893 19.8214 7.5 19.5804 7.5 19.2857V17.1429H8.03571V15H10.1786C10.4732 15 10.7143 14.7589 10.7143 14.4643V12.8571H22.5V24.6429H2.14286C1.55357 24.6429 1.07143 25.125 1.07143 25.7143V27.8571H0V30H30V6.42857C30 5.24464 29.0411 4.28571 27.8571 4.28571ZM26.25 17.6786C25.6607 17.6786 25.1786 17.1964 25.1786 16.6071C25.1786 16.0179 25.6607 15.5357 26.25 15.5357C26.8393 15.5357 27.3214 16.0179 27.3214 16.6071C27.3214 17.1964 26.8393 17.6786 26.25 17.6786ZM27.3214 20.8929C27.3214 21.4821 26.8393 21.9643 26.25 21.9643C25.6607 21.9643 25.1786 21.4821 25.1786 20.8929C25.1786 20.3036 25.6607 19.8214 26.25 19.8214C26.8393 19.8214 27.3214 20.3036 27.3214 20.8929ZM7.5 2.67857H22.5V4.28571H7.5V2.67857ZM10.3982 9.32679C10.2054 9.525 9.9375 9.64286 9.64286 9.64286H4.28571C3.69643 9.64286 3.21429 9.16071 3.21429 8.57143C3.21429 7.98214 3.69643 7.5 4.28571 7.5H9.64286C10.2321 7.5 10.7143 7.98214 10.7143 8.57143C10.7143 8.86607 10.5964 9.13393 10.3982 9.32679Z" fill="#F4A31D"/>
</svg>
