<svg preserveAspectRatio="none" width="100%" height="100%" overflow="visible" style="display: block;" viewBox="0 0 45 44.7787" fill="none" xmlns="http://www.w3.org/2000/svg">
<g id="Group">
<path id="Vector" d="M37.7157 28.949L43.109 34.3062C45.5033 36.6852 45.6764 40.4412 43.3277 42.902C41.1274 45.2088 37.2498 45.5131 34.846 43.1188L29.2339 37.5315C28.1918 36.4932 28.2717 34.9242 29.2244 33.8478L27.3417 31.8871C24.3046 33.9448 20.7104 35.0136 17.0704 34.9356L17.0343 36.7936L14.988 37.5714L15.8971 39.5911L13.4419 42.069L11.4356 41.1448L10.5741 43.2728L7.18902 43.2519L6.38458 41.1676L4.36304 42.0633L1.9117 39.6481L2.7903 37.5676L0.728818 36.7955L0.696488 33.3515L2.80361 32.5375L1.90029 30.5027L3.90852 28.5211C-1.56848 21.7566 -1.2585 11.9608 4.64449 5.59374C10.5475 -0.773279 20.2958 -1.86488 27.5243 3.1443C27.9693 2.5985 28.3078 2.22576 28.633 2.05841C29.0019 1.86823 29.7626 2.01847 30.2171 2.3779L31.575 1.8283C31.7461 1.33004 31.9363 0.759521 32.2273 0.580758C32.8301 0.213722 34.4618 0.196607 35.2529 0.559838C35.5667 0.70437 35.7854 1.2825 35.9167 1.77695L37.2954 2.38931C37.9895 1.73892 38.7978 1.78456 39.4254 2.42734L40.3629 3.38582C40.903 3.93922 40.8878 4.66759 40.3249 5.32749L40.9182 6.78232C41.6447 6.85649 42.2837 7.23303 42.3331 7.91576C42.3864 8.64222 42.3807 9.28881 42.3027 10.04C42.2475 10.582 41.5629 10.9205 40.9582 11.0289L40.3667 12.44C40.787 13.0314 40.9582 13.8092 40.5074 14.2961L39.49 15.3915C38.8929 16.0343 38.155 15.9658 37.4476 15.5607C35.5154 15.5531 36.1772 16.9091 34.9373 17.4891C34.8783 20.8704 34.0111 24.0786 32.1151 26.9883L34.0587 29.0136C35.0704 28.0951 36.6735 27.9087 37.7176 28.9471L37.7157 28.949ZM33.4634 17.4606C33.4634 8.6232 26.2996 1.45746 17.4603 1.45746C8.62102 1.45746 1.45908 8.6213 1.45908 17.4606C1.45908 26.2998 8.62293 33.4637 17.4622 33.4637C26.3015 33.4637 33.4653 26.2998 33.4653 17.4606H33.4634ZM34.1404 12.2175C35.7588 11.9931 36.8485 10.7684 37.0444 9.42003C37.2612 7.93287 36.4625 6.59215 35.3138 5.99881C33.9217 5.27995 32.3927 5.60134 31.2897 6.72147C32.503 8.39309 33.4748 10.215 34.1385 12.2175H34.1404ZM30.2381 32.7981L33.0393 30.0272L31.2745 28.2529L28.5417 31.0656L30.2381 32.7981ZM12.1583 34.1997C10.5646 33.4789 8.91199 32.7962 7.52372 31.8643C5.66953 32.6535 4.92975 34.7131 5.68094 36.4323C6.41311 38.1058 8.23307 38.9521 10.0568 38.3588C11.5554 37.8719 12.9836 35.8256 12.1583 34.1978V34.1997Z" fill="#F4A31D"/>
<path id="Vector_2" d="M28.1065 12.5085H24.0234V25.9956H28.1065V12.5085Z" fill="#F4A31D"/>
<path id="Vector_3" d="M16.0987 14.8932H12.0156V25.9975H16.0987V14.8932Z" fill="#F4A31D"/>
<path id="Vector_4" d="M14.0238 10.1655L8.37187 14.1744C8.11133 14.3589 7.56744 14.4007 7.35634 14.2467C7.07489 14.0394 7.01593 13.33 7.32021 13.117L14.0904 8.35317L20.0105 13.098L25.5997 7.37378C25.8736 7.31292 26.3395 7.29581 26.5297 7.40421C26.7579 7.53353 26.7731 8.15159 26.6476 8.43115L20.5791 14.5871C20.2901 14.8077 19.7747 14.802 19.4894 14.5719L14.0238 10.1674V10.1655Z" fill="#F4A31D"/>
<path id="Vector_5" d="M10.1054 25.9975L5.98438 25.9728L5.99959 18.885L10.1168 18.9192L10.1054 25.9975Z" fill="#F4A31D"/>
<path id="Vector_6" d="M22.0945 25.9937L18.021 25.9899L18.0039 21.5075L22.1117 21.5265L22.0945 25.9937Z" fill="#F4A31D"/>
</g>
</svg>
