<svg preserveAspectRatio="none" width="100%" height="100%" overflow="visible" style="display: block;" viewBox="0 0 46 46" fill="none" xmlns="http://www.w3.org/2000/svg">
<g id="Group 295">
<path id="Vector" d="M23 0C10.2994 0 4.88311e-05 10.2994 4.88311e-05 23C4.88311e-05 35.7006 10.2994 46 23 46C35.7007 46 46 35.7006 46 23C46 10.2994 35.7007 0 23 0ZM23.4875 36.3913C23.4879 36.3913 23.4872 36.3913 23.4875 36.3913H23.4819C21.1779 36.3902 18.9139 35.8126 16.9033 34.7162L9.60596 36.6299L11.559 29.4986C10.3542 27.4118 9.72037 25.0443 9.72142 22.6189C9.72458 15.0313 15.8999 8.85838 23.4875 8.85838C27.1697 8.85979 30.6262 10.2931 33.225 12.894C35.8242 15.4952 37.2547 18.9528 37.2533 22.6297C37.2501 30.2177 31.0741 36.3913 23.4875 36.3913Z" fill="#F4A31D"/>
<path id="Vector_2" d="M23.4896 11.1836C17.1785 11.1836 12.0458 16.3142 12.043 22.6208C12.0423 24.7819 12.6473 26.8866 13.7925 28.7077L14.0645 29.1404L12.9084 33.3613L17.2388 32.2256L17.6568 32.4734C19.4133 33.5157 21.4271 34.0671 23.4801 34.0678H23.4847C29.791 34.0678 34.9236 28.9369 34.9265 22.6299C34.9275 19.5735 33.7385 16.6999 31.5784 14.538C29.4183 12.3761 26.5454 11.1846 23.4896 11.1836ZM30.2195 27.5383C29.9328 28.3413 28.5588 29.0744 27.8979 29.1734C27.3052 29.2618 26.5555 29.2987 25.7315 29.0372C25.2317 28.8786 24.5913 28.667 23.7704 28.3129C20.3202 26.8234 18.0667 23.3504 17.8947 23.1209C17.7228 22.8914 16.4902 21.2563 16.4902 19.5636C16.4902 17.8713 17.3788 17.0392 17.694 16.6953C18.0095 16.351 18.3822 16.265 18.6114 16.265C18.8406 16.265 19.0701 16.2671 19.2705 16.277C19.4818 16.2875 19.7653 16.1966 20.0443 16.8673C20.3311 17.5558 21.0189 19.2481 21.1049 19.4201C21.1909 19.5924 21.2481 19.7932 21.1337 20.0227C21.0189 20.2522 20.6378 20.7474 20.2738 21.1987C20.1212 21.3879 19.9222 21.5563 20.1229 21.9006C20.3233 22.2446 21.014 23.3708 22.0363 24.2825C23.3503 25.454 24.4586 25.8169 24.8025 25.9892C25.1461 26.1612 25.3469 26.1324 25.5476 25.9032C25.748 25.6737 26.4074 24.8992 26.6366 24.5549C26.8658 24.2106 27.0953 24.2681 27.4105 24.3829C27.726 24.4973 29.4169 25.3294 29.7608 25.5014C30.1047 25.6737 30.3339 25.7597 30.4199 25.9032C30.5062 26.0468 30.5062 26.735 30.2195 27.5383Z" fill="#F4A31D"/>
</g>
</svg>
