<svg preserveAspectRatio="none" width="100%" height="100%" overflow="visible" style="display: block;" viewBox="0 0 46.0018 42.6466" fill="none" xmlns="http://www.w3.org/2000/svg">
<g id="Group">
<path id="Vector" d="M26.9234 29.4102L30.544 35.7155C31.2181 36.8902 30.6692 38.5426 29.4425 39.1281L22.0684 42.6466C19.792 41.8609 17.9201 40.7901 16.1521 39.3091C10.0491 34.196 5.1035 26.3712 2.2436 18.9528C0.571958 14.6216 -0.65096 9.60665 0.377446 5.0366L7.09483 0.418396C8.29849 -0.407796 9.9605 0.0486317 10.6654 1.26962L14.2686 7.50169C14.9581 8.6938 14.6423 10.2595 13.4424 10.9952L9.41356 13.4641C10.2706 17.0173 11.7997 20.2008 13.6601 23.3149C15.2662 26.0015 17.0322 28.4242 19.2913 30.6043L23.4704 28.3433C24.7029 27.677 26.1974 28.1469 26.9234 29.4121V29.4102Z" fill="#F4A31D"/>
<path id="Vector_2" d="M22.2387 26.4059L19.6754 27.7906C16.2955 23.8156 13.6686 19.3438 12.0586 14.5003L15.3691 12.455L26.9705 20.4069C27.2613 20.5975 27.9007 20.742 28.1953 20.5398L45.9883 8.35101L46.0018 30.1594C46.0018 31.2533 45.1833 31.9928 44.1626 32.0872H31.1072L28.7519 28.0795C27.4173 25.8108 24.5497 25.1618 22.2406 26.4098L22.2387 26.4059Z" fill="#F4A31D"/>
<path id="Vector_3" d="M27.6866 18.1401L16.611 10.5522C16.9846 9.33895 16.9634 8.25084 16.5859 6.93933L43.7906 7.02985L27.6846 18.142L27.6866 18.1401Z" fill="#F4A31D"/>
</g>
</svg>
