<svg preserveAspectRatio="none" width="100%" height="100%" overflow="visible" style="display: block;" viewBox="0 0 66.3711 12.9387" fill="none" xmlns="http://www.w3.org/2000/svg">
<g id="Group 300">
<path id="Vector" d="M6.78556 0L8.38725 4.94152H13.57L9.37633 7.99598L10.978 12.9387L6.78556 9.88421L2.59194 12.9387L4.19363 7.99598L0 4.94152H5.18387L6.78556 0Z" fill="white"/>
<path id="Vector_2" d="M21.6828 0L23.2845 4.94152H28.4684L24.2748 7.99598L25.8765 12.9387L21.6828 9.88421L17.4892 12.9387L19.0909 7.99598L14.8984 4.94152H20.0811L21.6828 0Z" fill="white"/>
<path id="Vector_3" d="M36.5785 0L38.1802 4.94152H43.3629L39.1705 7.99598L40.7722 12.9387L36.5785 9.88421L32.3849 12.9387L33.9866 7.99598L29.793 4.94152H34.9768L36.5785 0Z" fill="white"/>
<path id="Vector_4" d="M51.4758 0L53.0787 4.94152H58.2614L54.0677 7.99598L55.6694 12.9387L51.4758 9.88421L47.2833 12.9387L48.885 7.99598L44.6914 4.94152H49.8741L51.4758 0Z" fill="white"/>
<path id="Subtract" d="M66.3711 0.00292969V9.88379H66.3701L62.1768 12.9385L63.7783 7.99609L59.5859 4.94141H64.7686L66.3701 0L66.3711 0.00292969Z" fill="white"/>
</g>
</svg>
