<svg preserveAspectRatio="none" width="100%" height="100%" overflow="visible" style="display: block;" viewBox="0 0 42.4545 43.5577" fill="none" xmlns="http://www.w3.org/2000/svg">
<g id="Group">
<path id="Vector" d="M40.7554 28.7171V8.60214C40.7554 7.61625 39.8453 6.83621 38.9046 6.83621L26.9999 6.8326C26.7489 6.58884 26.5088 6.1284 26.5268 5.86116C26.5449 5.59392 26.8825 4.95111 27.1678 4.95111L39.4589 4.98361C41.1526 4.98722 42.4545 6.60509 42.4545 8.2392V30.6004C42.4545 32.6498 40.8493 33.921 38.9028 33.921H3.55172C1.60523 33.921 0.0018075 32.6498 1.8529e-06 30.6004V8.24643C-0.0018038 6.55453 1.31632 5.06487 2.9721 4.98903C4.2162 4.93305 5.37001 4.94569 6.61952 4.99986C7.24969 5.02695 7.40137 6.68634 6.7712 6.74773C5.6878 6.85427 4.64233 6.83079 3.53366 6.85066C2.61459 6.86691 1.69912 7.59639 1.69912 8.60033L1.69551 28.634C1.69551 29.2335 2.19567 30.0298 2.89988 30.0298L26.9891 30.0443C27.1299 30.911 27.417 31.6314 27.8702 32.0431C28.5654 32.6751 29.3743 32.6119 30.2483 32.6787C31.9131 32.8051 33.3414 31.8878 33.345 30.0461L39.4372 30.028C40.0385 30.0262 40.7554 29.4809 40.7554 28.7171Z" fill="#F4A31D"/>
<path id="Vector_2" d="M14.6703 20.18C13.5671 19.7954 12.9279 19.5299 11.9312 19.037L10.1472 19.7954L8.04359 17.69L8.79655 15.906C8.3036 14.884 7.99845 14.1437 7.6319 13.1578L5.875 12.4807L5.89847 9.46523L7.65898 8.78991C8.03456 7.75889 8.33249 7.02579 8.78932 6.02546L8.05803 4.27939L10.1652 2.174L11.8878 2.93599C12.8069 2.48999 13.6194 2.1415 14.6595 1.7894L15.3456 0.0252791L18.3268 0L19.0797 1.8201C20.1126 2.14873 20.88 2.46652 21.8009 2.93057L23.5668 2.17762L25.6577 4.26856L24.9066 6.03991C25.3616 6.94093 25.6884 7.73902 26.0116 8.73394L27.2377 9.27744C23.2707 10.9729 21.3819 15.3462 22.9474 19.4451L21.6474 19.1146C20.8637 19.4884 19.9139 19.8766 19.0653 20.1745L18.3304 21.9621L15.3511 21.9459L14.6703 20.18ZM22.0067 10.9838C22.0067 8.13807 19.7009 5.83226 16.8552 5.83226C14.0095 5.83226 11.7036 8.13807 11.7036 10.9838C11.7036 13.8295 14.0095 16.1353 16.8552 16.1353C19.7009 16.1353 22.0067 13.8295 22.0067 10.9838Z" fill="#F4A31D"/>
<path id="Vector_3" d="M35.6429 43.5523L6.86439 43.5577C6.78133 42.7127 6.7398 41.8351 6.86078 40.9594C7.00523 39.8995 8.24211 39.1086 9.28938 39.1032L14.5402 39.0761L14.5474 35.3348H27.9002L27.9075 39.0761L33.1601 39.1032C34.1984 39.1086 35.4569 39.9031 35.5869 40.954C35.6862 41.7647 35.6573 42.3786 35.6447 43.5523H35.6429Z" fill="#F4A31D"/>
<path id="Vector_4" d="M30.6176 16.8503C30.6465 17.114 30.3142 17.4083 30.1391 17.3613C29.9784 17.318 29.7527 16.946 29.7707 16.7655C29.9098 15.3805 28.8408 14.3802 27.6238 14.3694C26.3093 14.3585 25.2819 15.534 25.4426 16.7908C25.6159 18.1287 26.7986 18.9955 28.3804 18.6831L28.4111 25.0299L26.3147 25.0065C26.3924 22.8271 25.5636 21.1352 24.5452 19.3548C23.0375 16.7221 23.9295 13.3871 26.136 11.5815C28.5104 9.63857 31.8761 9.6476 34.2144 11.5688C36.4733 13.425 37.3382 16.7384 35.8143 19.3819C34.7832 21.1713 33.996 22.8794 34.0411 25.0354L31.9917 24.9902L32.0061 18.6723C33.4597 18.981 34.655 18.2263 34.915 16.9623C35.1751 15.6983 34.2614 14.512 33.0336 14.382C31.71 14.2412 30.4424 15.2126 30.6176 16.8467V16.8503Z" fill="#F4A31D"/>
<path id="Vector_5" d="M29.7941 18.7247L29.793 25.0265L30.5911 25.0266L30.5922 18.7249L29.7941 18.7247Z" fill="#F4A31D"/>
<path id="Vector_6" d="M32.9077 27.1335L27.507 27.1227C27.1206 27.1227 26.671 26.8446 26.4453 26.4781H33.8936C33.6932 26.823 33.3375 27.036 32.9059 27.1335H32.9077Z" fill="#F4A31D"/>
<path id="Vector_7" d="M32.0183 29.1793L28.4106 29.1866C28.1199 29.1866 27.7064 28.9265 27.5078 28.5257L32.8128 28.5167C32.7839 28.7785 32.3271 29.1775 32.0201 29.1793H32.0183Z" fill="#F4A31D"/>
<path id="Vector_8" d="M28.4082 16.63C28.4263 16.8882 28.4552 17.2674 28.3342 17.2765L27.6517 17.3306C27.3664 17.3541 26.8193 16.9298 26.8283 16.6391C26.8391 16.2852 27.1641 15.8482 27.444 15.7976C27.9388 15.711 28.3685 16.0558 28.4082 16.63Z" fill="#F4A31D"/>
<path id="Vector_9" d="M32.5132 17.3306C32.2911 17.3198 32.0113 17.2765 32.0058 17.1862L31.9769 16.6409C31.9607 16.3321 32.3453 15.8049 32.6866 15.7868C33.0531 15.7669 33.4847 16.1208 33.5172 16.4441C33.5695 16.9587 33.1723 17.3613 32.5132 17.3288V17.3306Z" fill="#F4A31D"/>
<path id="Vector_10" d="M31.7639 30.6401C31.484 31.5068 29.0464 31.5718 28.5625 30.6184L31.7639 30.6401Z" fill="#F4A31D"/>
</g>
</svg>
