<svg preserveAspectRatio="none" width="100%" height="100%" overflow="visible" style="display: block;" viewBox="0 0 46 46" fill="none" xmlns="http://www.w3.org/2000/svg">
<g id="Group 295">
<path id="Vector" d="M23 0C10.2994 0 4.88311e-05 10.2994 4.88311e-05 23C4.88311e-05 35.7006 10.2994 46 23 46C35.7007 46 46 35.7006 46 23C46 10.2994 35.7007 0 23 0ZM23.4875 36.3913C23.4879 36.3913 23.4872 36.3913 23.4875 36.3913H23.4819C21.1779 36.3902 18.9139 35.8126 16.9033 34.7162L9.60596 36.6299L11.559 29.4986C10.3542 27.4118 9.72037 25.0443 9.72142 22.6189C9.72458 15.0313 15.8999 8.85838 23.4875 8.85838C27.1697 8.85979 30.6262 10.2931 33.225 12.894C35.8242 15.4952 37.2547 18.9528 37.2533 22.6297C37.2501 30.2177 31.0741 36.3913 23.4875 36.3913Z" fill="#F4A31D"/>
<path id="Vector_2" d="M23.4926 11.1836C17.1814 11.1836 12.0487 16.3142 12.0459 22.6208C12.0452 24.7819 12.6502 26.8866 13.7954 28.7077L14.0674 29.1404L12.9113 33.3613L17.2417 32.2256L17.6597 32.4734C19.4162 33.5157 21.43 34.0671 23.4831 34.0678H23.4876C29.7939 34.0678 34.9266 28.9369 34.9294 22.6299C34.9304 19.5735 33.7414 16.6999 31.5813 14.538C29.4212 12.3761 26.5483 11.1846 23.4926 11.1836ZM30.2224 27.5383C29.9357 28.3413 28.5617 29.0744 27.9009 29.1734C27.3081 29.2618 26.5585 29.2987 25.7344 29.0372C25.2347 28.8786 24.5942 28.667 23.7733 28.3129C20.3231 26.8234 18.0696 23.3504 17.8977 23.1209C17.7257 22.8914 16.4932 21.2563 16.4932 19.5636C16.4932 17.8713 17.3818 17.0392 17.6969 16.6953C18.0124 16.351 18.3851 16.265 18.6143 16.265C18.8435 16.265 19.073 16.2671 19.2734 16.277C19.4847 16.2875 19.7682 16.1966 20.0473 16.8673C20.334 17.5558 21.0219 19.2481 21.1078 19.4201C21.1938 19.5924 21.251 19.7932 21.1366 20.0227C21.0219 20.2522 20.6407 20.7474 20.2768 21.1987C20.1241 21.3879 19.9251 21.5563 20.1259 21.9006C20.3263 22.2446 21.0169 23.3708 22.0393 24.2825C23.3532 25.454 24.4615 25.8169 24.8055 25.9892C25.149 26.1612 25.3498 26.1324 25.5505 25.9032C25.7509 25.6737 26.4104 24.8992 26.6395 24.5549C26.8687 24.2106 27.0982 24.2681 27.4134 24.3829C27.7289 24.4973 29.4198 25.3294 29.7637 25.5014C30.1076 25.6737 30.3368 25.7597 30.4228 25.9032C30.5091 26.0468 30.5091 26.735 30.2224 27.5383Z" fill="#F4A31D"/>
</g>
</svg>
