<svg preserveAspectRatio="none" width="100%" height="100%" overflow="visible" style="display: block;" viewBox="0 0 55.907 57.4691" fill="none" xmlns="http://www.w3.org/2000/svg">
<g id="Group">
<path id="Vector" opacity="0.8" d="M3.09101 16.1052C3.03215 16.1446 3.02234 16.2495 2.90461 16.2069C2.77053 16.1577 2.81304 16.0528 2.81304 15.9741C2.81631 15.6299 3.06158 15.384 3.21855 15.1184C3.79084 14.148 4.33697 13.1578 5.01718 12.2562C5.56658 11.5251 6.1127 10.7973 6.70789 10.099C7.37174 9.31868 8.05849 8.57445 8.79756 7.86957C9.7165 6.9942 10.6943 6.20079 11.7146 5.45657C13.0423 4.48612 14.4518 3.6501 15.9201 2.9157C23.7392 -1.00214 33.6121 -0.985751 41.3625 3.05012C42.6935 3.74189 43.9656 4.53202 45.1527 5.45001C45.9474 6.0631 46.7289 6.69257 47.5171 7.31877C47.8408 7.5745 47.8474 7.86957 47.5367 8.16464C45.277 10.3022 43.1023 12.5284 40.9047 14.7283C40.5024 15.1282 40.1296 15.5577 39.747 15.9774C39.4821 16.2724 39.1649 16.3085 38.9262 15.9971C38.3016 15.184 37.4251 14.6988 36.5912 14.1676C35.015 13.1644 33.2752 12.5579 31.4439 12.253C30.8585 12.1546 30.2666 12.053 29.6485 12.0595C29.0763 12.0661 28.4876 11.9579 27.9088 11.9972C26.4895 12.0956 25.0898 12.2792 23.7131 12.6923C22.1793 13.1513 20.7764 13.8529 19.452 14.725C18.4774 15.3676 17.6076 16.1413 16.7867 16.9806C15.9659 17.8199 15.2366 18.7248 14.6153 19.7149C13.9318 20.8001 13.3301 21.9214 12.9736 23.1639C12.8755 23.5115 12.7382 23.5803 12.5518 23.3967C10.3607 21.6984 8.17622 19.9969 5.97862 18.3051C5.02045 17.5675 4.09824 16.7806 3.09428 16.1052H3.09101Z" fill="#E44135"/>
<path id="Vector_2" opacity="0.6" d="M12.5447 34.3345C12.7573 34.1509 12.875 34.2623 12.9404 34.4754C13.3361 35.7737 13.9705 36.954 14.6835 38.0949C15.1282 38.8064 15.6743 39.449 16.2139 40.0948C16.7339 40.7112 17.2996 41.2718 17.9046 41.7833C18.5881 42.3603 19.3206 42.8816 20.0891 43.3537C22.0938 44.5864 24.275 45.3012 26.5904 45.5929C27.4929 45.7077 28.4184 45.6913 29.3275 45.6552C31.6134 45.5667 33.8274 45.1438 35.9138 44.134C36.5449 43.8291 37.1532 43.4914 37.7451 43.1275C37.9282 43.016 38.059 42.9472 38.0819 43.2455C38.1702 43.3275 38.2553 43.4127 38.3501 43.4848C41.1919 45.6979 44.037 47.9109 46.8789 50.1239C47.0031 50.219 47.1601 50.2878 47.2157 50.455C47.2974 50.3894 47.3988 50.3599 47.4479 50.4648C47.5002 50.5796 47.4577 50.7107 47.3628 50.7927C47.0195 51.0878 46.6761 51.3796 46.3229 51.6615C45.5708 52.268 44.7957 52.8483 43.9847 53.3696C43.0952 53.9401 42.1665 54.4548 41.2115 54.9105C40.0146 55.4843 38.7752 55.9597 37.5064 56.3498C36.11 56.7793 34.694 57.176 33.242 57.3137C30.4034 57.5793 27.5518 57.4317 24.7067 57.3957C23.4869 57.3793 22.29 56.9891 21.0996 56.6777C19.9681 56.3793 18.8661 55.999 17.7771 55.5794C16.7045 55.1663 15.6612 54.6679 14.6671 54.0843C13.7187 53.5303 12.7671 52.986 11.8809 52.327C10.9554 51.6386 10.0659 50.9107 9.19928 50.1468C8.64007 49.655 8.11029 49.137 7.6034 48.5961C6.73352 47.6715 5.93559 46.6912 5.19652 45.652C4.41493 44.5536 3.68894 43.4291 3.06433 42.2357C2.96295 42.0423 2.72422 41.9243 2.76674 41.6554C2.77982 41.5669 2.75693 41.4751 2.87465 41.4292C3.00219 41.3767 3.03162 41.4784 3.09049 41.544C3.22457 41.4554 3.36192 41.3735 3.48946 41.2751C6.36072 39.0424 9.22871 36.8065 12.1032 34.5771C12.234 34.4754 12.342 34.3115 12.548 34.3312L12.5447 34.3345Z" fill="#34A050"/>
<path id="Vector_3" d="M47.2159 50.4585C47.1603 50.288 47.0034 50.2224 46.8791 50.1273C44.0373 47.9143 41.1922 45.7013 38.3503 43.4883C38.2555 43.4162 38.1737 43.3277 38.0822 43.249C37.7617 43.1867 37.899 43.0654 38.0397 42.9408C38.3863 42.6326 38.7951 42.4129 39.145 42.1048C39.9168 41.4261 40.6297 40.6983 41.2347 39.8688C42.1046 38.6787 42.7553 37.3771 43.1641 35.9575C43.2688 35.5969 43.2949 35.21 43.4552 34.9444C43.0464 35.0494 42.5493 34.9903 42.0653 35.0362C40.3256 35.2034 38.576 35.1018 36.8329 35.1182C34.9885 35.1346 33.1441 35.1182 31.2997 35.1248C30.4135 35.1248 29.5338 34.9444 28.641 35.0461C28.2813 35.0887 28.0949 34.7346 28.1112 34.4461C28.1439 33.8133 28.0949 33.1806 28.072 32.5446C27.9739 30.0168 27.9379 27.4891 28.1145 24.9613C28.1374 24.6302 28.1538 24.3023 28.1145 23.9679C28.0622 23.5614 28.2976 23.3089 28.7032 23.2925C34.9002 23.0532 41.0973 23.227 47.2944 23.1778C48.7366 23.1647 50.1755 23.1876 51.6177 23.1712C52.3927 23.1647 53.1677 23.204 53.9362 23.2729C54.2436 23.2991 54.5412 23.2958 54.8454 23.263C55.4209 23.2007 55.5779 23.3548 55.6564 23.9187C56.0815 27.0038 55.8362 30.1053 55.8395 33.2003C55.8395 35.0264 55.349 36.8099 54.8388 38.5639C54.2633 40.554 53.4751 42.4588 52.4646 44.2653C51.6373 45.7439 50.6987 47.1471 49.5836 48.4291C48.9622 49.1405 48.3736 49.8814 47.6509 50.4945C47.5691 50.5634 47.4874 50.6486 47.3892 50.6748C47.1963 50.7306 47.0884 50.6781 47.2159 50.4585Z" fill="#3F7FEE"/>
<path id="Vector_4" opacity="0.4" d="M12.5452 34.3337C12.3425 34.3108 12.2345 34.4747 12.1005 34.5796C9.22921 36.809 6.35794 39.045 3.48668 41.2777C3.35914 41.376 3.22179 41.458 3.08772 41.5465C3.12696 41.6514 3.09426 41.7563 2.99288 41.7563C2.8588 41.7563 2.74434 41.6809 2.68221 41.5432C1.76981 39.5728 0.965336 37.5598 0.471532 35.4419C0.187022 34.219 -0.0320837 32.983 0.00388886 31.7011C0.0594828 29.7208 0.0529423 27.7373 0.00388886 25.7538C-0.0288134 24.4293 0.242616 23.1638 0.559828 21.8983C0.906472 20.5278 1.3643 19.1902 1.90062 17.8788C2.14589 17.2788 2.42713 16.6952 2.68875 16.1018C2.75088 15.9641 2.83918 15.8756 2.99615 15.8985C3.12369 15.9149 3.12369 16.0035 3.08445 16.1018C4.08841 16.7805 5.01061 17.564 5.96879 18.3017C8.16311 19.9934 10.3509 21.695 12.5419 23.3933C12.7284 23.2261 12.7643 23.367 12.7774 23.5146C12.7905 23.7211 12.6989 23.908 12.6401 24.0982C12.1691 25.6981 11.9566 27.3242 11.9827 28.9996C12.0089 30.711 12.1986 32.3797 12.8068 33.9862C12.8624 34.1305 12.8363 34.2813 12.7316 34.3928C12.6531 34.478 12.5943 34.3829 12.5419 34.3305L12.5452 34.3337Z" fill="#F6D37D"/>
</g>
</svg>
