<svg preserveAspectRatio="none" width="100%" height="100%" overflow="visible" style="display: block;" viewBox="0 0 58.9997 58.9995" fill="none" xmlns="http://www.w3.org/2000/svg">
<g id="Group 266">
<path id="Vector" d="M0.0786666 40.914C0.113083 41.3467 0.426767 41.7056 0.851567 41.7971L4.27848 42.5365C4.39943 43.1206 4.55283 43.6969 4.73868 44.2593L2.14465 46.6095C1.8231 46.9006 1.73067 47.3686 1.9175 47.761C2.39147 48.7581 2.91952 49.6795 3.4869 50.4996C3.73273 50.8555 4.1831 51.0089 4.59708 50.8762L7.92763 49.8034C8.32588 50.2498 8.7497 50.6736 9.19613 51.0719L8.12332 54.4024C7.99057 54.8144 8.14298 55.2658 8.49993 55.5126C9.32003 56.08 10.2414 56.608 11.2385 57.082C11.6318 57.2688 12.0989 57.1754 12.39 56.8549L14.7402 54.2608C15.3036 54.4457 15.8798 54.6001 16.4639 54.721L17.2034 58.1479C17.2949 58.5718 17.6538 58.8854 18.0855 58.9208C18.6086 58.9621 19.1327 58.9995 19.6667 58.9995C20.2006 58.9995 20.7247 58.9621 21.2479 58.9208C21.6805 58.8864 22.0394 58.5727 22.1309 58.1479L22.8704 54.721C23.4545 54.6001 24.0317 54.4467 24.5941 54.2608L26.9443 56.8549C27.2364 57.1764 27.7044 57.2698 28.0958 57.082C29.0929 56.608 30.0143 56.079 30.8344 55.5126C31.1913 55.2658 31.3438 54.8144 31.211 54.4024L30.1382 51.0719C30.5846 50.6736 31.0084 50.2498 31.4067 49.8043L34.7372 50.8772C35.1492 51.0109 35.6006 50.8575 35.8474 50.5005C36.4148 49.6804 36.9428 48.7591 37.4168 47.762C37.6036 47.3696 37.5112 46.9016 37.1897 46.6105L34.5956 44.2603C34.7805 43.6969 34.9349 43.1206 35.0558 42.5365L38.4827 41.7971C38.9066 41.7056 39.2202 41.3467 39.2556 40.915C39.296 40.3909 39.3333 39.8668 39.3333 39.3328C39.3333 38.7989 39.296 38.2748 39.2547 37.7516C39.2202 37.319 38.9066 36.9601 38.4818 36.8686L35.0548 36.1291C34.9339 35.545 34.7805 34.9678 34.5946 34.4053L37.1887 32.0552C37.5102 31.7641 37.6027 31.2961 37.4158 30.9037C36.9419 29.9066 36.4128 28.9852 35.8464 28.1651C35.5996 27.8082 35.1483 27.6548 34.7362 27.7885L31.4057 28.8613C31.0074 28.4149 30.5836 27.9911 30.1372 27.5928L31.21 24.2623C31.3428 23.8502 31.1903 23.3989 30.8334 23.1521C30.0133 22.5847 29.0919 22.0566 28.0948 21.5827C27.7015 21.3949 27.2344 21.4883 26.9433 21.8098L24.5932 24.4039C24.0297 24.219 23.4535 24.0646 22.8694 23.9437L22.1299 20.5167C22.0385 20.0929 21.6795 19.7793 21.2479 19.7439C20.2006 19.6593 19.1317 19.6613 18.0845 19.7439C17.6518 19.7783 17.2929 20.0919 17.2014 20.5167L16.462 23.9437C15.8779 24.0646 15.3016 24.218 14.7392 24.4039L12.389 21.8098C12.0979 21.4883 11.6309 21.3958 11.2375 21.5827C10.2404 22.0566 9.31905 22.5847 8.49895 23.1521C8.142 23.3989 7.98958 23.8502 8.12233 24.2623L9.19515 27.5928C8.74872 27.9911 8.3249 28.4149 7.92665 28.8613L4.59708 27.7885C4.18408 27.6548 3.73273 27.8082 3.4869 28.1651C2.91952 28.9852 2.39147 29.9066 1.9175 30.9037C1.73067 31.2961 1.8231 31.7641 2.14465 32.0552L4.73868 34.4053C4.55382 34.9688 4.39943 35.545 4.27848 36.1291L0.851567 36.8686C0.42775 36.9601 0.114067 37.319 0.0786666 37.7506C0.0373666 38.2748 0 38.7989 0 39.3328C0 39.8668 0.0373666 40.3909 0.0786666 40.914ZM1.98732 38.6357L5.33262 37.9129C5.72792 37.8274 6.03078 37.5087 6.09568 37.1095C6.24318 36.2029 6.48115 35.313 6.8027 34.4634C6.94627 34.0858 6.84302 33.658 6.5431 33.3866L4.01692 31.0974C4.23718 30.6756 4.46728 30.2714 4.70525 29.8889L7.94632 30.9332C8.32982 31.0561 8.75265 30.9332 9.0093 30.6205C9.58947 29.9105 10.2444 29.2566 10.9543 28.6755C11.267 28.4198 11.3919 27.9979 11.267 27.6125L10.2227 24.3714C10.6052 24.1325 11.0084 23.9024 11.4312 23.6831L13.7204 26.2103C13.9928 26.5102 14.4216 26.6134 14.7982 26.4699C15.6458 26.1483 16.5357 25.9103 17.4433 25.7628C17.8426 25.6979 18.1612 25.3951 18.2467 24.9998L18.9685 21.6545C19.4317 21.6299 19.9027 21.6289 20.3638 21.6545L21.0866 24.9998C21.1721 25.3951 21.4907 25.6979 21.89 25.7628C22.7966 25.9103 23.6865 26.1483 24.5361 26.4699C24.9118 26.6134 25.3405 26.5112 25.6129 26.2103L27.9021 23.6841C28.3239 23.9043 28.7281 24.1344 29.1106 24.3724L28.0663 27.6135C27.9424 27.9989 28.0663 28.4198 28.379 28.6764C29.089 29.2566 29.7429 29.9115 30.324 30.6215C30.5807 30.9352 31.0025 31.06 31.387 30.9342L34.6281 29.8899C34.867 30.2724 35.0971 30.6756 35.3164 31.0974L32.7892 33.3866C32.4893 33.658 32.3861 34.0858 32.5296 34.4643C32.8512 35.312 33.0892 36.2019 33.2367 37.1095C33.3016 37.5087 33.6044 37.8274 33.9997 37.9129L37.345 38.6347C37.3578 38.8658 37.3667 39.0988 37.3667 39.3328C37.3667 39.5669 37.3588 39.7999 37.346 40.03L34.0007 40.7528C33.6054 40.8383 33.3025 41.1569 33.2376 41.5562C33.0901 42.4628 32.8522 43.3527 32.5306 44.2023C32.3871 44.5799 32.4903 45.0077 32.7902 45.2791L35.3164 47.5683C35.0961 47.9901 34.866 48.3943 34.6281 48.7768L31.387 47.7325C31.0006 47.6066 30.5807 47.7315 30.324 48.0452C29.7448 48.7532 29.0899 49.4081 28.379 49.9902C28.0663 50.2459 27.9424 50.6677 28.0663 51.0522L29.1106 54.2933C28.7281 54.5322 28.3249 54.7623 27.9031 54.9816L25.6139 52.4544C25.3425 52.1545 24.9147 52.0532 24.5361 52.1948C23.6885 52.5164 22.7986 52.7544 21.891 52.9019C21.4917 52.9668 21.1731 53.2696 21.0876 53.6649L20.3658 57.0102C19.9027 57.0348 19.4316 57.0358 18.9705 57.0102L18.2477 53.6649C18.1622 53.2696 17.8436 52.9668 17.4443 52.9019C16.5377 52.7544 15.6478 52.5164 14.7982 52.1948C14.4216 52.0513 13.9928 52.1535 13.7214 52.4544L11.4322 54.9806C11.0104 54.7603 10.6062 54.5303 10.2237 54.2923L11.268 51.0512C11.3919 50.6658 11.268 50.2449 10.9553 49.9882C10.2453 49.4081 9.59143 48.7532 9.01028 48.0432C8.75363 47.7295 8.3308 47.6056 7.9473 47.7305L4.70623 48.7748C4.46728 48.3923 4.23718 47.9891 4.0179 47.5663L6.54507 45.2771C6.84498 45.0057 6.94823 44.5779 6.80467 44.1994C6.48312 43.3517 6.24515 42.4618 6.09765 41.5542C6.03275 41.1549 5.72988 40.8364 5.33458 40.7508L1.98732 40.031C1.97552 39.7999 1.96667 39.5669 1.96667 39.3328C1.96667 39.0988 1.97453 38.8658 1.98732 38.6357Z" fill="white"/>
<path id="Vector_2" d="M51.3487 13.9973C51.7184 13.8812 51.9859 13.5577 52.0301 13.1722C52.0891 12.6757 52.1167 12.2263 52.1167 11.7995C52.1167 11.3727 52.0891 10.9234 52.0311 10.4268C51.9869 10.0413 51.7194 9.71779 51.3497 9.60176L48.6229 8.74528C48.5413 8.52206 48.4508 8.30278 48.3515 8.08841L49.6731 5.55632C49.852 5.21314 49.8127 4.79621 49.5728 4.49137C49.0034 3.77157 48.3485 3.11668 47.6268 2.54536C47.3219 2.30444 46.905 2.26609 46.5618 2.44408L44.0278 3.76568C43.8134 3.66734 43.5941 3.57687 43.3709 3.49526L42.5144 0.768475C42.3984 0.398742 42.0749 0.131275 41.6894 0.087025C40.6943 -0.0290083 39.9381 -0.0290083 38.943 0.087025C38.5575 0.131275 38.234 0.398742 38.1179 0.768475L37.2615 3.49526C37.0382 3.57687 36.8189 3.66734 36.6046 3.76666L34.0725 2.44506C33.7293 2.26708 33.3134 2.30543 33.0076 2.54536C32.2878 3.11471 31.6329 3.76961 31.0615 4.49137C30.8206 4.79621 30.7813 5.21216 30.9603 5.55632L32.2809 8.08841C32.1825 8.30278 32.0921 8.52206 32.0105 8.74528L29.2837 9.60176C28.9139 9.71779 28.6465 10.0413 28.6022 10.4268C28.5442 10.9234 28.5167 11.3727 28.5167 11.7995C28.5167 12.2263 28.5442 12.6757 28.6022 13.1722C28.6465 13.5577 28.9139 13.8812 29.2837 13.9973L32.0105 14.8537C32.0921 15.077 32.1825 15.2962 32.2818 15.5106L30.9603 18.0427C30.7813 18.3859 30.8206 18.8028 31.0606 19.1076C31.6299 19.8274 32.2848 20.4823 33.0066 21.0537C33.3104 21.2946 33.7283 21.3329 34.0715 21.1549L36.6036 19.8343C36.818 19.9327 37.0372 20.0231 37.2605 20.1047L38.117 22.8315C38.233 23.2013 38.5565 23.4687 38.942 23.513C39.4405 23.572 39.8899 23.5995 40.3167 23.5995C40.7434 23.5995 41.1928 23.572 41.6894 23.514C42.0749 23.4697 42.3984 23.2022 42.5144 22.8325L43.3709 20.1057C43.5941 20.0241 43.8134 19.9336 44.0278 19.8343L46.5598 21.1559C46.903 21.3349 47.32 21.2965 47.6248 21.0556C48.3446 20.4863 48.9995 19.8314 49.5708 19.1096C49.8117 18.8048 49.8511 18.3888 49.6721 18.0447L48.3505 15.5126C48.4498 15.2982 48.5403 15.0789 48.6219 14.8557L51.3487 13.9973ZM47.553 13.128C47.2423 13.2263 47.0004 13.4712 46.906 13.7839C46.7723 14.2283 46.5952 14.6561 46.3809 15.0563C46.2265 15.3434 46.2235 15.6886 46.375 15.9767L47.6228 18.3682C47.3898 18.6268 47.143 18.8736 46.8853 19.1057L44.4939 17.8578C44.2048 17.7064 43.8596 17.7103 43.5735 17.8637C43.1733 18.0781 42.7455 18.2551 42.301 18.3888C41.9893 18.4822 41.7435 18.7251 41.6452 19.0359L40.8349 21.6161C40.476 21.6378 40.1583 21.6378 39.7984 21.6161L38.9882 19.0359C38.8898 18.7251 38.645 18.4832 38.3323 18.3888C37.8868 18.2551 37.4591 18.0781 37.0608 17.8637C36.7737 17.7093 36.4286 17.7064 36.1395 17.8578L33.748 19.1057C33.4894 18.8726 33.2426 18.6258 33.0105 18.3682L34.2584 15.9767C34.4088 15.6886 34.4068 15.3425 34.2525 15.0563C34.0381 14.6561 33.8611 14.2283 33.7273 13.7839C33.6339 13.4722 33.391 13.2263 33.0803 13.128L30.5 12.3177C30.4882 12.1378 30.4833 11.9657 30.4833 11.7995C30.4833 11.6333 30.4882 11.4612 30.5 11.2813L33.0803 10.471C33.391 10.3727 33.6329 10.1278 33.7273 9.81514C33.8611 9.36969 34.0381 8.94194 34.2525 8.54369C34.4068 8.25656 34.4098 7.91141 34.2584 7.62231L33.0105 5.23084C33.2435 4.97223 33.4904 4.72541 33.748 4.49334L36.1395 5.74119C36.4276 5.89164 36.7737 5.88869 37.0599 5.73529C37.4601 5.52093 37.8878 5.34392 38.3323 5.21019C38.644 5.11677 38.8898 4.87389 38.9882 4.56316L39.7984 1.98289C40.1574 1.96126 40.475 1.96126 40.8349 1.98289L41.6452 4.56316C41.7435 4.87389 41.9883 5.11579 42.301 5.21019C42.7465 5.34392 43.1742 5.52093 43.5725 5.73529C43.8596 5.88968 44.2048 5.89263 44.4939 5.74119L46.8853 4.49334C47.144 4.72639 47.3908 4.97321 47.6228 5.23084L46.375 7.62231C46.2245 7.91042 46.2265 8.25656 46.3809 8.54271C46.5952 8.94293 46.7723 9.37068 46.906 9.81514C46.9994 10.1269 47.2423 10.3727 47.553 10.471L50.1333 11.2813C50.1451 11.4612 50.15 11.6333 50.15 11.7995C50.15 11.9657 50.1451 12.1378 50.1333 12.3177L47.553 13.128Z" fill="white"/>
<path id="Vector_3" d="M58.274 32.4141L56.5846 31.8143C56.4882 31.5399 56.3781 31.2715 56.2532 31.0109L57.0212 29.3933C57.1815 29.057 57.1372 28.6597 56.9071 28.3667C56.4155 27.7383 55.8471 27.169 55.2168 26.6754C54.9228 26.4453 54.5235 26.402 54.1892 26.5613L52.5706 27.3293C52.311 27.2054 52.0426 27.0943 51.7682 26.9989L51.1674 25.3095C51.0425 24.9585 50.7289 24.7077 50.3591 24.6625C49.483 24.5573 48.8487 24.5573 47.9726 24.6625C47.6028 24.7067 47.2892 24.9575 47.1643 25.3095L46.5644 26.9989C46.2901 27.0952 46.0216 27.2054 45.7611 27.3303L44.1435 26.5623C43.8091 26.403 43.4109 26.4472 43.1169 26.6763C42.4885 27.168 41.9192 27.7364 41.4255 28.3667C41.1964 28.6597 41.1522 29.058 41.3115 29.3943L42.0795 31.0128C41.9556 31.2724 41.8444 31.5409 41.7491 31.8152L40.0597 32.4161C39.7086 32.5409 39.4579 32.8546 39.4127 33.2244C39.3586 33.66 39.333 34.0504 39.333 34.4162C39.333 34.782 39.3586 35.1714 39.4117 35.6089C39.4559 35.9787 39.7067 36.2924 40.0587 36.4172L41.7481 37.0171C41.8444 37.2914 41.9546 37.5599 42.0795 37.8205L41.3115 39.438C41.1512 39.7743 41.1954 40.1716 41.4255 40.4646C41.9172 41.093 42.4856 41.6623 43.1159 42.156C43.4089 42.3851 43.8082 42.4293 44.1435 42.27L45.762 41.5021C46.0216 41.626 46.2901 41.7371 46.5644 41.8325L47.1653 43.5218C47.2901 43.8729 47.6038 44.1236 47.9736 44.1689C48.4111 44.2239 48.8005 44.2495 49.1663 44.2495C49.5321 44.2495 49.9215 44.2239 50.3591 44.1708C50.7289 44.1266 51.0425 43.8758 51.1674 43.5238L51.7673 41.8344C52.0416 41.7381 52.3101 41.6279 52.5706 41.503L54.1882 42.271C54.5235 42.4313 54.9228 42.388 55.2148 42.157C55.8432 41.6653 56.4125 41.0969 56.9062 40.4666C57.1353 40.1736 57.1795 39.7753 57.0202 39.439L56.2522 37.8205C56.3761 37.5609 56.4873 37.2924 56.5826 37.0181L58.272 36.4172C58.6231 36.2924 58.8738 35.9787 58.919 35.6089C58.9741 35.1714 58.9997 34.782 58.9997 34.4162C58.9997 34.0504 58.9741 33.661 58.921 33.2234C58.8768 32.8527 58.626 32.54 58.274 32.4141ZM57.0232 34.7751L55.4646 35.3287C55.1627 35.4359 54.9316 35.6837 54.8461 35.9924C54.7173 36.4595 54.5334 36.905 54.3003 37.317C54.143 37.5953 54.1312 37.9335 54.2679 38.2226L54.9739 39.7104C54.8107 39.8894 54.6396 40.0605 54.4616 40.2227L52.9738 39.5167C52.6867 39.38 52.3474 39.3918 52.0682 39.5492C51.6552 39.7832 51.2097 39.9661 50.7446 40.0949C50.4358 40.1805 50.188 40.4115 50.0799 40.7134L49.5262 42.272C49.2883 42.2848 49.0464 42.2848 48.8084 42.272L48.2548 40.7134C48.1476 40.4115 47.8998 40.1805 47.591 40.0949C47.124 39.9661 46.6785 39.7822 46.2665 39.5492C45.9882 39.3928 45.6509 39.381 45.3608 39.5167L43.8731 40.2227C43.6941 40.0595 43.523 39.8884 43.3607 39.7104L44.0668 38.2226C44.2044 37.9335 44.1917 37.5953 44.0343 37.317C43.8003 36.904 43.6174 36.4585 43.4886 35.9934C43.403 35.6847 43.1719 35.4369 42.8701 35.3287L41.3115 34.7751C41.3036 34.6561 41.2997 34.5371 41.2997 34.4162C41.2997 34.2952 41.3036 34.1752 41.3095 34.0572L42.8681 33.5026C43.17 33.3955 43.4011 33.1477 43.4856 32.8389C43.6154 32.3708 43.7993 31.9264 44.0324 31.5143C44.1897 31.2361 44.2015 30.8978 44.0648 30.6087L43.3588 29.1209C43.522 28.9419 43.6931 28.7708 43.8711 28.6086L45.3589 29.3146C45.648 29.4523 45.9862 29.4405 46.2645 29.2822C46.6775 29.0481 47.123 28.8652 47.5881 28.7364C47.8969 28.6509 48.1447 28.4198 48.2528 28.1179L48.8064 26.5593C49.0444 26.5465 49.2863 26.5465 49.5243 26.5593L50.0779 28.1179C50.1851 28.4198 50.4329 28.6509 50.7416 28.7364C51.2087 28.8652 51.6542 29.0491 52.0662 29.2822C52.3455 29.4405 52.6827 29.4523 52.9718 29.3146L54.4596 28.6086C54.6386 28.7718 54.8097 28.9429 54.9719 29.1209L54.2659 30.6087C54.1282 30.8978 54.141 31.2361 54.2984 31.5143C54.5324 31.9273 54.7153 32.3728 54.8441 32.8379C54.9297 33.1467 55.1607 33.3945 55.4626 33.5026L57.0212 34.0563C57.0291 34.1762 57.033 34.2952 57.033 34.4162C57.033 34.5371 57.0291 34.6561 57.0232 34.7751Z" fill="white"/>
<path id="Vector_4" d="M19.6663 50.1495C25.6302 50.1495 30.4829 45.2968 30.4829 39.3329C30.4829 33.3689 25.6302 28.5162 19.6663 28.5162C13.7024 28.5162 8.84961 33.3689 8.84961 39.3329C8.84961 45.2968 13.7024 50.1495 19.6663 50.1495ZM19.6663 30.4829C24.5456 30.4829 28.5163 34.4536 28.5163 39.3329C28.5163 44.2122 24.5456 48.1829 19.6663 48.1829C14.787 48.1829 10.8163 44.2122 10.8163 39.3329C10.8163 34.4536 14.787 30.4829 19.6663 30.4829Z" fill="white"/>
<path id="Vector_5" d="M0.0216365 22.9692L1.53204 24.2288C6.03472 18.8294 12.6437 15.7328 19.6667 15.7328C20.1672 15.7328 20.6667 15.7614 21.1663 15.7928L19.9548 17.0043L21.3452 18.3947L24.2952 15.4447C24.6797 15.0602 24.6797 14.4388 24.2952 14.0543L21.3452 11.1043L19.9548 12.4947L21.2911 13.8311C20.7503 13.7967 20.2085 13.7662 19.6667 13.7662C12.0596 13.7662 4.89897 17.1203 0.0216365 22.9692Z" fill="white"/>
<path id="Vector_6" d="M40.3171 6.88285C37.606 6.88285 35.4004 9.08847 35.4004 11.7995C35.4004 14.5106 37.606 16.7162 40.3171 16.7162C43.0281 16.7162 45.2337 14.5106 45.2337 11.7995C45.2337 9.08847 43.0281 6.88285 40.3171 6.88285ZM40.3171 14.7495C38.6906 14.7495 37.3671 13.426 37.3671 11.7995C37.3671 10.1731 38.6906 8.84952 40.3171 8.84952C41.9435 8.84952 43.2671 10.1731 43.2671 11.7995C43.2671 13.426 41.9435 14.7495 40.3171 14.7495Z" fill="white"/>
<path id="Vector_7" d="M49.1667 30.4828C46.9974 30.4828 45.2333 32.2469 45.2333 34.4162C45.2333 36.5854 46.9974 38.3495 49.1667 38.3495C51.3359 38.3495 53.1 36.5854 53.1 34.4162C53.1 32.2469 51.3359 30.4828 49.1667 30.4828ZM49.1667 36.3828C48.0821 36.3828 47.2 35.5008 47.2 34.4162C47.2 33.3316 48.0821 32.4495 49.1667 32.4495C50.2513 32.4495 51.1333 33.3316 51.1333 34.4162C51.1333 35.5008 50.2513 36.3828 49.1667 36.3828Z" fill="white"/>
<path id="Vector_8" d="M58.2097 2.96916L53.2931 1.98583C52.7581 1.87766 52.2419 2.22478 52.1357 2.75676L51.1523 7.67343L53.0807 8.05988L53.6107 5.41274C54.5635 7.39514 55.067 9.58011 55.067 11.7995C55.067 15.19 53.948 18.378 51.8318 21.0182L53.3668 22.2484C55.7317 19.2974 57.0337 15.5873 57.0337 11.7995C57.0337 9.22414 56.4387 6.68518 55.3069 4.39401L57.8243 4.89748L58.2097 2.96916Z" fill="white"/>
</g>
</svg>
