<svg preserveAspectRatio="none" width="100%" height="100%" overflow="visible" style="display: block;" viewBox="0 0 46 46" fill="none" xmlns="http://www.w3.org/2000/svg">
<g id="Group 294">
<path id="Vector" d="M27.4023 23C27.4023 25.4314 25.4314 27.4023 23 27.4023C20.5686 27.4023 18.5977 25.4314 18.5977 23C18.5977 20.5686 20.5686 18.5977 23 18.5977C25.4314 18.5977 27.4023 20.5686 27.4023 23Z" fill="#F4A31D"/>
<path id="Vector_2" d="M33.295 15.211C33.0834 14.6376 32.7458 14.1185 32.3071 13.6925C31.881 13.2538 31.3623 12.9162 30.7885 12.7045C30.3232 12.5238 29.6241 12.3087 28.3364 12.2501C26.9435 12.1865 26.5259 12.1729 22.9995 12.1729C19.4728 12.1729 19.0551 12.1862 17.6626 12.2497C16.3749 12.3087 15.6755 12.5238 15.2105 12.7045C14.6367 12.9162 14.1176 13.2538 13.6919 13.6925C13.2532 14.1185 12.9156 14.6372 12.7036 15.211C12.5229 15.6764 12.3077 16.3759 12.2491 17.6635C12.1856 19.0561 12.1719 19.4737 12.1719 23.0004C12.1719 26.5268 12.1856 26.9444 12.2491 28.3374C12.3077 29.625 12.5229 30.3241 12.7036 30.7895C12.9156 31.3633 13.2529 31.882 13.6915 32.308C14.1176 32.7467 14.6363 33.0843 15.2101 33.296C15.6755 33.4771 16.3749 33.6922 17.6626 33.7508C19.0551 33.8143 19.4724 33.8277 22.9991 33.8277C26.5262 33.8277 26.9439 33.8143 28.3361 33.7508C29.6237 33.6922 30.3232 33.4771 30.7885 33.296C31.9404 32.8517 32.8507 31.9413 33.295 30.7895C33.4758 30.3241 33.6909 29.625 33.7499 28.3374C33.8134 26.9444 33.8267 26.5268 33.8267 23.0004C33.8267 19.4737 33.8134 19.0561 33.7499 17.6635C33.6913 16.3759 33.4761 15.6764 33.295 15.211ZM22.9995 29.7819C19.2538 29.7819 16.2173 26.7458 16.2173 23.0001C16.2173 19.2544 19.2538 16.2183 22.9995 16.2183C26.7449 16.2183 29.7813 19.2544 29.7813 23.0001C29.7813 26.7458 26.7449 29.7819 22.9995 29.7819ZM30.0494 17.535C29.1742 17.535 28.4645 16.8254 28.4645 15.9501C28.4645 15.0749 29.1742 14.3652 30.0494 14.3652C30.9247 14.3652 31.6343 15.0749 31.6343 15.9501C31.634 16.8254 30.9247 17.535 30.0494 17.535Z" fill="#F4A31D"/>
<path id="Vector_3" d="M23 0C10.2994 0 0 10.2994 0 23C0 35.7006 10.2994 46 23 46C35.7006 46 46 35.7006 46 23C46 10.2994 35.7006 0 23 0ZM36.1274 28.445C36.0635 29.8509 35.8399 30.8108 35.5135 31.651C34.8274 33.425 33.425 34.8274 31.651 35.5135C30.8111 35.8399 29.8509 36.0631 28.4454 36.1274C27.037 36.1916 26.5871 36.207 23.0004 36.207C19.4133 36.207 18.9637 36.1916 17.555 36.1274C16.1494 36.0631 15.1892 35.8399 14.3494 35.5135C13.4678 35.1819 12.6697 34.6621 12.0099 33.9901C11.3382 33.3306 10.8185 32.5322 10.4868 31.651C10.1604 30.8111 9.93686 29.8509 9.87299 28.4454C9.80806 27.0367 9.79297 26.5867 9.79297 23C9.79297 19.4133 9.80806 18.9633 9.87263 17.555C9.93651 16.1491 10.1597 15.1892 10.4861 14.349C10.8177 13.4678 11.3379 12.6694 12.0099 12.0099C12.6694 11.3379 13.4678 10.8181 14.349 10.4865C15.1892 10.1601 16.1491 9.93686 17.555 9.87263C18.9633 9.80841 19.4133 9.79297 23 9.79297C26.5867 9.79297 27.0367 9.80841 28.445 9.87299C29.8509 9.93686 30.8108 10.1601 31.651 10.4861C32.5322 10.8177 33.3306 11.3379 33.9904 12.0099C34.6621 12.6697 35.1823 13.4678 35.5135 14.349C35.8403 15.1892 36.0635 16.1491 36.1277 17.555C36.1919 18.9633 36.207 19.4133 36.207 23C36.207 26.5867 36.1919 27.0367 36.1274 28.445Z" fill="#F4A31D"/>
</g>
</svg>
