<svg preserveAspectRatio="none" width="100%" height="100%" overflow="visible" style="display: block;" viewBox="0 0 66.3711 12.9387" fill="none" xmlns="http://www.w3.org/2000/svg">
<g id="Group 300">
<path id="Vector" d="M6.78556 0L8.38725 4.94152H13.57L9.37633 7.99598L10.978 12.9387L6.78556 9.88421L2.59194 12.9387L4.19363 7.99598L0 4.94152H5.18387L6.78556 0Z" fill="white"/>
<path id="Vector_2" d="M21.6809 0L23.2826 4.94152H28.4664L24.2728 7.99598L25.8745 12.9387L21.6809 9.88421L17.4873 12.9387L19.0889 7.99598L14.8965 4.94152H20.0792L21.6809 0Z" fill="white"/>
<path id="Vector_3" d="M36.5785 0L38.1802 4.94152H43.3629L39.1705 7.99598L40.7722 12.9387L36.5785 9.88421L32.3849 12.9387L33.9866 7.99598L29.793 4.94152H34.9768L36.5785 0Z" fill="white"/>
<path id="Vector_4" d="M51.474 1.72159e-05L53.0769 4.94154H58.2596L54.0659 7.99599L55.6676 12.9387L51.474 9.88423L47.2815 12.9387L48.8832 7.99599L44.6896 4.94154H49.8723L51.474 1.72159e-05Z" fill="white"/>
<path id="Subtract" d="M66.3711 0.00292969V9.88379H66.3701L62.1768 12.9385L63.7783 7.99609L59.5859 4.94141H64.7686L66.3701 0L66.3711 0.00292969Z" fill="white"/>
</g>
</svg>
