<svg preserveAspectRatio="none" width="100%" height="100%" overflow="visible" style="display: block;" viewBox="0 0 59.99 54" fill="none" xmlns="http://www.w3.org/2000/svg">
<g id="Group 267">
<path id="Vector" d="M55 0H5C2.24 0 0 2.24 0 5V39C0 41.76 2.24 44 5 44H21.21L18.32 49.65C17.85 50.58 17.89 51.66 18.43 52.55C18.99 53.46 19.96 54 21.04 54H38.95C40.03 54 41 53.46 41.56 52.55C42.1 51.66 42.15 50.58 41.67 49.65L38.78 44H54.99C57.75 44 59.99 41.76 59.99 39V5C59.99 2.24 57.75 0 54.99 0H55ZM58 5V36H35V2H55C56.65 2 58 3.35 58 5ZM5 2H33V36H2V5C2 3.35 3.35 2 5 2ZM39.89 50.56C40.11 51 39.94 51.37 39.85 51.51C39.76 51.66 39.49 52 38.95 52H21.04C20.5 52 20.23 51.65 20.14 51.51C20.06 51.37 19.88 51 20.1 50.56L23.45 44H36.53L39.88 50.56H39.89ZM58 39C58 40.65 56.65 42 55 42H5C3.35 42 2 40.65 2 39V38H58V39Z" fill="white"/>
<path id="Vector_2" d="M7 19H29C30.1 19 31 18.1 31 17V7C31 5.9 30.1 5 29 5H7C5.9 5 5 5.9 5 7V17C5 18.1 5.9 19 7 19ZM7 7H29V17H7V7Z" fill="white"/>
<path id="Vector_3" d="M7 33H15C16.1 33 17 32.1 17 31V23C17 21.9 16.1 21 15 21H7C5.9 21 5 21.9 5 23V31C5 32.1 5.9 33 7 33ZM7 23H15V31H7V23Z" fill="white"/>
<path id="Vector_4" d="M29 21H21C19.9 21 19 21.9 19 23V31C19 32.1 19.9 33 21 33H29C30.1 33 31 32.1 31 31V23C31 21.9 30.1 21 29 21ZM21 31V23H29V31H21Z" fill="white"/>
<path id="Vector_5" d="M54 31H39C38.45 31 38 31.45 38 32C38 32.55 38.45 33 39 33H54C54.55 33 55 32.55 55 32C55 31.45 54.55 31 54 31Z" fill="white"/>
<path id="Vector_6" d="M54 26H39C38.45 26 38 26.45 38 27C38 27.55 38.45 28 39 28H54C54.55 28 55 27.55 55 27C55 26.45 54.55 26 54 26Z" fill="white"/>
<path id="Vector_7" d="M54 21H39C38.45 21 38 21.45 38 22C38 22.55 38.45 23 39 23H54C54.55 23 55 22.55 55 22C55 21.45 54.55 21 54 21Z" fill="white"/>
<path id="Vector_8" d="M50.3989 15.8C50.5789 15.93 50.7889 16 50.9989 16C51.2989 16 51.5989 15.86 51.7989 15.6L54.7989 11.6C55.0689 11.24 55.0689 10.76 54.7989 10.4L51.7989 6.40003C51.4689 5.96003 50.8389 5.87003 50.3989 6.20003C49.9589 6.53003 49.8689 7.16003 50.1989 7.60003L52.7489 11L50.1989 14.4C49.8689 14.84 49.9589 15.47 50.3989 15.8Z" fill="white"/>
<path id="Vector_9" d="M37.2005 11.6L40.2005 15.6C40.4005 15.86 40.7005 16 41.0005 16C41.2105 16 41.4205 15.93 41.6005 15.8C42.0405 15.47 42.1305 14.84 41.8005 14.4L39.2505 11L41.8005 7.60003C42.1305 7.16003 42.0405 6.53003 41.6005 6.20003C41.1605 5.87003 40.5305 5.96003 40.2005 6.40003L37.2005 10.4C36.9305 10.76 36.9305 11.24 37.2005 11.6Z" fill="white"/>
<path id="Vector_10" d="M44.7589 15.97C44.8389 15.99 44.9189 16 44.9989 16C45.4489 16 45.8589 15.7 45.9689 15.24L47.9689 7.24C48.0989 6.7 47.7789 6.16 47.2389 6.03C46.6989 5.89 46.1589 6.22 46.0289 6.76L44.0289 14.76C43.8989 15.3 44.2189 15.84 44.7589 15.97Z" fill="white"/>
</g>
</svg>
